<svg width="16" height="12" viewBox="0 0 16 12" fill="none" xmlns="http://www.w3.org/2000/svg">
<path d="M8.00012 5.03429L15.303 0.342857C15.0094 0.122637 14.6528 0.00245774 14.2858 0H1.71441C1.3474 0.00245774 0.99087 0.122637 0.697266 0.342857L8.00012 5.03429Z" fill="#FF0000"/>
<path d="M8.30857 6.19429L8.21143 6.24001H8.16572C8.1131 6.26351 8.05723 6.27892 8 6.28572C7.95257 6.2917 7.90457 6.2917 7.85714 6.28572H7.81143L7.71429 6.24001L0.0571428 1.29143C0.0205589 1.42946 0.00136269 1.57151 0 1.71429V9.71429C0 10.1689 0.180612 10.605 0.502103 10.9265C0.823594 11.248 1.25963 11.4286 1.71429 11.4286H14.2857C14.7404 11.4286 15.1764 11.248 15.4979 10.9265C15.8194 10.605 16 10.1689 16 9.71429V1.71429C15.9986 1.57151 15.9794 1.42946 15.9429 1.29143L8.30857 6.19429Z" fill="#FF0000"/>
</svg>
