<svg width="10" height="13" viewBox="0 0 10 13" fill="none" xmlns="http://www.w3.org/2000/svg">
<path d="M5.85793 13C5.75659 13 5.66151 12.9373 5.6246 12.8363C4.75356 10.4501 4.86726 7.70764 5.9133 5.39214C4.76559 5.69363 3.47369 6.01874 2.2281 5.68768C1.37057 5.45991 0.579776 4.78455 0.213793 3.96721C-0.0694684 3.33499 -0.0712806 2.68062 0.20852 2.12476C0.787402 0.973866 2.20503 0.681808 3.51538 0.547926L8.07064 0.0813167C8.4498 0.0424744 8.884 0.00561975 9.30947 0C9.44673 0.00049586 9.55763 0.112395 9.55714 0.250079C9.55665 0.387432 9.44542 0.498503 9.30865 0.498503C9.30518 0.498999 9.29563 0.498503 9.28904 0.498503C8.89109 0.498503 8.48226 0.540318 8.12106 0.577177L3.5658 1.04379C2.38925 1.16411 1.1229 1.41336 0.65195 2.34938C0.381541 2.88656 0.510895 3.41449 0.66678 3.76308C0.973935 4.44869 1.63653 5.01513 2.35498 5.20587C3.50302 5.51082 4.70478 5.19463 5.86716 4.88901C6.01744 4.84951 6.16608 4.81034 6.31257 4.77315C6.40798 4.74951 6.50816 4.78356 6.5688 4.86058C6.62944 4.93794 6.63917 5.04372 6.59336 5.13083C5.39258 7.42021 5.2049 10.2367 6.0911 12.6649C6.13823 12.7942 6.07198 12.9373 5.94312 12.9846C5.91528 12.995 5.88627 13 5.85793 13Z" fill="#BF453F"/>
</svg>
