<svg width="16" height="16" viewBox="0 0 16 16" fill="none" xmlns="http://www.w3.org/2000/svg">
<path d="M14.4323 10.9109L12.17 10.6526C11.904 10.6213 11.6343 10.6508 11.3813 10.7387C11.1283 10.8266 10.8986 10.9708 10.7093 11.1602L9.07041 12.7991C6.54193 11.5131 4.48677 9.45798 3.20082 6.9295L4.84858 5.28174C5.23157 4.89875 5.41862 4.36434 5.35627 3.82103L5.09797 1.57651C5.04747 1.14201 4.83895 0.741259 4.51211 0.45055C4.18527 0.159842 3.76293 -0.000518604 3.32551 1.26004e-06H1.78464C0.778165 1.26004e-06 -0.0590758 0.837242 0.0032719 1.84371C0.475333 9.45013 6.55869 15.5246 14.1562 15.9966C15.1627 16.059 15.9999 15.2218 15.9999 14.2153V12.6744C16.0088 11.7748 15.3319 11.0177 14.4323 10.9109Z" fill="white"/>
</svg>
