<svg width="3" height="4" viewBox="0 0 3 4" fill="none" xmlns="http://www.w3.org/2000/svg">
<path d="M0.759669 0.437407C0.917791 0.437407 1.07608 0.437407 1.23421 0.437407C1.23609 0.654482 1.40481 0.568234 1.51507 0.599098C1.6219 0.628933 1.72173 0.684143 1.85421 0.740726C1.85421 0.485929 1.85421 0.256341 1.85421 0C2.01063 0.0461242 2.1414 0.0701283 2.25901 0.123283C2.40106 0.187411 2.28465 0.501023 2.58995 0.450955C2.70824 0.431579 2.85149 0.566348 3.00004 0.63905C2.86551 0.781537 2.76107 0.892303 2.63799 1.02244C2.67662 1.18671 2.71833 1.36349 2.77936 1.62309C2.46636 1.43997 2.21473 1.29285 1.97405 1.15207C1.70361 1.18774 1.4178 1.22563 1.12839 1.26387C0.763942 1.49501 0.93916 1.77278 1.08925 2.06187C0.917279 2.18601 0.746507 2.30947 0.549752 2.45161C0.625992 2.56889 0.679155 2.65085 0.714711 2.70555C0.595906 3.00064 0.479154 3.29059 0.343938 3.62632C0.237954 3.56768 0.115728 3.49978 0 3.43582C0.150942 3.13799 0.290091 2.86347 0.433512 2.58055C0.335733 2.47596 0.233678 2.36656 0.0976081 2.22082C0.222225 2.12737 0.347014 2.03375 0.490093 1.92658C0.423596 1.81067 0.375049 1.72631 0.326501 1.64195C0.401887 1.43345 0.48223 1.2114 0.551974 1.01833C0.514538 0.872929 0.478981 0.734382 0.443254 0.595838C0.563256 0.572176 0.746164 0.674887 0.759669 0.437407Z" fill="#F57D77"/>
</svg>
