<svg width="17" height="23" viewBox="0 0 17 23" fill="none" xmlns="http://www.w3.org/2000/svg">
<path d="M14.0588 15.8804C13.9598 15.9393 13.859 15.9393 13.758 15.9393C13.8041 15.86 13.85 15.7805 13.8971 15.6993C13.8328 15.6348 13.7624 15.5642 13.7385 15.5403C13.329 15.6487 12.9513 15.7487 12.4967 15.869C12.6464 15.9584 12.7681 16.0309 12.8722 16.093C12.74 16.3357 12.4687 16.4228 12.5474 16.6985C12.4732 16.6985 12.3987 16.6985 12.3245 16.6985C12.1077 15.9644 12.1077 15.9644 12.2263 15.484C12.0237 15.484 11.8315 15.484 11.6326 15.4919C11.6356 15.49 11.6454 15.4802 11.6553 15.4703C11.62 15.4289 11.585 15.3876 11.5498 15.3462C11.5339 15.3621 11.5181 15.3782 11.5021 15.3941C11.5433 15.4294 11.5845 15.4646 11.6326 15.492C11.6868 15.6382 11.7344 15.7922 11.7978 15.9981C11.4727 16.2008 11.6985 16.5495 11.551 17.0381C11.5813 17.116 11.6376 17.0853 11.6344 17.0631C11.6242 16.9904 11.5925 16.9209 11.569 16.8503C11.543 16.9419 11.5171 17.0333 11.551 17.0381C11.7928 16.8652 11.946 16.8801 12.2487 16.9096C12.0156 17.0808 11.9031 17.1633 11.8088 17.2326C11.8549 17.4672 11.8986 17.6901 11.9423 17.9129C11.819 17.9719 11.6955 18.0308 11.4645 18.1411C11.5273 17.9203 11.5611 17.8014 11.6039 17.6516C11.4535 17.5234 11.4018 17.2897 11.299 17.0862C11.1596 16.81 11.1893 16.6591 11.3277 16.4333C11.3836 16.3421 11.3894 16.1437 11.3277 16.0694C11.0735 15.7629 11.2552 15.4001 11.1621 15.0851C11.0336 15.0196 10.9091 14.956 10.7656 14.8829C10.4083 14.978 10.0597 15.2113 9.63912 15.1872C9.60257 15.1852 9.56034 15.2815 9.52096 15.332C9.16249 15.3846 9.28464 15.7587 9.11258 15.9984C8.96606 15.8762 8.84573 15.7759 8.6433 15.6072C8.83488 15.5277 8.93085 15.4879 9.0445 15.4408C9.05068 15.3812 9.05784 15.3126 9.06585 15.2359C8.90597 15.2699 8.75945 15.301 8.61276 15.3322C8.61276 15.258 8.61276 15.1837 8.61276 15.0654C8.36059 15.1067 8.10675 15.3195 7.82989 15.0821C7.97758 14.7843 8.12895 14.4791 8.28365 14.1673C8.23008 14.1135 8.16034 14.0436 8.10477 13.9878C7.91719 14.0836 7.73527 14.1765 7.5532 14.2694C7.52549 14.0179 7.32691 14.1582 7.1687 14.1037C7.09026 14.2098 7.00131 14.3303 6.90101 14.4659C6.80305 14.3511 6.73897 14.2761 6.66187 14.1858C6.7902 13.9903 6.92988 13.7774 7.07574 13.5553C6.75549 13.4429 6.43556 13.4945 6.13533 13.6967C6.05106 13.5956 5.98681 13.5186 5.91438 13.4316C5.95276 13.262 6.41804 13.0114 6.75782 13.0653C7.05254 13.1122 7.33291 13.2489 7.62346 13.3472C7.77049 13.0911 7.95039 12.8296 7.82606 12.4936C7.5537 12.5063 7.41201 12.6908 7.28567 12.9474C7.03067 12.7852 6.79169 12.6332 6.54236 12.4745C6.52367 12.5305 6.49481 12.6168 6.45876 12.7245C6.40018 12.734 6.33159 12.7452 6.18657 12.7687C6.23063 12.6085 6.26367 12.4889 6.26918 12.4688C6.23647 12.2059 6.21377 12.0229 6.19107 11.8401C6.24147 11.8018 6.29187 11.7636 6.34244 11.7253C6.29204 11.6623 6.24164 11.5994 6.19107 11.5365C6.24147 11.3846 6.29204 11.2328 6.34244 11.081C6.67053 11.1449 6.62096 11.4641 6.70157 11.7074C6.77417 11.6346 6.80989 11.5989 6.88115 11.5272C7.04103 11.7276 7.19807 11.9241 7.37313 12.1434C7.40217 12.1434 7.47776 12.1434 7.55336 12.1434C7.57005 12.1855 7.58658 12.2273 7.60327 12.2693C7.63715 12.2273 7.67102 12.1854 7.67936 12.1305C7.84808 12.1177 7.99127 12.1177 8.26697 12.1177C8.09457 11.9802 8.01013 11.9131 7.92635 11.8463C7.84641 11.926 7.77532 11.9968 7.67936 12.1305C7.65433 12.1434 7.60376 12.1434 7.55336 12.1434C7.55336 11.9513 7.55336 11.7591 7.55336 11.5892C7.35009 11.4909 7.24997 11.4089 7.09593 11.2418C7.25047 11.2305 7.39916 11.211 7.68003 11.1745C7.42837 11.0446 7.29836 10.9775 7.12062 10.8859C7.10794 11.0507 7.10094 11.1416 7.09593 11.2418C6.78152 11.349 6.71942 10.9126 6.4227 10.9228C6.39767 10.9722 6.37015 11.0266 6.34278 11.081C6.24198 11.0304 6.141 10.9797 6.04003 10.9291C6.06957 10.8659 6.09912 10.8026 6.10213 10.7961C5.95911 10.6526 5.81391 10.507 5.66855 10.3612C5.69726 10.3307 5.72612 10.3002 5.75483 10.2698C5.74231 10.1511 5.7298 10.0324 5.71461 9.8896C5.54189 9.8896 5.37449 9.8896 5.16755 9.8896C5.14735 9.68053 5.12916 9.49254 5.11448 9.34171C4.95126 9.23876 4.81242 9.15121 4.69109 9.07471C4.62834 8.45835 4.7056 7.92603 5.2832 7.49013C5.2832 7.32022 5.2832 7.07532 5.2832 6.83042C5.37148 6.83042 5.45978 6.83042 5.58595 6.83042C5.58595 6.70404 5.58595 6.61549 5.58595 6.54334C5.67423 6.49245 5.74683 6.43721 5.81692 6.38381C5.86916 6.42951 5.92071 6.47453 5.97244 6.51973C5.91804 6.45712 5.86381 6.39453 5.8094 6.33192C5.94058 6.32255 6.07176 6.31317 6.20293 6.30379C6.1814 6.27584 6.15986 6.24789 6.13833 6.21993C5.95325 6.22981 5.76801 6.23951 5.58611 6.24905C5.58611 6.37677 5.58611 6.45178 5.58611 6.54334C5.48531 6.62805 5.38435 6.72931 5.28338 6.83042C5.13202 6.83042 4.98064 6.83042 4.82927 6.83042C4.87967 6.72915 4.93024 6.62804 4.97263 6.5199C4.97463 6.52292 4.98448 6.53279 4.99433 6.54267C5.03555 6.50735 5.07676 6.47202 5.11798 6.43687C5.10213 6.42097 5.08613 6.40491 5.07027 6.389C5.03506 6.43035 5 6.47169 4.97263 6.5199C4.82927 6.47621 4.67791 6.42549 4.52655 6.37493C4.47615 6.32438 4.42575 6.27366 4.37518 6.22311C4.43993 6.12552 4.50486 6.02776 4.56961 5.93016C4.72916 5.76411 5.03788 6.11212 5.14485 5.76075C5.22079 5.80126 5.29388 5.85634 5.40036 5.93686C5.47028 5.66701 5.46979 5.45593 5.15771 5.32553C5.15771 5.48003 5.15771 5.62399 5.14469 5.76075C4.97947 5.71824 4.8271 5.66885 4.63719 5.60725C4.72931 5.49828 4.77271 5.44689 4.7672 5.45359C4.7163 5.34813 4.66706 5.24601 4.63435 5.17822C4.50352 5.25036 4.42242 5.29489 4.34548 5.33725C4.0596 5.14591 4.00052 4.73595 3.61835 4.70498C3.61835 4.60387 3.61835 4.5026 3.61835 4.40133C3.66875 4.35077 3.71914 4.30006 3.76971 4.2495C3.92108 4.2495 4.07245 4.2495 4.22382 4.2495C4.22382 4.44435 4.22382 4.63903 4.22382 4.80726C4.39621 4.88025 4.51587 4.93063 4.72114 5.01751C4.64988 4.83354 4.60497 4.71771 4.55391 4.5858C4.77153 4.43765 5.00218 4.2808 5.21479 4.136C5.30491 4.18639 5.38617 4.23158 5.4344 4.25853C5.5624 4.16797 5.65637 4.10135 5.75033 4.03489C5.6819 3.96626 5.64636 3.93061 5.58929 3.87336C5.74399 3.68855 6.02602 3.53371 5.83143 3.19607C5.78036 3.23775 5.73782 3.29634 5.68308 3.31174C5.59046 3.33768 5.49015 3.33635 5.35464 3.35058C5.2747 3.23123 5.18842 3.10266 5.0968 2.96606C5.24082 2.89877 5.33277 2.85575 5.42456 2.81273C5.42022 2.78562 5.41572 2.75866 5.41138 2.73154C5.26786 2.73154 5.12416 2.73154 4.98064 2.73154C4.98064 2.63077 4.98064 2.53 4.98064 2.37332C5.10797 2.28426 5.26969 2.1711 5.52102 1.9955C5.52135 1.9955 5.69025 1.9955 6.04822 1.9955C5.78755 2.14063 5.66322 2.20994 5.53104 2.28343C5.79306 2.59177 6.13951 2.69756 6.23764 3.08358C6.36514 2.66408 6.84143 2.65036 6.95241 2.27255C6.90401 2.17914 6.85028 2.07585 6.7887 1.96571C6.7907 1.96872 6.80053 1.97859 6.81038 1.98847C6.8516 1.95315 6.89283 1.91799 6.93406 1.88267C6.9182 1.86677 6.90218 1.8507 6.88632 1.83479C6.85111 1.87614 6.81607 1.9175 6.7887 1.96571C6.70326 1.97257 6.60963 1.97256 6.44908 1.97256C6.54571 1.73854 6.61364 1.57383 6.69224 1.38367C6.80289 1.38367 6.92121 1.38367 6.95926 1.38367C7.18539 1.5827 7.36645 1.74189 7.54819 1.90192C7.50596 1.94427 7.47026 1.9801 7.37831 2.07233C7.47627 2.1254 7.57472 2.1788 7.68386 2.23789C7.69471 2.08355 7.70807 1.89456 7.72076 1.71629C7.76048 1.69971 7.78283 1.6818 7.79501 1.68716C7.81654 1.6967 7.82973 1.72331 7.84975 1.73804C8.70371 2.36661 9.51813 3.04139 10.2299 3.83167C10.2851 3.89311 10.2731 4.01565 10.3025 4.15944C9.79382 4.23326 9.7274 4.74366 9.43902 5.04815C9.15749 5.34528 9.01478 5.77465 8.77296 6.21591C8.77296 6.27885 8.77296 6.42784 8.77296 6.61047C8.66916 6.69249 8.55169 6.78539 8.50363 6.82339C8.43053 7.31755 8.34724 7.72249 8.3167 8.13144C8.28666 8.53252 8.3102 8.93761 8.3102 9.28563C8.58723 9.7972 8.82555 10.2636 8.76113 10.776C8.9654 11.0624 9.22274 11.2927 9.31302 11.5766C9.4986 12.1608 9.96887 12.4004 10.4261 12.6779C10.3906 12.7138 10.3549 12.7494 10.314 12.7904C10.5345 12.9741 10.7547 13.1577 10.9752 13.3415C11.0101 13.3063 11.0458 13.2707 11.1137 13.2025C11.4952 13.7044 12.0434 13.8916 12.6382 13.9803C12.7822 14.2496 13.0952 13.7309 13.2167 14.105C13.4668 14.109 13.7168 14.1145 13.967 14.1167C14.1936 14.1187 14.4214 14.1316 14.6464 14.1132C14.8819 14.0939 15.106 14.1448 15.3548 13.9925C15.6003 13.8422 15.9523 13.867 16.2784 13.8114C16.4452 14.4453 16.6125 15.0806 16.7927 15.7649C16.667 15.7746 16.5499 15.7836 16.4304 15.7928C16.3254 15.9176 16.2168 16.0465 16.0371 16.2599C16.0379 16.2532 16.0242 16.3725 16.0077 16.5163C15.8718 16.5359 15.7331 16.556 15.4838 16.592C15.6774 16.7167 15.7981 16.7944 15.9149 16.8697C15.5671 17.242 15.8329 17.6411 15.6964 17.959C15.8166 18.0795 15.9055 18.1687 15.992 18.2554C15.992 18.4459 15.992 18.6334 15.992 18.8216C15.9059 18.8216 15.8558 18.8216 15.7715 18.8216C15.6949 18.6162 15.6136 18.3982 15.5073 18.1133C15.3605 18.0306 15.0663 17.9627 15.1203 17.6086C15.1946 17.6086 15.2689 17.6086 15.3955 17.6086C15.4061 17.4282 15.4167 17.2445 15.4304 17.0075C15.2539 16.9363 15.0841 16.8679 14.8511 16.774C14.8405 16.7504 14.7944 16.6477 14.7198 16.482C14.6784 16.6983 14.6487 16.8533 14.6178 17.0142C14.0591 16.9685 14.339 16.2848 13.9082 16.2028C13.969 16.098 14.0149 16.0187 14.0588 15.8804C14.0594 15.8652 14.0621 15.9087 14.0646 15.9524C14.1627 15.9331 14.261 15.9139 14.3592 15.8946C14.3547 15.862 14.3503 15.8293 14.346 15.7965C14.2495 15.8049 14.1531 15.8133 14.0588 15.8804ZM6.17722 8.97226C6.18707 8.96239 6.19691 8.95251 6.20676 8.94263C6.17155 8.90129 6.13634 8.85994 6.10129 8.8186C6.08544 8.8345 6.06958 8.85057 6.05356 8.86648C6.09478 8.9018 6.13601 8.93695 6.255 8.8725C6.16922 9.09514 6.11981 9.22319 6.0554 9.39059C6.16254 9.44449 6.29655 9.51212 6.57074 9.65039C6.43556 9.31761 6.36063 9.13313 6.17722 8.97226ZM7.21659 4.24649C7.17304 4.24866 7.12947 4.251 7.08574 4.25318C7.1051 4.35211 7.1243 4.45104 7.14366 4.5498C7.1762 4.54545 7.20874 4.54093 7.24145 4.53658C7.2331 4.43983 7.22494 4.34324 7.05822 4.2505C7.1168 3.94936 7.17337 3.65792 7.22945 3.36949C7.08309 3.49973 6.94925 3.61892 6.82608 3.72856C6.87498 3.80423 6.92487 3.88173 6.96575 3.94484C6.90067 4.06118 6.85728 4.13868 6.79453 4.25067C6.9257 4.2505 6.97528 4.25051 7.21659 4.24649ZM5.43424 9.07321C5.43424 8.95369 5.46479 8.84689 5.42757 8.81157C5.35948 8.74662 5.25167 8.72368 5.0227 8.62224C5.2208 8.96925 5.34964 9.19524 5.46579 9.39846C5.64236 9.30907 5.76518 9.24697 5.9329 9.1621C5.75617 9.13063 5.61999 9.10635 5.41839 8.79081C5.42823 8.80068 5.43808 8.81056 5.44793 8.82044C5.48915 8.78512 5.53036 8.74979 5.57158 8.71464C5.55573 8.69874 5.53987 8.68267 5.52385 8.66677C5.48881 8.70829 5.45359 8.74946 5.43424 9.07321ZM10.2908 13.7983C10.281 13.8082 10.2711 13.8181 10.2613 13.8279C10.2965 13.8693 10.3315 13.9106 10.3667 13.952C10.3826 13.9361 10.3984 13.92 10.4145 13.9041C10.3732 13.8688 10.332 13.8335 10.2771 13.8142C10.2509 13.5668 10.0558 13.7006 9.93683 13.6624C9.68884 13.7622 9.62125 14.1063 9.30583 14.1303C9.27329 14.1328 9.25361 14.3075 9.22791 14.4023C9.42333 14.2074 9.63427 14.2784 9.79849 14.2168C9.79849 14.4127 9.79849 14.5556 9.79849 14.6907C9.68801 14.727 9.60224 14.7552 9.51629 14.7833C9.52264 14.8143 9.52914 14.8454 9.53548 14.8765C9.72039 14.8439 9.90512 14.8112 10.0994 14.7771C10.1301 14.7995 10.1758 14.833 10.2464 14.8849C10.2341 14.4488 10.2341 14.4488 9.82301 14.2699C9.87158 14.1959 9.96538 14.1189 9.96087 14.0482C9.94368 13.7827 10.1137 13.8112 10.2908 13.7983ZM15.9958 15.5275C15.7969 15.5851 15.6223 15.6358 15.5671 15.6517C15.3807 15.8267 15.2749 15.9259 15.1208 16.0706C15.1267 16.1292 15.1397 16.2611 15.1559 16.4241C15.252 16.3402 15.3036 16.2954 15.3508 16.2542C15.4092 16.3024 15.4596 16.3439 15.5666 16.432C15.6509 16.1944 15.7195 16.0014 15.7889 15.8062C15.915 15.7888 16.0466 15.7706 16.2148 15.7472C16.1183 15.6504 16.0654 15.5973 15.9958 15.5275ZM8.7638 13.6505C8.7638 13.5373 8.7638 13.4881 8.7638 13.5936C8.50829 13.3373 8.33023 13.1587 8.18654 13.0146C8.18654 13.1774 8.18654 13.4108 8.18654 13.6503C8.38029 13.6505 8.54601 13.6505 8.7638 13.6505ZM7.58608 10.5617C7.33024 10.361 7.10478 10.1844 6.90368 10.0265C6.74047 10.1181 6.60645 10.1934 6.41871 10.2989C6.52184 10.3953 6.58092 10.4504 6.63066 10.4969C6.76867 10.4174 6.86813 10.36 6.94222 10.3175C7.18621 10.3533 7.21726 10.7336 7.58608 10.5617ZM5.78871 7.61551C5.7585 7.64247 5.7283 7.66925 5.69793 7.6962C5.80591 7.84351 5.91405 7.99082 6.02036 8.13562C5.9813 8.18282 5.93942 8.23371 5.77787 8.42956C6.07042 8.30016 6.2056 8.2404 6.33594 8.18282C6.26034 8.02262 6.20325 7.90159 6.14868 7.78609C6.02702 7.7285 5.90786 7.67209 5.78871 7.61551ZM8.61076 14.3442C8.62011 14.491 8.63178 14.6736 8.64764 14.9236C8.79583 14.767 8.87445 14.684 9.03049 14.5193C8.86644 14.4508 8.75145 14.4028 8.61076 14.3442ZM5.85714 5.06958C5.79272 4.99743 5.7288 4.92578 5.62166 4.80559C5.62166 5.06137 5.62166 5.26141 5.62166 5.5428C5.72095 5.3431 5.7807 5.22308 5.85714 5.06958ZM6.2081 4.07139C6.04606 4.10202 5.97879 4.11474 5.88333 4.13282C5.89285 4.28365 5.90136 4.41773 5.91538 4.63937C6.02986 4.4174 6.09863 4.28415 6.2081 4.07139ZM8.9547 13.5246C8.9547 13.7635 8.9547 13.8648 8.9547 13.9845C9.06401 13.9622 9.13128 13.9486 9.27597 13.9192C9.1725 13.7921 9.1044 13.7086 8.9547 13.5246ZM7.64583 2.87216C7.59626 2.76486 7.54836 2.66107 7.50029 2.55711C7.47626 2.57502 7.45223 2.59294 7.4282 2.61068C7.4282 2.69421 7.4282 2.77775 7.4282 2.87199C7.52065 2.87216 7.58692 2.87216 7.64583 2.87216ZM5.24516 8.41885C5.24516 8.40027 5.24516 8.29949 5.24516 8.18282C5.14036 8.20106 5.0736 8.21279 5.04473 8.21781C5.11315 8.28645 5.19009 8.36378 5.24516 8.41885ZM5.98279 5.08012C6.42003 5.25421 6.34411 5.05686 6.31941 4.91122C6.21878 4.96178 6.1178 5.01233 5.98279 5.08012ZM8.24761 12.7076C8.29534 12.4784 8.29535 12.4784 7.92837 12.5075C8.0799 12.6024 8.17302 12.6609 8.24761 12.7076ZM10.9961 14.4214C10.9709 14.4214 10.9457 14.4214 10.9205 14.4214C10.9205 14.5225 10.9205 14.6238 10.9205 14.725C10.9457 14.725 10.9709 14.725 10.9961 14.725C10.9961 14.6238 10.9961 14.5225 10.9961 14.4214ZM6.36814 7.56614C6.4117 7.56061 6.45525 7.55525 6.49881 7.54973C6.47928 7.46737 6.45958 7.38501 6.44006 7.30265C6.41603 7.30666 6.39218 7.31069 6.36814 7.31454C6.36814 7.39841 6.36814 7.48227 6.36814 7.56614ZM7.06122 8.34921C7.03602 8.34921 7.01082 8.34921 6.98562 8.34921C6.98562 8.45032 6.98562 8.5516 6.98562 8.65288C7.01082 8.65288 7.03602 8.65288 7.06122 8.65288C7.06122 8.5516 7.06122 8.45032 7.06122 8.34921ZM12.4969 15.0285C12.48 15.0285 12.4632 15.0285 12.4465 15.0285C12.4465 15.0791 12.4465 15.1296 12.4465 15.1803C12.4633 15.1803 12.4802 15.1803 12.4969 15.1803C12.4969 15.1298 12.4969 15.0791 12.4969 15.0285ZM8.7134 12.5998C8.69654 12.5998 8.67969 12.5998 8.663 12.5998C8.663 12.6503 8.663 12.701 8.663 12.7516C8.67985 12.7516 8.69671 12.7516 8.7134 12.7516C8.7134 12.7009 8.7134 12.6503 8.7134 12.5998ZM14.7165 16.0912C14.7333 16.0912 14.7502 16.0912 14.7669 16.0912C14.7669 16.0406 14.7669 15.9899 14.7669 15.9393C14.75 15.9393 14.7332 15.9393 14.7165 15.9393C14.7165 15.99 14.7165 16.0406 14.7165 16.0912ZM13.2535 15.3322C13.2367 15.3322 13.2198 15.3322 13.2031 15.3322C13.2031 15.3827 13.2031 15.4335 13.2031 15.484C13.22 15.484 13.2368 15.484 13.2535 15.484C13.2535 15.4335 13.2535 15.3827 13.2535 15.3322ZM7.55303 3.28915C7.55303 3.27224 7.55303 3.25533 7.55303 3.23859C7.50263 3.23859 7.45224 3.23859 7.40167 3.23859C7.40167 3.2555 7.40167 3.27224 7.40167 3.28915C7.45224 3.28915 7.50263 3.28915 7.55303 3.28915ZM6.6954 3.03604C6.71225 3.03604 6.72911 3.03604 6.7458 3.03604C6.7458 2.98548 6.7458 2.93477 6.7458 2.88421C6.72894 2.88421 6.71225 2.88421 6.6954 2.88421C6.6954 2.93493 6.6954 2.98548 6.6954 3.03604ZM6.49364 9.76606C6.49364 9.78297 6.49364 9.79987 6.49364 9.81661C6.54404 9.81661 6.5946 9.81661 6.645 9.81661C6.645 9.79971 6.645 9.78297 6.645 9.76606C6.5946 9.76606 6.54404 9.76606 6.49364 9.76606ZM6.39267 7.13475C6.40953 7.13475 6.42638 7.13475 6.44307 7.13475C6.44307 7.08419 6.44307 7.03364 6.44307 6.98292C6.42622 6.98292 6.40936 6.98292 6.39267 6.98292C6.39267 7.03364 6.39267 7.08419 6.39267 7.13475ZM6.89716 5.46497C6.88031 5.46497 6.86345 5.46497 6.84676 5.46497C6.84676 5.51552 6.84676 5.56607 6.84676 5.6168C6.86362 5.6168 6.88047 5.6168 6.89716 5.6168C6.89716 5.56607 6.89716 5.51552 6.89716 5.46497ZM6.44324 5.46497C6.42638 5.46497 6.40952 5.46497 6.39284 5.46497C6.39284 5.51552 6.39284 5.56607 6.39284 5.6168C6.40969 5.6168 6.42655 5.6168 6.44324 5.6168C6.44324 5.56607 6.44324 5.51552 6.44324 5.46497ZM6.19091 5.41441C6.19091 5.39751 6.19091 5.3806 6.19091 5.36386C6.14051 5.36386 6.09011 5.36386 6.03955 5.36386C6.03955 5.38077 6.03955 5.39768 6.03955 5.41441C6.09011 5.41441 6.14051 5.41441 6.19091 5.41441ZM4.82895 4.90837C4.82895 4.92528 4.82895 4.94219 4.82895 4.95893C4.87935 4.95893 4.92974 4.95893 4.98031 4.95893C4.98031 4.94202 4.98031 4.92511 4.98031 4.90837C4.92974 4.90837 4.87935 4.90837 4.82895 4.90837ZM6.09011 3.79502C6.10696 3.79502 6.12382 3.79502 6.14051 3.79502C6.14051 3.74446 6.14051 3.69391 6.14051 3.64319C6.12365 3.64319 6.1068 3.64319 6.09011 3.64319C6.09011 3.69391 6.09011 3.74446 6.09011 3.79502Z" fill="#CC2C3D"/>
<path d="M13.6185 17.1195C13.6569 17.3056 13.7075 17.4573 13.7657 17.616C13.7639 17.613 13.754 17.6031 13.744 17.5932C13.7028 17.6285 13.6616 17.6638 13.6203 17.699C13.6362 17.7149 13.652 17.731 13.6681 17.7469C13.7033 17.7055 13.7383 17.6642 13.7657 17.616C13.8335 17.6091 13.909 17.6091 14.033 17.6091C14.0444 17.7214 14.0563 17.8386 14.0733 18.006C14.3274 18.1404 14.6111 18.2904 14.9397 18.4642C14.9397 18.5828 14.9397 18.7703 14.9397 19.0209C14.7904 18.9506 14.6891 18.9031 14.5612 18.843C14.3695 18.8818 14.1394 18.9285 13.9092 18.9752C13.967 18.7506 14.0247 18.5258 14.0955 18.2499C13.8805 18.2303 13.6959 18.2136 13.5003 18.1958C13.4706 18.1138 13.4396 18.0279 13.4072 17.9382C13.2705 18.0052 13.1342 18.072 13.0012 18.1372C13.0012 18.2198 13.0012 18.2941 13.0012 18.3682C12.8635 18.3682 12.7258 18.3682 12.5471 18.3682C12.5471 18.2439 12.5471 18.1543 12.5601 18.0639C12.6985 17.9966 12.8447 17.919 13.0122 17.8301C12.8391 17.7484 12.7188 17.6915 12.5731 17.6227C12.5731 17.7768 12.5731 17.9206 12.5601 18.0638C12.3826 18.1766 12.218 18.2886 11.9867 18.4461C11.9677 18.2194 11.9546 18.0661 11.9418 17.9126C12.0342 17.9126 12.1269 17.9126 12.2455 17.9126C12.1693 17.7661 12.1194 17.67 12.0653 17.5663C12.2212 17.476 12.3542 17.3992 12.4708 17.3316C12.5386 17.3724 12.5993 17.4091 12.7515 17.5006C12.6622 17.1504 12.6047 16.9243 12.5471 16.6981C12.9279 16.7008 13.0836 16.4772 13.1612 16.1322C13.1923 15.9942 13.3203 15.8784 13.4067 15.7487C13.5594 15.8315 13.6587 15.8853 13.7579 15.9392C13.7579 16.1923 13.7579 16.4452 13.7657 16.705C13.7639 16.702 13.754 16.6921 13.744 16.6822C13.7028 16.7176 13.6616 16.7529 13.6203 16.788C13.6362 16.8039 13.652 16.82 13.6681 16.8359C13.7033 16.7945 13.7383 16.7532 13.7657 16.705C13.8368 16.6526 13.9157 16.6071 14.0352 16.5383C14.0456 16.6797 14.0552 16.814 14.0641 16.936C13.8927 17.0177 13.7495 17.0858 13.6185 17.1195C13.3855 17.0229 13.1407 16.9606 12.872 16.8923C12.872 16.9979 12.872 17.1161 12.872 17.252C12.9249 17.3051 12.9952 17.3756 13.0654 17.4461C13.2453 17.3478 13.3279 17.0684 13.6185 17.1195ZM14.6382 18.646C14.6353 18.6026 14.6327 18.5592 14.6298 18.5159C14.5456 18.5343 14.4613 18.5527 14.377 18.5711C14.3805 18.5961 14.3839 18.621 14.3872 18.6458C14.4708 18.646 14.5544 18.646 14.6382 18.646Z" fill="#CC2C3D"/>
<path d="M4.22329 4.25058C4.12232 4.09875 4.02153 3.94692 3.92056 3.79509C4.11715 3.72177 4.31376 3.64828 4.54773 3.5609C4.51102 3.43636 4.46929 3.30377 4.43308 3.16969C4.3962 3.03309 4.36466 2.895 4.33829 2.78753C4.16105 2.82519 3.99033 2.86135 3.79774 2.9022C3.78539 2.78117 3.77838 2.71253 3.76836 2.61477C3.91773 2.59184 4.05707 2.57058 4.21911 2.54564C4.21911 2.36586 4.21911 2.19595 4.21911 1.97315C4.43924 1.97315 4.634 1.97315 4.82876 1.97315C4.79639 2.0992 4.76417 2.22524 4.72028 2.39649C4.78119 2.47517 4.88066 2.60372 4.98012 2.73229C4.98012 2.87541 4.98012 3.01854 4.98012 3.14542C4.84495 3.18978 4.75932 3.21791 4.57458 3.27834C4.82641 3.32688 4.97896 3.35617 5.09712 3.37894C5.0297 3.58567 4.97261 3.76061 4.94975 3.83125C4.66054 3.99848 4.44191 4.12453 4.22329 4.25058Z" fill="#CC2C3D"/>
<path d="M4.82215 10.1789C4.82899 10.4634 4.83784 10.7564 4.82215 11.048C4.81865 11.1123 4.72819 11.1719 4.67095 11.2415C4.67395 11.2395 4.6838 11.2296 4.69364 11.2197C4.65843 11.1784 4.62323 11.137 4.58818 11.0957C4.57233 11.1116 4.55647 11.1277 4.54045 11.1436C4.58167 11.1789 4.62289 11.214 4.67095 11.2415C4.67779 11.3093 4.6778 11.3851 4.6778 11.4618C4.55313 11.5259 4.42797 11.5902 4.2716 11.6705C4.19233 11.5562 4.09402 11.4143 3.93832 11.1898C3.93832 11.1586 3.93832 10.9891 3.93832 10.7619C4.13725 10.8002 4.3088 10.8332 4.48938 10.8679C4.51725 10.8021 4.5628 10.6948 4.62155 10.5568C4.5855 10.4018 4.53928 10.2036 4.47186 9.91321C4.3754 9.83637 4.20066 9.69744 4.04445 9.57306C4.16461 9.36649 4.24272 9.23207 4.33618 9.07153C4.54579 9.21617 4.73603 9.34741 4.97785 9.5143C4.89341 9.69241 5.13289 9.97815 4.82215 10.1789C4.82515 10.1769 4.835 10.167 4.84485 10.1571C4.80963 10.1158 4.77443 10.0744 4.73938 10.0331C4.72353 10.049 4.70767 10.065 4.69165 10.0809C4.73287 10.1163 4.77409 10.1514 4.82215 10.1789Z" fill="#CC2C3D"/>
<path d="M3.16402 0.607343C3.21008 0.686857 3.25616 0.7662 3.30322 0.84722C3.21978 0.930919 3.13148 1.01946 3.02651 1.12476C3.17187 1.22001 3.31656 1.31476 3.54436 1.46408C3.33192 1.49739 3.20458 1.51748 3.04454 1.54259C3.04454 1.66646 3.04454 1.80238 3.04454 1.97212C3.13599 1.9127 3.20591 1.86716 3.31873 1.79384C3.41368 1.87235 3.52032 1.96057 3.64899 2.0672C3.60477 2.15961 3.56473 2.24314 3.47194 2.43699C3.46777 2.45289 3.85294 2.62664 3.46693 2.73244C3.27334 2.42242 2.90235 2.27328 2.71276 1.77477C2.73763 1.6514 2.79138 1.38372 2.84428 1.12108C2.81024 1.08676 2.77519 1.05178 2.73597 1.01244C2.80189 0.877352 2.86848 0.740752 2.93374 0.60717C3.01585 0.607337 3.08992 0.607343 3.16402 0.607343Z" fill="#CC2C3D"/>
<path d="M6.19094 11.8406C6.06127 11.8068 5.93143 11.773 5.78256 11.7341C5.71598 11.7668 5.61535 11.816 5.46499 11.8896C5.46499 11.6598 5.46499 11.4926 5.46499 11.2945C5.35901 11.2639 5.26689 11.252 5.19062 11.2108C5.1272 11.1767 5.08231 11.1082 5.00737 11.0331C5.00737 10.8682 5.00737 10.6815 5.00737 10.4532C5.30176 10.5172 5.51422 10.6414 5.71265 10.8186C5.79175 10.8893 5.92875 10.8946 6.03939 10.9298C6.00168 11.0679 5.96397 11.2062 5.92158 11.3617C6.00569 11.4164 6.09832 11.4768 6.19078 11.5371C6.19094 11.6382 6.19094 11.7395 6.19094 11.8406Z" fill="#CC2C3D"/>
<path d="M3.61805 5.31314C3.48788 5.34896 3.3577 5.38461 3.13074 5.44688C3.04829 5.40587 2.87141 5.31798 2.69034 5.22809C2.77144 4.96528 2.90078 4.82199 3.15628 4.85446C3.16997 4.95908 3.18949 5.05786 3.19183 5.06991C3.28362 5.03492 3.38708 4.99541 3.49038 4.95591C3.47102 4.92795 3.45166 4.9 3.4323 4.87205C3.34302 4.86552 3.25374 4.85899 3.15628 4.8543C3.14927 4.67334 3.22703 4.4636 2.98889 4.31445C3.17279 4.19576 3.34336 4.08561 3.55196 3.95103C3.62289 4.04862 3.69599 4.14939 3.76925 4.25034C3.71885 4.30089 3.66829 4.35144 3.61789 4.40216C3.56749 4.4405 3.51709 4.47866 3.46652 4.51699C3.51692 4.57993 3.56749 4.64287 3.61789 4.70581C3.61805 4.90836 3.61805 5.11075 3.61805 5.31314Z" fill="#CC2C3D"/>
<path d="M8.28734 15.6592C8.34992 16.0318 8.41533 16.421 8.49193 16.8765C8.17118 16.7792 7.93619 16.7077 7.62395 16.613C7.75846 16.4975 7.85026 16.4188 7.97375 16.3127C7.89965 16.2243 7.80185 16.1079 7.68653 15.9703C7.76196 15.8165 7.84208 15.653 7.91117 15.5117C8.04451 15.5641 8.17168 15.614 8.28734 15.6592Z" fill="#CC2C3D"/>
<path d="M4.82877 1.36693C4.50451 1.43138 4.17823 1.49616 3.80624 1.57015C3.80624 1.28156 3.80624 1.04485 3.80624 0.806481C4.19142 0.79627 4.54306 0.858887 4.82877 0.99046C4.82877 1.11567 4.82877 1.24105 4.82877 1.36693Z" fill="#CC2C3D"/>
<path d="M13.3039 20.0381C13.2031 20.1899 13.1021 20.3417 13.0011 20.4936C12.9002 20.3992 12.7066 20.2959 12.7144 20.2117C12.7493 19.8395 12.4739 19.7764 12.2473 19.6598C12.3179 19.3837 12.3878 19.1105 12.4576 18.837C12.5058 18.8322 12.554 18.8275 12.6305 18.8203C12.7192 19.1738 12.8099 19.5337 12.8985 19.8862C13.0016 19.8862 13.0771 19.8862 13.1525 19.8862C13.2031 19.937 13.2535 19.9875 13.3039 20.0381Z" fill="#CC2C3D"/>
<path d="M7.15302 17.3755C7.03102 17.4305 6.91437 17.4833 6.72362 17.5693C6.75232 17.5857 6.65401 17.5296 6.55738 17.4742C6.51049 17.5139 6.45909 17.5573 6.4157 17.5939C6.33225 17.5169 6.25866 17.4491 6.18857 17.3847C6.22278 17.2419 6.25483 17.1081 6.29171 16.9543C6.37115 16.8562 6.48446 16.7159 6.60479 16.5673C6.7685 16.8087 6.94174 17.0638 7.15302 17.3755Z" fill="#CC2C3D"/>
<path d="M3.46686 2.73257C3.51209 2.81175 3.55731 2.89093 3.60421 2.97295C3.56699 3.01263 3.51859 3.06402 3.46969 3.11625C3.61138 3.19626 3.75056 3.27461 3.92095 3.37069C3.92095 3.51382 3.92095 3.6546 3.92095 3.79538C3.79745 3.79538 3.67412 3.79538 3.51158 3.79538C3.42596 3.65543 3.32984 3.49807 3.23321 3.34005C3.13625 3.34005 3.03762 3.34005 2.89009 3.34005C2.87908 3.20932 2.86772 3.07457 2.85805 2.95923C3.08167 2.8757 3.27427 2.80405 3.46686 2.73257Z" fill="#CC2C3D"/>
<path d="M4.52622 6.37585C4.44394 6.48835 4.36166 6.60067 4.25168 6.751C4.11083 6.62495 4.00786 6.53304 3.88503 6.42323C3.93877 6.32681 3.98365 6.24579 4.03756 6.1492C3.76503 6.04843 3.72699 5.6994 3.47232 5.56498C3.52622 5.47208 3.57228 5.39274 3.61834 5.31323C3.93726 5.22685 3.94127 5.65822 4.19611 5.66927C4.32011 5.83483 4.05292 6.12275 4.37502 6.22403C4.42542 6.27458 4.47582 6.3253 4.52622 6.37585Z" fill="#CC2C3D"/>
<path d="M11.6868 18.6432C11.7856 18.743 11.8562 18.8145 11.9273 18.8861C11.7452 19.2853 11.3888 19.622 11.5114 20.171C11.3465 20.1792 11.2105 20.1861 11.0532 20.1941C11.0532 20.0343 11.0532 19.9158 11.0532 19.7813C11.1304 19.7534 11.2174 19.7221 11.3223 19.6841C11.2753 19.6091 11.2302 19.5371 11.1748 19.4489C11.333 19.1996 11.4964 18.9427 11.6868 18.6432Z" fill="#CC2C3D"/>
<path d="M3.16396 7.43848C3.11356 7.47597 3.03714 7.50308 3.01729 7.55297C2.9512 7.71903 2.90546 7.89312 2.85239 8.06286C2.71638 7.98469 2.63761 7.93933 2.55851 7.89396C2.55851 7.81914 2.55851 7.74447 2.55851 7.65927C2.65731 7.61424 2.75994 7.56737 2.86358 7.52C2.80717 7.45923 2.75728 7.40533 2.68602 7.3285C2.76279 7.17048 2.84305 7.00508 2.94034 6.80471C3.09037 6.84622 3.24375 6.88858 3.42916 6.9398C3.43918 6.93043 3.49156 6.88154 3.5438 6.83266C3.61272 6.9018 3.68299 6.97227 3.7641 7.05363C3.70202 7.12076 3.63943 7.18839 3.57735 7.25534C3.45969 7.20965 3.3447 7.16495 3.16396 7.09464C3.16396 7.25283 3.16396 7.34574 3.16396 7.43848Z" fill="#CC2C3D"/>
<path d="M14.4194 19.5712C14.5004 19.6424 14.5554 19.6909 14.6439 19.7689C14.7911 19.6554 14.9401 19.5406 15.1879 19.3494C15.2922 19.4522 15.4034 19.5617 15.5646 19.7204C15.3231 19.8585 15.2014 19.9167 15.0929 19.9934C14.9977 20.0607 14.9171 20.1489 14.8236 20.2336C14.5913 20.1392 14.3975 20.0604 14.1437 19.9572C14.2497 19.8089 14.3346 19.6899 14.4194 19.5712Z" fill="#CC2C3D"/>
<path d="M4.70574 14.0609C4.51482 14.2891 4.32375 14.5173 4.1098 14.7729C3.72413 14.5362 3.57592 14.2381 3.64451 13.8164C3.73847 13.8164 3.78788 13.8164 3.85947 13.8164C3.88584 13.8939 3.91538 13.9801 3.96828 14.1351C4.18006 14.0814 4.39767 14.0263 4.61529 13.971C4.64566 14.001 4.6757 14.031 4.70574 14.0609Z" fill="#CC2C3D"/>
<path d="M6.26386 1.70526C6.2929 1.91417 6.3166 2.08542 6.3448 2.28797C5.94494 2.12778 6.05975 1.82111 6.03739 1.56298C5.79607 1.44463 5.45129 1.65254 5.30192 1.24777C5.42525 1.1773 5.57395 1.09209 5.69494 1.02296C5.94811 1.1927 6.14204 1.32276 6.36132 1.4699C6.33212 1.53987 6.29691 1.62508 6.26386 1.70526Z" fill="#CC2C3D"/>
<path d="M9.36909 16.5467C9.47173 16.493 9.57436 16.4391 9.75259 16.3459C9.79782 16.4476 9.84972 16.5643 9.90446 16.6877C9.87192 16.7223 9.77413 16.8266 9.6755 16.9317C9.87627 17.0024 10.072 17.0712 10.3449 17.1671C10.1835 17.3194 10.0902 17.4075 9.93351 17.5555C9.86359 17.3846 9.82387 17.2876 9.78148 17.184C9.55318 17.148 9.292 17.1554 9.21756 16.8502C9.4442 16.8373 9.34639 16.6617 9.36909 16.5467Z" fill="#CC2C3D"/>
<path d="M3.78174 8.3687C3.91224 8.37439 4.0551 8.37439 4.2103 8.37439C4.2103 8.46746 4.2103 8.53542 4.2103 8.60037C3.94979 8.6603 3.70229 8.71722 3.36034 8.7959C3.34132 8.75271 3.2901 8.63603 3.19197 8.41239C3.22652 8.09902 3.22651 8.09902 3.7512 8.06839C3.75938 8.16096 3.76755 8.2547 3.78174 8.3687C3.77539 8.35313 3.76555 8.34326 3.7557 8.33338C3.71448 8.3687 3.67326 8.40385 3.63204 8.43917C3.6479 8.45507 3.66392 8.47114 3.67977 8.48705C3.71482 8.4457 3.75003 8.40436 3.78174 8.3687Z" fill="#CC2C3D"/>
<path d="M4.81281 7.29186C4.71668 7.5977 4.62057 7.90354 4.53129 8.18744C4.39127 8.10491 4.29596 8.04867 4.12424 7.94739C4.31749 7.90855 4.38576 7.89483 4.52361 7.86721C4.37742 7.63135 4.2404 7.41055 4.09955 7.18322C4.19768 7.08496 4.32083 6.96126 4.53094 6.75051C4.65677 6.88024 4.7826 7.01014 4.90843 7.14004C4.87656 7.19059 4.84468 7.24131 4.81281 7.29186Z" fill="#CC2C3D"/>
<path d="M9.2176 16.8502C9.02719 16.8502 8.8366 16.8502 8.64067 16.8502C8.64067 16.5746 8.64067 16.3416 8.64067 16.079C8.90786 16.1632 9.14067 16.2365 9.36897 16.3083C9.36897 16.3992 9.36897 16.4728 9.36897 16.5465C9.14267 16.5596 9.24047 16.7352 9.2176 16.8502Z" fill="#CC2C3D"/>
<path d="M16.1163 16.2035C16.3508 16.3203 16.4509 16.3704 16.5686 16.429C16.6136 16.3003 16.644 16.2132 16.7024 16.0463C16.8134 16.3205 16.9007 16.5361 17 16.7815C16.656 16.8744 16.372 16.9513 16.0879 17.0279C16.0619 16.9889 16.0361 16.9501 16.0102 16.9113C16.1567 16.8773 16.3032 16.8431 16.4498 16.8092C16.3997 16.7573 16.3495 16.7054 16.2994 16.6536C16.2532 16.5403 16.2071 16.427 16.1163 16.2035Z" fill="#CC2C3D"/>
<path d="M13.1524 19.8862C13.2996 19.3663 13.5407 19.076 13.9091 18.9754C13.9626 19.0777 14.0164 19.1798 14.0751 19.2918C13.8148 19.5435 13.5593 19.7908 13.3038 20.038C13.2534 19.9875 13.203 19.9369 13.1524 19.8862Z" fill="#CC2C3D"/>
<path d="M7.09907 16.0912C7.15431 16.0606 7.20939 16.0298 7.27547 15.9931C7.20054 15.8438 7.13863 15.7204 7.04601 15.5356C7.22224 15.5109 7.35339 15.4923 7.55516 15.4638C7.52696 15.6741 7.50394 15.8456 7.47373 16.0715C7.49643 16.1493 7.54149 16.3033 7.60407 16.5174C7.37127 16.53 7.18602 16.54 6.94787 16.5529C6.94787 16.4292 6.94787 16.3361 6.94787 16.243C6.99811 16.1925 7.04851 16.1418 7.09907 16.0912Z" fill="#CC2C3D"/>
<path d="M3.57411 9.37655C3.6951 9.46661 3.82044 9.55985 4.01169 9.7023C3.87151 9.7937 3.78823 9.84794 3.64687 9.94C3.63569 10.0063 3.61232 10.1434 3.58462 10.3069C3.44093 10.2371 3.30625 10.1717 3.18659 10.1134C3.05976 9.78282 3.34163 9.63083 3.57411 9.37655Z" fill="#CC2C3D"/>
<path d="M4.14809 12.2186C4.02793 12.262 3.90793 12.3053 3.78777 12.3487C3.81381 12.3778 3.83985 12.4069 3.86572 12.436C3.6995 12.436 3.53344 12.436 3.37323 12.436C3.29129 12.2584 3.21485 12.0929 3.13341 11.9161C3.51775 11.659 3.73988 12.1943 4.09618 11.9223C4.11354 12.0212 4.1309 12.1198 4.14809 12.2186Z" fill="#CC2C3D"/>
<path d="M10.3581 16.1351C10.2703 15.8679 10.1982 15.6481 10.1229 15.4191C10.187 15.3515 10.2541 15.2803 10.3737 15.1539C10.4306 15.254 10.4856 15.3508 10.5405 15.4474C10.5254 15.4648 10.4806 15.5165 10.3864 15.625C10.6276 15.625 10.8128 15.625 11.0266 15.625C10.9914 15.713 10.9875 15.7638 10.9622 15.7793C10.7666 15.8997 10.5668 16.0134 10.3581 16.1351Z" fill="#CC2C3D"/>
<path d="M9.83508 20.1194C9.83508 19.8691 9.83508 19.7526 9.83508 19.6431C9.98945 19.5682 10.1323 19.4985 10.3292 19.4028C10.4194 19.5104 10.5178 19.6279 10.659 19.7965C10.3708 19.9093 10.1443 19.9982 9.83508 20.1194Z" fill="#CC2C3D"/>
<path d="M11.8098 20.5339C12.0851 20.4238 12.2602 20.5245 12.4141 20.7758C12.3722 20.8475 12.3158 20.9437 12.2704 21.021C12.3116 21.0927 12.347 21.1546 12.3825 21.2166C11.991 21.121 11.7141 20.9553 11.8098 20.5339Z" fill="#CC2C3D"/>
<path d="M1.82587 2.89209C1.82587 2.69071 1.82587 2.4972 1.82587 2.31658C2.13511 2.16509 2.06818 2.45635 2.16264 2.56382C2.27412 2.57537 2.39228 2.58759 2.42733 2.59128C2.34021 2.67866 2.21354 2.80554 2.0278 2.99202C2.04632 3.00123 1.923 2.94013 1.82587 2.89209Z" fill="#CC2C3D"/>
<path d="M4.5927 13.4996C4.25726 13.4996 4.04197 13.4996 3.82369 13.4996C3.9849 13.1222 4.02396 13.0695 4.28981 12.8849C4.37943 13.0667 4.46687 13.2441 4.5927 13.4996Z" fill="#CC2C3D"/>
<path d="M1.82351 2.95871C1.70252 3.01261 1.59939 3.05847 1.49475 3.10501C1.54949 3.1631 1.59855 3.215 1.59054 3.20679C1.53146 3.32146 1.47507 3.43144 1.39696 3.5831C1.23475 3.43746 1.13311 3.3464 1.02196 3.24663C1.05584 3.17046 1.06668 3.08643 1.11408 3.0501C1.26044 2.93761 1.42048 2.84321 1.57752 2.74042C1.65162 2.80621 1.73139 2.87702 1.82351 2.95871Z" fill="#CC2C3D"/>
<path d="M16.1844 19.4362C16.0091 19.4995 15.8361 19.5621 15.668 19.6229C15.5838 19.456 15.521 19.3318 15.4286 19.149C15.5881 19.08 15.7652 19.0035 15.9379 18.929C16.0404 19.1398 16.1108 19.2848 16.1844 19.4362Z" fill="#CC2C3D"/>
<path d="M2.54732 4.41235C2.46554 4.35008 2.34805 4.26036 2.19568 4.14402C2.30365 4.00675 2.38912 3.89795 2.47573 3.7878C2.53881 3.85108 2.59154 3.90397 2.65947 3.97193C2.70102 4.17934 2.74625 4.40498 2.79681 4.65658C2.72255 4.69525 2.59071 4.76423 2.36725 4.88073C2.43935 4.69308 2.48373 4.57757 2.54732 4.41235Z" fill="#CC2C3D"/>
<path d="M5.81878 15.3295C5.56144 15.3767 5.37936 15.2922 5.26455 15.0014C5.38287 14.9231 5.5097 14.8392 5.63853 14.7539C5.75469 14.8081 5.87518 14.8643 6.01403 14.9291C5.95144 15.0579 5.88487 15.1943 5.81878 15.3295Z" fill="#CC2C3D"/>
<path d="M9.84939 18.0965C9.77078 18.4773 9.57653 18.5821 9.26245 18.493C9.13845 18.2043 9.24959 18.0253 9.51578 17.8996C9.61758 17.9597 9.71671 18.0183 9.84939 18.0965Z" fill="#CC2C3D"/>
<path d="M1.93616 8.69019C1.60406 8.46789 1.61708 8.20743 1.68033 7.91264C1.807 7.91264 1.92548 7.91264 2.0443 7.91264C2.08635 8.30837 2.07735 8.38168 1.93616 8.69019Z" fill="#CC2C3D"/>
<path d="M5.88684 14.1484C5.9581 14.0952 6.01117 14.0495 6.07025 14.0137C6.10897 13.9902 6.15653 13.9814 6.25132 13.9477C6.33893 14.1146 6.43106 14.2899 6.53636 14.4902C6.4399 14.5267 6.37916 14.5664 6.31608 14.5706C5.99716 14.5917 5.87483 14.4172 5.88684 14.1484Z" fill="#CC2C3D"/>
<path d="M9.09634 19.0213C8.98436 19.1336 8.91425 19.2039 8.86151 19.2568C8.72617 19.2568 8.60852 19.2568 8.44381 19.2568C8.47702 19.0938 8.47634 18.9466 8.53725 18.8325C8.63972 18.6406 8.75821 18.6661 8.8727 18.8492C8.91959 18.9242 9.02024 18.965 9.09634 19.0213Z" fill="#CC2C3D"/>
<path d="M13.4553 20.9489C13.3525 21.0027 13.2498 21.0566 13.0718 21.1498C13.0264 21.048 12.9745 20.9314 12.9199 20.8087C12.9329 20.7584 12.967 20.626 13.0012 20.4936C13.3403 20.5253 13.4236 20.609 13.4553 20.9489Z" fill="#CC2C3D"/>
<path d="M15.4412 21.0168C15.3655 21.1984 15.2897 21.38 15.1842 21.6327C15.0275 21.4889 14.9027 21.3744 14.7318 21.2175C14.9765 21.0955 15.1525 21.0078 15.3284 20.9199C15.3662 20.9522 15.4037 20.9845 15.4412 21.0168Z" fill="#CC2C3D"/>
<path d="M1.72943 9.13084C1.99879 9.13084 2.16484 9.13084 2.3828 9.13084C2.39131 9.24049 2.40182 9.37558 2.41234 9.51168C2.06688 9.65212 1.89849 9.5038 1.72943 9.13084Z" fill="#CC2C3D"/>
<path d="M4.26976 0.123851C4.60103 0.192819 4.93246 0.261946 5.26974 0.332086C5.26974 0.42315 5.26974 0.490281 5.26974 0.55724C5.06113 0.652823 4.91143 0.612481 4.74288 0.461322C4.61421 0.345985 4.41695 0.307813 4.25006 0.23533C4.25674 0.198168 4.26325 0.161013 4.26976 0.123851Z" fill="#CC2C3D"/>
<path d="M9.52034 15.2348C9.73445 15.3739 9.85162 15.4499 9.95793 15.5189C9.95793 15.7116 9.95793 15.88 9.95793 15.9792C9.86047 15.8815 9.73228 15.7529 9.52034 15.5405C9.52034 15.5827 9.52034 15.4574 9.52034 15.2348Z" fill="#CC2C3D"/>
<path d="M2.86135 10.0716C3.00871 10.256 3.10418 10.3757 3.20832 10.5061C2.9358 10.7425 2.67662 10.5404 2.47752 10.6409C2.59935 10.4603 2.71248 10.2925 2.86135 10.0716Z" fill="#CC2C3D"/>
<path d="M10.7895 19.2632C10.7695 19.2185 10.7246 19.1668 10.7359 19.1351C10.7671 19.0483 10.8217 18.9701 10.8567 18.907C10.8062 18.8045 10.7561 18.7034 10.6809 18.5513C10.8809 18.5513 11.0175 18.5513 11.2217 18.5513C11.0862 18.8253 11.0697 19.113 10.7895 19.2632Z" fill="#CC2C3D"/>
<path d="M5.65852 12.2228C5.70224 12.3741 5.74597 12.5252 5.79721 12.7024C5.77518 12.7152 5.63199 12.7986 5.48864 12.8821C5.42972 12.823 5.37633 12.7695 5.30741 12.7005C5.37116 12.5698 5.43839 12.432 5.50548 12.2942C5.55655 12.2703 5.60745 12.2465 5.65852 12.2228Z" fill="#CC2C3D"/>
<path d="M7.55242 17.4927C7.73884 17.764 7.87168 17.9574 8.03389 18.1932C7.863 18.1932 7.74785 18.1932 7.61584 18.1932C7.66441 17.9925 7.24719 17.883 7.55242 17.4927Z" fill="#CC2C3D"/>
<path d="M5.02175 15.4557C4.81781 15.5351 4.63406 15.6066 4.39908 15.6978C4.39908 15.4939 4.39908 15.3784 4.39908 15.2373C4.6399 15.0485 4.81231 15.2189 5.02175 15.4557Z" fill="#CC2C3D"/>
<path d="M3.65822 0C3.79306 0 3.89236 0 4.04156 0C4.05341 0.130235 4.06559 0.265165 4.08045 0.429046C3.93242 0.429046 3.81543 0.429046 3.65822 0.429046C3.65822 0.303834 3.65822 0.152331 3.65822 0Z" fill="#CC2C3D"/>
<path d="M1.80195 10.7378C1.80195 10.6025 1.80195 10.5029 1.80195 10.3533C1.93095 10.3416 2.06462 10.3293 2.22967 10.3143C2.22967 10.4618 2.22967 10.5783 2.22967 10.7376C2.10484 10.7378 1.95365 10.7378 1.80195 10.7378Z" fill="#CC2C3D"/>
<path d="M4.82893 1.97349C4.77536 1.87406 4.72163 1.77463 4.66523 1.66984C4.72163 1.56522 4.77536 1.46578 4.82893 1.36635C5.12516 1.45122 5.17989 1.65594 5.09077 1.97349C5.0125 1.97349 4.92072 1.97349 4.82893 1.97349Z" fill="#CC2C3D"/>
<path d="M1.97489 5.7901C2.09521 5.7901 2.23724 5.7901 2.39111 5.7901C2.39111 5.9277 2.39111 6.04388 2.39111 6.19202C2.26411 6.19202 2.1326 6.19202 1.97489 6.19202C1.97489 6.05174 1.97489 5.91197 1.97489 5.7901Z" fill="#CC2C3D"/>
<path d="M16.3877 18.0551C16.3645 17.5626 16.3645 17.5626 16.5734 17.2735C16.6335 17.3828 16.6879 17.4819 16.7762 17.6426C16.7159 17.7067 16.5999 17.8298 16.3877 18.0551Z" fill="#CC2C3D"/>
<path d="M7.92225 14.6475C7.80493 14.6976 7.68777 14.7478 7.58012 14.7937C7.5611 14.7694 7.48533 14.6705 7.40739 14.5735C7.34915 14.5011 7.28774 14.4309 7.30176 14.2515C7.49068 14.3253 7.6796 14.3993 7.86835 14.4731C7.8862 14.5312 7.90423 14.5893 7.92225 14.6475Z" fill="#CC2C3D"/>
<path d="M2.2313 13.1644C2.0519 12.8012 1.94125 12.5775 1.81142 12.3144C1.94159 12.3074 2.07576 12.3002 2.2313 12.2918C2.2313 12.5616 2.2313 12.7955 2.2313 13.1644Z" fill="#CC2C3D"/>
<path d="M8.76422 18.7684C8.69296 18.486 8.64439 18.294 8.55644 17.9453C8.82797 18.1203 8.95698 18.2035 9.12904 18.3144C9.00554 18.4679 8.90824 18.5891 8.76422 18.7684Z" fill="#CC2C3D"/>
<path d="M7.87464 20.2466C7.87464 19.9863 7.87464 19.8203 7.87464 19.604C7.99079 19.5963 8.12465 19.5874 8.27835 19.5772C8.29137 19.6745 8.33308 19.7685 8.30371 19.8055C8.19741 19.9393 8.06706 20.0536 7.87464 20.2466Z" fill="#CC2C3D"/>
<path d="M6.38668 15.0703C6.66688 14.9604 6.83561 14.8942 7.06107 14.8057C7.06107 15.028 7.06107 15.1793 7.06107 15.3773C6.84913 15.2809 6.68491 15.2063 6.38668 15.0703Z" fill="#CC2C3D"/>
<path d="M11.6335 19.968C11.7305 19.8707 11.7836 19.8175 11.8712 19.7296C11.9897 19.9197 12.2712 19.9772 12.2383 20.3203C11.9182 20.406 11.8376 20.0937 11.6335 19.968Z" fill="#CC2C3D"/>
<path d="M1.91805 5.80065C1.70276 5.61836 1.55274 5.45932 1.68491 5.20287C1.92873 5.24555 1.92874 5.24556 2.11415 5.46753C2.05807 5.56278 1.99966 5.66221 1.91805 5.80065Z" fill="#CC2C3D"/>
<path d="M1.14814 7.48667C0.985589 7.68955 0.890297 7.80857 0.760459 7.97045C0.635461 7.8541 0.552033 7.77644 0.47126 7.70128C0.444224 7.5548 0.657991 7.47026 1.14814 7.48667Z" fill="#CC2C3D"/>
<path d="M5.16608 13.3694C4.94545 13.3535 4.81109 13.3438 4.55309 13.3252C4.74551 13.1144 4.86033 12.9887 5.05442 12.7761C5.09998 13.019 5.12385 13.1454 5.16608 13.3694Z" fill="#CC2C3D"/>
<path d="M1.95001 2.04659C1.83185 1.98298 1.72171 1.92355 1.46304 1.78411C1.69401 1.70426 1.81801 1.66125 1.98273 1.60433C1.96821 1.58943 2.04797 1.67179 2.16029 1.78746C2.05698 1.91485 1.97104 2.02081 1.95001 2.04659Z" fill="#CC2C3D"/>
<path d="M8.79959 17.5757C8.63521 17.5906 8.50237 17.6026 8.33715 17.6177C8.33715 17.454 8.33715 17.3197 8.33715 17.1637C8.63805 17.1235 8.71915 17.3046 8.79959 17.5757Z" fill="#CC2C3D"/>
<path d="M6.75823 18.7805C6.87572 18.6815 6.99321 18.5826 7.18246 18.4234C7.22051 18.639 7.24336 18.7679 7.2734 18.9377C7.09884 18.9377 6.94747 18.9377 6.79627 18.9377C6.78359 18.8853 6.77092 18.8329 6.75823 18.7805Z" fill="#CC2C3D"/>
<path d="M11.3522 18.6923C11.3522 18.5121 11.3522 18.3968 11.3522 18.2321C11.4775 18.2262 11.6099 18.22 11.7168 18.2148C11.8784 18.3983 11.7427 18.5781 11.3522 18.6923Z" fill="#CC2C3D"/>
<path d="M13.9082 22.0317C14.0487 22.0317 14.1883 22.0317 14.3344 22.0317C14.3344 22.1853 14.3344 22.3188 14.3344 22.4746C14.0089 22.4532 13.895 22.2908 13.9082 22.0317Z" fill="#CC2C3D"/>
<path d="M3.16306 7.45848C3.30358 7.45848 3.44311 7.45848 3.5893 7.45848C3.5893 7.61215 3.5893 7.74556 3.5893 7.90141C3.26387 7.87998 3.15004 7.71744 3.16306 7.45848Z" fill="#CC2C3D"/>
<path d="M10.2171 17.5786C10.4606 17.6997 10.5976 17.7678 10.8005 17.8687C10.6567 18.0147 10.5343 18.1387 10.4122 18.2626C10.3765 18.2394 10.3409 18.2161 10.3052 18.1926C10.3359 18.1141 10.3992 18.0313 10.3893 17.9583C10.3756 17.8587 10.3065 17.7666 10.2171 17.5786Z" fill="#CC2C3D"/>
<path d="M4.68941 12.7891C4.5826 12.7039 4.47579 12.6188 4.35647 12.5237C4.47513 12.4292 4.58261 12.3436 4.76368 12.1993C4.79656 12.4305 4.81675 12.5731 4.83694 12.7158C4.78788 12.7402 4.73864 12.7646 4.68941 12.7891Z" fill="#CC2C3D"/>
<path d="M2.05114 0.633211C2.26125 0.633211 2.39376 0.633211 2.60304 0.633211C2.50841 0.811154 2.43815 0.943227 2.33735 1.13289C2.23037 0.946408 2.15595 0.816343 2.05114 0.633211Z" fill="#CC2C3D"/>
<path d="M6.94776 16.2431C6.876 16.2431 6.80422 16.2431 6.68172 16.2431C6.67004 16.1018 6.65786 15.9563 6.64585 15.81C6.93756 15.757 7.03537 15.9002 7.09912 16.0914C7.04855 16.1418 6.99816 16.1925 6.94776 16.2431Z" fill="#CC2C3D"/>
<path d="M10.7932 21.6479C11.0172 21.5132 11.1318 21.4442 11.3126 21.3354C11.3244 21.5418 11.3321 21.6747 11.3453 21.9027C11.149 21.8122 11.0172 21.7512 10.7932 21.6479Z" fill="#CC2C3D"/>
<path d="M14.5886 21.0029C14.4743 20.8175 14.4035 20.703 14.2977 20.5314C14.5172 20.5314 14.6674 20.5314 14.888 20.5314C14.7775 20.7056 14.7044 20.8206 14.5886 21.0029Z" fill="#CC2C3D"/>
<path d="M3.36242 5.85066C3.4739 6.07062 3.53464 6.1903 3.61642 6.35184C3.48441 6.36121 3.35107 6.37059 3.12444 6.38666C3.21122 6.19147 3.2698 6.0594 3.36242 5.85066Z" fill="#CC2C3D"/>
<path d="M2.94825 0.0462261C3.20993 0.192698 3.3261 0.257648 3.49365 0.35139C3.40871 0.437098 3.35846 0.509586 3.28987 0.552105C3.17539 0.623249 3.17055 0.615208 2.94825 0.0462261Z" fill="#CC2C3D"/>
<path d="M1.82454 4.32818C1.75178 4.45909 1.67885 4.58999 1.59941 4.73312C1.50729 4.63804 1.44054 4.5689 1.34641 4.47181C1.46557 4.3846 1.58257 4.29922 1.69956 4.21368C1.74112 4.25168 1.78282 4.28985 1.82454 4.32818Z" fill="#CC2C3D"/>
<path d="M15.1243 17.5889C14.9803 17.5889 14.8406 17.5889 14.6882 17.5889C14.6804 17.5034 14.6742 17.4369 14.665 17.3377C14.8104 17.3377 14.9427 17.3377 15.1039 17.3377C15.1111 17.4254 15.1185 17.5164 15.1243 17.5889Z" fill="#CC2C3D"/>
<path d="M2.91251 14.2834C2.82156 14.1398 2.7493 14.0261 2.67837 13.9141C2.9479 13.6736 3.02549 13.9468 3.16734 14.0424C3.09658 14.1095 3.02716 14.1751 2.91251 14.2834Z" fill="#CC2C3D"/>
<path d="M5.89637 14.0761C5.79924 14.1516 5.7273 14.2075 5.65521 14.2634C5.58478 14.1929 5.51454 14.1223 5.43026 14.0379C5.5354 13.95 5.6392 13.8635 5.80926 13.7212C5.85449 13.9048 5.88002 14.0091 5.89637 14.0761Z" fill="#CC2C3D"/>
<path d="M13.4512 20.9693C13.5952 20.9693 13.7349 20.9693 13.8874 20.9693C13.8952 21.0549 13.9014 21.1213 13.9106 21.2206C13.7651 21.2206 13.6329 21.2206 13.4715 21.2206C13.4644 21.1329 13.457 21.0418 13.4512 20.9693Z" fill="#CC2C3D"/>
<path d="M10.6144 16.5055C10.7453 16.6367 10.8134 16.705 10.9063 16.7982C10.768 16.8771 10.6378 16.9514 10.5076 17.0256C10.4806 16.9941 10.4534 16.9625 10.4262 16.931C10.4774 16.8788 10.5432 16.8341 10.5754 16.772C10.6047 16.7159 10.5971 16.6406 10.6144 16.5055Z" fill="#CC2C3D"/>
<path d="M3.44962 9.41609C3.37602 9.4104 3.28556 9.40337 3.1856 9.3955C3.17775 9.30461 3.17208 9.23865 3.16207 9.12398C3.30442 9.11745 3.43509 9.11143 3.61933 9.10306C3.54824 9.23413 3.50185 9.31984 3.44962 9.41609Z" fill="#CC2C3D"/>
<path d="M16.1612 19.4239C16.2702 19.4325 16.3606 19.4395 16.5252 19.4522C16.4337 19.6305 16.367 19.7607 16.2375 20.0132C16.2011 19.7324 16.1819 19.5843 16.1612 19.4239Z" fill="#CC2C3D"/>
<path d="M16.6581 19.8575C16.6581 19.6734 16.6581 19.4894 16.6581 19.293C16.7654 19.3086 16.9256 19.1812 16.8802 19.4067C16.8489 19.5624 16.7829 19.711 16.7325 19.8629C16.7077 19.861 16.683 19.8592 16.6581 19.8575Z" fill="#CC2C3D"/>
<path d="M9.20436 20.164C9.22755 20.0478 9.24442 19.9636 9.27446 19.8138C9.43801 19.935 9.55381 20.0209 9.7469 20.164C9.50809 20.164 9.37475 20.164 9.20436 20.164Z" fill="#CC2C3D"/>
<path d="M16.1038 20.6454C16.175 20.7169 16.2461 20.7882 16.3261 20.8684C16.2616 20.9372 16.1971 21.0063 16.0849 21.126C16.0187 21.0344 15.9551 20.9464 15.8913 20.8583C15.9614 20.7882 16.0325 20.7169 16.1038 20.6454Z" fill="#CC2C3D"/>
<path d="M9.81888 18.0473C9.82455 17.9734 9.83155 17.8826 9.83923 17.7825C9.92985 17.7747 9.99561 17.769 10.1099 17.7589C10.1164 17.9024 10.1224 18.0341 10.1308 18.2176C10.0003 18.1463 9.91484 18.0997 9.81888 18.0473Z" fill="#CC2C3D"/>
<path d="M0 6.33599C0.183241 6.18584 0.266527 6.11754 0.393361 6.01376C0.422733 6.15906 0.436253 6.22668 0.458449 6.33599C0.339125 6.33599 0.238147 6.33599 0 6.33599Z" fill="#CC2C3D"/>
<path d="M2.56046 5.93352C2.67761 5.93352 2.7447 5.93352 2.83014 5.93352C2.84483 6.01069 2.85785 6.07847 2.8727 6.15698C2.6721 6.2745 2.54727 6.27216 2.56046 5.93352Z" fill="#CC2C3D"/>
<path d="M1.17061 11.0371C1.04077 10.7842 0.97836 10.6625 0.902593 10.5147C0.971851 10.5009 1.05529 10.4844 1.17061 10.4614C1.17061 10.632 1.17061 10.7658 1.17061 11.0371Z" fill="#CC2C3D"/>
<path d="M8.61224 15.3322C8.61224 15.4208 8.61224 15.5095 8.61224 15.6359C8.48624 15.6359 8.39794 15.6359 8.30949 15.6359C8.30949 15.5473 8.30949 15.4588 8.30949 15.3322C8.43565 15.3322 8.52395 15.3322 8.61224 15.3322Z" fill="#CC2C3D"/>
<path d="M6.49345 18.4081C6.49345 18.4935 6.49345 18.5428 6.49345 18.6282C6.41685 18.6443 6.33308 18.6617 6.22795 18.6838C6.20809 18.5852 6.1944 18.5176 6.17237 18.4081C6.2917 18.4081 6.39249 18.4081 6.49345 18.4081Z" fill="#CC2C3D"/>
<path d="M5.13344 16.256C5.25077 16.256 5.3177 16.256 5.40315 16.256C5.41783 16.3332 5.43085 16.401 5.4457 16.4795C5.24511 16.597 5.12009 16.5948 5.13344 16.256Z" fill="#CC2C3D"/>
<path d="M2.56482 7.88772C2.55731 7.98515 2.55013 8.07588 2.54245 8.17615C2.45167 8.18385 2.38591 8.18938 2.28511 8.19791C2.2751 8.10601 2.26592 8.02315 2.25374 7.912C2.37707 7.90246 2.46719 7.89542 2.56482 7.88772Z" fill="#CC2C3D"/>
<path d="M5.58376 10.3096C5.46644 10.3096 5.39953 10.3096 5.31408 10.3096C5.29939 10.2326 5.28638 10.1646 5.27152 10.0861C5.47212 9.96844 5.59695 9.97077 5.58376 10.3096Z" fill="#CC2C3D"/>
<path d="M6.12033 0.714324C6.1936 0.832004 6.25183 0.925574 6.32159 1.03756C6.12883 1.07154 5.94827 1.11859 6.12033 0.714324Z" fill="#CC2C3D"/>
<path d="M6.43511 15.7755C6.3762 15.7755 6.30993 15.7755 6.21748 15.7755C6.21748 15.6812 6.21748 15.5977 6.21748 15.5142C6.24151 15.4962 6.26554 15.4783 6.28957 15.4606C6.33747 15.5644 6.38554 15.6682 6.43511 15.7755Z" fill="#CC2C3D"/>
<path d="M12.912 18.8675C12.9868 18.9144 13.0799 18.9726 13.2313 19.0675C12.8641 19.0968 12.8641 19.0968 12.912 18.8675Z" fill="#CC2C3D"/>
<path d="M7.86866 17.4202C7.86866 17.3366 7.86866 17.2704 7.86866 17.1788C7.96478 17.1788 8.04805 17.1788 8.3149 17.1788C8.0821 17.3048 7.98381 17.3581 7.86866 17.4202Z" fill="#CC2C3D"/>
<path d="M9.83532 18.7106C9.83532 18.7057 9.83532 18.6393 9.83532 18.5465C9.92928 18.5465 10.0125 18.5465 10.0958 18.5465C10.1117 18.5684 10.1275 18.5906 10.1434 18.6125C10.0291 18.6488 9.91493 18.6853 9.83532 18.7106Z" fill="#CC2C3D"/>
<path d="M14.1302 17.1919C14.0752 17.247 13.9983 17.3243 13.9299 17.3929C13.9249 17.3638 13.9132 17.297 13.895 17.1919C14.0112 17.1919 14.1115 17.1919 14.1302 17.1919Z" fill="#CC2C3D"/>
<path d="M2.95421 6.66721C2.89513 6.66721 2.82906 6.66721 2.73644 6.66721C2.73644 6.57297 2.73644 6.48943 2.73644 6.4059C2.76047 6.38799 2.7845 6.37008 2.80853 6.35217C2.8566 6.45612 2.90465 6.55991 2.95421 6.66721Z" fill="#CC2C3D"/>
<path d="M1.9538 8.64777C2.04309 8.6543 2.13254 8.66083 2.25353 8.66987C2.24652 8.77634 2.24102 8.85802 2.23434 8.95947C2.09266 8.86757 1.98534 8.7981 1.8782 8.72846C1.9034 8.70151 1.9286 8.67456 1.9538 8.64777Z" fill="#CC2C3D"/>
<path d="M4.24453 10.6142C4.10584 10.6142 4.03975 10.6142 3.9735 10.6142C3.95815 10.5968 3.94295 10.5793 3.9276 10.5618C4.04225 10.5259 4.1569 10.4903 4.21814 10.4712C4.2078 10.4148 4.22016 10.4816 4.24453 10.6142Z" fill="#CC2C3D"/>
<path d="M7.67654 15.1544C7.59276 15.1544 7.50914 15.1544 7.42553 15.1544C7.4222 15.1294 7.41871 15.1045 7.41537 15.0797C7.49965 15.0613 7.58393 15.0429 7.6682 15.0245C7.67087 15.0677 7.6737 15.111 7.67654 15.1544Z" fill="#CC2C3D"/>
<path d="M13.368 18.5436C13.1838 18.491 13.0925 18.465 13.0014 18.4389C13.0718 18.4153 13.1411 18.3835 13.2135 18.3733C13.235 18.3703 13.2651 18.4274 13.368 18.5436Z" fill="#CC2C3D"/>
<path d="M11.3089 20.4676C11.2252 20.4676 11.1415 20.4676 11.0579 20.4676C11.0545 20.4426 11.051 20.4177 11.0477 20.3927C11.1319 20.3743 11.2162 20.3559 11.3005 20.3375C11.3033 20.3809 11.306 20.4242 11.3089 20.4676Z" fill="#CC2C3D"/>
<path d="M13.027 22.5947C13.027 22.5108 13.027 22.4268 13.027 22.3429C13.0511 22.3391 13.0751 22.3351 13.099 22.3312C13.1185 22.4136 13.1382 22.4959 13.1577 22.5783C13.1143 22.5838 13.0706 22.5892 13.027 22.5947Z" fill="#CC2C3D"/>
<path d="M1.02123 4.07276C0.937622 4.07276 0.853861 4.07276 0.77025 4.07276C0.766412 4.04865 0.762395 4.02455 0.758557 4.00061C0.840665 3.98103 0.922769 3.96127 1.00471 3.94168C1.01038 3.98537 1.01572 4.02906 1.02123 4.07276Z" fill="#CC2C3D"/>
<path d="M1.92746 7.16256C1.92746 7.24659 1.92746 7.33062 1.92746 7.41465C1.9026 7.418 1.87772 7.42135 1.85302 7.4247C1.83467 7.34016 1.81632 7.25563 1.79796 7.1711C1.84102 7.16825 1.88424 7.1654 1.92746 7.16256Z" fill="#CC2C3D"/>
<path d="M0.175186 1.9734C0.175186 1.87229 0.175186 1.77102 0.175186 1.66975C0.200386 1.66975 0.225586 1.66975 0.250786 1.66975C0.250786 1.77086 0.250786 1.87212 0.250786 1.9734C0.225753 1.9734 0.200386 1.9734 0.175186 1.9734Z" fill="#CC2C3D"/>
<path d="M3.28974 10.8059C3.28974 10.89 3.28974 10.974 3.28974 11.058C3.26487 11.0614 3.24 11.0647 3.21514 11.0681C3.19678 10.9836 3.17843 10.899 3.16007 10.8145C3.2033 10.8115 3.24652 10.8086 3.28974 10.8059Z" fill="#CC2C3D"/>
<path d="M5.18206 11.8407C5.18206 11.7901 5.18206 11.7396 5.18206 11.6889C5.19892 11.6889 5.21577 11.6889 5.23246 11.6889C5.23246 11.7394 5.23246 11.79 5.23246 11.8407C5.21561 11.8407 5.19892 11.8407 5.18206 11.8407Z" fill="#CC2C3D"/>
<path d="M5.18206 17.4575C5.18206 17.4069 5.18206 17.3562 5.18206 17.3056C5.19892 17.3056 5.21577 17.3056 5.23246 17.3056C5.23246 17.3562 5.23246 17.4069 5.23246 17.4575C5.21561 17.4575 5.19892 17.4575 5.18206 17.4575Z" fill="#CC2C3D"/>
<path d="M16.8353 17.3057C16.8353 17.2552 16.8353 17.2046 16.8353 17.1539C16.8521 17.1539 16.869 17.1539 16.8857 17.1539C16.8857 17.2044 16.8857 17.255 16.8857 17.3057C16.869 17.3057 16.8521 17.3057 16.8353 17.3057Z" fill="#CC2C3D"/>
<path d="M8.08254 18.7836C8.14162 18.7836 8.18951 18.7676 8.18951 18.7478C8.18951 18.728 8.14162 18.712 8.08254 18.712C8.02346 18.712 7.97556 18.728 7.97556 18.7478C7.97556 18.7676 8.02346 18.7836 8.08254 18.7836Z" fill="#CC2C3D"/>
<path d="M16.9361 18.9249C16.8857 18.9249 16.8353 18.9249 16.7847 18.9249C16.7847 18.908 16.7847 18.8912 16.7847 18.8743C16.8351 18.8743 16.8857 18.8743 16.9361 18.8743C16.9361 18.8912 16.9361 18.908 16.9361 18.9249Z" fill="#CC2C3D"/>
<path d="M14.1983 19.7504C14.1571 19.7151 14.1159 19.68 14.0747 19.6446C14.0905 19.6287 14.1064 19.6127 14.1224 19.5968C14.1576 19.6381 14.1928 19.6795 14.2279 19.7208C14.218 19.7305 14.2082 19.7404 14.1983 19.7504Z" fill="#CC2C3D"/>
<path d="M13.8956 22.0275C13.8543 21.9921 13.8131 21.957 13.7719 21.9217C13.7878 21.9058 13.8038 21.8897 13.8196 21.8738C13.8548 21.9152 13.8899 21.9565 13.9251 21.9978C13.9152 22.0077 13.9052 22.0176 13.8956 22.0275Z" fill="#CC2C3D"/>
<path d="M3.81995 1.97346C3.81995 1.92291 3.81995 1.87235 3.81995 1.82163C3.8368 1.82163 3.85366 1.82163 3.87035 1.82163C3.87035 1.87219 3.87035 1.92291 3.87035 1.97346C3.85366 1.97346 3.8368 1.97346 3.81995 1.97346Z" fill="#CC2C3D"/>
<path d="M6.49359 0.961528C6.54399 0.961528 6.59455 0.961528 6.64495 0.961528C6.64495 0.978435 6.64495 0.995343 6.64495 1.01208C6.59455 1.01208 6.54415 1.01208 6.49359 1.01208C6.49359 0.995175 6.49359 0.978435 6.49359 0.961528Z" fill="#CC2C3D"/>
<path d="M2.15506 0.151836C2.15506 0.101282 2.15506 0.0505539 2.15506 0C2.17191 0 2.18877 0 2.20546 0C2.20546 0.0505539 2.20546 0.101282 2.20546 0.151836C2.1886 0.151836 2.17191 0.151836 2.15506 0.151836Z" fill="#CC2C3D"/>
<path d="M4.67744 6.98295C4.72784 6.9324 4.77823 6.88168 4.8288 6.83112C4.77823 6.88185 4.72784 6.9324 4.67744 6.98295Z" fill="#CC2C3D"/>
</svg>
