<svg width="37" height="33" viewBox="0 0 37 33" fill="none" xmlns="http://www.w3.org/2000/svg">
<path d="M29.1372 20.0389C27.1282 21.0684 25.1138 22.0604 22.9454 23.3216C21.7276 24.0273 20.4974 24.7482 19.5069 25.7489C17.3536 27.9268 16.4865 31.2875 13.9595 33L13.9495 32.9851C16.7768 31.1545 15.9467 24.819 12.0937 18.8396C8.24319 12.8577 2.82729 9.49464 0 11.3278C1.76807 9.69133 4.30381 9.64542 6.68128 9.28171C12.6478 8.37054 17.7537 4.68025 22.8955 1.51192C24.1599 0.735621 25.5266 -0.0416753 27.0069 0.00173783C28.5868 0.0441568 29.9852 1.01565 31.1481 2.08706C33.4285 4.18813 36.6296 8.88784 36.6879 14.1549C36.5751 15.4356 35.8705 16.1582 34.5718 16.9823C33.1914 17.8598 31.8643 18.6043 30.5516 19.2986C30.0785 19.5513 29.6079 19.7938 29.1372 20.0389ZM26.2016 19.0472C26.6524 18.8172 26.8331 18.2629 26.604 17.8107C26.3747 17.3561 25.8221 17.1748 25.3688 17.4046L22.0939 19.0729C21.643 19.3029 21.4623 19.8571 21.6916 20.3118C21.9209 20.764 22.4735 20.9453 22.9268 20.7153L26.2016 19.0472ZM24.5729 15.0621C25.0237 14.8321 25.2045 14.2779 24.9754 13.8232C24.7461 13.371 24.1935 13.1897 23.7402 13.4197L20.4677 15.088C20.0144 15.318 19.8337 15.8722 20.0628 16.3244C20.2946 16.7791 20.8471 16.9604 21.298 16.7279L24.5729 15.0621ZM22.2318 11.5248C22.6826 11.2948 22.8633 10.7405 22.6342 10.2883C22.4049 9.83366 21.8524 9.65239 21.3991 9.88221L18.1241 11.5505C17.6733 11.7805 17.4926 12.3347 17.7218 12.7894C17.9511 13.2416 18.5037 13.4229 18.957 13.1929L22.2318 11.5248ZM19.6297 8.26515C20.083 8.03516 20.2637 7.4809 20.0319 7.02622C19.8026 6.57403 19.25 6.39276 18.7992 6.62258L15.5243 8.29084C15.0735 8.52083 14.8927 9.07509 15.122 9.52728C15.3513 9.98196 15.9039 10.1632 16.3547 9.93341L19.6297 8.26515Z" fill="#323B6E"/>
</svg>
