<svg width="8" height="12" viewBox="0 0 8 12" fill="none" xmlns="http://www.w3.org/2000/svg">
<path d="M2.03337 12C1.39229 12 0.749143 11.86 0.141369 11.5444C0.0131885 11.4777 -0.0371118 11.3194 0.0293201 11.1907C0.0959255 11.0621 0.253759 11.0116 0.38194 11.0783C1.97041 11.9036 4.60219 11.4308 6.08329 9.2278C7.47402 7.15846 7.38852 4.5409 7.07179 2.70939C6.91707 1.81686 6.68863 1.02977 6.39272 0.370033C6.3334 0.23798 6.39221 0.0826113 6.52403 0.0231095C6.65551 -0.0362183 6.81058 0.0225908 6.8699 0.154817C7.18818 0.864315 7.42286 1.67055 7.58729 2.61962C7.92032 4.54612 8.00514 7.30704 6.5171 9.52113C5.57716 10.9194 3.81385 12 2.03337 12Z" fill="#BF453F"/>
</svg>
