<svg width="10" height="15" viewBox="0 0 10 15" fill="none" xmlns="http://www.w3.org/2000/svg">
<path d="M8.14064 11.5609C8.66888 11.7003 9.20899 11.7232 9.74578 11.6777C9.63315 11.9774 9.49956 12.2722 9.34467 12.5538C8.84647 13.4601 8.13889 14.2447 7.21408 14.6803C6.16616 15.1754 4.82225 15.1031 3.92189 14.4105L3.86339 14.3636C3.87631 14.3503 3.88679 14.337 3.89709 14.3237C4.79536 13.162 4.55839 11.5004 4.17143 10.081C3.6472 8.16385 2.93386 6.30157 2.04258 4.52845C1.68443 3.81923 1.28157 3.10248 0.654667 2.61554C0.452801 2.46192 0.232774 2.33494 0 2.23982C0.515316 1.44951 1.08302 0.632222 1.93711 0.24232C2.86454 -0.185417 3.98842 -0.0130636 4.87621 0.494896C5.31085 0.743621 5.69363 1.06434 6.04008 1.42762C6.40243 1.80403 6.7178 2.22581 7.00698 2.66108C7.82911 3.89875 8.44483 5.27339 8.82674 6.70882C7.74616 6.87136 6.64393 7.21397 6.16721 8.15965C5.49229 9.50101 6.69056 11.1755 8.14064 11.5609Z" fill="#FEA77C"/>
</svg>
