<svg width="49" height="124" viewBox="0 0 49 124" fill="none" xmlns="http://www.w3.org/2000/svg">
<path d="M13.4977 120.187L12.861 97.483C12.3335 97.2022 11.9696 96.6604 11.9626 96.0274C11.9523 95.0976 12.7042 94.3365 13.641 94.3261C13.7951 94.3244 13.9419 94.3502 14.084 94.3859L45.3119 62.3585C45.2152 62.1478 45.1554 61.9165 45.1527 61.6697C45.1486 61.3033 45.2643 60.9681 45.4601 60.6916L0 0.738665C0.469466 0.494206 0.938934 0.252062 1.41087 0L46.8886 59.9726C47.8008 59.9922 48.5395 60.7218 48.5496 61.6316C48.5598 62.5586 47.8079 63.3225 46.8686 63.3329C46.7717 63.334 46.6771 63.32 46.5826 63.3061L15.2539 95.4393C15.3156 95.6132 15.3572 95.7946 15.3594 95.989C15.3666 96.647 14.9853 97.2171 14.4318 97.4974L15.0682 120.169L15.1091 121.616L15.1539 123.191C15.1661 123.625 14.8248 123.988 14.39 124C14.3875 124 14.3826 124 14.3776 124C13.9502 124.005 13.596 123.665 13.5838 123.236L13.5387 121.629L13.4977 120.187Z" fill="#323B6E"/>
</svg>
