<svg width="106" height="20" viewBox="0 0 106 20" fill="none" xmlns="http://www.w3.org/2000/svg">
<path d="M106 19.634H0C0 19.634 1.99791 18.4322 5.75218 16.5343C5.75218 16.5343 5.77716 16.5223 5.83547 16.4985C10.3721 14.2079 17.4392 10.9296 26.6374 7.53234C43.5602 1.28514 53 0 53 0C53 0 62.4398 1.28514 79.3626 7.53234C82.2095 8.58544 84.8482 9.62663 87.2704 10.6321C87.3786 10.6738 87.4786 10.7154 87.5619 10.7511C87.6202 10.769 87.6785 10.7928 87.7285 10.8166C87.8451 10.8642 87.9201 10.8939 87.9451 10.9058C89.7514 11.6614 91.4328 12.3873 92.9809 13.0834C98.5415 15.5763 102.437 17.6349 104.435 18.7416C105.468 19.3128 106 19.634 106 19.634Z" fill="#FF8412"/>
</svg>
