<svg width="16" height="12" viewBox="0 0 16 12" fill="none" xmlns="http://www.w3.org/2000/svg">
<path d="M4.92871 4.25899H7.09793C7.03118 4.08863 6.93107 3.95234 6.86432 3.81606L5.39593 4.05456L4.0944 3.85013L3.99428 4.08863C4.02765 4.08863 4.0944 4.08863 4.12777 4.08863C4.46149 4.05456 4.72848 4.1227 4.92871 4.25899ZM8.63307 4.77007L10.5687 6.37146C10.5353 6.26925 10.5353 6.2011 10.5353 6.13296C10.5353 5.28116 11.2028 4.56564 12.0704 4.56564C12.9048 4.56564 13.6056 5.24708 13.6056 6.13296C13.6056 6.23517 13.5722 6.40553 13.5388 6.54182L14.5734 6.16703L13.105 3.81606C13.0382 3.71384 12.9048 3.6457 12.7713 3.6457L10.5687 4.02049L9.13365 3.78198C9.00016 4.1227 8.8333 4.42935 8.63307 4.77007Z" fill="white"/>
<path d="M15.9418 8.38172L14.7404 6.47369L13.3721 6.98477C13.1051 7.70028 12.6379 8.62023 12.3376 9.16538C12.2041 9.40388 11.9037 9.40388 11.7702 9.16538C11.4699 8.62023 11.0026 7.70028 10.7357 6.98477L8.39959 5.07673C8.29947 5.17895 8.13261 5.21302 7.96574 5.21302C7.73214 5.21302 7.49853 5.07673 7.36504 4.8723C7.33167 4.80415 7.26492 4.70194 7.23155 4.63379H5.29594C5.52955 4.90637 5.66304 5.28116 5.66304 5.65596C5.66304 5.69003 5.66304 5.69003 5.66304 5.7241C6.03014 5.75817 6.29712 5.82632 6.49735 6.13297C6.89782 6.74626 6.36386 7.12106 6.63084 7.52992C6.83108 7.87064 7.1648 7.76842 7.899 7.90471L9.26727 8.10915C9.73449 8.17729 10.0348 8.58616 10.0015 9.06316V9.71053L12.5378 11.0053L15.875 8.8928C16.0085 8.75652 16.0419 8.55208 15.9418 8.38172Z" fill="white"/>
<path d="M9.26714 8.44988C7.33154 8.07508 6.73083 8.27952 6.3971 7.70029C5.99663 7.08699 6.59734 6.78034 6.29699 6.30333C6.1635 6.0989 5.99663 6.06483 5.66291 6.06483C5.46267 6.84849 4.82859 8.04101 4.46149 8.75652C4.328 8.99503 3.99428 8.99503 3.86079 8.75652C3.39357 7.90472 2.59263 6.26926 2.59263 5.65596C2.59263 4.97452 2.9931 4.3953 3.59381 4.15679L3.79404 3.74793L3.22671 3.64571C3.09322 3.61164 2.95973 3.67978 2.89298 3.81607L0.0563162 8.38173C-0.0438015 8.55209 -0.0104289 8.75653 0.156434 8.85874L3.46032 10.9712L7.99899 8.68838L9.66761 9.54018L9.73436 9.0291C9.73436 8.72245 9.5675 8.48395 9.26714 8.44988ZM8.29934 4.70195C8.76656 3.85015 9.5675 2.21469 9.5675 1.60139C9.5675 0.715514 8.86667 0 7.99899 0C7.1313 0 6.43048 0.715514 6.43048 1.60139C6.43048 2.24876 7.26479 3.85015 7.69863 4.70195C7.8655 4.94045 8.19922 4.94045 8.29934 4.70195ZM7.16467 1.56732C7.16467 1.09031 7.53177 0.715514 8.03236 0.715514C8.49958 0.715514 8.86667 1.09031 8.86667 1.56732C8.86667 2.04432 8.49958 2.41912 8.03236 2.41912C7.56514 2.45319 7.16467 2.04432 7.16467 1.56732Z" fill="white"/>
<path d="M12.0705 6.98478C12.5313 6.98478 12.9048 6.60341 12.9048 6.13297C12.9048 5.66254 12.5313 5.28117 12.0705 5.28117C11.6097 5.28117 11.2362 5.66254 11.2362 6.13297C11.2362 6.60341 11.6097 6.98478 12.0705 6.98478Z" fill="white"/>
<path d="M4.16114 6.50776C4.62192 6.50776 4.99546 6.12639 4.99546 5.65596C4.99546 5.18552 4.62192 4.80415 4.16114 4.80415C3.70036 4.80415 3.32683 5.18552 3.32683 5.65596C3.32683 6.12639 3.70036 6.50776 4.16114 6.50776Z" fill="white"/>
</svg>
