<svg width="13" height="28" viewBox="0 0 13 28" fill="none" xmlns="http://www.w3.org/2000/svg">
<path d="M11.9919 5.74531C12.2151 13.0772 12.8889 21.929 12.9122 27.8508L12.9127 27.9008L7.39106 27.9999L7.39071 27.9749C7.26595 26.6114 7.1412 25.2478 7.01395 23.8845C6.91777 22.8457 6.79828 21.742 6.15131 20.9268C5.41263 19.9326 3.72159 19.1391 2.19051 18.1661C1.43762 17.6896 0.691171 17.1305 0.278698 16.3401C-0.136254 15.5473 -0.118405 14.4647 0.540296 13.8599C0.974417 13.4576 1.61858 13.3329 2.19796 13.4465C2.77733 13.5575 3.29938 13.8842 3.7373 14.2792C4.15275 14.657 4.50902 15.1055 4.96859 15.4255C5.34289 15.6862 6.00175 15.9963 6.31755 15.483C6.42778 15.3018 6.45521 15.0815 6.46033 14.869C6.4643 14.7815 6.46332 14.694 6.46497 14.6089C6.48051 13.7612 6.30352 12.8658 6.23692 12.0166C6.16157 11.06 6.09612 10.1034 6.05067 9.1465C5.95714 7.22768 5.94079 5.30057 6.07663 3.38424C6.15182 2.29354 6.34269 1.084 7.20515 0.416984C8.3839 -0.49353 10.2232 0.195862 11.0445 1.43657C11.8656 2.67943 11.9479 4.25348 11.9919 5.74531Z" fill="#FF5C6C"/>
</svg>
