<svg width="2" height="2" viewBox="0 0 2 2" fill="none" xmlns="http://www.w3.org/2000/svg">
<path d="M1.50585 1.06048C1.38294 1.06048 1.26004 1.06048 1.08985 1.06048C1.04923 1.27702 1.00702 1.50241 0.957321 1.76612C0.690138 1.76612 0.415739 1.76612 0.0122919 1.76612C0.0999281 1.63588 0.16325 1.54181 0.243138 1.42308C0.182755 1.35635 0.10527 1.27032 0 1.15374C0.248214 0.989725 0.494558 0.826784 0.740634 0.664375C0.682388 0.606755 0.62441 0.548601 0.494826 0.41862C0.656739 0.376544 0.786858 0.370642 0.883044 0.310342C1.00889 0.23155 1.10748 0.109344 1.22424 0C1.4126 0.127032 1.53337 0.208773 1.64826 0.286493C1.73242 0.218153 1.81471 0.151422 2.00014 0.00134131C2.00014 0.342506 2.00014 0.577545 2.00014 0.812582C1.81311 0.849834 1.52696 0.689298 1.50585 1.06048Z" fill="#F57D77"/>
</svg>
