<svg width="18" height="10" viewBox="0 0 18 10" fill="none" xmlns="http://www.w3.org/2000/svg">
<path d="M15.6589 9.16589C15.4287 9.13967 15.1551 9.27479 14.9623 9.02455C14.7949 9.26622 14.5518 9.15126 14.3192 9.16454C14.253 9.06572 14.1848 8.96387 14.1165 8.86186C14.1681 8.8101 14.2198 8.75817 14.2715 8.70641C14.3231 8.70641 14.3748 8.70641 14.6144 8.79615C14.6969 8.76691 14.666 8.70842 14.6439 8.71144C14.5699 8.72203 14.4988 8.75447 14.4266 8.77867C14.5201 8.80539 14.6134 8.83195 14.6144 8.79615C14.4095 8.66339 14.3926 8.62036 14.3755 8.57734C14.3408 8.62036 14.3061 8.66338 14.2715 8.70623C14.2197 8.75816 14.1681 8.80994 14.1165 8.8617C13.9873 8.8617 13.8581 8.8617 13.7536 8.8617C13.6507 8.65986 13.577 8.44978 13.4493 8.28071C13.2784 8.0545 13.3005 7.87451 13.4915 7.69065C13.3846 7.55016 13.2776 7.40983 13.0825 7.1537C13.0475 7.4915 13.0277 7.68259 13.0023 7.92863C12.8607 7.92863 12.7133 7.92863 12.5658 7.92863C12.5142 7.87687 12.4624 7.82493 12.3953 7.78577C12.4326 7.6204 12.4762 7.47403 12.5223 7.31907C12.2346 7.31907 11.9611 7.31907 11.6941 7.31907C11.6178 7.40378 11.5507 7.47839 11.4835 7.55301C11.5086 7.58141 11.5337 7.60981 11.5589 7.63838C11.7046 7.57267 11.8506 7.50713 11.9875 7.44562C12.132 7.5757 12.2584 7.68931 12.3954 7.78595C12.4626 7.82511 12.5142 7.87703 12.566 7.92879C12.6664 8.27063 12.9761 7.95317 13.1447 8.14442C13.1864 8.28996 13.2379 8.46927 13.2668 8.57061C13.2136 8.68909 13.1604 8.80775 13.084 8.97782C12.8952 8.71935 12.7748 8.55448 12.6546 8.39012C12.5874 8.44978 12.5343 8.49701 12.4603 8.56289C12.309 8.3597 12.1637 8.16442 12.0037 7.94964C11.8769 8.14257 12.0029 8.56709 11.5166 8.54893C11.4987 8.42003 11.4794 8.28171 11.4615 8.15264C11.2588 8.07719 11.0596 8.00291 10.8602 7.92863C10.9106 7.74544 10.9612 7.56225 11.0115 7.38008C10.6813 7.11807 10.4024 7.51049 10.1059 7.45167C9.83145 7.39722 9.57443 7.2547 9.30954 7.15118C9.30954 7.00379 9.30954 6.8564 9.30954 6.64229C9.19343 6.73657 9.14183 6.77842 9.09692 6.81472C8.90977 6.7196 8.72195 6.62432 8.53429 6.52903C8.53429 6.47727 8.53429 6.42533 8.53429 6.35239C8.8327 6.27677 9.1373 6.22114 9.44173 6.16551C9.29613 6.05577 9.15037 5.94586 9.0098 5.83981C9.07899 5.74301 9.11183 5.6973 9.24721 5.50806C8.89905 5.65579 8.71224 5.73511 8.53447 5.81057C8.53447 6.01611 8.53447 6.19492 8.53447 6.35239C8.49158 6.39054 8.44868 6.40768 8.40595 6.42466C8.44885 6.45945 8.49174 6.49424 8.53447 6.52903C8.48387 6.71188 8.4331 6.89472 8.3825 7.07757C8.41182 7.04883 8.4413 7.01993 8.47063 6.99119C8.51017 7.1048 8.54971 7.21841 8.61069 7.39386C8.68542 7.17387 8.71575 7.08446 8.76517 6.93942C8.95886 7.01471 9.13428 7.08295 9.3097 7.15135C9.15372 7.27958 8.99773 7.40781 8.8838 7.50125C8.92753 7.66292 8.96356 7.79585 8.99958 7.92896C8.85331 7.91182 8.67805 7.94022 8.56647 7.86862C8.29202 7.69266 8.06265 7.73838 7.80731 7.90644C7.61563 7.77788 7.6039 7.43369 7.28556 7.38512C7.34002 7.09959 7.39448 6.81439 7.44893 6.52919C7.5007 6.47743 7.5523 6.4255 7.55431 6.3739C7.78284 6.30517 7.96782 6.26265 8.14978 6.20987C8.1729 6.20315 8.18094 6.14316 8.19368 6.11307C8.06299 6.05072 7.939 5.99174 7.79508 5.923C7.7237 6.03358 7.6463 6.15392 7.55415 6.37374C7.55214 6.42533 7.50053 6.4771 7.44875 6.52903C7.34538 6.52903 7.24201 6.52903 7.13863 6.52903C7.13863 6.40063 7.13863 6.27207 7.13863 6.10317C6.82012 6.10317 6.49809 6.10317 6.14758 6.10317C5.974 5.88586 5.80914 5.67965 5.64276 5.47142C5.6173 5.49478 5.56369 5.54403 5.47673 5.62369C5.25808 5.47747 5.0282 5.32404 4.70232 5.10623C4.92801 5.02657 5.06808 4.977 5.23496 4.91801C5.20547 4.84994 5.14833 4.75835 5.12755 4.65903C5.10695 4.56054 5.12304 4.4545 5.02167 4.20896C5.04747 4.19955 5.12069 4.27635 5.24032 4.40173C5.25205 4.25635 5.26009 4.15686 5.26947 4.03905C5.14582 4.04863 5.07947 4.05385 5.02167 4.20896C5.0396 4.40089 4.95616 4.44996 4.82229 4.52861C4.40392 4.06073 3.75652 4.09502 3.16005 3.93385C3.13291 3.992 3.08466 4.09552 3.03774 4.19618C2.97826 4.19618 2.92665 4.19618 2.82411 4.19618C2.81373 4.05938 2.80317 3.91889 2.79664 3.83083C3.05918 3.70327 3.27465 3.5984 3.53469 3.47202C3.53201 3.46984 3.58311 3.51067 3.65415 3.56714C3.68247 3.51336 3.71094 3.45924 3.76841 3.35017C3.43315 3.21472 3.15921 2.887 2.77301 3.33824C2.64333 3.16733 2.54582 3.03876 2.43892 2.89776C2.69158 2.72096 3.13592 2.86247 3.0937 2.35997C2.82194 2.20401 2.50058 2.78616 2.23938 2.29677C2.20704 2.40231 2.18593 2.47106 2.14823 2.59374C2.02743 2.61912 1.86893 2.65239 1.69334 2.68936C1.74964 2.75087 1.78298 2.78751 1.76823 2.77121C1.64173 2.89893 1.51054 3.0312 1.37952 3.16346C1.41253 3.19657 1.44553 3.22968 1.47854 3.26279C1.24615 3.26279 1.01377 3.26279 0.781385 3.26279C0.8159 3.12935 0.850246 2.99591 0.899672 2.80466C0.788924 2.83625 0.667115 2.8712 0.497892 2.9196C0.446623 2.82952 0.370558 2.69575 0.202844 2.4008C0.493036 2.52046 0.613832 2.57021 0.786406 2.6413C0.865153 2.60181 0.991815 2.53811 1.16355 2.45172C1.21298 2.56802 1.25654 2.67004 1.30798 2.79104C1.39862 2.57576 1.48558 2.36871 1.58309 2.13712C1.68279 2.22872 1.73657 2.27813 1.79119 2.32838C1.86173 2.25695 1.93377 2.18384 2.01755 2.09914C1.75483 2.00335 1.49563 1.90873 1.18919 1.7968C1.28955 1.64202 1.36763 1.52152 1.44436 1.40337C1.65447 1.50135 1.73758 1.79579 2.03363 1.7173C2.22447 1.87141 2.22446 1.87142 2.48165 1.72688C2.3079 1.72688 2.16482 1.72688 2.03363 1.7173C1.83073 1.48521 1.63972 1.2627 1.41169 0.996834C1.26961 1.21313 1.16975 1.36539 1.06135 1.5306C0.885593 1.5306 0.714194 1.5306 0.508446 1.5306C0.488005 1.40825 0.464549 1.26674 0.435563 1.09381C0.35447 1.14137 0.287955 1.18053 0.221271 1.21985C-0.0918747 1.036 0.025409 0.730457 0.00614109 0.46341C0.219094 0.424252 0.43204 0.3851 0.707153 0.334514C0.72374 0.34527 0.800315 0.395183 0.877052 0.445264C0.896822 0.401737 0.942894 0.348625 0.931333 0.316358C0.899499 0.227286 0.84354 0.146957 0.797297 0.063263C0.827456 0.0456168 0.881067 -0.00950364 0.908712 0.00142025C1.57471 0.26393 2.23603 0.538371 2.90253 0.799704C3.21383 0.921883 3.53485 1.01868 3.84984 1.13178C4.14405 1.23749 4.42989 1.34858 4.74437 1.41127C5.33079 1.52807 5.90297 1.72168 6.47514 1.90218C6.87022 2.02688 7.25474 2.17157 7.67897 2.17846C8.12967 2.18586 8.541 2.43862 9.00226 2.41476C9.09374 2.41005 9.18723 2.47811 9.28106 2.48215C9.62771 2.4966 9.9618 2.49945 10.3078 2.62197C10.6209 2.73289 10.981 2.61659 11.3312 2.77423C11.584 2.88801 11.9286 2.79642 12.2962 2.79642C12.2036 2.91238 12.1622 2.96414 12.0918 3.05204C12.1838 3.07691 12.2622 3.09792 12.353 3.12245C12.3937 3.00717 12.4256 2.91709 12.4628 2.81171C13.0437 2.81171 13.6301 2.81171 14.2884 2.81171C14.2294 2.89557 14.1974 2.94095 14.129 3.03809C14.2438 3.07909 14.3753 3.12615 14.537 3.18379C14.532 3.2048 14.5652 3.0675 14.5903 2.96347C14.6287 2.9823 14.5305 2.93423 14.4318 2.886C14.5199 2.75861 14.8163 2.75642 15.5126 2.87457C15.4081 2.93104 15.3036 2.98515 15.2027 3.04548C15.1913 3.0522 15.2012 3.09473 15.2012 3.19203C15.332 3.22581 15.481 3.26446 15.6294 3.30278C15.6611 3.39421 15.6924 3.48428 15.7259 3.58125C15.794 3.52058 15.8487 3.47169 15.9035 3.42295C16.5958 5.87494 17.0762 7.00715 17.9999 8.08038C17.9469 8.18273 17.892 8.28911 17.837 8.39533C17.712 8.33583 17.5869 8.27635 17.4302 8.20173C17.4044 8.31265 17.3625 8.38894 17.379 8.44961C17.3967 8.51583 17.4684 8.56742 17.5195 8.62876C17.4721 8.67867 17.4297 8.74775 17.3681 8.78338C17.2037 8.87834 17.031 8.959 16.8513 9.05043C16.6771 8.70809 16.5169 8.39364 16.3415 8.04929C16.2564 8.09601 16.1817 8.13702 16.0461 8.21147C16.221 8.40171 16.3512 8.54339 16.4841 8.68809C16.4057 8.8017 16.3532 8.87766 16.3008 8.95363C16.3371 8.99026 16.3735 9.02672 16.4467 9.10017C16.2939 9.20671 16.1487 9.30806 15.9883 9.41982C15.9791 9.51377 15.967 9.63595 15.9533 9.7756C15.8162 9.7756 15.6949 9.7756 15.5715 9.7756C15.5527 9.73661 15.5066 9.68704 15.5157 9.65174C15.5582 9.4899 15.6154 9.3321 15.6589 9.16589C15.6609 9.16891 15.671 9.17899 15.681 9.18924C15.7233 9.15311 15.7655 9.11697 15.8077 9.08084C15.7914 9.06454 15.775 9.04807 15.7588 9.03177C15.7229 9.07412 15.6869 9.11648 15.6589 9.16589ZM15.0609 7.60125C15.0509 7.61133 15.0408 7.62141 15.0306 7.63166C15.0666 7.67401 15.1027 7.71636 15.1387 7.75871C15.1549 7.74241 15.1714 7.72611 15.1876 7.70964C15.1454 7.67351 15.1032 7.63738 15.0328 7.63385C15.0428 7.62376 15.0529 7.61369 15.0631 7.60343C15.0271 7.56108 14.9911 7.51873 14.955 7.47637C14.9388 7.49268 14.9224 7.50914 14.9061 7.52545C14.9483 7.56158 14.9906 7.59772 15.0609 7.60125ZM7.53874 6.97135C7.64412 7.09034 7.67494 7.149 7.69706 7.1458C7.77111 7.13522 7.84216 7.10261 7.91438 7.07858C7.82089 7.05186 7.72756 7.0253 8.03484 7.14681C7.99028 7.14916 7.94553 7.15135 7.9008 7.1537C7.92057 7.25504 7.94034 7.35639 7.96011 7.45773C7.99345 7.45319 8.0268 7.44865 8.06031 7.44411C8.05159 7.34496 8.04322 7.24596 7.53874 6.97135ZM14.3154 8.24559C14.5504 8.27769 14.6789 8.12223 14.7426 7.90644C14.7039 7.70057 14.3448 7.8456 14.4145 7.55335C14.4159 7.5478 14.2354 7.49856 14.1 7.45789C14.1842 7.76544 14.2473 7.99669 14.4194 8.35045C14.1359 8.23483 13.991 8.17567 13.803 8.09904C13.8164 8.21735 13.8261 8.30206 13.8377 8.40491C14.0096 8.38877 14.1429 8.37634 14.3154 8.24559ZM5.30801 4.05855C5.88387 4.3619 5.98976 4.5234 5.86628 4.77213C5.77681 4.80473 5.68733 4.83733 5.60038 4.86893C5.61612 5.03362 5.47924 5.24841 5.75687 5.29547C6.16987 4.93615 6.02595 4.4871 6.05677 4.05855C5.8212 4.05855 5.64796 4.05855 5.30801 4.05855ZM9.96834 6.87858C10.1163 6.99001 10.2197 7.06799 10.3296 7.15068C10.4087 6.98043 10.4658 6.85758 10.5239 6.73237C10.4539 6.66633 10.3832 6.59995 10.3131 6.5339C10.231 6.61591 10.158 6.68901 9.96834 6.87858ZM15.8221 8.35634C15.8221 8.33046 15.8221 8.30441 15.8221 8.27853C15.7187 8.27853 15.6153 8.27853 15.512 8.27853C15.512 8.30441 15.512 8.33029 15.512 8.35634C15.6153 8.35634 15.7187 8.35634 15.8221 8.35634ZM7.1145 5.41361C7.1088 5.36891 7.10328 5.32403 7.09775 5.27933C7.01364 5.2995 6.92953 5.31967 6.84542 5.33967C6.84945 5.36437 6.8533 5.38891 6.85732 5.41361C6.9431 5.41361 7.02888 5.41361 7.1145 5.41361ZM6.63515 4.35147C6.60935 4.35147 6.58355 4.35147 6.55758 4.35147C6.55758 4.45517 6.55758 4.55886 6.55758 4.66255C6.58338 4.66255 6.60918 4.66255 6.63515 4.66255C6.63515 4.55886 6.63515 4.45517 6.63515 4.35147ZM11.4806 2.99053C11.4806 3.01641 11.4806 3.04245 11.4806 3.06834C11.584 3.06834 11.6874 3.06834 11.7908 3.06834C11.7908 3.04245 11.7908 3.01658 11.7908 2.99053C11.6874 2.99053 11.584 2.99053 11.4806 2.99053ZM8.32788 5.75124C8.31062 5.75124 8.29337 5.75124 8.27627 5.75124C8.27627 5.803 8.27627 5.85494 8.27627 5.9067C8.29353 5.9067 8.31079 5.9067 8.32788 5.9067C8.32788 5.85494 8.32788 5.803 8.32788 5.75124ZM7.91438 6.58062C7.91438 6.59793 7.91438 6.61524 7.91438 6.63255C7.96598 6.63255 8.01775 6.63255 8.06936 6.63255C8.06936 6.61524 8.06936 6.59793 8.06936 6.58062C8.01775 6.58062 7.96598 6.58062 7.91438 6.58062ZM11.3256 6.58062C11.3256 6.59793 11.3256 6.61524 11.3256 6.63255C11.3772 6.63255 11.429 6.63255 11.4806 6.63255C11.4806 6.61524 11.4806 6.59793 11.4806 6.58062C11.429 6.58062 11.3772 6.58062 11.3256 6.58062ZM10.7054 6.73624C10.7054 6.75355 10.7054 6.77086 10.7054 6.788C10.757 6.788 10.8087 6.788 10.8604 6.788C10.8604 6.77069 10.8604 6.75338 10.8604 6.73624C10.8087 6.73624 10.757 6.73624 10.7054 6.73624ZM13.7031 7.773C13.7204 7.773 13.7376 7.773 13.7547 7.773C13.7547 7.72124 13.7547 7.66931 13.7547 7.61755C13.7375 7.61755 13.7202 7.61755 13.7031 7.61755C13.7031 7.66931 13.7031 7.72124 13.7031 7.773ZM16.7009 7.773C16.6836 7.773 16.6664 7.773 16.6493 7.773C16.6493 7.82493 16.6493 7.87669 16.6493 7.92846C16.6665 7.92846 16.6838 7.92846 16.7009 7.92846C16.7009 7.87669 16.7009 7.82493 16.7009 7.773ZM1.55696 0.56694C1.55696 0.549629 1.55696 0.532322 1.55696 0.51518C1.50535 0.51518 1.45358 0.51518 1.40198 0.51518C1.40198 0.53249 1.40198 0.549797 1.40198 0.56694C1.45358 0.56694 1.50535 0.56694 1.55696 0.56694ZM3.05583 1.55193C3.03857 1.55193 3.02132 1.55193 3.00423 1.55193C3.00423 1.60369 3.00423 1.65563 3.00423 1.70739C3.02149 1.70739 3.03874 1.70739 3.05583 1.70739C3.05583 1.65563 3.05583 1.60369 3.05583 1.55193ZM4.14137 2.32955C4.12411 2.32955 4.10686 2.32955 4.08977 2.32955C4.08977 2.38131 4.08977 2.43324 4.08977 2.485C4.10703 2.485 4.12428 2.485 4.14137 2.485C4.14137 2.43324 4.14137 2.38131 4.14137 2.32955ZM3.62449 2.95171C3.64175 2.95171 3.65901 2.95171 3.6761 2.95171C3.6761 2.89994 3.6761 2.84802 3.6761 2.79625C3.65884 2.79625 3.64158 2.79625 3.62449 2.79625C3.62449 2.84802 3.62449 2.89978 3.62449 2.95171ZM13.4964 3.15909C13.4964 3.1764 13.4964 3.19371 13.4964 3.21085C13.548 3.21085 13.5998 3.21085 13.6514 3.21085C13.6514 3.19354 13.6514 3.17624 13.6514 3.15909C13.5998 3.15909 13.548 3.15909 13.4964 3.15909ZM11.4288 3.26279C11.4116 3.26279 11.3943 3.26279 11.3772 3.26279C11.3772 3.31455 11.3772 3.36648 11.3772 3.41824C11.3945 3.41824 11.4118 3.41824 11.4288 3.41824C11.4288 3.36648 11.4288 3.31455 11.4288 3.26279ZM3.93462 3.72932C3.95187 3.72932 3.96914 3.72932 3.98623 3.72932C3.98623 3.67739 3.98623 3.62562 3.98623 3.57369C3.96897 3.57369 3.95171 3.57369 3.93462 3.57369C3.93462 3.62562 3.93462 3.67739 3.93462 3.72932ZM11.9457 3.62563C11.9457 3.64294 11.9457 3.66025 11.9457 3.67739C11.9973 3.67739 12.0491 3.67739 12.1007 3.67739C12.1007 3.66008 12.1007 3.64277 12.1007 3.62563C12.0491 3.62563 11.9975 3.62563 11.9457 3.62563ZM15.9255 4.04039C15.9082 4.04039 15.891 4.04039 15.8739 4.04039C15.8739 4.09232 15.8739 4.14409 15.8739 4.19586C15.8911 4.19586 15.9082 4.19586 15.9255 4.19586C15.9255 4.14409 15.9255 4.09216 15.9255 4.04039ZM15.357 4.45517C15.357 4.43786 15.357 4.42055 15.357 4.40341C15.3052 4.40341 15.2536 4.40341 15.202 4.40341C15.202 4.42072 15.202 4.43802 15.202 4.45517C15.2536 4.45517 15.3054 4.45517 15.357 4.45517Z" fill="#F57D77"/>
</svg>
