<svg width="47" height="43" viewBox="0 0 47 43" fill="none" xmlns="http://www.w3.org/2000/svg">
<path d="M28.9898 2.91731L26.8424 9.24615L24.695 2.91731C24.5829 2.58359 24.5531 2.22852 24.6078 1.88127C24.6626 1.53401 24.8005 1.20447 25.0101 0.919719C25.2197 0.634968 25.495 0.40313 25.8136 0.243248C26.1321 0.0833651 26.4847 0 26.8424 0C27.2001 0 27.5527 0.0833651 27.8712 0.243248C28.1897 0.40313 28.4651 0.634968 28.6747 0.919719C28.8843 1.20447 29.0221 1.53401 29.0769 1.88127C29.1317 2.22852 29.1018 2.58359 28.9898 2.91731ZM40.5084 9.35163L34.4334 12.3367L37.4719 6.36864C37.7531 5.86286 38.2231 5.48396 38.7829 5.31166C39.3427 5.13937 39.9487 5.1871 40.4734 5.44484C40.998 5.70257 41.4005 6.15019 41.5961 6.69353C41.7917 7.23686 41.7651 7.83354 41.5219 8.358C41.3024 8.78824 40.9468 9.13691 40.5084 9.35163ZM44.0215 21.9038L37.5793 19.7942L44.0215 17.6846C44.3617 17.5733 44.724 17.543 45.0784 17.5962C45.4329 17.6494 45.7694 17.7846 46.0603 17.9906C46.3512 18.1966 46.5881 18.4676 46.7514 18.7811C46.9148 19.0947 47 19.442 47 19.7942C47 20.1465 46.9148 20.4937 46.7514 20.8073C46.5881 21.1209 46.3512 21.3919 46.0603 21.5979C45.7694 21.8039 45.4329 21.9391 45.0784 21.9923C44.724 22.0455 44.3617 22.0152 44.0215 21.9038ZM16.2128 6.36864L19.2513 12.3367L13.1764 9.35163C12.8543 9.19462 12.5749 8.96455 12.3612 8.68045C12.1476 8.39634 12.0059 8.06636 11.9477 7.71779C11.8896 7.36921 11.9168 7.01204 12.027 6.67582C12.1372 6.33959 12.3272 6.03396 12.5815 5.78419C12.8357 5.53442 13.1468 5.34769 13.4891 5.23943C13.8313 5.13117 14.1949 5.10449 14.5497 5.1616C14.9045 5.2187 15.2404 5.35796 15.5296 5.56784C15.8188 5.77773 16.053 6.05223 16.2128 6.36864ZM36.0246 22.6253C36.3231 21.7309 36.5056 20.7879 36.5056 19.7942C36.5056 14.5603 32.17 10.301 26.8424 10.301C23.9649 10.301 21.3944 11.5541 19.6336 13.5245L19.3265 13.4654C17.5126 13.4666 15.7196 13.8452 14.0655 14.5765C12.4114 15.3077 10.9337 16.3749 9.72982 17.7078C9.32976 17.5627 8.8961 17.5316 8.47882 17.618C8.06153 17.7045 7.6776 17.905 7.37126 18.1965C7.06492 18.488 6.84864 18.8585 6.74733 19.2655C6.64602 19.6725 6.6638 20.0993 6.79863 20.4967C6.92104 20.849 7.13792 21.1275 7.39346 21.3638C6.76621 22.8749 6.44315 24.4912 6.44217 26.1231L6.44646 26.3889C4.60278 26.8582 2.96968 27.9151 1.80309 29.3941C0.636495 30.8731 0.00233911 32.6905 0 34.5615C0 39.2154 3.85456 43 8.58956 43H32.2108C38.1312 43 42.9478 38.2681 42.9478 32.4519C42.9478 27.9606 40.0617 24.1421 36.0246 22.6253ZM26.8424 14.5202C29.8036 14.5202 32.2108 16.8851 32.2108 19.7942C32.2108 20.5663 32.0047 21.2836 31.6998 21.9439C30.9396 21.9882 30.1536 22.1 29.299 22.3405C28.7468 20.9297 27.8919 19.6522 26.7926 18.5948C25.6932 17.5373 24.3751 16.7247 22.9277 16.2121C23.4261 15.6801 24.0312 15.2552 24.7049 14.964C25.3786 14.6728 26.1064 14.5217 26.8424 14.5202ZM32.2108 38.7808H8.58956C6.21884 38.7808 4.29478 36.8884 4.29478 34.5615C4.29478 32.2346 6.21884 30.3423 8.392 30.3296L11.4456 30.3634L10.913 27.8276C10.6575 26.6008 10.6827 25.3336 10.9868 24.1175C11.291 22.9015 11.8665 21.767 12.6717 20.7963C13.4769 19.8256 14.4917 19.0428 15.6426 18.5046C16.7935 17.9665 18.0519 17.6864 19.3265 17.6846L19.4747 17.6551C21.4476 17.7015 23.3446 18.4119 24.8483 19.6676C26.352 20.9233 27.3713 22.6481 27.7357 24.5535L27.8173 24.9459C27.9444 25.3788 28.2112 25.7593 28.5776 26.0303C28.944 26.3012 29.3901 26.4478 29.8487 26.448L30.4693 26.3994C31.1393 26.2096 31.6912 26.1231 32.2108 26.1231C35.7626 26.1231 38.653 28.9626 38.653 32.4519C38.653 35.9412 35.7626 38.7808 32.2108 38.7808Z" fill="white"/>
</svg>
