<svg width="52" height="43" viewBox="0 0 52 43" fill="none" xmlns="http://www.w3.org/2000/svg">
<path d="M46.9503 16.217C43.8103 18.1637 39.7538 18.9258 35.817 19.0694C33.3711 19.1564 30.9278 19.0318 28.4871 18.9197C27.3772 18.8699 26.1667 18.6891 25.0658 18.7786C24.1608 18.8509 17.663 19.8891 13.4659 26.5472C13.3219 26.7728 13.1705 26.991 13.0291 27.2191C10.35 31.5628 9.20933 37.0269 10.5569 41.9506C10.6138 42.1566 10.5294 42.384 10.3847 42.5425C10.2376 42.7009 10.0377 42.7978 9.83496 42.8672C9.43444 43.0086 8.98586 43.0533 8.58237 42.921C8.17642 42.7886 7.82279 42.4565 7.7387 42.0367C6.98883 40.8777 5.79794 40.0148 4.48529 39.8028C4.01285 39.7259 3.52659 39.7339 3.05613 39.8213C2.91906 39.5366 2.78182 39.2519 2.64458 38.9671C-0.0485245 32.4231 -1.31806 24.9049 1.93551 18.8647C4.48134 14.1391 9.37668 11.1374 14.3808 9.22469C19.3849 7.31447 24.6966 6.27196 29.6495 4.23036C32.7907 2.15921 36.3905 0.27458 40.2888 0.0269929C42.7166 -0.127006 45.184 0.380712 47.3577 1.47901C48.341 1.97583 49.276 2.5976 50 3.4285C51.4654 5.10236 51.9437 7.5165 51.5063 9.69956C51.0714 11.8825 49.7978 13.8407 48.1743 15.3624C47.7856 15.67 47.3768 15.9533 46.9503 16.217Z" fill="#323B6E"/>
</svg>
