<svg width="54" height="60" viewBox="0 0 54 60" fill="none" xmlns="http://www.w3.org/2000/svg">
<path d="M7.95478 33.9489C6.10185 34.7305 3.81854 34.5031 2.21034 33.2721C0.237119 31.7597 -0.543398 28.8699 0.396799 26.5665C0.651953 25.938 1.02476 25.3531 1.51107 24.8795C2.12579 24.2819 2.92252 23.8877 3.76426 23.7355C4.23734 23.6477 4.72647 23.6397 5.20136 23.7169C6.52131 23.93 7.71882 24.7977 8.47286 25.9632C8.55742 26.3853 8.91301 26.7192 9.32122 26.8523C9.72695 26.9854 10.1782 26.9405 10.5808 26.7982C10.7846 26.7283 10.9857 26.6311 11.1336 26.4717C11.2791 26.3124 11.3639 26.0837 11.3067 25.8766C9.95166 20.9257 11.0987 15.4311 13.7927 11.0632C13.9348 10.8339 14.0872 10.6145 14.2319 10.3876C18.4523 3.69245 24.9862 2.64847 25.8963 2.57577C27.0033 2.48581 28.2205 2.66755 29.3366 2.71768C31.7908 2.83054 34.2477 2.95568 36.7072 2.86821C40.6659 2.72398 44.7449 1.95768 47.9024 0C48.7867 3.23403 49.6734 6.46823 50.5577 9.70226C53.9569 22.127 54.6628 31.7859 52.5751 38.4074C51.3696 42.2255 49.2372 45.0351 46.1549 46.7866C42.7402 48.7246 38.8997 49.8436 34.9926 50.145C35.2129 51.1012 35.4879 52.0467 35.8125 52.9744C36.1552 53.9442 36.5727 54.9233 37.3069 55.6434C37.3852 55.7201 37.4682 55.7918 37.5539 55.8635C35.0411 59.0253 30.6894 60.4004 26.6836 59.8995C22.6304 59.389 18.9352 57.1775 15.9915 54.3342L15.7462 54.2769C15.8892 53.4417 15.6551 52.5734 15.4039 51.7576C13.5394 45.6359 10.8619 39.7986 8.19239 33.9863L7.95478 33.9489ZM48.3695 15.5965C48.7036 15.3476 48.788 14.856 48.6612 14.4545C48.5345 14.0555 48.2365 13.7333 47.9166 13.4616C46.6445 12.3769 44.8922 11.8808 43.2405 12.1396C43.2421 12.0644 42.794 12.1672 42.4503 12.4438C42.104 12.723 41.8975 13.2234 42.0891 13.6218C42.222 13.8981 42.5132 14.0676 42.8086 14.137C43.1038 14.2063 43.413 14.1927 43.7177 14.1994C44.5439 14.2126 45.3891 14.3784 46.0804 14.8339C46.4425 15.0726 46.7529 15.3846 47.1369 15.5881C47.5207 15.7887 48.0205 15.8558 48.3695 15.5965ZM46.8126 22.8228C46.8043 22.0744 46.1938 21.4756 45.4478 21.4839C44.7042 21.4922 44.1072 22.1046 44.1155 22.8528C44.1237 23.5987 44.7343 24.1976 45.4778 24.1893C46.2237 24.181 46.8209 23.5685 46.8126 22.8228ZM41.9083 35.5805C42.6982 34.8107 43.3358 33.7949 43.321 32.6912C43.3063 31.5899 42.3815 30.7743 41.5547 30.4681C40.3343 30.0161 39.0483 30.8339 37.7684 31.0811C36.4038 31.3441 35.0094 30.9441 33.6214 30.892C32.2308 30.8399 30.6216 31.3134 30.1095 32.6107C29.8183 33.3498 29.9675 34.2142 30.3694 34.9006C30.7738 35.587 31.4034 36.1106 32.0794 36.5285C33.5895 37.4578 35.3961 37.9033 37.1611 37.746C38.9285 37.5859 40.6393 36.8186 41.9083 35.5805ZM30.0428 13.7559C30.2255 13.3534 30.0079 12.8576 29.6556 12.5862C29.3058 12.3174 28.8555 12.2247 28.8589 12.2998C27.202 12.0779 25.4611 12.613 24.2131 13.7257C23.8992 14.0045 23.6085 14.3331 23.4907 14.735C23.3729 15.1393 23.4682 15.6287 23.8077 15.8704C24.1623 16.1217 24.6606 16.0437 25.0402 15.8342C25.4171 15.6223 25.723 15.3034 26.0796 15.0566C26.7607 14.5859 27.6021 14.4013 28.4276 14.3696C28.7319 14.3562 29.0389 14.3628 29.3351 14.287C29.6285 14.211 29.916 14.0352 30.0428 13.7559ZM29.5689 23.015C29.5606 22.2666 28.95 21.6678 28.2066 21.676C27.4605 21.6843 26.8635 22.2968 26.8717 23.045C26.88 23.7909 27.4906 24.3897 28.2365 24.3814C28.98 24.3731 29.5772 23.7607 29.5689 23.015Z" fill="#FEA77C"/>
</svg>
