<svg width="2" height="1" viewBox="0 0 2 1" fill="none" xmlns="http://www.w3.org/2000/svg">
<path d="M0.204027 0.252065C0.483676 0.150275 0.674688 0.0808597 0.89691 0C0.998746 0.157963 1.10629 0.324695 1.24201 0.534894C1.30747 0.394284 1.35472 0.292853 1.40752 0.179614C1.47868 0.185696 1.55288 0.192135 1.6993 0.204836C1.63706 0.365661 1.58801 0.492138 1.54467 0.604125C1.64847 0.674967 1.75976 0.750997 1.86195 0.820944C1.72944 1.10449 1.37167 1.04295 0.736577 0.695002C0.639913 0.791962 0.543063 0.889103 0.454959 0.977476C0.317453 0.911464 0.18352 0.847242 0 0.759226C0.069734 0.586236 0.142318 0.405914 0.204027 0.252065Z" fill="#F57D77"/>
</svg>
