<svg width="15" height="9" viewBox="0 0 15 9" fill="none" xmlns="http://www.w3.org/2000/svg">
<path d="M15.0001 8.42387C14.9257 8.42387 14.8511 8.42387 14.7527 8.42387C14.6782 8.24861 14.6003 8.06505 14.5097 7.85205C14.631 7.82806 14.699 7.81466 14.7516 7.8044C14.8412 7.91727 14.9205 8.01739 15.0001 8.11768C15.0001 8.21979 15.0001 8.32176 15.0001 8.42387Z" fill="#F57D77"/>
<path d="M2.6318 6.12654C2.68411 6.44049 2.91806 6.16493 3.04626 6.36188C3.08025 6.11727 3.09956 5.9784 3.13734 5.70566C3.30333 6.33605 3.80771 6.35543 4.15866 6.58597C4.20684 6.66839 4.25502 6.75081 4.32085 6.86351C4.26855 6.98267 4.20486 7.1278 4.14117 7.27278C4.16873 7.29893 4.19646 7.32526 4.22418 7.35141C4.28027 7.3006 4.33619 7.24995 4.39328 7.19831C4.7533 7.37904 4.75249 7.37987 4.95808 7.80918C4.78632 7.76929 4.6652 7.74098 4.4908 7.70043C4.44262 7.7802 4.36507 7.90881 4.22466 8.14117C4.46143 8.04022 4.57626 7.99122 4.80577 7.89341C4.73119 8.11849 4.69143 8.23831 4.64589 8.37601C4.67889 8.38544 4.7454 8.41921 4.81288 8.42136C5.13825 8.43162 5.34681 8.22275 5.5613 8.01753C5.65931 7.92386 5.78437 7.85866 6.04886 7.67562C5.94326 7.98957 5.89476 8.13372 5.84328 8.28681C5.89476 8.39339 5.95399 8.51653 6.01355 8.64016C5.51576 8.98969 5.00642 8.4101 4.50269 8.69228C4.48718 8.67838 4.43403 8.63072 4.38124 8.58339C4.34048 8.62427 4.30452 8.66034 4.27598 8.68897C4.05356 8.57477 3.83165 8.46076 3.55479 8.31859C3.45397 8.05694 3.71368 7.85204 3.81334 7.57069C3.68563 7.43746 3.61352 7.27526 3.85904 7.12184C3.78215 7.05101 3.70822 6.98282 3.61038 6.89263C3.54867 7.28883 3.48829 7.67743 3.41982 8.11749C3.07614 8.11749 2.77749 8.11749 2.47885 8.11749C2.47885 8.01538 2.47885 7.91327 2.47885 7.81116C2.52967 7.7726 2.58064 7.73388 2.63146 7.69532C2.58064 7.63177 2.52967 7.56838 2.47885 7.50483C2.47885 7.48 2.48941 7.44524 2.47704 7.43183C2.40972 7.35901 2.33662 7.29165 2.23069 7.18821C2.15397 7.30059 2.07378 7.4181 1.95993 7.58509C1.87678 7.31615 1.81919 7.12963 1.75468 6.92077C1.85136 6.92077 1.96785 6.92077 2.1236 6.92077C2.15231 6.55468 2.28911 6.26655 2.6318 6.12654ZM3.08999 7.04556C3.18074 7.04556 3.27148 7.04556 3.39968 7.04556C3.38549 6.91515 3.37626 6.8314 3.36768 6.75246C3.10401 6.74816 3.10417 6.75377 2.93736 6.89246C2.79497 6.89246 2.65257 6.89246 2.32654 6.89246C2.693 7.1379 2.94033 7.27129 3.10401 7.48909C3.09411 7.49902 3.0842 7.50895 3.07414 7.51905C3.10961 7.56076 3.14509 7.60246 3.18057 7.64416C3.19657 7.62811 3.21274 7.61206 3.22874 7.59584C3.18716 7.56026 3.14559 7.52468 3.09015 7.50515C3.08999 7.35173 3.08999 7.19865 3.08999 7.04556Z" fill="#F57D77"/>
<path d="M4.54166 6.39411C4.74279 6.29084 4.869 6.22612 5.04819 6.1341C5.15643 6.36382 5.27391 6.61274 5.4064 6.89376C5.50061 6.83104 5.56975 6.78518 5.6374 6.74C5.83985 6.80587 6.04115 6.87125 6.27297 6.94655C6.27297 7.04138 6.27297 7.16137 6.27297 7.36311C6.1875 7.30171 6.12793 7.25901 6.06457 7.21333C6.00022 7.26132 5.92597 7.31678 5.76725 7.43528C5.69696 7.2855 5.63146 7.14565 5.5747 7.025C5.38908 7.11685 5.29206 7.16484 5.20098 7.20985C4.93699 6.98891 4.9893 6.5515 4.54166 6.39411Z" fill="#F57D77"/>
<path d="M3.66271 4.68433C3.52609 4.87085 3.33455 5.13268 3.09761 5.45623C2.96578 5.23794 2.8752 5.088 2.7823 4.93442C2.83329 4.80715 2.90144 4.68152 2.93246 4.54729C2.96347 4.41307 2.9572 4.27009 2.96694 4.13736C3.07088 4.13736 3.12054 4.13736 3.18736 4.13736C3.21574 4.22193 3.24528 4.30981 3.28851 4.4384C3.34461 4.39736 3.3908 4.3636 3.50283 4.28151C3.5393 4.37286 3.58285 4.48275 3.66271 4.68433Z" fill="#F57D77"/>
<path d="M1.13779 4.61223C1.21435 4.60428 1.26302 4.59915 1.36812 4.58823C1.39419 4.84326 1.4206 5.10128 1.46037 5.48888C1.60309 5.12693 1.53906 4.75041 1.98686 4.74363C1.98686 4.99486 1.98686 5.234 1.98686 5.4652C1.77913 5.53273 1.57783 5.59827 1.37489 5.66414C1.07245 5.36194 1.05661 4.99867 1.13779 4.61223Z" fill="#F57D77"/>
<path d="M7.35834 8.58499C7.32666 8.87693 7.08659 8.62404 6.99057 8.77746C6.9244 8.62322 6.8815 8.52326 6.84553 8.43919C6.75874 8.48818 6.68038 8.53252 6.60184 8.57687C6.60184 8.4496 6.60184 8.3225 6.60184 8.14227C6.74077 8.13416 6.88744 8.14425 7.02422 8.11215C7.15886 8.08054 7.28375 8.0064 7.40354 7.95493C7.63387 8.09345 7.73419 8.27003 7.62942 8.57687C7.55369 8.57704 7.45948 8.57705 7.35834 8.58499C7.36131 8.58301 7.37138 8.57306 7.38128 8.56313C7.34581 8.52143 7.31033 8.47972 7.27486 8.43802C7.25885 8.45407 7.24268 8.47029 7.22668 8.48634C7.26826 8.52192 7.30983 8.55752 7.35834 8.58499Z" fill="#F57D77"/>
<path d="M4.25296 5.17617C4.31351 5.13413 4.39107 5.08033 4.50359 5.00238C4.59665 5.16888 4.67155 5.3026 4.77979 5.49624C4.50936 5.60828 4.22887 5.72463 3.88617 5.86679C3.87148 5.58594 3.85912 5.34796 3.84196 5.01895C4.0185 5.08647 4.13532 5.13131 4.25296 5.17617Z" fill="#F57D77"/>
<path d="M6.73291 7.08658C6.96193 6.95749 7.18402 6.83239 7.49735 6.6558C7.47243 6.86267 7.45841 6.97885 7.43382 7.18341C7.4424 7.20559 7.48711 7.3216 7.53479 7.44556C7.12032 7.62563 6.95186 7.34476 6.73291 7.08658Z" fill="#F57D77"/>
<path d="M8.8946 7.87238C9.15843 7.736 9.33779 7.82124 9.48975 8.0301C9.48975 8.1908 9.48975 8.35945 9.48975 8.55242C9.35858 8.55242 9.24093 8.55242 9.09919 8.55242C9.03617 8.34306 8.96472 8.10557 8.8946 7.87238Z" fill="#F57D77"/>
<path d="M5.65059 4.91085C5.72418 5.03266 5.79561 5.15084 5.91078 5.34133C5.71361 5.35192 5.59548 5.35837 5.43873 5.36681C5.41547 5.43466 5.38644 5.51956 5.34634 5.63674C5.22705 5.63674 5.08992 5.63674 4.93367 5.63674C4.93796 5.55134 4.91405 5.44824 4.94936 5.4201C5.16963 5.24533 5.40327 5.08728 5.65059 4.91085Z" fill="#F57D77"/>
<path d="M1.5727 3.70239C1.48971 3.97248 1.41712 4.20949 1.33264 4.48488C0.994066 4.30697 0.938453 4.03852 0.955778 3.70239C1.16829 3.70239 1.35391 3.70239 1.5727 3.70239Z" fill="#F57D77"/>
<path d="M0.686167 2.3165C0.664553 2.20031 0.651844 2.1533 0.648544 2.10564C0.647059 2.08462 0.664869 2.06228 0.679883 2.0262C0.861049 1.99592 1.05079 1.96694 1.23938 1.93186C1.39101 1.90356 1.54133 1.86798 1.74692 1.95155C1.67498 2.01593 1.61326 2.10581 1.52911 2.1399C1.25604 2.24996 0.966165 2.26933 0.686167 2.3165Z" fill="#F57D77"/>
<path d="M9.82318 8.57703C9.77566 8.22352 9.96014 8.29569 10.0961 8.26425C10.2269 8.23413 10.3459 8.15121 10.4812 8.086C10.5434 8.2141 10.5784 8.3273 10.6462 8.41535C10.7392 8.53616 10.709 8.57555 10.5737 8.57654C10.3297 8.57836 10.0857 8.57703 9.82318 8.57703Z" fill="#F57D77"/>
<path d="M3.09006 8.577C2.90196 8.65016 2.73532 8.84828 2.50564 8.6798C2.32679 8.54872 2.27399 8.37544 2.35615 8.17039C2.36787 8.14093 2.43683 8.13463 2.47924 8.11741C2.5421 8.16839 2.60464 8.26223 2.668 8.26289C2.89487 8.26488 3.03082 8.36185 3.09006 8.577Z" fill="#F57D77"/>
<path d="M0.402083 3.02205C0.551734 2.82478 0.647257 2.69884 0.735035 2.58299C1.08945 2.67881 1.14983 2.88651 1.06849 3.21685C0.980713 3.15942 0.912899 3.09107 0.832216 3.06824C0.722989 3.03729 0.604203 3.04142 0.402083 3.02205Z" fill="#F57D77"/>
<path d="M6.11211 6.6375C6.02334 6.35499 5.97681 6.20721 5.90949 5.99321C5.89299 6.01175 5.9854 5.90814 6.06393 5.8201C6.39558 5.8201 6.43105 6.00148 6.11211 6.6375Z" fill="#F57D77"/>
<path d="M2.58861 5.44485C2.52757 5.52362 2.46898 5.59924 2.40859 5.67736C2.10302 5.27122 2.10038 5.23946 2.37494 4.83977C2.45678 5.07181 2.52559 5.26677 2.58861 5.44485Z" fill="#F57D77"/>
<path d="M6.87461 7.35168C6.9152 7.54168 6.95447 7.72472 6.99836 7.92994C6.86454 7.92994 6.67645 7.92994 6.48605 7.92994C6.54693 7.73234 6.606 7.53986 6.66391 7.35168C6.75516 7.35168 6.83122 7.35168 6.87461 7.35168Z" fill="#F57D77"/>
<path d="M0.954933 3.21629C0.883985 3.5165 0.813214 3.81606 0.707782 4.26275C0.676598 3.9948 0.672631 3.86424 0.643592 3.73962C0.618183 3.63121 0.564055 3.52959 0.522806 3.42532C0.584844 3.36128 0.644746 3.27075 0.728729 3.22259C0.785652 3.18982 0.87656 3.21629 0.954933 3.21629Z" fill="#F57D77"/>
<path d="M8.24195 7.8217C8.0824 7.637 7.94348 7.47614 7.75192 7.25437C7.94727 7.22607 8.07943 7.20703 8.20483 7.18883C8.27842 7.33348 8.34243 7.45925 8.41156 7.59513C8.37179 7.64825 8.31653 7.72223 8.24195 7.8217Z" fill="#F57D77"/>
<path d="M11.5131 7.36511C11.6597 7.36511 11.7781 7.36511 11.9214 7.36511C11.9214 7.49619 11.9214 7.6142 11.9214 7.78599C11.8137 7.7946 11.6771 7.80535 11.5131 7.81826C11.5131 7.66682 11.5131 7.54882 11.5131 7.36511Z" fill="#F57D77"/>
<path d="M7.24376 5.59639C7.42262 5.70728 7.5383 5.77909 7.73118 5.89874C7.59241 5.97289 7.49159 6.02684 7.31323 6.122C7.0461 6.08791 7.25515 5.84944 7.24376 5.59639Z" fill="#F57D77"/>
<path d="M1.9321 2.71763C2.04298 2.86261 2.12696 2.97267 2.26639 3.15522C2.03671 3.186 1.89218 3.2052 1.63297 3.23995C1.76744 3.00544 1.84251 2.87419 1.9321 2.71763Z" fill="#F57D77"/>
<path d="M0.0670555 1.15476C0.245911 1.26564 0.36157 1.33745 0.55445 1.45711C0.415688 1.53125 0.314883 1.58521 0.136522 1.68037C-0.130441 1.64628 0.0784402 1.40781 0.0670555 1.15476Z" fill="#F57D77"/>
<path d="M7.66964 4.67252C7.60001 4.74236 7.53137 4.81121 7.43584 4.90703C7.34707 4.78208 7.26227 4.66225 7.17614 4.5411C7.45597 4.31023 7.53434 4.57306 7.66964 4.67252Z" fill="#F57D77"/>
<path d="M1.78869 6.62812C1.57189 6.33502 1.47373 6.20214 1.27326 5.93121C1.57471 6.06196 1.7095 6.12054 1.87367 6.19171C1.85849 6.26966 1.84199 6.35439 1.78869 6.62812Z" fill="#F57D77"/>
<path d="M9.18481 7.07094C9.18481 7.16445 9.18481 7.23263 9.18481 7.32614C9.03631 7.32614 8.90053 7.32614 8.7522 7.32614C8.7522 7.23247 8.7522 7.16445 8.7522 7.07094C8.90069 7.07094 9.03648 7.07094 9.18481 7.07094Z" fill="#F57D77"/>
<path d="M9.52986 6.29351C9.61994 6.29351 9.68775 6.29351 9.78212 6.29351C9.78212 6.43931 9.78212 6.57552 9.78212 6.73639C9.35495 6.75013 9.54289 6.48251 9.52986 6.29351Z" fill="#F57D77"/>
<path d="M13.0377 6.51115C12.9643 6.64322 12.8908 6.77545 12.8105 6.91977C12.7176 6.82378 12.6501 6.7541 12.5552 6.65612C12.6755 6.56824 12.7937 6.48185 12.9116 6.39563C12.9535 6.43402 12.9956 6.47259 13.0377 6.51115Z" fill="#F57D77"/>
<path d="M6.7382 8.68691C6.47454 8.71157 6.34221 8.72399 6.1495 8.74203C6.16204 8.61459 6.17178 8.51679 6.18779 8.35393C6.3739 8.46664 6.4978 8.5416 6.7382 8.68691Z" fill="#F57D77"/>
<path d="M12.0221 8.2475C12.0577 8.33108 12.091 8.40871 12.148 8.54193C11.9688 8.55815 11.8343 8.57039 11.6784 8.58462C11.8331 8.36202 11.8332 8.36203 12.0221 8.2475Z" fill="#F57D77"/>
<path d="M2.22926 3.29624C2.39508 3.41855 2.51224 3.50495 2.70908 3.65009C2.46785 3.65009 2.33337 3.65009 2.16144 3.65009C2.18372 3.53325 2.20005 3.44817 2.22926 3.29624Z" fill="#F57D77"/>
<path d="M10.9323 7.64598C10.7079 7.64598 10.5908 7.64598 10.4667 7.64598C10.6147 7.44109 10.6147 7.4411 10.8031 7.32939C10.8376 7.41412 10.8698 7.49289 10.9323 7.64598Z" fill="#F57D77"/>
<path d="M5.03071 7.77292C5.08252 7.64598 5.1147 7.56735 5.17063 7.43065C5.32375 7.55461 5.43084 7.64135 5.59336 7.77292C5.37886 7.77292 5.22689 7.77292 5.03071 7.77292Z" fill="#F57D77"/>
<path d="M3.41841 2.84799C3.34977 2.93223 3.28113 3.01662 3.1521 3.17501C3.11646 2.98402 3.10046 2.89864 3.08066 2.79255C3.18082 2.77335 3.24912 2.76027 3.31726 2.7472C3.35092 2.78079 3.38458 2.81439 3.41841 2.84799Z" fill="#F57D77"/>
<path d="M1.52307 1.21094C1.3721 1.02541 1.30346 0.941172 1.19886 0.812744C1.34488 0.78312 1.41285 0.769226 1.52307 0.746883C1.52307 0.867864 1.52307 0.96997 1.52307 1.21094Z" fill="#F57D77"/>
<path d="M13.496 7.44274C13.4274 7.52715 13.3587 7.61138 13.2297 7.76976C13.1939 7.57878 13.1781 7.49337 13.1581 7.38729C13.2583 7.36809 13.3266 7.35503 13.3947 7.34195C13.4285 7.37571 13.4624 7.40931 13.496 7.44274Z" fill="#F57D77"/>
<path d="M1.9466 5.64406C2.0786 5.71804 2.21045 5.79218 2.35762 5.8746C2.08488 6.11325 2.00666 5.83786 1.9466 5.64406Z" fill="#F57D77"/>
<path d="M4.42412 6.41843C4.27315 6.2329 4.20452 6.14866 4.09991 6.02023C4.2461 5.99061 4.31391 5.97671 4.42412 5.95437C4.42412 6.07535 4.42412 6.17746 4.42412 6.41843Z" fill="#F57D77"/>
<path d="M6.24971 3.79921C6.05699 3.99252 5.98819 4.06153 5.91015 4.13981C5.84762 4.06749 5.7849 3.99516 5.68558 3.88047C5.83704 3.85862 5.96971 3.83943 6.24971 3.79921Z" fill="#F57D77"/>
<path d="M10.4059 7.0474C10.4059 7.16606 10.4059 7.23375 10.4059 7.32048C10.3284 7.33537 10.2602 7.34844 10.1812 7.36367C10.0629 7.16043 10.0652 7.03399 10.4059 7.0474Z" fill="#F57D77"/>
<path d="M11.1427 8.42379C11.0567 8.42379 11.0071 8.42379 10.9213 8.42379C10.9051 8.34633 10.8876 8.26159 10.8653 8.15501C10.9645 8.13482 11.0325 8.12107 11.1425 8.09857C11.1427 8.21955 11.1427 8.32168 11.1427 8.42379Z" fill="#F57D77"/>
<path d="M5.595 6.60892C5.51085 6.54007 5.42686 6.47122 5.26896 6.3418C5.4592 6.30588 5.54451 6.29 5.65011 6.26998C5.66925 6.37044 5.68227 6.43895 5.69531 6.5073C5.66198 6.54139 5.6285 6.57516 5.595 6.60892Z" fill="#F57D77"/>
<path d="M2.17376 7.65809C2.18679 7.42888 2.36333 7.52803 2.47916 7.50486C2.47916 7.60697 2.47916 7.70908 2.47916 7.81119C2.42834 7.81119 2.37735 7.81119 2.32653 7.81119C2.27555 7.76022 2.22474 7.70923 2.17376 7.65809Z" fill="#F57D77"/>
<path d="M13.5023 8.45027C13.6374 8.45027 13.7726 8.45027 13.9077 8.45027C13.9098 8.47691 13.912 8.50372 13.9141 8.53037C13.7773 8.5489 13.6406 8.56745 13.5038 8.58599C13.5033 8.54064 13.5028 8.49545 13.5023 8.45027Z" fill="#F57D77"/>
<path d="M4.61682 6.43284C4.54522 6.72793 4.30894 6.52768 4.1588 6.58594C4.2304 6.29085 4.46651 6.4911 4.61682 6.43284Z" fill="#F57D77"/>
<path d="M8.48661 6.52486C8.55112 6.4719 8.63576 6.40222 8.69186 6.35621C8.70886 6.57152 8.70885 6.57153 8.48661 6.52486Z" fill="#F57D77"/>
<path d="M6.827 6.3056C6.6333 6.25032 6.54124 6.224 6.44934 6.19786C6.52045 6.17402 6.59041 6.14191 6.66334 6.13165C6.68561 6.12834 6.71646 6.18511 6.827 6.3056Z" fill="#F57D77"/>
<path d="M6.18202 8.11763C6.18202 8.01551 6.18202 7.91341 6.18202 7.81129C6.20743 7.81129 6.23301 7.81129 6.25842 7.81129C6.25842 7.91341 6.25842 8.01551 6.25842 8.11763C6.23284 8.11763 6.20743 8.11763 6.18202 8.11763Z" fill="#F57D77"/>
<path d="M8.28563 8.69587C8.18845 8.70431 8.09109 8.7126 7.99391 8.72104C7.98945 8.68811 7.98501 8.65517 7.98055 8.62223C8.07955 8.6027 8.1787 8.58333 8.27769 8.56397C8.28033 8.60782 8.28299 8.65185 8.28563 8.69587Z" fill="#F57D77"/>
<path d="M12.987 8.55095C12.9025 8.55095 12.8182 8.55095 12.7337 8.55095C12.7303 8.5258 12.7268 8.50065 12.7235 8.47549C12.8085 8.45696 12.8936 8.43825 12.9786 8.41971C12.9814 8.46341 12.9842 8.50726 12.987 8.55095Z" fill="#F57D77"/>
<path d="M8.30946 8.14378C8.39394 8.14378 8.47824 8.14378 8.56272 8.14378C8.56618 8.16893 8.56965 8.19408 8.57295 8.21923C8.48798 8.23777 8.40283 8.25631 8.31786 8.27501C8.31506 8.23115 8.31227 8.18747 8.30946 8.14378Z" fill="#F57D77"/>
<path d="M13.907 8.09147C13.8225 8.09147 13.7382 8.09147 13.6537 8.09147C13.6497 8.06714 13.6459 8.04299 13.642 8.01866C13.7248 7.9988 13.8076 7.97894 13.8905 7.95924C13.8959 8.00326 13.9014 8.04728 13.907 8.09147Z" fill="#F57D77"/>
<path d="M2.14976 4.1092C2.06528 4.1092 1.98096 4.1092 1.89648 4.1092C1.89252 4.08487 1.88856 4.06072 1.88476 4.03639C1.96759 4.01653 2.05042 3.99667 2.13324 3.97697C2.13869 4.021 2.14415 4.06501 2.14976 4.1092Z" fill="#F57D77"/>
<path d="M0.265101 2.51416C0.294898 2.51416 0.319039 2.41716 0.319039 2.29751C0.319039 2.17786 0.294898 2.08088 0.265101 2.08088C0.235303 2.08088 0.211143 2.17786 0.211143 2.29751C0.211143 2.41716 0.235303 2.51416 0.265101 2.51416Z" fill="#F57D77"/>
<path d="M2.62783 6.00749C2.72517 5.99905 2.82236 5.99078 2.91971 5.98233C2.92417 6.01527 2.92861 6.04821 2.93307 6.08131C2.83407 6.10067 2.7349 6.12021 2.6359 6.13957C2.6331 6.09555 2.63047 6.05151 2.62783 6.00749Z" fill="#F57D77"/>
<path d="M8.26561 8.56318C8.30108 8.52148 8.33656 8.47978 8.37203 8.43807C8.38804 8.45412 8.40404 8.47034 8.42021 8.48639C8.37863 8.52198 8.33706 8.55756 8.29548 8.59315C8.28558 8.58322 8.27551 8.57311 8.26561 8.56318Z" fill="#F57D77"/>
<path d="M3.10388 8.56101C3.14546 8.59659 3.18703 8.63218 3.22861 8.66776C3.21261 8.68381 3.19644 8.69987 3.18044 8.71609C3.14496 8.67438 3.10948 8.63268 3.07401 8.59097C3.08391 8.58088 3.09382 8.57094 3.10388 8.56101Z" fill="#F57D77"/>
<path d="M8.58688 5.41173C8.6377 5.41173 8.68869 5.41173 8.73951 5.41173C8.73951 5.42878 8.73951 5.44584 8.73951 5.46289C8.68869 5.46289 8.6377 5.46289 8.58688 5.46289C8.58688 5.44584 8.58688 5.42878 8.58688 5.41173Z" fill="#F57D77"/>
<path d="M11.5899 6.43283C11.5899 6.4838 11.5899 6.53495 11.5899 6.58593C11.5729 6.58593 11.5559 6.58593 11.5389 6.58593C11.5389 6.53495 11.5389 6.4838 11.5389 6.43283C11.5559 6.43283 11.5729 6.43283 11.5899 6.43283Z" fill="#F57D77"/>
<path d="M6.50009 5.51383C6.50009 5.46285 6.50009 5.41171 6.50009 5.36073C6.51708 5.36073 6.53407 5.36073 6.55107 5.36073C6.55107 5.41171 6.55107 5.46285 6.55107 5.51383C6.53407 5.51383 6.51708 5.51383 6.50009 5.51383Z" fill="#F57D77"/>
<path d="M0.850484 4.59485C0.850484 4.54388 0.850484 4.49273 0.850484 4.44176C0.867478 4.44176 0.884466 4.44176 0.901461 4.44176C0.901461 4.49273 0.901461 4.54388 0.901461 4.59485C0.884301 4.59485 0.867313 4.59485 0.850484 4.59485Z" fill="#F57D77"/>
<path d="M2.17385 7.81131C2.13161 7.77705 2.08936 7.74279 2.04712 7.70854C2.08936 7.69165 2.13161 7.67493 2.17385 7.65805C2.17385 7.70919 2.17385 7.76017 2.17385 7.81131Z" fill="#F57D77"/>
<path d="M2.3263 7.81129C2.29215 7.85366 2.258 7.89602 2.22385 7.93823C2.20702 7.89586 2.19034 7.8535 2.17351 7.81129C2.22466 7.81129 2.27548 7.81129 2.3263 7.81129Z" fill="#F57D77"/>
<path d="M8.29548 7.79528C8.33706 7.83086 8.37863 7.86645 8.42021 7.90203C8.40421 7.91808 8.38804 7.93414 8.37203 7.95036C8.33656 7.90865 8.30108 7.86695 8.26561 7.82524C8.27551 7.81514 8.28541 7.80521 8.29548 7.79528Z" fill="#F57D77"/>
<path d="M12.5062 7.81129C12.5062 7.86227 12.5062 7.91342 12.5062 7.96439C12.4892 7.96439 12.4722 7.96439 12.4552 7.96439C12.4552 7.91325 12.4552 7.86227 12.4552 7.81129C12.4722 7.81129 12.4892 7.81129 12.5062 7.81129Z" fill="#F57D77"/>
<path d="M0.748709 0C0.748709 0.0511396 0.748709 0.102122 0.748709 0.153096C0.731714 0.153096 0.714726 0.153096 0.697732 0.153096C0.697732 0.102122 0.697732 0.0509741 0.697732 0C0.714726 0 0.731714 0 0.748709 0Z" fill="#F57D77"/>
<path d="M2.93727 6.89232C2.98826 6.94329 3.03908 6.99444 3.0899 7.04558C3.03908 6.99444 2.98826 6.94329 2.93727 6.89232Z" fill="#F57D77"/>
</svg>
