<svg width="133" height="174" viewBox="0 0 133 174" fill="none" xmlns="http://www.w3.org/2000/svg">
<path d="M122.892 135.901C122.555 134.495 122.218 133.085 121.887 131.674C123.007 111.507 133.149 78.4553 132.906 57.8529C132.663 37.2506 129.408 21.9458 123.633 2.17298C123.523 1.81752 123.435 1.46667 123.367 1.12567C118.022 1.71289 112.574 1.33756 107.359 0.0284175C107.322 0.0188904 107.282 0.00952701 107.245 0C109.366 17.1604 109.168 34.4484 107.809 51.5832C107.094 60.5857 106.024 69.6914 103.294 78.2532C102.552 80.585 101.685 82.8737 100.671 85.112C98.5853 89.7106 95.5322 94.3274 90.7968 96.0076C89.9508 96.3317 88.9722 96.0453 88.2571 95.4736C85.7702 98.6028 81.4636 99.9636 77.4991 99.4679C73.4879 98.9627 69.8308 96.7741 66.9176 93.9601L66.6749 93.9035C66.6657 93.9656 66.6517 94.0277 66.6374 94.0896C66.4226 94.9764 65.5694 95.7711 64.6808 95.5927L64.5873 95.621C53.7166 89.4253 49.2958 82.4914 44.0956 73.882C38.8955 65.2723 35.161 55.8636 31.6854 46.4197C26.6182 32.6436 22.0479 18.6838 17.997 4.57428L17.9232 4.59498C11.8775 6.38145 6.36315 7.73364 0.122164 7.71639C0.0856458 7.53357 0.0465073 7.35058 0 7.16776C0.134445 8.38508 2.73083 66.1856 15.9268 91.6747C20.2952 100.113 25.7465 107.996 31.1386 115.883C38.8251 127.12 46.3956 138.371 50.559 151.261L50.5593 151.288C50.5593 151.288 50.5652 151.291 50.5686 151.292L57.4923 173.891L71.0289 173.917L132.007 174L132.006 173.913C128.968 161.242 125.929 148.573 122.892 135.901Z" fill="#6A66C2"/>
</svg>
