<svg width="23" height="20" viewBox="0 0 23 20" fill="none" xmlns="http://www.w3.org/2000/svg">
<path d="M21.4267 8.57246H4.48532L9.67058 2.34444C9.91304 2.05273 10.0297 1.67664 9.99486 1.29893C9.96004 0.921208 9.77659 0.572793 9.48488 0.330331C9.19317 0.0878689 8.81708 -0.0287806 8.43936 0.00604447C8.06165 0.0408696 7.71323 0.224317 7.47077 0.516029L0.328542 9.0867C0.280491 9.15487 0.237521 9.22649 0.199982 9.30097C0.199982 9.37239 0.199983 9.41524 0.0999914 9.48667C0.035245 9.65045 0.00134434 9.82479 0 10.0009C0.00134434 10.177 0.035245 10.3514 0.0999914 10.5151C0.0999914 10.5866 0.099991 10.6294 0.199982 10.7008C0.237521 10.7753 0.280491 10.8469 0.328542 10.9151L7.47077 19.4858C7.60507 19.647 7.77326 19.7767 7.96336 19.8656C8.15347 19.9545 8.36082 20.0004 8.57067 20C8.90443 20.0007 9.22788 19.8844 9.48488 19.6715C9.62952 19.5516 9.74908 19.4043 9.83672 19.2381C9.92436 19.0719 9.97835 18.89 9.9956 18.703C10.0128 18.5159 9.99302 18.3272 9.93725 18.1478C9.88147 17.9684 9.79085 17.8017 9.67058 17.6574L4.48532 11.4294H21.4267C21.8055 11.4294 22.1689 11.2789 22.4367 11.011C22.7046 10.7431 22.8551 10.3798 22.8551 10.0009C22.8551 9.62206 22.7046 9.25873 22.4367 8.99084C22.1689 8.72296 21.8055 8.57246 21.4267 8.57246Z" fill="white"/>
</svg>
