<svg width="21" height="20" viewBox="0 0 21 20" fill="none" xmlns="http://www.w3.org/2000/svg">
<path d="M20.5714 10.2222C20.5714 9.40001 20.5014 8.80001 20.3499 8.17779H10.4956V11.8889H16.2798C16.1633 12.8111 15.5335 14.2 14.1341 15.1333L14.1145 15.2575L17.2302 17.5573L17.4461 17.5778C19.4285 15.8333 20.5714 13.2666 20.5714 10.2222Z" fill="white"/>
<path d="M10.4956 20C13.3294 20 15.7084 19.1111 17.4461 17.5778L14.1341 15.1333C13.2478 15.7222 12.0583 16.1333 10.4956 16.1333C7.72015 16.1333 5.36448 14.3889 4.52475 11.9778L4.40167 11.9877L1.16189 14.3766L1.11952 14.4889C2.84545 17.7555 6.39065 20 10.4956 20Z" fill="white"/>
<path d="M4.52475 11.9778C4.30318 11.3556 4.17494 10.6888 4.17494 9.99997C4.17494 9.31104 4.30317 8.6444 4.51308 8.02219L4.50721 7.88967L1.22683 5.4624L1.11951 5.51104C0.408168 6.86661 0 8.38887 0 9.99997C0 11.6111 0.408185 13.1333 1.11952 14.4889L4.52475 11.9778Z" fill="white"/>
<path d="M10.4956 3.86664C12.4665 3.86664 13.7959 4.67775 14.5539 5.35557L17.516 2.6C15.6968 0.988893 13.3294 0 10.4956 0C6.39065 0 2.84544 2.2444 1.11951 5.51104L4.51308 8.02219C5.36447 5.61108 7.72015 3.86664 10.4956 3.86664Z" fill="white"/>
</svg>
