<svg width="14" height="14" viewBox="0 0 14 14" fill="none" xmlns="http://www.w3.org/2000/svg">
<path d="M7.22481 14C7.17469 14 7.1239 13.9849 7.0799 13.9532C6.96792 13.8728 6.94196 13.7166 7.02235 13.6041C8.39159 11.6857 8.72801 9.0238 7.87948 6.82281C7.85367 6.75578 7.85782 6.68095 7.89073 6.61741C7.92382 6.5537 7.98237 6.50724 8.05184 6.48982C9.30529 6.17641 10.7187 5.72596 11.6997 4.76284C12.5645 3.91386 13.1207 2.38448 12.4482 1.22227C12.229 0.843323 11.9147 0.587819 11.5856 0.520957C11.2414 0.451771 10.8593 0.573881 10.522 0.682388L5.14912 2.40705C4.14113 2.73058 3.09907 3.06489 2.21447 3.65587C1.25908 4.29364 0.632848 5.17977 0.496056 6.08715C0.475546 6.22386 0.348513 6.31877 0.212218 6.2972C0.0760885 6.27663 -0.0176956 6.14904 0.00281479 6.01249C0.160447 4.96575 0.865912 3.95517 1.93791 3.23943C2.8804 2.60979 3.95636 2.26436 4.99694 1.93055L10.3697 0.205886C10.7455 0.0851016 11.2129 -0.0657127 11.6845 0.0306824C12.1533 0.12575 12.5889 0.468693 12.8796 0.971408C13.6871 2.36706 13.0729 4.11528 12.0487 5.12071C11.0541 6.09711 9.68969 6.57875 8.44087 6.90676C9.22424 9.20697 8.83835 11.9198 7.42825 13.8955C7.37913 13.9638 7.30255 14 7.22481 14Z" fill="#BF453F"/>
</svg>
