<svg width="6" height="14" viewBox="0 0 6 14" fill="none" xmlns="http://www.w3.org/2000/svg">
<path d="M1.42794 14.0001C0.967512 14.0001 0.53045 13.9113 0.15249 13.74C0.0220931 13.6809 -0.035798 13.527 0.0229577 13.3962C0.0817134 13.2656 0.23513 13.2077 0.365698 13.2663C1.83184 13.9306 3.61977 13.014 4.43479 11.7836C5.21442 10.6078 5.51163 9.00623 5.34344 6.88732C5.22954 5.4515 4.95483 4.02378 4.52704 2.64311C4.26213 1.78992 3.929 1.0341 3.53661 0.396496C3.46154 0.274317 3.49934 0.114228 3.62097 0.0387495C3.74312 -0.0367291 3.90255 0.0015267 3.97763 0.123361C4.3927 0.797844 4.74403 1.59382 5.02183 2.48853C5.46112 3.90591 5.74305 5.37206 5.86022 6.84579C6.03786 9.08533 5.7128 10.7946 4.86634 12.0712C3.98913 13.3952 2.62934 13.9999 1.42794 14.0001Z" fill="#BF453F"/>
</svg>
