<svg width="16" height="14" viewBox="0 0 16 14" fill="none" xmlns="http://www.w3.org/2000/svg">
<path d="M13.0909 13.8182H2.90909C2.13755 13.8182 1.39761 13.5117 0.852053 12.9661C0.306493 12.4206 0 11.6806 0 10.9091V8C0 7.22846 0.306493 6.48853 0.852053 5.94296C1.39761 5.3974 2.13755 5.09091 2.90909 5.09091H13.0909C13.8624 5.09091 14.6024 5.3974 15.1479 5.94296C15.6935 6.48853 16 7.22846 16 8V10.9091C16 11.6806 15.6935 12.4206 15.1479 12.9661C14.6024 13.5117 13.8624 13.8182 13.0909 13.8182ZM2.90909 6.54546C2.52332 6.54546 2.15335 6.6987 1.88057 6.97148C1.60779 7.24426 1.45455 7.61423 1.45455 8V10.9091C1.45455 11.2949 1.60779 11.6648 1.88057 11.9376C2.15335 12.2104 2.52332 12.3636 2.90909 12.3636H13.0909C13.4767 12.3636 13.8466 12.2104 14.1194 11.9376C14.3922 11.6648 14.5455 11.2949 14.5455 10.9091V8C14.5455 7.61423 14.3922 7.24426 14.1194 6.97148C13.8466 6.6987 13.4767 6.54546 13.0909 6.54546H2.90909Z" fill="#FF0000"/>
<path d="M13.0909 6.54545H2.90912V5.09091C2.90912 3.74072 3.44548 2.44582 4.40021 1.49109C5.35494 0.536362 6.64983 0 8.00003 0C9.35022 0 10.6451 0.536362 11.5998 1.49109C12.5546 2.44582 13.0909 3.74072 13.0909 5.09091V6.54545ZM4.36366 5.09091H11.6364C11.6364 4.12649 11.2533 3.20156 10.5713 2.51961C9.88937 1.83766 8.96445 1.45455 8.00003 1.45455C7.0356 1.45455 6.11068 1.83766 5.42873 2.51961C4.74678 3.20156 4.36366 4.12649 4.36366 5.09091Z" fill="#FF0000"/>
<path d="M13.0912 5.81818H2.90936C2.3307 5.81818 1.77575 6.04805 1.36658 6.45722C0.957409 6.86639 0.727539 7.42134 0.727539 7.99999V10.9091C0.727539 11.4877 0.957409 12.0427 1.36658 12.4519C1.77575 12.861 2.3307 13.0909 2.90936 13.0909H13.0912C13.6698 13.0909 14.2248 12.861 14.634 12.4519C15.0431 12.0427 15.273 11.4877 15.273 10.9091V7.99999C15.273 7.42134 15.0431 6.86639 14.634 6.45722C14.2248 6.04805 13.6698 5.81818 13.0912 5.81818ZM3.63663 10.1818C3.49279 10.1818 3.35218 10.1392 3.23258 10.0592C3.11298 9.97933 3.01976 9.86575 2.96472 9.73286C2.90967 9.59996 2.89527 9.45373 2.92333 9.31266C2.95139 9.17158 3.02066 9.04199 3.12237 8.94028C3.22408 8.83857 3.35367 8.7693 3.49475 8.74124C3.63582 8.71318 3.78205 8.72758 3.91495 8.78263C4.04784 8.83767 4.16142 8.93089 4.24134 9.05049C4.32125 9.17009 4.3639 9.3107 4.3639 9.45454C4.3639 9.64742 4.28728 9.83241 4.15089 9.9688C4.0145 10.1052 3.82951 10.1818 3.63663 10.1818ZM6.54572 10.1818C6.40188 10.1818 6.26127 10.1392 6.14167 10.0592C6.02207 9.97933 5.92885 9.86575 5.87381 9.73286C5.81876 9.59996 5.80436 9.45373 5.83242 9.31266C5.86048 9.17158 5.92975 9.04199 6.03146 8.94028C6.13317 8.83857 6.26276 8.7693 6.40384 8.74124C6.54491 8.71318 6.69114 8.72758 6.82404 8.78263C6.95693 8.83767 7.07051 8.93089 7.15043 9.05049C7.23034 9.17009 7.27299 9.3107 7.27299 9.45454C7.27299 9.64742 7.19637 9.83241 7.05998 9.9688C6.92359 10.1052 6.73861 10.1818 6.54572 10.1818ZM9.45481 10.1818C9.31097 10.1818 9.17036 10.1392 9.05076 10.0592C8.93116 9.97933 8.83794 9.86575 8.7829 9.73286C8.72785 9.59996 8.71345 9.45373 8.74151 9.31266C8.76958 9.17158 8.83884 9.04199 8.94055 8.94028C9.04226 8.83857 9.17185 8.7693 9.31293 8.74124C9.45401 8.71318 9.60024 8.72758 9.73313 8.78263C9.86602 8.83767 9.9796 8.93089 10.0595 9.05049C10.1394 9.17009 10.1821 9.3107 10.1821 9.45454C10.1821 9.64742 10.1055 9.83241 9.96907 9.9688C9.83268 10.1052 9.6477 10.1818 9.45481 10.1818ZM12.3639 10.1818C12.2201 10.1818 12.0795 10.1392 11.9599 10.0592C11.8403 9.97933 11.747 9.86575 11.692 9.73286C11.6369 9.59996 11.6225 9.45373 11.6506 9.31266C11.6787 9.17158 11.7479 9.04199 11.8496 8.94028C11.9514 8.83857 12.0809 8.7693 12.222 8.74124C12.3631 8.71318 12.5093 8.72758 12.6422 8.78263C12.7751 8.83767 12.8887 8.93089 12.9686 9.05049C13.0485 9.17009 13.0912 9.3107 13.0912 9.45454C13.0912 9.64742 13.0146 9.83241 12.8782 9.9688C12.7418 10.1052 12.5568 10.1818 12.3639 10.1818Z" fill="#FF0000"/>
</svg>
