<svg width="24" height="25" viewBox="0 0 24 25" fill="none" xmlns="http://www.w3.org/2000/svg">
<path d="M12.1402 6.22841C12.5923 6.08244 13.0469 5.93876 13.499 5.79278C13.8798 5.66977 14.2805 5.54659 14.6734 5.6263C15.1108 5.71536 15.4671 6.05029 15.691 6.43869C16.3874 7.64291 15.9022 9.26358 14.9095 10.2393C14.4679 10.6697 13.9513 11.0045 13.3945 11.2679C12.6978 11.5972 11.9384 11.8234 11.1908 12.0097C11.4421 12.6599 11.5927 13.346 11.6449 14.0404L11.6547 14.0403C12.047 13.838 12.394 13.5522 12.6737 13.2077C13.6802 13.6888 14.8762 13.4503 15.8183 12.809L15.8584 12.8654C17.0266 13.4733 18.4136 13.3416 19.5981 12.7445L19.6056 12.7618C20.5991 13.6363 22.0481 13.756 23.3032 13.3068L23.3186 13.3511C23.5312 14.5112 23.4411 15.7267 23.0663 16.844C22.5411 18.4107 21.4759 19.7608 21.0227 21.3488C20.7236 22.3959 20.7113 23.5166 20.9566 24.7308C15.6194 25.3172 10.1801 24.9424 4.97218 23.6352L4.97692 23.6104C4.43453 20.7324 2.973 18.1291 1.77196 15.4563C0.573532 12.7859 -0.388764 9.84059 0.156406 6.96272C0.545416 4.90773 1.69854 3.03727 3.24641 1.63737C4.25957 0.718214 5.53108 -0.0354513 6.89761 0.00128879C7.43542 0.0150663 7.95475 0.15514 8.43828 0.384766V0.387224C9.30852 0.80301 10.0586 1.51682 10.5954 2.33215C11.3653 3.50374 11.7724 4.86952 12.1402 6.22841Z" fill="#FEA77C"/>
</svg>
