<svg width="27" height="24" viewBox="0 0 27 24" fill="none" xmlns="http://www.w3.org/2000/svg">
<path d="M7.76431 9.96114C9.14076 9.94329 10.6795 9.78166 11.5374 8.71535L11.5926 8.75964C12.4421 9.41311 13.7102 9.4812 14.6989 9.01415C15.5715 8.60313 16.2391 7.86289 16.7092 7.00779L16.7542 7.03225C17.2699 7.60722 18.0291 7.95759 18.7998 7.98651C18.9795 7.17207 19.2665 6.37878 19.6534 5.63921C18.8431 5.84513 17.9664 6.10906 17.0877 6.18129C16.5812 6.22426 16.0716 6.20261 15.5732 6.07105C14.205 5.70746 13.0743 4.12749 13.7113 2.8617C14.1611 1.96942 15.2011 1.64632 16.2207 1.49278C16.4242 1.46303 16.625 1.43841 16.8213 1.41874L21.3757 0.954176C21.7777 0.914842 22.1848 0.872864 22.5874 0.875839C22.9899 0.876335 23.3904 0.919139 23.7745 1.04458C25.3206 1.55079 26.1674 3.28843 26.2425 4.91764C26.3201 6.54686 25.8085 8.13526 25.4833 9.7339C24.7364 13.4186 24.9931 17.3039 26.2178 20.8593C20.135 22.6567 14.5867 24.0172 8.30738 23.9999C8.27063 23.8159 8.23126 23.6318 8.18446 23.4479C8.18446 23.4454 8.18446 23.4429 8.18446 23.4429C7.80171 21.8644 7.11168 20.3643 6.1628 19.0464C5.28213 17.8249 4.18958 16.7755 3.2669 15.5869C0.461287 11.9718 -0.634068 7.0815 0.359957 2.60901C0.490615 1.83737 1.02841 1.03879 1.76803 0.51208C2.2882 0.139895 2.94412 -0.0967689 3.56924 0.0384208C3.69875 0.0668469 3.82347 0.110313 3.94095 0.16386C4.428 0.390278 4.82294 0.82196 5.16317 1.25678C6.6856 3.20133 7.67583 5.56549 7.99367 8.01692C8.06682 8.56694 8.10307 9.13976 7.90996 9.66035C7.87141 9.76811 7.82297 9.86843 7.76431 9.96114Z" fill="#FEA77C"/>
</svg>
