<svg width="1" height="2" viewBox="0 0 1 2" fill="none" xmlns="http://www.w3.org/2000/svg">
<path d="M0.424146 1.32117C0.381524 1.27123 0.330792 1.21145 0.285152 1.15791C0.347388 1.08281 0.400571 1.0185 0.411887 1.00507C0.349274 0.667207 0.295715 0.377962 0.225558 0C0.529382 0.260109 0.749281 0.448522 0.988229 0.653015C0.873564 0.691984 0.772667 0.726224 0.630279 0.774462C0.68912 0.859967 0.741927 0.936583 0.818119 1.04706C0.766821 1.14297 0.707036 1.2542 0.647629 1.36524C0.746829 1.40497 0.84603 1.44508 1.00011 1.50731C0.921656 1.65108 0.847729 1.78614 0.779647 1.911C0.533155 1.911 0.317592 1.911 0 1.911C0.178032 1.66356 0.301371 1.49199 0.424146 1.32117Z" fill="#F57D77"/>
</svg>
