<svg width="9" height="13" viewBox="0 0 9 13" fill="none" xmlns="http://www.w3.org/2000/svg">
<path d="M3.98213 0.215226C4.20349 0.305672 4.41272 0.426432 4.60469 0.572513C5.20084 1.03557 5.58411 1.71717 5.92454 2.39161C6.77211 4.07778 7.45046 5.84873 7.94898 7.67182C8.31697 9.02169 8.54248 10.6018 7.6881 11.7064C7.67813 11.7191 7.66834 11.7318 7.65605 11.7444C6.79137 12.8191 5.24053 12.9822 3.85326 13C3.91238 12.9064 3.96137 12.8054 4.00023 12.6968C4.19468 12.1722 4.15832 11.5948 4.08459 11.0405C3.76426 8.56979 2.76607 6.18686 1.23184 4.22719C0.888921 3.78895 0.490874 3.3537 0 3.12567L0.0539691 3.01707C0.186485 1.86508 0.585197 0.788052 1.70378 0.258032C2.41369 -0.0762708 3.2601 -0.0805996 3.98213 0.215226Z" fill="#FEA77C"/>
</svg>
