<svg width="1" height="2" viewBox="0 0 1 2" fill="none" xmlns="http://www.w3.org/2000/svg">
<path d="M0.542714 0.587818C0.325976 0.581885 0.174118 0.581886 0.021393 0.581886C-0.0761912 0.240779 0.260748 0.192974 0.354158 0C0.562373 0.0657786 0.763621 0.129285 1.00001 0.203962C0.925566 0.353316 0.859471 0.485746 0.785543 0.634227C0.837379 0.707858 0.892351 0.786027 0.963843 0.8874C0.814597 0.980572 0.66674 1.07287 0.475573 1.19221C0.528105 1.33162 0.592116 1.50191 0.704834 1.80149C0.390163 1.67779 0.198647 1.60241 0 1.52425C0 1.34837 0 1.19012 0 1.03571C0.170816 0.911304 0.343197 0.786026 0.542714 0.587818C0.471569 0.604393 0.482006 0.614861 0.492443 0.62533C0.536278 0.587817 0.580109 0.550306 0.623944 0.512793C0.607071 0.495868 0.590199 0.478945 0.573152 0.461846C0.535928 0.505815 0.498531 0.549781 0.542714 0.587818Z" fill="#F57D77"/>
</svg>
