<svg width="7" height="4" viewBox="0 0 7 4" fill="none" xmlns="http://www.w3.org/2000/svg">
<path d="M6.52385 0.352801C6.89392 0.637736 7.12239 1.15829 6.93041 1.5809C6.79732 1.87402 6.49553 2.05876 6.18714 2.1384C5.87632 2.21804 5.55385 2.21107 5.23434 2.22518C4.36738 2.25847 3.48391 2.45226 2.76896 2.94649C2.39455 3.20563 2.07331 3.54041 1.67753 3.76296C1.27914 3.98289 0.756007 4.06497 0.383507 3.80095C0.0269908 3.54738 -0.0730866 3.03328 0.0506168 2.60875C0.17432 2.18684 0.479761 1.84178 0.809174 1.54901C2.11935 0.380687 3.94728 -0.181166 5.68712 0.0518353C5.68382 -0.0267614 6.15656 0.0704806 6.52385 0.352801Z" fill="#323B6E"/>
</svg>
