<svg width="156" height="110" viewBox="0 0 156 110" fill="none" xmlns="http://www.w3.org/2000/svg">
<path d="M156 15.7143V6.27786C156.001 5.45315 155.841 4.63634 155.528 3.87421C155.215 3.11208 154.756 2.4196 154.177 1.83644C153.598 1.25328 152.911 0.790897 152.154 0.475772C151.397 0.160646 150.587 -0.00102919 149.768 4.92967e-06H6.2478C5.42836 -0.00102753 4.61673 0.160535 3.85927 0.475468C3.1018 0.790401 2.41333 1.25254 1.83317 1.83549C1.25301 2.41844 0.792516 3.1108 0.47798 3.87302C0.163445 4.63524 0.00102855 5.45241 4.88155e-06 6.27786V15.7143H15.6V31.4286H4.88155e-06V47.1429H15.6V62.8571H4.88155e-06V78.5714H15.6V94.2857H4.88155e-06V103.706C-0.00102171 104.533 0.159882 105.352 0.473499 106.116C0.787117 106.88 1.24729 107.574 1.82765 108.159C2.40802 108.744 3.09718 109.207 3.85566 109.523C4.61414 109.839 5.42704 110.001 6.2478 110H149.768C150.587 109.999 151.398 109.835 152.155 109.519C152.912 109.202 153.599 108.738 154.178 108.153C154.757 107.569 155.215 106.875 155.528 106.112C155.841 105.349 156.001 104.532 156 103.706V94.2857H140.4V78.5714H156V62.8571H140.4V47.1429H156V31.4286H140.4V15.7143H156ZM62.4 78.5714V31.4286L101.4 55L62.4 78.5714Z" fill="white"/>
</svg>
