<svg width="7" height="12" viewBox="0 0 7 12" fill="none" xmlns="http://www.w3.org/2000/svg">
<path d="M3.976 12C3.49186 12 3.01032 11.8961 2.59188 11.6907C1.40992 11.1104 0.492863 9.84507 0.00993632 8.1279C-0.0294507 7.9877 0.0517632 7.84208 0.191535 7.80257C0.331481 7.76324 0.476481 7.84453 0.515868 7.98472C0.77171 8.89445 1.41166 10.5242 2.82297 11.2172C3.4685 11.5343 4.29685 11.5596 4.98508 11.2836C5.52761 11.066 5.92392 10.6821 6.10081 10.2026C6.2859 9.70207 6.24616 9.13236 6.17575 8.59097C5.84149 6.02788 4.82387 3.59922 3.23305 1.56738C2.94009 1.19293 2.54204 0.733351 2.06068 0.501026C1.92997 0.437919 1.8749 0.280415 1.93781 0.149306C2.00072 0.0180219 2.15827 -0.036872 2.28846 0.0260603C2.86741 0.305585 3.31827 0.822681 3.64644 1.24188C5.29547 3.34819 6.3502 5.86583 6.69685 8.5228C6.77597 9.13132 6.81832 9.77812 6.5935 10.3859C6.3645 11.0069 5.8624 11.4997 5.17992 11.7732C4.80226 11.9248 4.38817 12 3.976 12Z" fill="#BF453F"/>
</svg>
