<svg width="17" height="15" viewBox="0 0 17 15" fill="none" xmlns="http://www.w3.org/2000/svg">
<path d="M8.40072 14.4672C8.39524 14.3744 8.39524 14.2751 8.39524 14.1674C8.31636 14.131 8.23415 14.0934 8.15476 14.0569C8.15476 13.9896 8.15476 13.9301 8.14845 13.8652C8.14995 13.8675 8.15775 13.8755 8.16556 13.8833C8.19828 13.8553 8.23099 13.8274 8.26371 13.7992C8.25109 13.7865 8.23847 13.7739 8.22585 13.7612C8.19794 13.794 8.17004 13.8269 8.14828 13.8652C8.02273 13.8537 7.91943 14.1792 7.76165 13.868C7.5876 13.9625 7.48895 14.2475 7.2136 14.0676C7.2136 13.9996 7.2136 13.9061 7.2136 13.8022C7.12906 13.7744 7.0603 13.7517 6.95235 13.7161C6.95235 13.6155 6.95235 13.5018 6.95235 13.3881C7.03141 13.3346 7.11063 13.2813 7.17922 13.235C7.12607 13.1242 7.0789 13.0261 7.02493 12.9133C6.85536 12.9601 6.68032 13.0082 6.46325 13.0682C6.57917 13.229 6.83144 13.3431 6.6755 13.6141C6.51457 13.6141 6.33985 13.6141 6.18606 13.6141C6.10851 13.6919 6.05187 13.7487 5.98627 13.8145C6.04606 13.865 6.10585 13.9153 6.19304 13.9888C6.24054 13.9008 6.29634 13.7972 6.34982 13.6981C6.59545 13.9145 6.72964 14.1412 7.03224 14.1474C7.10348 14.1489 7.17058 14.3481 7.22655 14.4359C7.08937 14.6421 6.98557 14.7979 6.87347 14.9665C6.60791 14.9072 6.69045 14.7886 6.81534 14.6711C6.76418 14.5675 6.71519 14.4685 6.66121 14.3594C6.61969 14.3941 6.579 14.4281 6.52304 14.4745C6.43053 14.3486 6.3372 14.2217 6.22758 14.0724C6.11448 14.2287 6.02015 14.3589 5.90174 14.5225C5.69945 14.4317 5.51411 14.3483 5.22862 14.22C5.09011 14.2457 4.84897 14.2903 4.58357 14.3394C4.44556 14.1227 4.71378 14.0712 4.78519 13.9305C4.78519 13.7777 4.78519 13.6181 4.78519 13.4339C4.88318 13.3667 4.99046 13.2933 5.10755 13.2131C5.02302 13.0211 4.91938 12.7988 5.17265 12.5764C5.07683 12.5568 5.02202 12.5455 4.93715 12.5281C4.93715 12.3136 4.93715 12.0844 4.93715 11.8063C5.03032 11.8366 5.11087 11.863 5.21633 11.8973C5.31764 11.8683 5.45432 11.829 5.59881 11.7877C5.74397 11.6167 5.89642 11.4372 6.09289 11.2058C6.07562 11.1656 6.02597 11.0505 5.97099 10.9227C6.15817 10.8569 6.33055 10.7963 6.54895 10.7197C6.56921 10.8311 6.58831 10.9354 6.6109 11.0599C6.66205 11.0779 6.73163 11.1022 6.80155 11.1267C6.92711 11.4667 6.72416 11.7539 6.67666 12.062C6.59163 12.062 6.53151 12.062 6.46607 12.0684C6.4684 12.0669 6.47621 12.059 6.48418 12.0512C6.45628 12.0184 6.42837 11.9856 6.40031 11.9526C6.38768 11.9652 6.37506 11.9779 6.36244 11.9906C6.39516 12.0186 6.42788 12.0465 6.46607 12.0684C6.49746 12.2951 6.71087 12.1025 6.8351 12.2838C6.8723 12.3929 6.93807 12.585 7.00566 12.783C7.09036 12.7031 7.17291 12.6251 7.28667 12.5177C7.36539 12.5966 7.44494 12.6764 7.55339 12.7852C7.55339 12.6373 7.51187 12.4832 7.56518 12.3765C7.61733 12.2723 7.69406 12.1885 7.66732 12.0565C7.66882 12.0589 7.67662 12.0669 7.68443 12.0747C7.71714 12.0467 7.74986 12.0187 7.78258 11.9906C7.76996 11.9779 7.75734 11.9652 7.74471 11.9526C7.71681 11.9854 7.68891 12.0182 7.66715 12.0565C7.44876 12.1175 7.28899 11.9391 7.04203 11.9116C7.10116 11.6384 7.15563 11.3869 7.21426 11.1168C7.30693 11.1168 7.4001 11.1168 7.51536 11.1168C7.53014 11.162 7.55273 11.2313 7.58777 11.3386C7.68808 11.3386 7.80101 11.3386 7.91395 11.3386C7.87575 11.4618 7.83755 11.5849 7.78358 11.7592C7.85034 11.7867 7.9264 11.818 8.04349 11.8661C8.04349 11.9974 8.04349 12.1457 8.04349 12.3502C8.1624 12.2914 8.22468 12.2584 8.28879 12.2295C8.33911 12.2066 8.39142 12.1888 8.50668 12.144C8.48044 12.2858 8.46317 12.3797 8.43859 12.5125C8.55751 12.5303 8.71146 12.5533 8.89813 12.5811C8.8327 12.7357 8.77673 12.8683 8.72043 13.0016C8.53342 13.0985 8.40039 13.0116 8.22833 12.6782C8.13533 12.6782 8.04149 12.6782 7.93255 12.6782C7.92839 12.7449 7.90066 12.8287 7.92524 12.849C8.14297 13.0284 8.36983 13.1965 8.5771 13.3549C8.66064 13.3199 8.74069 13.2863 8.81592 13.2548C8.98416 13.5407 8.7661 13.6648 8.56913 13.8947C8.81243 13.8305 8.96423 13.7905 9.11619 13.7506C9.15622 13.7907 9.19641 13.831 9.23643 13.8712C9.07916 14.1394 8.82589 14.3598 8.86508 14.7246C8.87339 14.8022 8.74567 14.8947 8.66579 15C8.57527 14.9353 8.51582 14.893 8.45121 14.8469C8.418 14.8773 8.37698 14.915 8.29792 14.9876C8.23481 14.8262 8.17768 14.6805 8.09697 14.4741C8.2491 14.4736 8.32217 14.4735 8.40072 14.4672C8.3984 14.4687 8.3906 14.4765 8.38262 14.4844C8.41052 14.5172 8.43843 14.55 8.46649 14.583C8.47912 14.5703 8.49174 14.5577 8.50436 14.545C8.47164 14.5168 8.43892 14.4889 8.40072 14.4672ZM6.0904 12.1993C5.95654 12.2448 5.79927 12.2981 5.60911 12.3627C5.77419 12.4362 5.91419 12.4985 6.0904 12.5768C6.0904 12.4145 6.0904 12.2986 6.09854 12.1717C6.10634 12.1795 6.11415 12.1873 6.12196 12.1951C6.15468 12.1672 6.1874 12.1392 6.22011 12.111C6.20749 12.0984 6.19486 12.0857 6.18224 12.073C6.15451 12.1058 6.12644 12.1387 6.0904 12.1993ZM5.262 13.6929C5.41546 13.766 5.54716 13.8289 5.66823 13.8867C5.77187 13.6751 5.86487 13.4852 5.95804 13.2951C5.9323 13.2693 5.9044 13.2413 5.87367 13.2106C5.95173 13.1282 6.02979 13.0457 6.09389 12.9779C6.03975 12.871 5.98976 12.7724 5.93662 12.6672C5.76423 12.7181 5.59017 12.7694 5.43389 12.8155C5.37842 13.0995 5.32428 13.3752 5.262 13.6929ZM7.53363 13.2598C7.62863 13.4295 7.68177 13.5245 7.75069 13.6478C7.82642 13.5248 7.88272 13.4335 7.97075 13.2908C7.80832 13.2793 7.70237 13.2718 7.53363 13.2598ZM5.7506 11.8508C5.7506 11.871 5.7506 11.891 5.7506 11.9111C5.83082 11.9111 5.91087 11.9111 5.99109 11.9111C5.99109 11.891 5.99109 11.871 5.99109 11.8508C5.91087 11.8508 5.83065 11.8508 5.7506 11.8508ZM7.59375 13.0266C7.60704 13.0266 7.62049 13.0266 7.63377 13.0266C7.63377 12.9864 7.63377 12.9461 7.63377 12.906C7.62049 12.906 7.60704 12.906 7.59375 12.906C7.59375 12.9461 7.59375 12.9863 7.59375 13.0266ZM5.30967 12.5441C5.32312 12.5441 5.33641 12.5441 5.34969 12.5441C5.34969 12.504 5.34969 12.4637 5.34969 12.4235C5.33641 12.4235 5.32295 12.4235 5.30967 12.4235C5.30967 12.4638 5.30967 12.504 5.30967 12.5441ZM6.47189 11.5393C6.47189 11.526 6.47189 11.5125 6.47189 11.4991C6.43186 11.4991 6.39184 11.4991 6.35165 11.4991C6.35165 11.5125 6.35165 11.526 6.35165 11.5393C6.39167 11.5393 6.4317 11.5393 6.47189 11.5393Z" fill="#CCCCCC"/>
<path d="M2.9856 11.9413C3.09056 11.9684 3.19552 11.9958 3.3048 12.0241C3.35213 11.881 3.41043 11.7054 3.47586 11.508C3.40511 11.4855 3.33702 11.4637 3.24767 11.4352C3.24767 11.3082 3.24767 11.1741 3.24767 11.0335C3.51107 10.9523 3.5413 10.5836 3.84539 10.4795C3.8972 10.5201 3.95467 10.5653 4.00997 10.6086C4.05166 10.5721 4.09301 10.5361 4.13387 10.5005C4.19548 10.5621 4.25178 10.6187 4.30542 10.6726C4.19631 10.7437 4.03854 10.7915 3.98904 10.8926C3.9266 11.0202 3.86349 11.1019 3.69741 11.141C3.72033 11.2464 3.74973 11.3516 3.76434 11.4587C3.77514 11.5378 3.7665 11.6194 3.7665 11.7744C3.95699 11.6089 4.10115 11.4837 4.25079 11.3539C4.33167 11.3539 4.42583 11.3539 4.52581 11.3539C4.59457 11.6143 4.48678 11.791 4.30792 11.9413C4.2948 11.908 4.28151 11.8746 4.26839 11.8413C4.24149 11.8746 4.21458 11.908 4.18768 11.9413C4.15446 11.9546 4.12124 11.9678 4.08803 11.9809C4.12124 12.0079 4.15446 12.0349 4.18768 12.0617C4.20096 12.095 4.21408 12.1283 4.2272 12.1617C4.25411 12.1283 4.28101 12.095 4.30775 12.0617C4.38099 12.0749 4.51817 12.0887 4.518 12.1014C4.51618 12.2913 4.69754 12.3018 4.83538 12.3691C4.77144 12.472 4.73275 12.5342 4.67412 12.6286C4.74902 12.6809 4.84153 12.7457 5.00976 12.8635C4.80366 12.892 4.69803 12.9066 4.57032 12.9243C4.57032 13.0141 4.57032 13.1067 4.57032 13.2335C4.38996 13.2335 4.23136 13.2335 4.07524 13.2335C4.02824 12.9318 4.30493 12.9615 4.42799 12.8425C4.42799 12.7832 4.42799 12.7239 4.42168 12.6593C4.42318 12.6616 4.43098 12.6696 4.43879 12.6774C4.4715 12.6494 4.50422 12.6215 4.53694 12.5933C4.52432 12.5806 4.5117 12.568 4.49907 12.5553C4.47117 12.5881 4.44327 12.621 4.42151 12.6593C4.34694 12.622 4.2659 12.5793 4.1704 12.5288C4.11111 12.5745 4.05265 12.6193 3.99336 12.6649C3.83625 12.6136 3.67881 12.5623 3.4855 12.4992C3.4747 12.4264 3.45859 12.3169 3.42803 12.1099C3.36525 12.262 3.33652 12.3318 3.29616 12.4294C3.14238 12.4079 2.98244 12.3854 2.73847 12.3513C2.6845 12.2623 2.58302 12.0947 2.44916 11.874C2.5787 11.8507 2.66175 11.8357 2.74462 11.8207C2.78464 11.8608 2.82484 11.9011 2.86486 11.9413C2.87848 12.0176 2.89193 12.094 2.90555 12.1703C2.93212 12.1675 2.95853 12.1645 2.9851 12.1617C2.9856 12.0882 2.9856 12.0147 2.9856 11.9413ZM4.18784 12.3834C4.18784 12.3699 4.18784 12.3566 4.18784 12.3433C4.14782 12.3433 4.10779 12.3433 4.0676 12.3433C4.0676 12.3566 4.0676 12.3701 4.0676 12.3834C4.10763 12.3834 4.14765 12.3834 4.18784 12.3834Z" fill="#CCCCCC"/>
<path d="M3.83252 9.64389C3.74616 9.55826 3.66512 9.46646 3.5291 9.31203C3.48376 9.52277 3.45768 9.64438 3.4331 9.75866C3.23547 9.79131 3.18365 9.72801 3.10559 9.38201C3.47877 9.08498 3.85893 8.80728 4.404 8.94571C4.404 8.82277 4.404 8.73064 4.404 8.59554C4.56958 8.58188 4.7149 8.56972 4.92649 8.55223C4.874 8.63485 4.84245 8.66718 4.83148 8.70549C4.81089 8.77746 4.80226 8.85276 4.7888 8.92672C4.71473 8.92672 4.64066 8.92672 4.54234 8.92672C4.6003 9.02884 4.63435 9.08898 4.6948 9.19543C4.52906 9.32204 4.35716 9.45347 4.13362 9.62422C4.32926 9.69869 4.48355 9.75733 4.68384 9.83329C4.62788 10.0432 4.56725 10.2699 4.49152 10.5538C4.34089 10.4105 4.22165 10.2971 4.07516 10.1576C4.07002 10.1122 4.05939 10.0177 4.04776 9.91475C4.01122 9.92591 3.97053 9.92556 3.95841 9.94406C3.86607 10.0862 3.77938 10.2318 3.67956 10.3947C3.59885 10.3204 3.54554 10.2712 3.50684 10.2356C3.54637 10.047 3.5834 9.87077 3.62957 9.65021C3.6794 9.65021 3.7533 9.65022 3.83252 9.64389C3.8302 9.64539 3.82239 9.6532 3.81459 9.66119C3.84249 9.69401 3.87039 9.72684 3.89829 9.75965C3.91091 9.74699 3.92353 9.73433 3.93616 9.72167C3.90344 9.69368 3.87072 9.66571 3.83252 9.64389Z" fill="#CCCCCC"/>
<path d="M9.1165 13.7501C9.12297 13.599 9.06816 13.4314 9.23125 13.324C9.11699 13.2583 9.00356 13.193 8.85974 13.1104C8.98014 12.963 9.08477 12.8352 9.23125 12.6559C9.23424 12.6021 9.24155 12.4675 9.24969 12.3203C9.35897 12.3099 9.4533 12.3011 9.54963 12.2921C9.61274 12.1599 9.67635 12.0267 9.79825 11.7712C9.62652 11.8675 9.56341 11.903 9.49217 11.9428C9.29138 11.9075 9.27543 11.8065 9.31828 11.612C9.34635 11.4842 9.24604 11.3281 9.21199 11.2143C9.33854 11.0062 9.47672 10.9263 9.67518 10.9949C9.81037 11.2296 9.64977 11.431 9.55062 11.7154C9.72899 11.6633 9.84126 11.6304 10.0112 11.5808C10.045 11.6128 10.113 11.6769 10.1909 11.7502C10.1575 11.7912 10.1246 11.8317 10.0693 11.8996C10.1125 11.9963 10.1636 12.1102 10.2196 12.2352C10.1196 12.282 10.0374 12.3205 9.95752 12.3579C9.95752 12.4244 9.95752 12.4844 9.95752 12.5443C9.77367 12.5158 9.66837 12.6123 9.59646 12.7677C9.52638 12.919 9.45214 13.0684 9.36462 13.25C9.42872 13.3018 9.5209 13.3764 9.59447 13.4359C9.61656 13.7273 9.5209 13.884 9.23624 13.8705C9.19671 13.8304 9.15652 13.7902 9.1165 13.7501Z" fill="#CCCCCC"/>
<path d="M2.26428 9.04729C2.34566 9.00448 2.42687 8.96184 2.56455 8.88937C2.59328 8.97783 2.62583 9.07795 2.65971 9.1824C2.63131 9.20039 2.51024 9.27718 2.36625 9.36847C2.57302 9.4391 2.76418 9.5044 2.92046 9.55771C3.01047 9.74146 3.09152 9.90704 3.1724 10.0723C3.14998 10.1844 3.12274 10.32 3.09384 10.4641C3.24348 10.4879 3.35293 10.5054 3.46885 10.5239C3.1895 10.8046 2.92677 11.0687 2.66237 11.334C2.55159 11.334 2.43351 11.334 2.31776 11.334C2.26594 11.2321 2.21611 11.1343 2.15699 11.0182C2.21279 10.8746 2.48334 11.107 2.5046 10.8559C2.56322 10.8559 2.62185 10.8559 2.69941 10.8559C2.74176 10.6106 2.78494 10.36 2.83941 10.0451C2.76999 9.99217 2.64792 9.89888 2.52851 9.80759C2.37239 9.75895 2.19818 9.70448 2.0238 9.65018C2.00354 9.40896 2.20416 9.25636 2.26428 9.04729Z" fill="#CCCCCC"/>
<path d="M3.8272 8.20325C3.7332 8.13712 3.6392 8.07098 3.53507 7.99768C3.43957 8.02817 3.32365 8.06533 3.1677 8.1153C3.10891 8.00602 3.05128 7.89841 3.02753 7.85409C2.79934 7.8431 2.66498 7.83677 2.46801 7.82727C2.53328 7.61921 2.58742 7.44712 2.6218 7.33733C2.85348 7.16092 3.03982 7.01881 3.22616 6.87688C3.26618 6.83674 3.30637 6.79642 3.3464 6.75627C3.58688 6.83674 3.8272 6.91703 4.06768 6.99749C4.02766 7.1181 3.98747 7.23871 3.94744 7.35932C3.84879 7.35932 3.75014 7.35932 3.63521 7.35932C3.61379 7.29585 3.5907 7.22739 3.55964 7.1351C3.45352 7.18491 3.3464 7.23506 3.24576 7.28221C3.2916 7.37883 3.33727 7.47494 3.38759 7.58089C3.45884 7.54491 3.53374 7.50692 3.65946 7.44328C3.68487 7.72098 3.8737 7.92722 3.8272 8.20325Z" fill="#CCCCCC"/>
<path d="M8.76206 11.7056C8.84294 11.7642 8.93013 11.8283 9.05004 11.9166C8.96633 12.0164 8.90704 12.0869 8.85323 12.1512C8.82998 12.1592 8.8059 12.1712 8.80358 12.1677C8.61973 11.9064 8.3256 11.8102 7.99793 11.6622C8.14541 11.5545 8.25469 11.4745 8.36513 11.394C8.36247 11.3899 8.34636 11.3427 8.32826 11.3419C8.19058 11.3357 8.0524 11.3384 7.91439 11.3384C7.91439 11.238 7.91439 11.1375 7.91439 11.0204C8.18693 10.8371 8.41213 11.2434 8.67586 11.0908C8.79561 11.0024 8.91535 10.9141 9.09355 10.7827C9.10667 10.9496 9.11398 11.0427 9.12378 11.1693C9.00802 11.2431 8.88313 11.3227 8.75591 11.4039C8.75575 11.4993 8.75575 11.5998 8.76206 11.7056C8.76057 11.7032 8.75276 11.6954 8.74495 11.6876C8.71223 11.7155 8.67952 11.7435 8.6468 11.7715C8.65942 11.7842 8.67204 11.7969 8.68467 11.8095C8.71257 11.7767 8.74047 11.7439 8.76206 11.7056Z" fill="#CCCCCC"/>
<path d="M2.26473 9.04735C2.1244 9.04735 1.98439 9.04735 1.83791 9.04735C1.80154 8.96922 1.76401 8.88877 1.72664 8.80847C1.67798 8.85012 1.63679 8.88527 1.58962 8.92558C1.59594 8.63439 1.59594 8.63437 2.04717 8.48461C1.96397 8.46712 1.91033 8.45381 1.85569 8.44498C1.80022 8.43598 1.74408 8.43165 1.64161 8.41999C1.68064 8.3152 1.71086 8.2344 1.74142 8.15211C1.71086 8.04716 1.67582 7.92656 1.63264 7.77796C1.82031 7.70266 1.98888 7.63502 2.18967 7.55456C2.25743 7.64868 2.31423 7.72748 2.39461 7.83909C2.33499 7.92005 2.2566 8.02634 2.1704 8.14345C2.26258 8.25156 2.34312 8.38 2.14815 8.49744C2.34744 8.64821 2.23401 8.86277 2.26473 9.04735ZM1.98389 7.96204C1.97061 7.96204 1.95716 7.96204 1.94387 7.96204C1.94387 8.00218 1.94387 8.0425 1.94387 8.08265C1.95732 8.08265 1.97061 8.08265 1.98389 8.08265C1.98389 8.0425 1.98389 8.00235 1.98389 7.96204Z" fill="#CCCCCC"/>
<path d="M1.55154 6.25215C1.65318 6.2913 1.75482 6.33046 1.85862 6.37044C1.90346 6.33846 1.96375 6.29548 2.05792 6.22818C2.1388 6.3796 2.20523 6.50388 2.26917 6.62366C1.94499 7.22603 1.86975 7.31814 1.4328 7.65065C1.4783 7.72695 1.52381 7.80341 1.59041 7.91519C1.48262 7.93885 1.41603 7.95367 1.35375 7.96733C1.31638 7.87471 1.28881 7.80641 1.25991 7.73478C1.16641 7.72462 1.07241 7.71446 0.96047 7.7023C0.96047 7.60452 0.96047 7.51089 0.96047 7.38912C1.11094 7.33314 1.28333 7.26901 1.57214 7.16157C1.64937 7.04729 1.79485 6.83172 1.93734 6.62049C1.7721 6.50021 1.64239 6.40592 1.51252 6.31147C1.52564 6.29181 1.53859 6.27198 1.55154 6.25215Z" fill="#CCCCCC"/>
<path d="M2.32839 8.61249C2.42521 8.38011 2.48799 8.22984 2.52702 8.13622C2.67583 8.14788 2.78594 8.15655 3.00267 8.17354C3.0779 8.23434 3.24814 8.37193 3.43464 8.52269C3.42783 8.53152 3.39777 8.57034 3.36605 8.61115C3.39894 8.66779 3.43381 8.72827 3.4931 8.83055C3.3893 8.91501 3.28185 9.00263 3.18918 9.07793C2.87961 8.91034 2.62285 8.77158 2.32839 8.61249Z" fill="#CCCCCC"/>
<path d="M5.03852 10.5368C5.2599 10.5828 5.44026 10.6202 5.60202 10.6539C5.81809 10.7827 5.73439 10.9796 5.75448 11.1898C5.6075 11.2049 5.45986 11.2203 5.25907 11.2409C5.31155 11.3081 5.34759 11.354 5.41386 11.4387C5.3436 11.53 5.26737 11.6287 5.12371 11.8152C5.02656 11.6741 4.96328 11.5821 4.89469 11.4823C4.92143 11.4253 4.94485 11.375 4.98869 11.2816C4.97292 11.2458 4.94369 11.1718 4.90831 11.1007C4.87559 11.0347 4.83657 10.9719 4.80136 10.9093C4.88938 10.7712 4.98089 10.6272 5.03852 10.5368ZM5.2697 10.8863C5.2697 10.9064 5.2697 10.9264 5.2697 10.9466C5.34991 10.9466 5.42996 10.9466 5.51018 10.9466C5.51018 10.9266 5.51018 10.9064 5.51018 10.8863C5.42996 10.8863 5.34991 10.8863 5.2697 10.8863Z" fill="#CCCCCC"/>
<path d="M4.30782 7.60034C4.4832 7.52021 4.62769 7.70363 4.821 7.64599C4.95785 7.60517 5.13124 7.70512 5.29018 7.71745C5.48133 7.73227 5.67464 7.72094 5.88091 7.72094C5.85401 8.02496 5.68444 8.03912 5.48731 8.10459C5.35611 8.14824 5.18222 8.0308 5.09204 8.20039C5.00751 8.11993 4.92314 8.03929 4.83811 7.95799C4.69511 8.00697 4.5556 8.05496 4.43769 8.09544C4.25417 8.01198 4.15918 7.90452 4.18758 7.72094C4.22777 7.6808 4.26779 7.64048 4.30782 7.60034Z" fill="#CCCCCC"/>
<path d="M9.95412 14.2602C10.028 14.2047 10.086 14.1611 10.1783 14.0916C10.2416 14.2347 10.3011 14.3691 10.3788 14.5447C10.6042 14.63 10.8895 14.7381 11.1997 14.8557C11.1391 14.9164 11.1241 14.9437 11.1112 14.9427C10.8161 14.9195 10.4934 14.8063 10.2336 14.8902C9.9327 14.9875 9.66465 14.9047 9.29645 14.9818C9.39875 14.7934 9.45605 14.6878 9.51136 14.5862C9.5944 14.6477 9.65402 14.6918 9.71015 14.7333C9.83737 14.6092 9.94532 14.5039 10.0559 14.396C10.029 14.3606 9.98568 14.3025 9.95412 14.2602Z" fill="#CCCCCC"/>
<path d="M12.581 13.9991C12.6197 14.1019 12.6584 14.2044 12.6677 14.2292C12.6212 14.3388 12.5812 14.4329 12.5353 14.5411C12.4146 14.4486 12.3561 14.4039 12.2968 14.3585C12.2709 14.3845 12.2425 14.4128 12.1754 14.4803C12.0283 14.2915 11.8846 14.1073 11.7156 13.8904C11.6407 13.8792 11.5299 13.8625 11.4118 13.8449C11.4118 13.6585 11.4118 13.4837 11.4118 13.2885C11.5538 13.2885 11.688 13.2885 11.8704 13.2885C11.8489 13.3764 11.8257 13.4719 11.794 13.6027C11.9468 13.7403 12.1338 13.9087 12.3553 14.1083C12.4058 14.0836 12.5036 14.0363 12.581 13.9991Z" fill="#CCCCCC"/>
<path d="M6.83251 10.253C6.78269 10.2763 6.73269 10.2998 6.65979 10.334C6.41548 10.3121 6.48391 10.0821 6.47328 9.94882C6.34208 9.94882 6.24426 9.94882 6.12667 9.94882C6.12667 10.0091 6.12667 10.1024 6.12667 10.2185C5.94748 10.2185 5.78871 10.2185 5.56666 10.2185C5.74852 9.95065 5.89466 9.73542 6.05676 9.4967C6.14694 9.54884 6.22449 9.59365 6.29408 9.63396C6.35271 9.59265 6.41299 9.55035 6.45518 9.52086C6.72007 9.58666 6.6842 9.93699 6.95192 9.96165C6.95723 9.96215 6.95258 10.0731 6.95258 10.1326C6.91272 10.1727 6.87253 10.2129 6.83251 10.253Z" fill="#CCCCCC"/>
<path d="M1.33026 5.92825C1.18577 5.85695 1.06968 5.79982 0.922864 5.72736C0.96156 5.64756 1.00042 5.56725 1.0441 5.4773C1.02002 5.45131 0.980829 5.40933 0.931171 5.35585C0.804619 5.37951 0.66993 5.42367 0.53607 5.42117C0.476614 5.42017 0.41865 5.32538 0.318173 5.23575C0.394901 5.2046 0.464986 5.17611 0.535072 5.14746C0.519294 5.12647 0.503683 5.10531 0.487906 5.08432C0.821724 5.08432 1.15571 5.08432 1.53055 5.08432C1.53503 5.1811 1.54018 5.28922 1.54566 5.40883C1.41944 5.42199 1.32511 5.432 1.23111 5.44183C1.2625 5.59526 1.29405 5.75067 1.33026 5.92825Z" fill="#CCCCCC"/>
<path d="M14.2858 14.2323C14.2858 14.3931 14.2858 14.5539 14.2858 14.7146C14.2334 14.7773 14.1811 14.84 14.0928 14.9458C13.7774 15.011 13.5123 14.8712 13.2127 14.5262C13.4753 14.4892 13.6334 14.4669 13.7852 14.4454C13.8026 14.3753 13.8159 14.3216 13.8382 14.2323C13.981 14.2323 14.1335 14.2323 14.2858 14.2323Z" fill="#CCCCCC"/>
<path d="M8.35115 9.98338C8.6197 10.1097 8.8351 10.2108 9.08372 10.3275C9.12358 10.3114 9.21426 10.2744 9.30145 10.2391C9.41954 10.471 9.33949 10.6103 9.15713 10.7467C9.13671 10.6701 9.11943 10.6052 9.09618 10.5173C8.85321 10.5173 8.60143 10.5173 8.37839 10.5173C8.27692 10.4327 8.20384 10.3715 8.10287 10.2874C8.19421 10.1756 8.26413 10.0902 8.35115 9.98338Z" fill="#CCCCCC"/>
<path d="M13.7709 12.4435C13.8354 12.5156 13.886 12.5726 13.9252 12.6164C13.9252 12.824 13.7819 12.8895 13.4466 12.8543C13.486 12.8098 13.5223 12.7685 13.5894 12.6927C13.4597 12.6802 13.3553 12.6701 13.2671 12.6616C13.1767 12.7524 13.1068 12.8223 13.0146 12.9148C12.9582 12.8433 12.9019 12.7717 12.8226 12.6714C12.869 12.6071 12.9226 12.5325 12.9866 12.4433C13.234 12.4435 13.4861 12.4435 13.7709 12.4435Z" fill="#CCCCCC"/>
<path d="M7.65753 14.9344C7.71466 14.8645 7.7477 14.8238 7.81098 14.7464C7.52532 14.717 7.23718 14.6769 7.33533 14.2349C7.4466 14.2568 7.56618 14.2776 7.6846 14.3041C7.79388 14.3286 7.90182 14.3591 8.02223 14.3899C8.02223 14.5633 8.02223 14.7382 8.02223 14.9344C7.90847 14.9344 7.80002 14.9344 7.65753 14.9344Z" fill="#CCCCCC"/>
<path d="M10.368 13.5753C10.4444 13.4876 10.5412 13.3765 10.6308 13.2737C10.7176 13.2737 10.7947 13.2737 10.8965 13.2737C10.9872 13.4258 11.0815 13.5844 11.216 13.8105C11.1325 13.8788 11.0479 13.9477 10.951 14.027C10.7359 13.8603 10.5452 13.7125 10.368 13.5753Z" fill="#CCCCCC"/>
<path d="M6.95259 10.1327C7.01155 10.1327 7.07051 10.1327 7.16966 10.1327C7.18212 10.3161 7.1949 10.503 7.20885 10.7081C7.25834 10.7167 7.31847 10.7455 7.36397 10.7304C7.4143 10.7136 7.4515 10.6564 7.52905 10.5848C7.54018 10.7196 7.54898 10.8268 7.5636 11.0058C7.4045 10.9421 7.29488 10.8981 7.169 10.8477C7.11984 10.8841 7.06237 10.9266 7.06752 10.923C6.96489 10.8768 6.87387 10.8358 6.78951 10.7978C6.86906 10.6611 6.9149 10.5825 6.96289 10.5C6.91772 10.4145 6.87504 10.3339 6.83252 10.2533C6.87238 10.213 6.91257 10.1728 6.95259 10.1327Z" fill="#CCCCCC"/>
<path d="M9.92976 10.6925C9.82197 10.5869 9.74375 10.5102 9.65108 10.4193C9.89837 10.0505 10.2352 10.0974 10.5446 9.96466C10.5446 10.1364 10.5446 10.2305 10.5446 10.3395C10.4411 10.362 10.3205 10.364 10.2264 10.4153C10.1292 10.4683 10.0578 10.5689 9.92976 10.6925Z" fill="#CCCCCC"/>
<path d="M2.53247 10.9234C2.32072 10.8228 2.20596 10.7683 2.0628 10.7004C2.02676 10.5859 1.97977 10.436 1.9135 10.2251C2.0447 10.2806 2.1387 10.3204 2.25662 10.3702C2.34181 10.3344 2.45525 10.2866 2.65321 10.2031C2.60771 10.4738 2.57516 10.6682 2.53247 10.9234Z" fill="#CCCCCC"/>
<path d="M0.609568 1.77128C0.77764 1.99983 0.872305 2.22073 0.796407 2.51575C0.669689 2.51575 0.537654 2.51575 0.383035 2.51575C0.26379 2.40897 0.320093 2.17558 0.609568 1.77128Z" fill="#CCCCCC"/>
<path d="M3.22618 6.87689C3.12736 6.87689 3.02838 6.87689 2.92192 6.87689C2.86379 6.7068 2.80484 6.53422 2.73807 6.33881C2.81231 6.27085 2.89352 6.19655 2.99416 6.10443C3.04814 6.18023 3.0787 6.21954 3.10561 6.26136C3.1458 6.32366 3.17934 6.39062 3.22352 6.44993C3.25856 6.49707 3.32134 6.5289 3.34177 6.57971C3.36253 6.63068 3.34625 6.69681 3.34625 6.75628C3.30639 6.79642 3.2662 6.83674 3.22618 6.87689Z" fill="#CCCCCC"/>
<path d="M15.6919 14.5965C15.6072 14.537 15.5467 14.4944 15.4562 14.4307C15.3928 14.5438 15.3441 14.6306 15.2971 14.7146C15.1056 14.7146 15.053 14.6325 15.0035 14.2375C15.1518 14.2545 15.288 14.2701 15.4525 14.2891C15.5454 14.2728 15.6812 14.2488 15.9139 14.2077C15.8065 14.3957 15.7473 14.4994 15.6919 14.5965Z" fill="#CCCCCC"/>
<path d="M4.55744 5.72246C4.49251 5.78759 4.43637 5.84372 4.35715 5.92335C4.25485 5.87737 4.14192 5.82674 3.99461 5.76061C3.95741 5.68648 3.90276 5.57785 3.85726 5.48773C3.91024 5.42059 3.9589 5.35862 4.03081 5.26733C4.20852 5.43442 4.51925 5.40561 4.55744 5.72246Z" fill="#CCCCCC"/>
<path d="M1.82018 3.54559C1.67835 3.61789 1.58019 3.6677 1.47905 3.71917C1.42524 3.6687 1.35798 3.60573 1.27511 3.5281C1.31862 3.45531 1.35616 3.3925 1.40565 3.3097C1.34254 3.28072 1.26913 3.24723 1.16085 3.19776C1.21449 3.1018 1.26631 3.00935 1.31962 2.9139C1.36346 2.93122 1.40183 2.93405 1.41595 2.95404C1.54416 3.13629 1.66805 3.3217 1.82018 3.54559Z" fill="#CCCCCC"/>
<path d="M3.19605 13.299C3.12895 13.2757 3.06036 13.2518 2.95457 13.215C3.01801 13.1062 3.07215 13.014 3.15137 12.8782C3.31595 13.1092 3.45945 13.311 3.62602 13.5449C3.54631 13.6393 3.47606 13.7226 3.37192 13.8459C3.20452 13.6477 3.12646 13.5224 3.19605 13.299Z" fill="#CCCCCC"/>
<path d="M4.19864 13.4194C4.13437 13.6242 4.0794 13.7991 4.02244 13.9802C3.9311 13.9802 3.83792 13.9802 3.72582 13.9802C3.72582 13.7977 3.72582 13.6242 3.72582 13.4194C3.86715 13.4194 4.02742 13.4194 4.19864 13.4194Z" fill="#CCCCCC"/>
<path d="M13.8351 13.4807C13.7216 13.9145 13.4435 13.9686 13.1449 13.9974C13.0811 13.6593 13.0824 13.6671 13.3191 13.6266C13.4614 13.6021 13.5989 13.5488 13.8351 13.4807Z" fill="#CCCCCC"/>
<path d="M5.51306 10.0651C5.23322 9.99252 5.01798 9.93671 4.77086 9.87257C4.966 9.73447 5.12477 9.62204 5.31311 9.48877C5.37522 9.66751 5.42703 9.81694 5.51306 10.0651Z" fill="#CCCCCC"/>
<path d="M4.16096 8.06083C4.16096 8.23691 4.16096 8.38468 4.16096 8.5381C4.00884 8.5381 3.86003 8.5381 3.68515 8.5381C3.75125 8.2679 3.89142 8.12713 4.16096 8.06083Z" fill="#CCCCCC"/>
<path d="M2.82339 2.72053C2.62825 2.81449 2.49672 2.8778 2.34243 2.95193C2.25707 2.76235 2.19213 2.61776 2.12653 2.47216C2.19595 2.44351 2.24079 2.40785 2.26271 2.41884C2.42995 2.50213 2.59271 2.5946 2.82339 2.72053Z" fill="#CCCCCC"/>
<path d="M6.14284 7.0261C5.98141 6.93898 5.85669 6.87169 5.66437 6.76791C5.86051 6.6533 5.99503 6.57465 6.14334 6.4882C6.21641 6.6143 6.2782 6.72109 6.34031 6.8282C6.28467 6.88384 6.22804 6.94065 6.14284 7.0261Z" fill="#CCCCCC"/>
<path d="M4.78896 8.9267C4.99241 8.9442 5.2279 8.84574 5.38585 9.11761C5.28886 9.18675 5.18306 9.26203 5.07727 9.3375C5.0311 9.41663 4.8617 9.18408 4.78896 8.9267Z" fill="#CCCCCC"/>
<path d="M10.8191 12.0969C10.9296 12.1965 11.0378 12.2943 11.1569 12.4019C11.1569 12.4557 11.1569 12.5333 11.1569 12.6501C11.0493 12.6559 10.9427 12.6616 10.8191 12.6683C10.8191 12.4539 10.8191 12.2681 10.8191 12.0969Z" fill="#CCCCCC"/>
<path d="M0.762799 0.967662C0.810463 1.06395 0.858129 1.16023 0.931204 1.30816C0.811959 1.36546 0.676935 1.43043 0.547228 1.4929C0.500061 1.41827 0.460867 1.38511 0.464188 1.35696C0.493086 1.11008 0.495246 1.11026 0.762799 0.967662Z" fill="#CCCCCC"/>
<path d="M2.07442 5.75694C1.9751 5.87622 1.89738 5.9695 1.81649 6.06679C1.56406 5.93269 1.46192 5.78775 1.60873 5.52487C1.75439 5.59751 1.89455 5.66732 2.07442 5.75694Z" fill="#CCCCCC"/>
<path d="M14.5739 12.9293C14.5103 13.1083 14.4616 13.2456 14.3872 13.4552C14.2666 13.2839 14.1904 13.1756 14.0921 13.0359C14.135 12.9038 14.2922 12.8843 14.5739 12.9293Z" fill="#CCCCCC"/>
<path d="M0.705228 3.31604C0.639959 3.38151 0.583821 3.43782 0.527852 3.49395C0.38901 3.3402 0.250169 3.18645 0.0977086 3.0177C0.112656 2.98722 0.136076 2.93956 0.168295 2.87409C0.413926 2.95689 0.525033 3.17794 0.705228 3.31604Z" fill="#CCCCCC"/>
<path d="M5.23313 14.9458C5.01723 14.9458 4.92506 14.9458 4.83521 14.9458C4.72144 14.7529 4.80133 14.616 4.99215 14.4589C5.0639 14.604 5.13 14.7374 5.23313 14.9458Z" fill="#CCCCCC"/>
<path d="M11.6592 9.969C11.6759 9.98833 11.7259 10.0456 11.8008 10.1316C11.7178 10.2241 11.6444 10.3058 11.5484 10.4128C11.4602 10.3472 11.3861 10.292 11.3436 10.2604C11.4471 10.1647 11.5527 10.0671 11.6592 9.969Z" fill="#CCCCCC"/>
<path d="M15.2282 13.257C15.1166 13.257 15.0242 13.257 14.9364 13.257C14.8767 13.1972 14.8218 13.1421 14.7666 13.0868C14.8218 13.0315 14.8767 12.9763 14.9364 12.9165C15.0242 12.9165 15.1164 12.9165 15.2282 12.9165C15.2282 13.0195 15.2282 13.1118 15.2282 13.257Z" fill="#CCCCCC"/>
<path d="M12.5955 14.6584C12.7242 14.542 12.8456 14.4322 12.9522 14.3359C13.0105 14.36 13.0404 14.3644 13.0426 14.3747C13.0623 14.4678 13.0773 14.5618 13.092 14.6459C13.0236 14.7145 12.967 14.7713 12.9207 14.8178C12.8179 14.7673 12.7195 14.719 12.5955 14.6584Z" fill="#CCCCCC"/>
<path d="M2.23525 10.0973C2.06286 10.1219 2.02549 10.1273 1.97218 10.1349C1.87685 9.95137 1.77886 9.76262 1.66427 9.54189C2.07316 9.5169 1.99825 9.89788 2.23525 10.0973Z" fill="#CCCCCC"/>
<path d="M12.0976 14.9294C11.7719 14.9294 11.5475 14.9294 11.3031 14.9294C11.2944 14.8875 11.2833 14.834 11.2737 14.7873C11.453 14.5586 11.6655 14.9113 11.8503 14.7444C11.8608 14.7347 11.9637 14.828 12.0976 14.9294Z" fill="#CCCCCC"/>
<path d="M7.10622 9.7442C7.21002 9.78934 7.29007 9.82432 7.38806 9.8668C7.40765 9.84981 7.44884 9.81434 7.50215 9.76819C7.5465 9.827 7.5935 9.88897 7.66159 9.97893C7.62073 9.99908 7.55314 10.0326 7.45366 10.0819C7.37112 10.0559 7.22048 10.0082 7.06304 9.95859C7.07583 9.89462 7.08679 9.84032 7.10622 9.7442Z" fill="#CCCCCC"/>
<path d="M15.0017 13.5745C15.0617 13.5143 15.1162 13.4597 15.1899 13.3857C15.2786 13.3927 15.3849 13.401 15.5568 13.4147C15.4455 13.5685 15.3737 13.6674 15.2796 13.7975C15.1721 13.7112 15.0878 13.6434 15.0017 13.5745Z" fill="#CCCCCC"/>
<path d="M4.06755 6.99743C4.11555 6.87049 4.16371 6.74356 4.2225 6.58863C4.3645 6.6616 4.45651 6.7089 4.54852 6.75622C4.48109 7.02309 4.27266 7.00709 4.06755 6.99743Z" fill="#CCCCCC"/>
<path d="M2.16956 0.616234C1.99352 0.601907 1.8864 0.593072 1.68312 0.57658C1.83757 0.410993 1.93008 0.311874 2.08619 0.144455C2.12057 0.339195 2.13867 0.441651 2.16956 0.616234Z" fill="#CCCCCC"/>
<path d="M9.12622 7.93646C9.11194 8.11255 9.1033 8.21982 9.08669 8.42439C8.92161 8.26946 8.82263 8.17667 8.65589 8.02008C8.85003 7.9856 8.95217 7.96745 9.12622 7.93646Z" fill="#CCCCCC"/>
<path d="M9.21858 14.1657C9.28916 14.1407 9.38815 14.1057 9.47135 14.0764C9.46786 14.0743 9.5509 14.1251 9.66417 14.1945C9.56684 14.309 9.50623 14.3803 9.40359 14.5009C9.3546 14.4124 9.31059 14.3326 9.21858 14.1657Z" fill="#CCCCCC"/>
<path d="M4.16948 10.7908C4.35349 10.8968 4.45646 10.9563 4.57936 11.0271C4.4656 11.1145 4.3794 11.1808 4.23591 11.2911C4.21183 11.1095 4.19671 10.9956 4.16948 10.7908Z" fill="#CCCCCC"/>
<path d="M12.6259 13.9944C12.5867 13.9348 12.556 13.8881 12.4955 13.7962C12.5739 13.7367 12.6638 13.6684 12.8096 13.5574C12.8269 13.7317 12.8373 13.8383 12.8508 13.9739C12.7526 13.9829 12.6779 13.9897 12.6259 13.9944Z" fill="#CCCCCC"/>
<path d="M3.94744 7.35913C4.13395 7.33981 4.261 7.40994 4.308 7.60035C4.26797 7.6405 4.22778 7.68081 4.18776 7.72096C4.11684 7.72096 4.04576 7.72096 3.94728 7.72096C3.94744 7.57869 3.94744 7.46891 3.94744 7.35913Z" fill="#CCCCCC"/>
<path d="M7.29566 10.2632C7.44812 10.2632 7.54112 10.2632 7.64907 10.2632C7.66086 10.3242 7.67132 10.3784 7.68926 10.4715C7.57035 10.481 7.46373 10.4895 7.34133 10.4993C7.32654 10.4232 7.31608 10.369 7.29566 10.2632Z" fill="#CCCCCC"/>
<path d="M6.69221 8.9167C6.6188 8.9167 6.56532 8.9167 6.49192 8.9167C6.49192 8.79942 6.49192 8.69232 6.49192 8.57504C6.56532 8.57504 6.6188 8.57504 6.69221 8.57504C6.69221 8.69232 6.69221 8.79942 6.69221 8.9167Z" fill="#CCCCCC"/>
<path d="M5.76828 14.9366C5.90878 14.7594 5.97637 14.6739 6.04895 14.5821C6.10625 14.7007 6.1584 14.8087 6.22018 14.9366C6.10392 14.9366 5.9983 14.9366 5.76828 14.9366Z" fill="#CCCCCC"/>
<path d="M15.43 12.3192C15.3262 12.2634 15.2222 12.2076 15.095 12.1393C15.1808 12.0706 15.2393 12.0238 15.3233 11.9565C15.381 12.0337 15.4487 12.1246 15.5167 12.2156C15.4879 12.2501 15.4589 12.2845 15.43 12.3192Z" fill="#CCCCCC"/>
<path d="M10.0158 14.2323C9.90121 14.2323 9.84408 14.2323 9.74693 14.2323C9.73763 14.1201 9.728 14.0045 9.71853 13.889C9.74527 13.8807 9.77217 13.8725 9.79891 13.8642C9.86617 13.9785 9.9336 14.0928 10.0158 14.2323Z" fill="#CCCCCC"/>
<path d="M14.1687 14.0484C14.224 13.9929 14.2793 13.9375 14.3421 13.8745C14.3951 13.9241 14.4484 13.9741 14.5017 14.0239C14.3285 14.2308 14.3285 14.2308 14.1687 14.0484Z" fill="#CCCCCC"/>
<path d="M4.03283 14.564C4.07369 14.4642 4.09893 14.4024 4.14294 14.2946C4.26335 14.3922 4.34772 14.4603 4.47577 14.564C4.30703 14.564 4.18729 14.564 4.03283 14.564Z" fill="#CCCCCC"/>
<path d="M11.4772 11.396C11.3466 11.2997 11.2543 11.2316 11.0993 11.1173C11.2895 11.1173 11.3956 11.1173 11.5305 11.1173C11.5129 11.2094 11.5001 11.2764 11.4772 11.396Z" fill="#CCCCCC"/>
<path d="M9.04427 9.82845C9.01869 9.71051 9.00424 9.64422 8.98398 9.55126C9.1195 9.55126 9.22529 9.55126 9.41462 9.55126C9.26415 9.66387 9.17314 9.732 9.04427 9.82845Z" fill="#CCCCCC"/>
<path d="M0.278013 2.3729C0.157938 2.39505 0.0911773 2.40738 0 2.4242C0 2.2886 0 2.18249 0 1.99125C0.114262 2.14817 0.182019 2.24113 0.278013 2.3729Z" fill="#CCCCCC"/>
<path d="M5.1072 5.8547C5.12929 5.97514 5.14158 6.04212 5.15835 6.13358C5.023 6.13358 4.91721 6.13358 4.72671 6.13358C4.88316 6.01897 4.97583 5.95099 5.1072 5.8547Z" fill="#CCCCCC"/>
<path d="M1.57085 4.44531C1.44812 4.51028 1.35528 4.55925 1.23238 4.62438C1.20664 4.52876 1.1892 4.46446 1.17077 4.396C1.32655 4.33203 1.45659 4.28955 1.57085 4.44531Z" fill="#CCCCCC"/>
<path d="M1.53383 4.47996C1.65373 4.47996 1.76451 4.47996 1.96663 4.47996C1.81666 4.59841 1.73079 4.66621 1.59643 4.77232C1.56654 4.63256 1.54894 4.55043 1.53383 4.47996Z" fill="#CCCCCC"/>
<path d="M2.92549 5.30925C2.98212 5.36605 3.03859 5.42268 3.1022 5.48649C3.05105 5.54113 2.99956 5.5961 2.91071 5.69122C2.85807 5.61842 2.80757 5.54846 2.75692 5.4785C2.81239 5.42269 2.86902 5.36605 2.92549 5.30925Z" fill="#CCCCCC"/>
<path d="M2.74526 11.8207C2.79509 11.7449 2.84474 11.6691 2.92845 11.5416C2.97213 11.6524 3.006 11.7385 3.04487 11.8367C3.05633 11.8163 3.02112 11.8788 2.98575 11.9413C2.94572 11.9413 2.9057 11.9413 2.8655 11.9413C2.82531 11.9011 2.78529 11.861 2.74526 11.8207Z" fill="#CCCCCC"/>
<path d="M0.590715 6.31743C0.590715 6.14018 0.590715 6.04773 0.590715 5.95377C0.72773 5.9786 0.831035 6.02706 0.819575 6.2233C0.772741 6.24262 0.71079 6.26812 0.590715 6.31743Z" fill="#CCCCCC"/>
<path d="M9.95338 12.5393C10.0304 12.5453 10.1024 12.551 10.1817 12.5571C10.1879 12.6296 10.1922 12.6819 10.199 12.7622C10.1263 12.7702 10.0607 12.7773 9.97264 12.7872C9.965 12.6887 9.95936 12.6168 9.95338 12.5393Z" fill="#CCCCCC"/>
<path d="M3.69792 12.8275C3.69792 12.92 3.69792 13.0124 3.69792 13.1202C3.63929 13.1327 3.58631 13.1438 3.47039 13.1685C3.53649 13.0161 3.58714 12.899 3.6378 12.7818C3.65789 12.7972 3.67782 12.8123 3.69792 12.8275Z" fill="#CCCCCC"/>
<path d="M10.3291 9.40745C10.3291 9.31399 10.3291 9.26068 10.3291 9.19255C10.39 9.18088 10.4438 9.17056 10.506 9.15857C10.5991 9.31866 10.5973 9.41811 10.3291 9.40745Z" fill="#CCCCCC"/>
<path d="M4.5437 6.76111C4.54967 6.68382 4.55532 6.61168 4.56147 6.53206C4.63371 6.52589 4.68586 6.52156 4.76591 6.51473C4.77388 6.5877 4.78118 6.6535 4.79082 6.74179C4.69266 6.74946 4.62076 6.75512 4.5437 6.76111Z" fill="#CCCCCC"/>
<path d="M10.6794 14.1433C10.6794 14.2113 10.6794 14.2504 10.6794 14.3182C10.6186 14.3309 10.552 14.3449 10.4685 14.3624C10.4527 14.2841 10.4419 14.2305 10.4243 14.1435C10.5191 14.1433 10.5992 14.1433 10.6794 14.1433Z" fill="#CCCCCC"/>
<path d="M10.4389 12.2714C10.4389 12.2036 10.4389 12.1643 10.4389 12.0965C10.4997 12.0839 10.5663 12.0699 10.6499 12.0524C10.6656 12.1307 10.6764 12.1843 10.694 12.2713C10.5992 12.2715 10.5192 12.2714 10.4389 12.2714Z" fill="#CCCCCC"/>
<path d="M2.14413 1.53963C2.14413 1.47182 2.14413 1.4325 2.14413 1.3647C2.20492 1.35204 2.27151 1.33805 2.35505 1.32055C2.37083 1.39885 2.38179 1.45267 2.39923 1.53946C2.30456 1.53963 2.22435 1.53963 2.14413 1.53963Z" fill="#CCCCCC"/>
<path d="M14.2808 14.7097C14.3579 14.7157 14.4298 14.7214 14.5092 14.7276C14.5153 14.8 14.5196 14.8523 14.5265 14.9326C14.4537 14.9406 14.3881 14.948 14.3001 14.9576C14.2925 14.8592 14.2868 14.7872 14.2808 14.7097Z" fill="#CCCCCC"/>
<path d="M0.31084 3.98286C0.31084 4.10347 0.31084 4.22408 0.31084 4.34469C0.290744 4.34469 0.270815 4.34469 0.250719 4.34469C0.250719 4.22408 0.250719 4.10347 0.250719 3.98286C0.270815 3.98286 0.290744 3.98286 0.31084 3.98286Z" fill="#CCCCCC"/>
<path d="M1.00633 3.69656C1.05997 3.80401 1.1 3.88447 1.14002 3.96476C1.02476 3.98442 0.868318 4.04489 1.00633 3.69656Z" fill="#CCCCCC"/>
<path d="M7.62684 9.27475C7.65839 9.36321 7.68995 9.45149 7.71652 9.52579C7.60143 9.57593 7.55094 9.50164 7.62684 9.27475Z" fill="#CCCCCC"/>
<path d="M0.629514 0.257357C0.590153 0.176563 0.550796 0.095773 0.512598 0.0168109C0.659079 -0.03683 0.7089 0.0364631 0.629514 0.257357Z" fill="#CCCCCC"/>
<path d="M12.2607 14.856C12.3671 14.856 12.4734 14.856 12.5799 14.856C12.5821 14.8764 12.5842 14.8968 12.5864 14.9172C12.4814 14.9323 12.3763 14.9475 12.2713 14.9628C12.2678 14.9272 12.2642 14.8917 12.2607 14.856Z" fill="#CCCCCC"/>
<path d="M14.665 14.856C14.7714 14.856 14.8777 14.856 14.9842 14.856C14.9863 14.8764 14.9885 14.8968 14.9906 14.9172C14.8857 14.9323 14.7806 14.9475 14.6756 14.9628C14.6719 14.9272 14.6685 14.8917 14.665 14.856Z" fill="#CCCCCC"/>
<path d="M7.04295 12.2146C7.14443 12.1952 7.19741 12.1851 7.27646 12.1699C7.29174 12.2431 7.30569 12.3094 7.34837 12.5123C7.19724 12.3648 7.13496 12.3042 7.04295 12.2146Z" fill="#CCCCCC"/>
<path d="M14.3614 11.9144C14.3013 11.7461 14.2697 11.6577 14.2553 11.6174C14.3812 11.5871 14.3812 11.587 14.3614 11.9144Z" fill="#CCCCCC"/>
<path d="M2.98551 11.4413C3.07943 11.4413 3.15557 11.4222 3.15557 11.3987C3.15557 11.3751 3.07943 11.356 2.98551 11.356C2.89158 11.356 2.81544 11.3751 2.81544 11.3987C2.81544 11.4222 2.89158 11.4413 2.98551 11.4413Z" fill="#CCCCCC"/>
<path d="M1.40391 6.49448C1.33748 6.49448 1.27122 6.49448 1.20479 6.49448C1.20163 6.47532 1.19847 6.45633 1.19532 6.43717C1.26059 6.42152 1.32569 6.40602 1.39096 6.39036C1.39511 6.42501 1.3996 6.45966 1.40391 6.49448Z" fill="#CCCCCC"/>
<path d="M6.85937 13.3915C6.85272 13.3144 6.84624 13.2374 6.8396 13.1603C6.86551 13.157 6.89142 13.1536 6.91733 13.1505C6.93261 13.2291 6.94805 13.3076 6.96333 13.3862C6.92862 13.3879 6.89391 13.3897 6.85937 13.3915Z" fill="#CCCCCC"/>
<path d="M16.4798 13.8707C16.4798 13.7902 16.4798 13.7099 16.4798 13.6295C16.4999 13.6295 16.5198 13.6295 16.5399 13.6295C16.5399 13.7099 16.5399 13.7902 16.5399 13.8707C16.5198 13.8707 16.4999 13.8707 16.4798 13.8707Z" fill="#CCCCCC"/>
<path d="M16.4097 14.1117C16.4097 14.1518 16.4097 14.192 16.4097 14.2323C16.3964 14.2323 16.3829 14.2323 16.3697 14.2323C16.3697 14.1922 16.3697 14.1518 16.3697 14.1117C16.3829 14.1117 16.3962 14.1117 16.4097 14.1117Z" fill="#CCCCCC"/>
<path d="M11.2403 14.3529C11.2403 14.393 11.2403 14.4333 11.2403 14.4735C11.227 14.4735 11.2136 14.4735 11.2003 14.4735C11.2003 14.4333 11.2003 14.393 11.2003 14.3529C11.2136 14.3529 11.2268 14.3529 11.2403 14.3529Z" fill="#CCCCCC"/>
<path d="M4.30782 11.9413C4.30782 11.9814 4.30782 12.0217 4.30782 12.0619C4.2678 12.0619 4.22761 12.0619 4.18758 12.0619C4.18758 12.0217 4.18758 11.9814 4.18758 11.9413C4.22777 11.9413 4.2678 11.9413 4.30782 11.9413Z" fill="#CCCCCC"/>
<path d="M9.19685 14.8352C9.19685 14.8754 9.19685 14.9157 9.19685 14.9558C9.18357 14.9558 9.17012 14.9558 9.15683 14.9558C9.15683 14.9157 9.15683 14.8754 9.15683 14.8352C9.17012 14.8352 9.1834 14.8352 9.19685 14.8352Z" fill="#CCCCCC"/>
<path d="M12.6629 12.2713C12.7099 12.2713 12.7479 12.2585 12.7479 12.2428C12.7479 12.2271 12.7099 12.2143 12.6629 12.2143C12.6159 12.2143 12.5779 12.2271 12.5779 12.2428C12.5779 12.2585 12.6159 12.2713 12.6629 12.2713Z" fill="#CCCCCC"/>
<path d="M7.27319 8.20318C7.27319 8.24333 7.27319 8.28364 7.27319 8.32379C7.2599 8.32379 7.24645 8.32379 7.23316 8.32379C7.23316 8.28364 7.23316 8.24333 7.23316 8.20318C7.24645 8.20318 7.2599 8.20318 7.27319 8.20318Z" fill="#CCCCCC"/>
<path d="M1.5322 6.28668C1.49948 6.25869 1.46677 6.23071 1.43389 6.20255C1.44651 6.18989 1.45913 6.17723 1.47175 6.16457C1.49965 6.19738 1.52755 6.23021 1.55562 6.26303C1.54782 6.27086 1.54001 6.27868 1.5322 6.28668Z" fill="#CCCCCC"/>
<path d="M1.31363 5.89946C1.34635 5.92745 1.37907 5.95544 1.41179 5.98359C1.39916 5.99625 1.38654 6.00892 1.37392 6.02158C1.34602 5.98876 1.31812 5.95593 1.29005 5.92311C1.29802 5.91528 1.30583 5.90729 1.31363 5.89946Z" fill="#CCCCCC"/>
<path d="M10.2386 11.5795C10.2386 11.5394 10.2386 11.4991 10.2386 11.4589C10.252 11.4589 10.2653 11.4589 10.2786 11.4589C10.2786 11.4991 10.2786 11.5394 10.2786 11.5795C10.2653 11.5795 10.2519 11.5795 10.2386 11.5795Z" fill="#CCCCCC"/>
</svg>
