<svg width="10" height="16" viewBox="0 0 10 16" fill="none" xmlns="http://www.w3.org/2000/svg">
<path d="M9.9448 9.04391C10.0848 10.8076 9.96164 12.6872 8.98273 14.1588C8.68648 14.6087 8.29019 15.0018 7.83781 15.3063C6.83703 15.9874 5.56709 16.2405 4.49823 15.7298C4.96068 15.1624 5.24877 14.4526 5.28785 13.7219L5.2637 13.6696C5.85518 13.3899 6.40376 13.0344 6.87263 12.5773C7.92708 11.5411 8.44231 9.81992 7.70254 8.54103C7.4648 8.12855 7.08641 7.77304 6.62188 7.67828C6.20458 7.59362 5.77912 7.72444 5.37468 7.85508C4.89451 8.0101 4.41175 8.16269 3.93159 8.31772C3.54104 6.87458 3.10863 5.42412 2.29088 4.18024C1.72077 3.31453 0.924201 2.55629 0 2.11472V2.11211L0.0230956 2.06717C1.48615 0.808314 3.35383 -0.336795 5.23366 0.0915321C6.47548 0.374587 7.40455 1.26259 8.08216 2.36886C8.52759 3.09157 8.86379 3.90467 9.1109 4.69792C9.54817 6.10885 9.82897 7.56889 9.9448 9.04391Z" fill="#FEA77C"/>
</svg>
