<svg width="4" height="3" viewBox="0 0 4 3" fill="none" xmlns="http://www.w3.org/2000/svg">
<path d="M1.52658 1.6548C1.47215 1.82504 1.41772 1.99529 1.35632 2.18741C1.03502 1.93425 0.773651 1.72816 0.48296 1.49909C0.544911 1.3976 0.611811 1.28821 0.708219 1.13047C0.467198 0.817568 0.128117 0.538854 0 0.123729C0.148645 0.0856732 0.297106 0.0476162 0.483508 0C0.489557 0.0637947 0.480213 0.174473 0.512471 0.27136C0.614195 0.577096 0.785376 0.726745 1.05169 0.614231C1.24542 0.53242 1.35815 0.608899 1.51357 0.618826C1.68366 0.629673 1.86127 0.520656 2.03558 0.464031C2.06893 0.53518 2.10229 0.606326 2.14646 0.700639C2.10669 0.856541 2.05867 1.04498 2.00331 1.26155C2.26724 1.34447 2.49067 1.4147 2.71409 1.48475C2.76615 1.57391 2.8182 1.66308 2.86861 1.7493C2.8215 1.80501 2.77257 1.8631 2.68862 1.96256C3.03247 1.96256 3.33525 1.96256 3.59368 1.96256C3.84754 2.15854 4.00021 2.34202 3.83287 2.69225C3.60285 2.6382 3.35816 2.58065 3.08818 2.51704C3.06454 2.67993 3.04181 2.83583 3.01799 3.00001C2.91974 3.00001 2.84331 3.00001 2.73737 3.00001C2.73737 2.73913 2.73737 2.49167 2.73737 2.35838C2.46941 2.09015 2.2733 1.8938 2.03466 1.65499C1.92157 1.6548 1.72398 1.6548 1.52658 1.6548C1.47013 1.59799 1.41351 1.54137 1.37062 1.49265C1.38418 1.32204 1.38418 1.1632 1.38418 1.01318C1.50808 0.97255 1.60486 0.940744 1.87465 0.85213C1.57076 0.821611 1.44172 0.808743 1.27511 0.792013C1.14242 0.931184 0.997812 1.08286 0.848984 1.23894C1.03227 1.32866 1.19392 1.40772 1.37043 1.49265C1.4135 1.54137 1.46995 1.59818 1.52658 1.6548Z" fill="#F57D77"/>
</svg>
