<svg width="16" height="17" viewBox="0 0 16 17" fill="none" xmlns="http://www.w3.org/2000/svg">
<path d="M10.6667 7.62889V3.03333C10.6667 2.56222 10.48 2.10889 10.1422 1.78L8.62222 0.26C8.27556 -0.0866667 7.71556 -0.0866667 7.36889 0.26L5.85778 1.77111C5.52 2.10889 5.33333 2.56222 5.33333 3.03333V4.07333H1.77778C0.8 4.07333 0 4.87333 0 5.85111V14.74C0 15.7178 0.8 16.5178 1.77778 16.5178H14.2222C15.2 16.5178 16 15.7178 16 14.74V9.40667C16 8.42889 15.2 7.62889 14.2222 7.62889H10.6667ZM3.55556 14.74H1.77778V12.9622H3.55556V14.74ZM3.55556 11.1844H1.77778V9.40667H3.55556V11.1844ZM3.55556 7.62889H1.77778V5.85111H3.55556V7.62889ZM8.88889 14.74H7.11111V12.9622H8.88889V14.74ZM8.88889 11.1844H7.11111V9.40667H8.88889V11.1844ZM8.88889 7.62889H7.11111V5.85111H8.88889V7.62889ZM8.88889 4.07333H7.11111V2.29556H8.88889V4.07333ZM14.2222 14.74H12.4444V12.9622H14.2222V14.74ZM14.2222 11.1844H12.4444V9.40667H14.2222V11.1844Z" fill="white"/>
</svg>
