<svg width="5" height="9" viewBox="0 0 5 9" fill="none" xmlns="http://www.w3.org/2000/svg">
<path d="M1.62297 9.00001C1.49596 9.00001 1.38547 8.9054 1.36879 8.77561C1.3504 8.63455 1.44965 8.50545 1.59027 8.48701C2.42348 8.3784 3.39628 7.85106 3.69133 6.91814C4.0274 5.85595 3.34964 4.76883 3.04268 4.35061C2.74014 3.93923 2.37598 3.55738 2.0239 3.18783C1.70026 2.84851 1.36588 2.49759 1.06982 2.11626C0.689483 1.62563 0.347625 1.05355 0.0246615 0.367392C-0.0359474 0.238802 0.0190422 0.0852806 0.14707 0.0244863C0.275608 -0.0357956 0.428322 0.0190207 0.488931 0.147269C0.79572 0.798929 1.11835 1.33959 1.47519 1.79999C1.75508 2.16049 2.08042 2.50168 2.39504 2.83178C2.75836 3.21294 3.1341 3.60691 3.45604 4.04494C4.2036 5.06307 4.46766 6.16692 4.18096 7.07371C3.86634 8.06862 2.85183 8.8417 1.65667 8.99779C1.64527 8.99932 1.63403 9.00001 1.62297 9.00001Z" fill="#BF453F"/>
</svg>
