<svg width="47" height="21" viewBox="0 0 47 21" fill="none" xmlns="http://www.w3.org/2000/svg">
<path d="M17.3309 20.2188C17.4928 19.9127 17.6258 19.6614 17.7563 19.4148C17.9129 19.4148 18.0325 19.4148 18.165 19.4148C18.2862 19.7903 18.1449 20.0952 17.9236 20.3597C17.7 20.627 17.422 20.8209 17.0672 20.7736C16.9834 20.6459 16.9143 20.5409 16.7978 20.3636C16.7104 20.5571 16.6646 20.6582 16.6148 20.768C16.3677 20.768 16.1163 20.768 15.8578 20.768C15.7218 20.642 15.5775 20.5085 15.4489 20.3894C15.4681 20.3037 15.4652 20.247 15.4912 20.2123C15.6216 20.0384 15.7904 19.9593 16.0337 20.0386C16.0436 20.0962 16.0566 20.1656 16.0671 20.2355C16.0776 20.3057 16.0857 20.3764 16.0963 20.4578C16.2359 20.4578 16.3555 20.4578 16.4936 20.4578C16.5073 20.3788 16.5193 20.3093 16.5338 20.2254C16.4373 20.1917 16.3489 20.1609 16.2687 20.1329C16.2017 19.9257 16.1364 19.7237 16.0529 19.4657C16.1346 19.4188 16.2436 19.3562 16.4054 19.2633C16.4628 19.3079 16.5882 19.4052 16.7418 19.5243C16.5974 19.6963 16.4912 19.8226 16.3313 20.0128C16.5544 20.0128 16.7295 19.9857 16.8912 20.0205C17.047 20.0541 17.1888 20.1519 17.3309 20.2188ZM17.1346 20.5224C17.1346 20.5394 17.1346 20.5564 17.1346 20.5733C17.1855 20.5733 17.2362 20.5733 17.2869 20.5733C17.2869 20.5562 17.2869 20.5392 17.2869 20.5224C17.2362 20.5224 17.1853 20.5224 17.1346 20.5224Z" fill="#171632"/>
<path d="M25.6752 18.9554C25.7775 18.8958 25.8786 18.8368 25.9763 18.78C26.2343 19.0205 26.2343 19.0205 26.275 19.2906C25.9644 19.4876 25.663 19.6788 25.3768 19.8605C25.4587 20.2394 26.0207 20.1141 25.9694 20.5718C25.6334 20.6973 25.3124 20.6346 25.0017 20.435C24.9376 20.5693 24.8882 20.673 24.8345 20.7857C24.7627 20.7725 24.6935 20.7599 24.6132 20.7451C24.6682 20.6478 24.7115 20.5713 24.7716 20.4647C24.6049 20.3329 24.4322 20.1963 24.1399 19.9652C24.3759 19.8932 24.5262 19.8474 24.7439 19.781C24.6812 19.7353 24.7574 19.7909 24.8072 19.8271C24.9639 19.6312 25.1272 19.4274 25.2793 19.2372C25.4193 19.2372 25.5175 19.2372 25.6495 19.2372C25.6589 19.1336 25.6676 19.0387 25.6752 18.9554Z" fill="#171632"/>
<path d="M21.5406 19.2462C21.5941 19.062 21.6598 18.8853 21.7287 18.6993C21.8912 18.6449 22.0673 18.5861 22.2557 18.523C22.3508 18.5707 22.476 18.6335 22.6573 18.7244C22.5496 18.8816 22.4452 19.0339 22.2883 19.2631C22.3256 19.5354 22.3751 19.8946 22.4307 20.2998C22.1078 20.3455 21.9411 20.1098 21.7665 19.8371C21.67 19.9874 21.5798 20.1278 21.4984 20.2544C21.4161 20.1559 21.3114 20.0309 21.1742 19.8672C21.1976 19.7547 21.2445 19.5303 21.2998 19.2647C21.3641 19.2589 21.4589 19.2503 21.5406 19.2462C21.6053 19.2994 21.6562 19.3503 21.7138 19.3932C21.7109 19.3952 21.7008 19.4051 21.691 19.415C21.7264 19.4567 21.7618 19.4983 21.7972 19.5399C21.8131 19.5239 21.8291 19.5079 21.8453 19.4917C21.8038 19.4562 21.7623 19.4206 21.7138 19.3931C21.6562 19.3504 21.6053 19.2994 21.5406 19.2462Z" fill="#171632"/>
<path d="M23.4395 20.3143C23.3684 20.3143 23.2686 20.3143 23.1288 20.3143C23.0518 20.1157 22.9683 19.9 22.8761 19.662C23.15 19.4153 23.3987 19.1913 23.6903 18.9287C23.6903 18.9107 23.6903 18.8099 23.6903 18.6731C24.0296 18.6731 24.3688 18.6731 24.7134 18.6731C24.9602 19.0326 24.9698 19.1112 24.7858 19.2942C24.6002 19.4789 24.4472 19.4404 24.0225 19.0843C23.8275 19.4954 23.637 19.8975 23.4395 20.3143Z" fill="#171632"/>
<path d="M32.223 14.968C32.1553 14.7942 32.0876 14.6205 31.9965 14.387C31.9326 14.3756 31.7944 14.3512 31.5878 14.3145C31.6648 14.1586 31.732 14.0226 31.8068 13.8715C31.9442 14.0028 32.0504 14.1042 32.1517 14.201C32.3086 14.201 32.4588 14.201 32.6075 14.201C32.8208 13.7967 32.8208 13.7967 33.23 13.7613C33.2478 13.7791 33.2799 13.7962 33.2809 13.8148C33.286 13.9144 33.2834 14.0145 33.2834 14.1351C33.5734 14.1457 33.596 14.4275 33.7323 14.5828C33.5673 14.9003 33.2847 14.7979 33.0212 14.8179C32.9927 14.639 32.9706 14.5002 32.9369 14.2881C32.8173 14.6181 32.7244 14.8748 32.6353 15.1207C32.5262 15.1207 32.4507 15.1207 32.3753 15.1207C32.3246 15.0699 32.2737 15.019 32.223 14.968Z" fill="#171632"/>
<path d="M38.3449 19.4013C38.4457 19.4013 38.5723 19.4013 38.6949 19.4013C38.784 19.6135 38.8732 19.826 38.9888 20.1009C39.1874 19.9477 39.3198 19.8458 39.4799 19.7224C39.6105 19.7224 39.7805 19.7224 39.9638 19.7224C40.0847 20.1648 39.89 20.4844 39.5949 20.8041C39.195 20.6247 38.7899 20.4431 38.3449 20.2436C38.3449 19.9981 38.3449 19.6998 38.3449 19.4013ZM39.2337 20.2167C39.2337 20.2337 39.2337 20.2507 39.2337 20.2677C39.2844 20.2677 39.3353 20.2677 39.3861 20.2677C39.3861 20.2507 39.3861 20.2337 39.3861 20.2167C39.3353 20.2167 39.2846 20.2167 39.2337 20.2167Z" fill="#171632"/>
<path d="M40.0332 10.322C40.2392 10.2795 40.3939 10.2478 40.6027 10.2047C40.6027 10.3752 40.6524 10.5354 40.5941 10.6066C40.3446 10.9117 40.0503 11.1667 39.6179 11.1489C39.5436 11.0744 39.4725 11.0031 39.3942 10.9246C39.4387 10.8731 39.4835 10.8208 39.5285 10.7686C39.29 10.5531 38.8264 10.5983 38.7561 10.0702C38.9708 10.1013 39.1433 10.1264 39.3549 10.1569C39.3707 10.075 39.4005 9.91925 39.4375 9.72714C39.7608 9.85896 39.9586 10.0468 40.0332 10.322ZM39.9958 10.6365C39.9958 10.6195 39.9958 10.6025 39.9958 10.5854C39.9451 10.5854 39.8942 10.5854 39.8435 10.5854C39.8435 10.6025 39.8435 10.6195 39.8435 10.6365C39.8942 10.6365 39.9451 10.6365 39.9958 10.6365Z" fill="#171632"/>
<path d="M24.4962 17.1129C24.6655 17.1129 24.835 17.1129 24.9682 17.1129C25.0756 16.9365 25.1617 16.7948 25.2906 16.583C25.4053 16.7953 25.4891 16.9507 25.6003 17.1566C25.4375 17.2259 25.3274 17.2532 25.2424 17.3151C25.1671 17.37 25.122 17.4653 25.0593 17.539C24.9942 17.6156 24.9239 17.6876 24.8271 17.7934C24.8516 17.8996 24.8911 18.0702 24.9129 18.1632C24.8022 18.3121 24.7291 18.4102 24.6619 18.5005C24.4827 18.4212 24.334 18.3555 24.1947 18.2939C24.1286 18.1619 24.0657 18.0364 23.9837 17.8725C24.1388 17.6425 24.3116 17.3867 24.4962 17.1129Z" fill="#171632"/>
<path d="M40.6053 12.0635C40.6868 11.9521 40.7684 11.8408 40.8827 11.6847C41.0251 11.8129 41.1285 11.9061 41.2522 12.0172C41.1961 12.1155 41.1498 12.1968 41.0816 12.3162C41.1438 12.3387 41.217 12.3653 41.3561 12.4157C41.3395 12.5551 41.3189 12.7282 41.2909 12.9636C41.3571 13.0584 41.4777 13.2312 41.5997 13.406C41.6723 13.364 41.7682 13.3087 41.9302 13.2152C41.9534 13.4136 41.9691 13.5476 41.9826 13.6627C41.7985 13.8475 41.2408 13.6496 40.8864 13.2872C40.9354 13.215 40.9879 13.1372 41.0836 12.996C40.91 13.0282 40.7796 13.0525 40.6055 13.0847C40.6055 12.8625 40.6055 12.6157 40.6055 12.3688C40.6972 12.3688 40.7889 12.3688 41.0238 12.3688C40.811 12.2138 40.7083 12.1386 40.6053 12.0635Z" fill="#171632"/>
<path d="M12.9503 20.0129C12.7913 20.0129 12.7153 20.0129 12.712 20.0129C12.4751 20.2891 12.2692 20.5292 12.0589 20.7744C11.7855 20.3469 11.3629 21.113 11.1164 20.6204C10.8942 20.9082 10.5944 20.7062 10.2838 20.8183C10.3666 20.6179 10.4234 20.4808 10.5023 20.29C10.7119 20.3368 10.9996 20.496 11.1362 20.411C11.3916 20.2521 11.6284 20.3778 11.8778 20.3033C11.9835 20.0426 12.106 19.7684 12.5022 19.8725C12.5376 19.7704 12.5683 19.682 12.6262 19.5151C12.7448 19.6968 12.8352 19.8358 12.9503 20.0129Z" fill="#171632"/>
<path d="M28.3004 16.9355C28.2392 16.8362 28.1351 16.6676 28.0305 16.4981C27.9994 16.5293 28.035 16.4934 28.0337 16.4949C27.8874 16.3484 27.738 16.1986 27.6822 16.1427C27.7593 15.7562 27.8047 15.5289 27.8528 15.288C27.9698 15.288 28.0888 15.288 28.2716 15.288C28.2397 15.4808 28.211 15.6543 28.1738 15.8789C28.1894 15.9116 28.2403 16.0174 28.3105 16.1634C28.5809 16.2042 28.9692 16.2146 28.861 16.69C28.8143 16.895 28.6236 16.9987 28.3004 16.9355Z" fill="#171632"/>
<path d="M31.751 16.3714C31.751 16.6113 31.751 16.8323 31.751 17.0514C31.501 17.192 31.3225 17.0951 31.1679 16.8883C31.1591 16.7245 31.1499 16.5536 31.1377 16.3258C31.0516 16.3901 31.0042 16.4255 30.9185 16.4892C30.6891 16.2337 30.4775 15.9795 30.5841 15.5417C31.0872 15.7166 31.3265 16.173 31.751 16.3714Z" fill="#171632"/>
<path d="M37.8743 19.7291C37.5107 19.4805 37.1792 19.2541 36.8124 19.0033C36.8124 18.9351 36.8124 18.816 36.8124 18.7017C36.9381 18.6358 37.0624 18.5705 37.2388 18.478C37.3084 18.6574 37.3842 18.8527 37.455 19.0354C37.6579 18.9984 37.8789 18.9579 38.0882 18.9197C38.178 19.1069 38.3318 19.2795 38.2969 19.3945C38.258 19.5236 38.0484 19.6008 37.8743 19.7291Z" fill="#171632"/>
<path d="M42.663 14.2037C42.6988 14.2395 42.7345 14.2754 42.8167 14.3578C42.9218 14.2174 43.0221 14.0834 43.1609 13.8979C43.189 13.8979 43.301 13.8665 43.3809 13.904C43.5937 14.0036 43.6011 14.0426 43.6446 14.4478C43.4779 14.5286 43.3096 14.6099 43.0981 14.7123C43.029 14.822 42.9288 14.9809 42.8014 15.1829C42.6459 15.061 42.5217 14.9635 42.3697 14.8443C42.4654 14.7253 42.5236 14.653 42.5795 14.5833C42.5333 14.5301 42.4875 14.4774 42.4422 14.4254C42.5199 14.3472 42.5914 14.2755 42.663 14.2037Z" fill="#171632"/>
<path d="M32.2149 19.8529C32.1007 19.9203 31.9783 19.9808 31.8736 20.0326C31.7721 19.9058 31.6927 19.8063 31.6133 19.707C31.6133 19.5595 31.6133 19.412 31.6133 19.157C31.8543 19.3198 32.0058 19.4223 32.1978 19.5521C32.3958 19.5521 32.6491 19.5521 32.9562 19.5521C32.9671 19.7384 32.9779 19.9263 32.9919 20.1694C32.8053 20.2363 32.6318 20.2986 32.4625 20.3594C32.3656 20.1572 32.2943 20.0085 32.2149 19.8529C32.2169 19.8559 32.2268 19.866 32.2368 19.8759C32.2783 19.8404 32.3198 19.8048 32.3613 19.7693C32.3454 19.7533 32.3292 19.7373 32.3133 19.7211C32.2779 19.7627 32.2424 19.8045 32.2149 19.8529Z" fill="#171632"/>
<path d="M39.372 11.7391C39.372 11.882 39.372 12.1015 39.372 12.31C39.2877 12.3908 39.2163 12.459 39.1116 12.5594C38.9879 12.4623 38.8647 12.3657 38.7155 12.2485C38.8071 12.1296 38.8643 12.0555 38.9183 11.9856C38.7681 11.8918 38.61 11.7933 38.4781 11.7109C38.4417 11.4162 38.5163 11.2302 38.826 11.1258C38.9008 11.2115 38.9904 11.3154 39.0816 11.418C39.1641 11.5108 39.2483 11.6025 39.372 11.7391Z" fill="#171632"/>
<path d="M44.8382 19.1792C44.9925 19.2353 45.0804 19.2674 45.2161 19.3168C45.1353 19.4544 45.0654 19.573 44.9758 19.7254C44.709 19.5072 44.6144 19.1473 44.3201 19.085C44.37 18.8215 44.413 18.5942 44.4673 18.3075C44.7662 18.4442 45.0529 18.5756 45.3284 18.7018C45.35 19.0444 45.0822 19.0544 44.8382 19.1792Z" fill="#171632"/>
<path d="M25.8362 17.6977C25.8362 17.394 25.8362 17.122 25.8362 16.861C25.9211 16.7802 25.9933 16.7116 26.0586 16.6495C26.418 16.6495 26.5005 16.9158 26.2731 17.3745C26.4216 17.399 26.5608 17.4218 26.7176 17.4474C26.7176 17.5719 26.7176 17.6915 26.7176 17.8139C26.3842 18.0346 26.1374 17.7114 25.8362 17.6977Z" fill="#171632"/>
<path d="M19.2821 19.9507C19.4753 19.6314 19.8804 19.5188 20.0446 19.1666C20.065 19.1226 20.1685 19.1064 20.236 19.0987C20.305 19.0908 20.377 19.1088 20.467 19.1174C20.467 19.2996 20.467 19.4687 20.467 19.6508C19.8399 20.2587 19.7255 20.2889 19.2821 19.9507Z" fill="#171632"/>
<path d="M13.5497 18.3284C13.6819 18.1667 13.7702 18.0588 13.9056 17.8935C14.0915 18.1305 14.2028 18.2727 14.3333 18.4389C14.4849 18.3621 14.6845 18.261 14.8894 18.1573C14.9726 18.2338 15.0447 18.3 15.0755 18.3284C14.9543 18.4625 14.8305 18.5993 14.6674 18.7797C14.6444 18.7662 14.5479 18.7095 14.4514 18.653C14.4041 18.7533 14.3568 18.8536 14.2956 18.9836C14.0535 18.771 13.8386 18.5821 13.5497 18.3284Z" fill="#171632"/>
<path d="M44.1513 10.3182C43.8816 10.7356 43.9782 11.2976 43.4315 11.4796C43.348 11.2378 43.2727 11.0197 43.1825 10.7587C43.2604 10.727 43.3402 10.6945 43.4267 10.6593C43.5084 10.4703 43.5991 10.26 43.7162 9.98928C43.8937 10.1234 44.0061 10.2083 44.1513 10.3182Z" fill="#171632"/>
<path d="M16.1964 16.4441C16.2918 16.3484 16.3633 16.2767 16.4654 16.1743C16.5853 16.5466 17.2466 16.4441 17.1325 17.0257C17.0375 17.1261 16.9356 17.2337 16.8361 17.3387C16.8832 17.3926 16.9293 17.4453 16.9751 17.4976C16.8975 17.5753 16.826 17.6471 16.761 17.7124C16.5718 17.2877 16.3817 16.8603 16.1964 16.4441Z" fill="#171632"/>
<path d="M35.7642 18.4417C35.5272 18.2051 35.3609 18.0389 35.2063 17.8845C35.0584 18.0066 34.9304 18.1123 34.7372 18.2717C34.6941 18.0845 34.6696 17.9785 34.6452 17.8724C34.8034 17.7112 34.9518 17.5599 35.0961 17.4127C35.2772 17.4798 35.4498 17.5437 35.6682 17.6246C35.7067 17.8192 36.0137 18.0198 35.7642 18.4417Z" fill="#171632"/>
<path d="M26.7595 15.9999C26.6411 16.3196 26.449 16.4035 26.1722 16.3131C26.1417 16.2259 26.1113 16.1387 26.0656 16.0084C25.9491 16.0619 25.8484 16.1081 25.7264 16.1641C25.6821 16.1223 25.6136 16.0579 25.4899 15.9413C25.6174 15.8703 25.7411 15.8014 25.788 15.7753C25.8211 15.5369 25.8399 15.4015 25.8601 15.2546C26.1304 15.2984 26.2079 15.438 26.2954 15.6329C26.3624 15.7816 26.5773 15.8635 26.7595 15.9999Z" fill="#171632"/>
<path d="M33.7877 11.9035C34.0988 11.8493 33.9962 11.4947 34.155 11.2223C34.3083 11.3744 34.4311 11.4963 34.6031 11.6669C34.4354 11.7234 34.3513 11.7517 34.2381 11.7897C34.2762 11.8766 34.336 11.9651 34.3518 12.0609C34.372 12.1827 34.3567 12.3105 34.3567 12.4562C34.1263 12.5281 33.8903 12.6016 33.5819 12.6976C33.6579 12.404 33.72 12.1647 33.7877 11.9035Z" fill="#171632"/>
<path d="M23.3087 17.1253C23.4027 17.1947 23.4381 17.221 23.4847 17.2553C23.517 17.1638 23.5478 17.0764 23.5847 16.972C23.7471 16.972 23.9157 16.972 24.115 16.972C24.115 17.0875 24.115 17.2048 24.115 17.3814C23.9668 17.3956 23.7825 17.4133 23.6214 17.4286C23.5101 17.5925 23.4067 17.7446 23.2715 17.9435C23.0806 17.7719 22.9268 17.6336 22.7443 17.4694C22.9571 17.3396 23.1371 17.2299 23.3087 17.1253Z" fill="#171632"/>
<path d="M44.3906 15.7119C44.2444 15.7271 44.1255 15.7395 43.9883 15.7539C43.9743 15.8248 43.9606 15.8936 43.9396 16.0002C43.8287 15.9628 43.7159 15.9091 43.5977 15.8895C43.4804 15.8702 43.3574 15.8852 43.2602 15.8852C43.1845 15.7253 43.1268 15.6034 43.0698 15.483C43.1342 15.4156 43.2034 15.3431 43.3034 15.2385C43.4358 15.3312 43.5705 15.4255 43.7633 15.5606C43.7918 15.4569 43.8318 15.3108 43.8384 15.2867C44.1286 15.2867 44.2469 15.2867 44.3905 15.2867C44.3906 15.4184 44.3906 15.5372 44.3906 15.7119Z" fill="#171632"/>
<path d="M22.94 15.3406C22.9263 15.4045 22.9115 15.4736 22.8929 15.5603C22.7694 15.5603 22.6505 15.5603 22.5001 15.5603C22.5001 15.3785 22.5001 15.1905 22.5001 14.9486C22.6926 14.9901 22.8638 15.0271 23.0545 15.0682C23.0622 15.0294 23.0762 14.9602 23.0927 14.8776C23.3181 14.7008 23.4905 14.827 23.6585 15.0155C23.6098 15.132 23.5592 15.2526 23.4841 15.4316C23.3288 15.4057 23.1561 15.3768 22.94 15.3406Z" fill="#171632"/>
<path d="M38.4718 9.03977C38.4718 8.87888 38.4718 8.75185 38.4718 8.62498C38.6726 8.38695 38.8858 8.25131 39.1526 8.54205C39.2058 8.49381 39.2593 8.44559 39.3127 8.39702C39.438 8.52273 39.5633 8.64844 39.6421 8.7274C39.5805 8.83659 39.519 8.94561 39.4599 9.05018C39.339 8.98939 39.2761 8.95784 39.1977 8.91852C38.9738 8.95585 38.7256 8.99732 38.4718 9.03977Z" fill="#171632"/>
<path d="M36.1422 16.2156C36.2005 16.3509 36.2464 16.4573 36.2844 16.5455C36.2392 16.7188 36.1937 16.8927 36.143 17.0877C35.9822 17.0877 35.8139 17.0877 35.6109 17.0877C35.6109 16.8168 35.6109 16.5293 35.6109 16.2156C35.7705 16.2156 35.9386 16.2156 36.1422 16.2156Z" fill="#171632"/>
<path d="M21.9501 16.6765C22.0008 16.7757 22.0655 16.9023 22.134 17.0366C22.0356 17.1319 22.0435 17.212 22.1503 17.3549C22.2231 17.4524 22.1642 17.6486 22.1642 17.8515C22.0248 17.8597 21.8872 17.8678 21.7551 17.8756C21.6741 17.46 21.6013 17.0865 21.5214 16.6765C21.6965 16.6765 21.816 16.6765 21.9501 16.6765Z" fill="#171632"/>
<path d="M19.0901 18.6299C18.9864 18.5703 18.9099 18.5264 18.7874 18.456C18.6221 18.6091 18.446 18.7722 18.2724 18.9327C18.1471 18.807 18.0225 18.682 17.9235 18.5827C17.9235 18.4382 17.9235 18.3184 17.9235 18.138C18.0704 18.2019 18.1718 18.2459 18.3136 18.3077C18.3749 18.2251 18.4617 18.1083 18.5485 17.9915C18.672 18.1154 18.7611 18.2047 18.8653 18.3093C18.9276 18.2756 18.9956 18.2389 19.0899 18.1877C19.0901 18.322 19.0901 18.4413 19.0901 18.6299Z" fill="#171632"/>
<path d="M37.1349 19.5955C37.0285 19.7023 36.957 19.774 36.8991 19.8321C36.5624 19.7721 36.237 19.7141 35.8961 19.6535C35.8961 19.5417 35.8961 19.4221 35.8961 19.2815C36.1379 19.248 36.377 19.1639 36.5649 19.3848C36.6428 19.3296 36.7197 19.2751 36.8348 19.1935C36.9493 19.3469 37.0443 19.4741 37.1349 19.5955Z" fill="#171632"/>
<path d="M35.0015 13.5823C35.0015 13.4195 35.0015 13.2523 35.0015 13.0795C35.2008 12.9199 35.4244 12.7408 35.6999 12.5203C35.7749 12.6903 35.8531 12.8672 35.9354 13.0539C35.5397 13.1657 35.445 13.6309 35.0015 13.5823Z" fill="#171632"/>
<path d="M39.6846 15.7907C39.8375 15.7268 39.9448 15.6817 40.072 15.6285C40.2566 15.9097 40.7671 15.5097 40.9115 16.055C40.8638 16.1209 40.7808 16.2354 40.7032 16.3423C40.5343 16.3423 40.3836 16.3423 40.2248 16.3423C40.1991 16.0258 39.8431 16.0364 39.6846 15.7907Z" fill="#171632"/>
<path d="M37.9522 15.7143C38.0199 15.9476 38.0654 16.104 38.1322 16.3344C37.999 16.3916 37.8205 16.4683 37.5846 16.5695C37.5846 16.3581 37.5846 16.24 37.5846 16.0853C37.3689 16.1283 37.1838 16.1653 36.9685 16.2081C36.9685 16.0383 36.9685 15.9193 36.9685 15.7748C37.0206 15.7631 37.0912 15.7284 37.156 15.7371C37.2465 15.7495 37.3402 15.7814 37.4195 15.8276C37.6245 15.9474 37.7935 15.9187 37.9522 15.7143Z" fill="#171632"/>
<path d="M43.6523 12.3436C43.593 11.9902 43.816 11.7284 43.996 11.4565C44.1251 11.4565 44.2248 11.4565 44.334 11.4565C44.5673 11.7681 44.3244 12.0352 44.23 12.3436C44.0443 12.3436 43.849 12.3436 43.6523 12.3436Z" fill="#171632"/>
<path d="M37.5573 12.522C37.5573 12.5975 37.5573 12.6729 37.5573 12.7835C37.7075 12.8126 37.8643 12.8428 38.0143 12.8718C38.0143 12.957 38.0143 13.0072 38.0143 13.1228C37.8806 13.0926 37.761 13.0655 37.5981 13.0287C37.5869 13.0624 37.5611 13.1399 37.5334 13.2228C37.1178 13.2672 36.9784 13.2038 36.9478 12.9494C36.9126 12.6572 37.0552 12.5571 37.5573 12.522Z" fill="#171632"/>
<path d="M41.107 19.2261C41.2601 19.256 41.383 19.2669 41.4961 19.3059C41.6062 19.3439 41.7063 19.4108 41.8451 19.4828C41.774 19.7468 41.7004 20.0193 41.6179 20.3254C41.5307 20.3076 41.4454 20.2901 41.3076 20.2618C41.3917 20.1184 41.449 20.0206 41.5248 19.8915C41.3884 19.8915 41.2702 19.8915 41.1072 19.8915C41.107 19.6567 41.107 19.4527 41.107 19.2261Z" fill="#171632"/>
<path d="M30.2895 14.4317C30.0708 14.4996 29.8955 14.5541 29.6851 14.6195C29.5917 14.5667 29.4565 14.4904 29.289 14.3956C29.4242 14.1651 29.5538 13.9438 29.6857 13.7188C30.1127 13.8078 30.1114 14.1697 30.2895 14.4317Z" fill="#171632"/>
<path d="M35.7157 18.8283C35.7157 19.0113 35.7157 19.1808 35.7157 19.3709C35.5678 19.3916 35.4293 19.4111 35.2963 19.4296C35.3499 19.5663 35.3954 19.6825 35.5001 19.9493C35.2231 19.8077 35.0878 19.7385 34.9428 19.6645C35.0184 19.581 35.0669 19.5277 35.1077 19.4826C35.0506 19.4051 34.9949 19.3296 34.9177 19.2251C35.155 19.0248 35.2569 18.6814 35.7157 18.8283Z" fill="#171632"/>
<path d="M32.6512 15.6532C32.6512 16.0201 32.6512 16.2933 32.6512 16.5066C32.5752 16.6336 32.511 16.7412 32.4221 16.8898C32.2623 16.7476 32.1576 16.6544 32.056 16.5639C32.1097 16.1762 32.2116 15.8551 32.6512 15.6532Z" fill="#171632"/>
<path d="M41.1892 17.3271C41.4848 17.4733 41.6646 17.5622 41.9118 17.6843C41.6733 17.9076 41.4841 18.085 41.2397 18.3138C41.2081 18.3138 41.09 18.3138 40.9115 18.3138C40.9252 18.1761 40.8993 18.0185 40.9612 17.9124C41.0561 17.75 41.2865 17.6636 41.1892 17.3271Z" fill="#171632"/>
<path d="M33.3198 15.1148C33.4496 15.524 33.5328 15.7863 33.608 16.0237C33.4968 16.2995 33.3175 16.3904 33.0555 16.341C32.9914 16.2739 32.9218 16.2009 32.8648 16.1411C33 15.8359 33.1339 15.5341 33.3198 15.1148Z" fill="#171632"/>
<path d="M43.5185 19.1547C43.3936 19.2799 43.3398 19.3339 43.2927 19.3811C43.1148 19.3811 42.9437 19.3811 42.7748 19.3811C42.7748 19.1198 42.7748 18.8799 42.7748 18.5515C42.9905 18.7078 43.1402 18.8162 43.2986 18.9308C43.3296 18.8453 43.3617 18.7571 43.4398 18.5413C43.4765 18.8273 43.4982 18.9969 43.5185 19.1547Z" fill="#171632"/>
<path d="M18.5065 16.4585C18.4865 16.663 18.3136 16.8116 18.1064 16.8024C17.8994 16.7933 17.7445 16.6297 17.7445 16.4203C17.7445 16.1799 17.9483 16.002 18.1825 16.038C18.3831 16.0689 18.5262 16.2548 18.5065 16.4585Z" fill="#171632"/>
<path d="M40.6055 8.29904C40.6145 8.50702 40.4663 8.6803 40.2624 8.70012C40.0184 8.72391 39.8326 8.54601 39.8435 8.29872C39.8527 8.09108 40.0157 7.9358 40.2245 7.9358C40.4334 7.9358 40.5964 8.09124 40.6055 8.29904Z" fill="#171632"/>
<path d="M16.2857 18.1899C16.6436 18.1899 16.8616 18.1899 17.0734 18.1899C17.2684 18.4883 16.9894 18.6797 16.9275 18.9328C16.8359 18.9371 16.7397 18.9415 16.5894 18.9485C16.5033 18.7334 16.4117 18.5046 16.2857 18.1899Z" fill="#171632"/>
<path d="M29.7495 19.0457C30.1166 19.2723 30.2552 19.5698 30.2393 19.9881C30.0448 19.9881 29.8745 19.9881 29.6912 19.9881C29.6398 19.8323 29.5812 19.6542 29.5145 19.4519C29.572 19.3524 29.6512 19.2157 29.7495 19.0457Z" fill="#171632"/>
<path d="M11.9783 18.316C12.1438 18.2539 12.2968 18.1964 12.4564 18.1364C12.5714 18.2719 12.6621 18.3789 12.757 18.4904C12.5682 18.631 12.4017 18.7248 12.2771 18.8578C12.1774 18.9642 12.1285 19.1186 11.9783 19.3986C11.9783 18.9533 11.9783 18.6804 11.9783 18.316Z" fill="#171632"/>
<path d="M33.0089 7.64329C33.2022 7.64329 33.3694 7.64329 33.5945 7.64329C33.6581 7.79708 33.7281 7.96671 33.7984 8.13686C33.6271 8.22375 33.5047 8.28587 33.3669 8.35574C33.2747 8.3118 33.1566 8.25564 33.0089 8.18527C33.0089 8.04569 33.0089 7.87884 33.0089 7.64329Z" fill="#171632"/>
<path d="M44.0267 13.663C44.2541 13.4325 44.4048 13.2801 44.6393 13.0425C44.6859 13.1775 44.7291 13.3028 44.7724 13.4281C44.7999 13.4005 44.8274 13.3729 44.8547 13.3451C44.8547 13.5159 44.8547 13.6868 44.8547 13.8775C44.667 13.8775 44.4972 13.8775 44.3274 13.8775C44.3524 13.8543 44.3776 13.8308 44.4027 13.8075C44.2806 13.7606 44.1584 13.7137 44.0267 13.663Z" fill="#171632"/>
<path d="M30.1178 15.7916C29.9557 15.8785 29.7988 15.9627 29.6106 16.0637C29.4907 15.8841 29.3703 15.7035 29.2314 15.4956C29.3131 15.4485 29.4828 15.3507 29.5822 15.2932C29.7726 15.4701 29.9289 15.6157 30.1178 15.7916Z" fill="#171632"/>
<path d="M41.8673 16.9831C42.1139 16.8542 42.3268 16.6135 42.491 16.2955C42.6066 16.4477 42.6916 16.5597 42.8095 16.715C42.6697 16.7663 42.5874 16.7966 42.4706 16.8392C42.4632 17.1339 42.3388 17.3985 42.0279 17.5445C41.9765 17.3647 41.9261 17.1887 41.8673 16.9831Z" fill="#171632"/>
<path d="M34.3768 16.4566C34.4695 16.5422 34.5608 16.5853 34.5716 16.6436C34.6166 16.8838 34.6372 17.1286 34.6765 17.4534C34.434 17.3924 34.2606 17.3488 34.11 17.3108C34.0659 16.7559 34.0659 16.7559 34.3768 16.4566Z" fill="#171632"/>
<path d="M41.0399 4.05214C40.899 4.12235 40.7313 4.20576 40.5795 4.28142C40.3367 4.13985 40.2167 3.95318 40.3303 3.71283C40.4067 3.55095 40.5724 3.44274 40.7695 3.50568C41.0195 3.5858 41.1228 3.76736 41.0399 4.05214Z" fill="#171632"/>
<path d="M24.1886 15.6856C24.1239 15.5552 24.0715 15.4497 23.9928 15.2909C24.2443 15.1695 24.517 15.038 24.8502 14.8771C24.8783 15.0502 24.8974 15.1393 24.9065 15.2293C24.9287 15.4516 24.9356 15.6454 24.6013 15.5884C24.4771 15.5673 24.3359 15.6479 24.1886 15.6856Z" fill="#171632"/>
<path d="M25.4369 12.0598C25.513 12.1393 25.5966 12.2269 25.714 12.3498C25.567 12.5197 25.4265 12.6821 25.2396 12.898C25.1136 12.7551 24.9562 12.6534 24.9189 12.5183C24.843 12.244 24.9705 12.1461 25.4369 12.0598Z" fill="#171632"/>
<path d="M30.8041 12.4949C30.7102 12.7111 30.6153 12.9295 30.5258 13.1355C30.3752 13.0564 30.2736 13.0032 30.0941 12.9088C30.1415 12.9564 30.1056 12.9328 30.1091 12.9221C30.1992 12.6427 30.2934 12.3647 30.3741 12.1245C30.5434 12.2704 30.6937 12.3999 30.8041 12.4949Z" fill="#171632"/>
<path d="M32.1064 12.4524C32.2491 12.6348 32.3578 12.7736 32.4781 12.9272C32.4445 12.9992 32.3878 13.121 32.3201 13.2663C32.1691 13.2663 31.9988 13.2663 31.8219 13.2663C31.6815 13.1256 31.7744 12.7947 32.1064 12.4524Z" fill="#171632"/>
<path d="M39.6139 12.9202C39.768 13.3663 39.6873 13.7051 39.4597 14.0689C39.3239 13.8647 39.1992 13.6774 39.0551 13.4605C39.1697 13.213 39.359 13.0581 39.6139 12.9202Z" fill="#171632"/>
<path d="M14.5336 20.513C14.7897 20.1783 14.7897 20.1783 15.3377 20.0106C15.2737 20.1781 15.229 20.2948 15.1803 20.422C15.2498 20.4917 15.3387 20.5809 15.4552 20.6977C15.0805 20.8871 14.8075 20.7177 14.5336 20.513Z" fill="#171632"/>
<path d="M36.8195 17.2611C36.9728 17.2611 37.0744 17.2611 37.2062 17.2611C37.3139 17.4301 37.4301 17.613 37.5471 17.7963C37.1951 18.0803 37.1951 18.0803 36.793 17.8046C36.8012 17.6364 36.8104 17.4473 36.8195 17.2611Z" fill="#171632"/>
<path d="M41.7729 9.95112C41.6437 10.0175 41.5602 10.0605 41.4119 10.1368C41.3905 9.89628 41.3741 9.71095 41.3522 9.46465C41.5037 9.46465 41.6486 9.42103 41.7365 9.47356C41.9351 9.59217 42.1054 9.75835 42.3289 9.93906C42.1267 10.1452 41.9551 10.1389 41.7729 9.95112Z" fill="#171632"/>
<path d="M40.5702 14.6357C40.625 14.4297 40.6706 14.2583 40.7187 14.0771C40.9662 14.0771 41.1515 14.0771 41.4025 14.0771C41.3476 14.283 41.302 14.4547 41.2539 14.6357C41.0066 14.6357 40.8213 14.6357 40.5702 14.6357Z" fill="#171632"/>
<path d="M28.5651 20.3186C28.5651 20.4964 28.5651 20.598 28.5651 20.7384C28.3288 20.7384 28.0902 20.7384 27.8499 20.7384C27.8303 20.1237 27.9734 20.0378 28.5651 20.3186Z" fill="#171632"/>
<path d="M37.9913 8.84136C37.8647 8.84136 37.7678 8.84136 37.613 8.84136C37.5351 8.64099 37.4457 8.41106 37.3342 8.12429C37.5951 8.12429 37.7812 8.12429 37.9912 8.12429C37.9913 8.33622 37.9913 8.55641 37.9913 8.84136Z" fill="#171632"/>
<path d="M38.3642 11.2018C38.1768 11.2997 38.0518 11.3652 37.8774 11.4564C37.7689 11.1929 37.6531 10.9122 37.515 10.5769C37.6645 10.5561 37.7786 10.5402 37.9026 10.523C38.0487 10.7378 38.1917 10.9481 38.3642 11.2018Z" fill="#171632"/>
<path d="M38.4431 14.4078C38.1877 14.2903 38.0385 14.2216 37.8718 14.1449C37.8677 14.0564 37.863 13.9581 37.857 13.8303C37.9693 13.7718 38.0897 13.7092 38.243 13.6294C38.3496 13.6816 38.4878 13.7496 38.6767 13.8423C38.6044 14.0171 38.5326 14.191 38.4431 14.4078Z" fill="#171632"/>
<path d="M28.7177 17.7925C28.7177 17.693 28.7177 17.5936 28.7177 17.4416C28.8987 17.4307 29.0833 17.4198 29.2721 17.4084C29.3203 17.6716 29.6148 17.8538 29.4038 18.1977C29.1794 18.065 28.9523 17.9311 28.7177 17.7925Z" fill="#171632"/>
<path d="M31.4354 14.1902C31.2431 14.1902 31.0746 14.1902 30.8788 14.1902C30.8788 13.9455 30.8788 13.7085 30.8788 13.4779C31.0636 13.5317 31.2345 13.5816 31.4354 13.6403C31.4354 13.7852 31.4354 13.9538 31.4354 14.1902Z" fill="#171632"/>
<path d="M39.565 5.3809C39.7001 5.32077 39.8065 5.27353 39.9682 5.20151C40.0369 5.33019 40.1204 5.48662 40.2281 5.68865C40.0295 5.82411 39.8695 5.93346 39.709 6.04298C39.6984 6.03241 39.6449 5.97873 39.5649 5.89844C39.565 5.75555 39.565 5.5854 39.565 5.3809Z" fill="#171632"/>
<path d="M31.65 18.7429C31.7159 18.5846 31.7611 18.4762 31.8064 18.3677C31.9642 18.2683 32.108 18.3355 32.3832 18.6451C32.2333 18.7959 32.0828 18.9474 31.896 19.1353C31.8078 18.9946 31.7282 18.8676 31.65 18.7429Z" fill="#171632"/>
<path d="M21.5989 17.9387C21.4861 18.0132 21.3847 18.0801 21.2233 18.1866C21.1716 18.1673 21.0041 18.1533 20.9239 18.0621C20.8297 17.9549 20.8111 17.7807 20.7529 17.6167C21.1113 17.5422 21.3962 17.4842 21.5989 17.9387Z" fill="#171632"/>
<path d="M41.1027 2.45537C40.6817 2.81383 40.6817 2.81383 40.3006 2.48973C40.5987 1.99961 40.6646 1.993 41.1027 2.45537Z" fill="#171632"/>
<path d="M32.2098 7.37254C32.2098 7.69631 32.2098 7.86562 32.2098 8.06187C32.0326 8.06187 31.8648 8.06187 31.6397 8.06187C31.6321 7.92691 31.5758 7.74636 31.6235 7.59983C31.7139 7.32232 31.9791 7.57704 32.2098 7.37254Z" fill="#171632"/>
<path d="M28.189 13.8191C28.1567 13.6882 28.1244 13.5572 28.0921 13.4264C28.0503 13.4634 28.0083 13.5006 27.9665 13.5378C27.9665 13.3704 27.9665 13.2029 27.9665 13.0139C28.0411 13.002 28.1187 12.9649 28.1745 12.9859C28.3191 13.0402 28.4541 13.1202 28.6078 13.1975C28.5004 13.4175 28.4202 13.582 28.34 13.7466C28.2896 13.7708 28.2394 13.795 28.189 13.8191Z" fill="#171632"/>
<path d="M9.60259 20.315C9.32889 20.3505 9.14016 20.2773 9.05568 20.017C9.12353 19.7464 9.32048 19.6876 9.60061 19.7097C9.66962 19.7741 9.75839 19.8571 9.88091 19.9715C9.76959 20.1091 9.68098 20.2182 9.60259 20.315Z" fill="#171632"/>
<path d="M32.8327 18.1784C32.9592 18.1784 33.0858 18.1784 33.2577 18.1784C33.3035 18.4404 33.3651 18.6977 33.0838 18.9166C32.9542 18.8528 32.8161 18.7848 32.6804 18.7179C32.6804 18.5851 32.6804 18.4582 32.6804 18.3311C32.7311 18.2801 32.7818 18.2292 32.8327 18.1784Z" fill="#171632"/>
<path d="M38.9725 15.1253C39.1174 15.4221 39.2047 15.6013 39.3247 15.8473C38.982 15.8473 38.7304 15.8473 38.4695 15.8473C38.4614 15.5153 38.7376 15.4411 38.9725 15.1253Z" fill="#171632"/>
<path d="M45.3798 15.781C45.6087 15.9703 45.7718 16.1051 45.9261 16.2326C45.7851 16.3757 45.6547 16.508 45.5221 16.6424C45.0976 16.3728 45.0976 16.3728 45.3798 15.781Z" fill="#171632"/>
<path d="M38.929 17.1081C38.9675 16.5525 38.9675 16.5524 39.4844 16.5191C39.5531 16.6644 39.6221 16.8098 39.6909 16.9552C39.467 17.1562 39.1923 17.1042 38.929 17.1081Z" fill="#171632"/>
<path d="M38.9862 6.62539C39.135 6.45227 39.2265 6.34571 39.3028 6.25684C39.5801 6.23487 39.7771 6.29367 39.8652 6.6442C39.7792 6.67063 39.6499 6.71046 39.5208 6.75027C39.5467 6.79867 39.5727 6.84724 39.5986 6.89564C39.5024 6.83468 39.4102 6.76529 39.3085 6.71556C39.2346 6.67939 39.148 6.669 38.9862 6.62539Z" fill="#171632"/>
<path d="M33.9681 4.96224C34.186 5.05425 34.3363 5.11768 34.582 5.22142C34.2843 5.45202 34.0559 5.62878 33.8256 5.80718C33.6086 5.48837 33.8971 5.29493 33.9681 4.96224Z" fill="#171632"/>
<path d="M12.8722 20.0027C13.0571 20.0991 13.1826 20.1645 13.3692 20.2618C13.2941 20.4363 13.2152 20.6201 13.1324 20.8129C12.6337 20.504 12.6337 20.504 12.8722 20.0027Z" fill="#171632"/>
<path d="M40.4291 18.991C40.2108 19.1641 39.9929 19.3365 39.7216 19.5515C39.6456 19.3861 39.5652 19.212 39.496 19.0617C39.6209 18.9364 39.6918 18.8651 39.7106 18.8463C39.9782 18.9003 40.2052 18.9459 40.4291 18.991Z" fill="#171632"/>
<path d="M41.4884 11.5596C41.6453 11.4023 41.771 11.2764 41.895 11.1522C42.1799 11.3303 42.1603 11.5936 42.1051 11.865C41.8076 11.9877 41.6243 11.8823 41.4884 11.5596Z" fill="#171632"/>
<path d="M17.4162 13.4745C17.6736 13.4745 17.8588 13.4745 18.1355 13.4745C17.9257 13.7743 17.7632 14.0067 17.5664 14.288C17.3411 13.9745 17.5099 13.7127 17.4162 13.4745Z" fill="#171632"/>
<path d="M24.9118 13.9869C24.9118 13.8609 24.9118 13.7603 24.9118 13.664C24.988 13.5877 25.0597 13.5157 25.1155 13.4598C25.2472 13.5264 25.3726 13.5897 25.5654 13.687C25.486 13.8654 25.4042 14.0492 25.2934 14.2983C25.1157 14.1533 25.0063 14.0641 24.9118 13.9869Z" fill="#171632"/>
<path d="M44.9934 14.0168C45.0087 14.1623 45.0209 14.279 45.037 14.4323C44.9079 14.5547 44.7665 14.6888 44.5906 14.8555C44.4776 14.7674 44.3677 14.6817 44.246 14.5867C44.495 14.4078 44.6291 14.1091 44.9934 14.0168Z" fill="#171632"/>
<path d="M27.6894 17.8512C28.1294 18.1105 28.1813 18.3406 27.9226 18.7463C27.905 18.7576 27.875 18.7815 27.8715 18.7782C27.746 18.6566 27.623 18.5326 27.5519 18.4614C27.6013 18.2417 27.6421 18.0608 27.6894 17.8512Z" fill="#171632"/>
<path d="M22.7484 13.7905C22.7234 13.567 22.794 13.4999 22.8935 13.4052C23.1717 13.5906 23.4706 13.7435 23.364 14.2037C22.9674 14.2109 22.905 13.804 22.7484 13.7905C22.9202 13.8939 22.9301 13.9038 22.9399 13.9138C22.9814 13.8783 23.0229 13.8428 23.0644 13.8073C23.0485 13.7913 23.0323 13.7751 23.0163 13.7591C22.9811 13.8007 22.9457 13.8423 22.7484 13.7905Z" fill="#171632"/>
<path d="M35.258 14.647C35.0437 14.647 34.8756 14.647 34.6845 14.647C34.6845 14.5143 34.6845 14.3965 34.6845 14.2401C34.8985 14.2401 35.1345 14.2401 35.4444 14.2401C35.3744 14.3931 35.3125 14.5282 35.258 14.647Z" fill="#171632"/>
<path d="M35.7537 14.1784C36.0169 14.3672 36.1147 14.5552 36.0069 14.7522C35.8898 14.9662 35.6854 15.0583 35.3947 14.8837C35.5095 14.6586 35.6249 14.4316 35.7537 14.1784Z" fill="#171632"/>
<path d="M31.0036 15.7323C31.0036 15.6059 31.0036 15.4795 31.0036 15.3317C30.9223 15.3044 30.8346 15.2752 30.7256 15.2387C30.7157 15.18 30.704 15.111 30.6853 14.9995C30.8297 15.0457 30.9445 15.0976 31.0644 15.1167C31.1823 15.1354 31.3055 15.1209 31.4257 15.1209C31.4178 15.6191 31.4178 15.6191 31.0036 15.7323Z" fill="#171632"/>
<path d="M28.5107 20.1345C28.6469 20.0219 28.7669 19.9224 28.9091 19.8048C29.0173 20.0121 29.1013 20.1727 29.2116 20.3841C29.1255 20.4847 29.0354 20.5898 28.8941 20.7548C28.7347 20.4968 28.6378 20.3404 28.5107 20.1345Z" fill="#171632"/>
<path d="M26.4662 20.614C26.2344 20.1742 26.2344 20.1742 26.61 19.8244C26.7085 19.9175 26.8094 20.013 26.928 20.125C26.8145 20.3571 26.6579 20.4911 26.4662 20.614Z" fill="#171632"/>
<path d="M22.488 11.4232C22.8837 11.8056 22.8837 11.8056 22.8913 12.2407C22.6823 12.1573 22.4954 12.0826 22.2554 11.987C22.3361 11.7914 22.4078 11.6176 22.488 11.4232Z" fill="#171632"/>
<path d="M38.5777 18.0936C38.7794 18.2831 38.9489 18.4422 39.2122 18.6895C39.0016 18.7605 38.8545 18.8101 38.7073 18.8596C38.5882 18.9427 38.4787 18.5765 38.5777 18.0936Z" fill="#171632"/>
<path d="M27.1811 19.3035C27.1811 19.4171 27.1811 19.5346 27.1811 19.6431C26.9434 19.8813 26.6198 19.6514 26.4372 19.0786C26.7013 19.1584 26.9309 19.2278 27.1811 19.3035Z" fill="#171632"/>
<path d="M38.7237 4.35902C38.907 4.44872 39.0854 4.53612 39.3237 4.65274C39.1709 4.83362 39.0717 4.95124 38.9676 5.0743C38.6511 4.903 38.5199 4.71996 38.7237 4.35902Z" fill="#171632"/>
<path d="M37.7496 20.7536C37.4459 20.7536 37.2113 20.7536 36.9702 20.7536C36.9073 20.4828 37.0514 20.3655 37.2551 20.3231C37.5197 20.2677 37.6482 20.4321 37.7496 20.7536Z" fill="#171632"/>
<path d="M39.8044 18.5239C39.697 18.4136 39.6269 18.3416 39.5457 18.2583C39.6068 18.1922 39.67 18.124 39.7703 18.0153C39.8546 18.047 39.9561 18.0854 40.0781 18.1313C40.1588 18.0992 40.2744 18.0531 40.4319 17.9904C40.4319 18.1787 40.4319 18.2976 40.4319 18.463C40.3354 18.4162 40.2468 18.3733 40.1438 18.3234C40.0511 18.3782 39.9513 18.4372 39.8044 18.5239Z" fill="#171632"/>
<path d="M31.7397 17.5304C31.7397 17.7091 31.7397 17.8277 31.7397 17.924C31.6032 18.0583 31.4659 18.1936 31.2926 18.3641C31.2098 18.2921 31.121 18.2149 30.9809 18.0932C31.2289 17.9093 31.4612 17.737 31.7397 17.5304Z" fill="#171632"/>
<path d="M9.26216 18.0862C9.07886 17.9965 8.90052 17.9091 8.66222 17.7925C8.81488 17.6114 8.91418 17.494 9.0181 17.3709C9.33479 17.5422 9.4662 17.7253 9.26216 18.0862Z" fill="#171632"/>
<path d="M30.7942 17.9559C30.5667 17.8432 30.389 17.7553 30.1529 17.6385C30.292 17.4681 30.3793 17.3612 30.4755 17.2434C30.804 17.3144 30.9062 17.5107 30.7942 17.9559Z" fill="#171632"/>
<path d="M39.6921 16.9587C39.9426 16.9425 40.1944 16.9289 40.3195 17.2897C40.2464 17.373 40.1544 17.4775 40.0696 17.5742C39.6653 17.5155 39.6837 17.2322 39.6921 16.9587Z" fill="#171632"/>
<path d="M44.066 16.894C44.1749 16.8081 44.2688 16.7341 44.3758 16.6495C44.5976 16.6495 44.6775 16.7833 44.6897 17.2208C44.4198 17.3342 44.2345 17.2383 44.066 16.894Z" fill="#171632"/>
<path d="M14.7343 15.2738C14.8714 15.2738 14.9706 15.2738 15.0748 15.2738C15.1356 15.3944 15.1975 15.5171 15.2915 15.7036C15.1399 15.7771 14.9693 15.8599 14.7343 15.9738C14.7343 15.6796 14.7343 15.4766 14.7343 15.2738Z" fill="#171632"/>
<path d="M37.5573 12.4956C37.5573 12.3443 37.5573 12.1665 37.5573 11.9852C37.6277 11.9163 37.7002 11.8457 37.7735 11.7742C38.1122 11.9198 37.9909 12.2138 38.0225 12.4958C37.8478 12.4956 37.7042 12.4956 37.5573 12.4956Z" fill="#171632"/>
<path d="M36.744 11.2719C36.8076 11.5303 36.8539 11.7176 36.9188 11.9809C36.6158 11.7855 36.2818 11.7698 36.1423 11.3595C36.3509 11.3291 36.527 11.3035 36.744 11.2719Z" fill="#171632"/>
<path d="M27.322 11.8786C27.0234 11.9613 26.8298 11.8832 26.6909 11.5074C26.7733 11.4494 26.8863 11.3699 27.0012 11.2892C27.2906 11.3691 27.4011 11.5488 27.322 11.8786Z" fill="#171632"/>
<path d="M26.3787 9.40376C26.562 9.49346 26.7404 9.58084 26.9787 9.69746C26.8258 9.87834 26.7265 9.99596 26.6226 10.119C26.3063 9.94772 26.1748 9.7647 26.3787 9.40376Z" fill="#171632"/>
<path d="M36.2643 9.21392C36.1566 9.44023 36.0713 9.6198 35.958 9.858C35.776 9.7085 35.6566 9.61055 35.5484 9.52151C35.6642 9.18436 35.8611 9.112 36.2643 9.21392Z" fill="#171632"/>
<path d="M41.8083 8.85661C41.9053 8.70249 41.9796 8.58422 42.0509 8.4709C42.393 8.78212 42.393 8.7821 42.4071 9.11496C42.1362 9.23885 41.9528 9.1371 41.8083 8.85661Z" fill="#171632"/>
<path d="M43.1348 8.09226C43.0587 8.02949 43.0073 7.97182 42.9433 7.93879C42.8833 7.9079 42.81 7.90345 42.6582 7.86694C42.8254 7.65897 42.9578 7.49427 43.0888 7.33122C43.3912 7.46883 43.4074 7.65732 43.1348 8.09226Z" fill="#171632"/>
<path d="M7.91425 19.0956C8.14168 19.3933 8.14168 19.3933 8.06872 19.858C7.56989 19.5996 7.56034 19.5529 7.91425 19.0956Z" fill="#171632"/>
<path d="M21.1957 17.0034C20.8199 16.8581 20.7384 16.666 20.8257 16.3689C20.9332 16.3689 21.0487 16.3689 21.1842 16.3689C21.2316 16.4638 21.2926 16.5858 21.3772 16.7553C21.3244 16.8278 21.2486 16.9312 21.1957 17.0034Z" fill="#171632"/>
<path d="M21.8703 15.3324C22.0143 15.4879 22.0969 15.5769 22.2111 15.7001C22.1154 15.8235 22.0284 15.9355 21.9122 16.0857C21.774 15.9803 21.6478 15.8838 21.4759 15.7527C21.6121 15.6075 21.7078 15.5056 21.8703 15.3324Z" fill="#171632"/>
<path d="M28.6335 19.3136C28.4526 19.3998 28.2718 19.4863 28.0791 19.5781C28.0625 19.5419 27.982 19.368 27.8738 19.1337C28.1633 19.1337 28.3645 19.1337 28.5658 19.1337C28.5883 19.1937 28.6109 19.2537 28.6335 19.3136Z" fill="#171632"/>
<path d="M30.5563 20.5989C30.5264 20.5533 30.4878 20.4944 30.4271 20.4017C30.4791 20.2938 30.545 20.1574 30.61 20.0226C30.8623 19.9899 30.9539 20.1285 30.9796 20.5989C30.8343 20.5989 30.6906 20.5989 30.5563 20.5989Z" fill="#171632"/>
<path d="M31.0264 9.98656C31.1258 9.937 31.2488 9.87589 31.4282 9.78652C31.4667 9.845 31.5291 9.93965 31.6182 10.0748C31.5535 10.3399 31.3417 10.4131 31.0265 10.3716C31.0264 10.2342 31.0264 10.1171 31.0264 9.98656Z" fill="#171632"/>
<path d="M33.6957 10.0262C33.7761 9.81542 33.8469 9.63025 33.9151 9.45135C34.1 9.5574 34.2344 9.63454 34.3737 9.7145C34.2832 10.0051 34.1195 10.1392 33.6957 10.0262Z" fill="#171632"/>
<path d="M43.3197 8.21454C43.3326 8.42234 43.3439 8.60669 43.3541 8.77138C43.2634 8.8624 43.1939 8.93212 43.1244 9.00183C42.7662 8.55383 42.7748 8.50956 43.3197 8.21454Z" fill="#171632"/>
<path d="M32.7808 11.5019C32.6917 11.3263 32.6278 11.2004 32.5551 11.0571C32.5508 11.0673 32.5537 11.0389 32.5666 11.0331C32.6728 10.9859 32.7808 10.9427 32.8627 10.9089C32.9878 11.0143 33.1262 11.1309 33.3095 11.2853C33.1226 11.362 32.95 11.4327 32.7808 11.5019Z" fill="#171632"/>
<path d="M41.7978 5.472C41.6601 5.3045 41.5713 5.19614 41.4508 5.04961C41.5758 4.91234 41.67 4.80894 41.7968 4.66985C41.9259 4.77789 42.0338 4.86824 42.178 4.989C42.0688 5.12759 41.9712 5.25164 41.7978 5.472Z" fill="#171632"/>
<path d="M41.5465 11.065C41.3771 10.9069 41.2881 10.824 41.1648 10.7088C41.2674 10.5856 41.3575 10.4774 41.4767 10.3342C41.6046 10.429 41.7188 10.5136 41.8733 10.628C41.7687 10.768 41.6733 10.8953 41.5465 11.065Z" fill="#171632"/>
<path d="M36.0469 10.3491C36.0469 10.2159 36.0469 10.0988 36.0469 9.98829C36.175 9.92254 36.2972 9.85977 36.4039 9.80509C36.4856 9.86439 36.5814 9.93379 36.6686 9.99706C36.5686 10.3098 36.4057 10.4452 36.0469 10.3491Z" fill="#171632"/>
<path d="M42.8376 18.3722C42.6958 18.3134 42.6525 18.2955 42.593 18.2709C42.6383 18.2154 42.6802 18.164 42.723 18.1115C42.6737 18.0405 42.6217 17.9656 42.5357 17.8419C42.6688 17.7311 42.79 17.6301 42.9433 17.5026C42.9921 17.6174 43.0509 17.6865 43.038 17.7375C42.9866 17.942 42.913 18.1409 42.8376 18.3722Z" fill="#171632"/>
<path d="M36.8195 7.17135C36.8204 7.17135 36.853 7.18143 36.8688 7.16937C36.908 7.13947 36.9394 7.09933 36.9276 7.11172C37.0507 7.23528 37.178 7.36314 37.3129 7.4986C37.2395 7.52767 37.0555 7.60034 36.8195 7.69383C36.8195 7.4586 36.8195 7.31506 36.8195 7.17135Z" fill="#171632"/>
<path d="M40.8071 6.57382C40.9237 6.57382 41.0415 6.57382 41.1872 6.57382C41.1872 6.76577 41.1872 6.95177 41.1872 7.14158C40.7725 7.04907 40.774 7.04775 40.8071 6.57382Z" fill="#171632"/>
<path d="M31.1479 5.88532C31.0542 5.97337 30.9817 6.04126 30.8749 6.1417C30.7611 6.05283 30.6497 5.96594 30.4994 5.84832C30.6044 5.70989 30.7003 5.58369 30.8398 5.39984C30.9626 5.59344 31.0451 5.72344 31.1479 5.88532Z" fill="#171632"/>
<path d="M39.9197 14.6622C39.991 14.7337 40.0623 14.8053 40.1857 14.929C39.9184 15.0426 39.6765 15.1455 39.4306 15.2501C39.4853 14.8961 39.4853 14.8961 39.9197 14.6622Z" fill="#171632"/>
<path d="M18.6843 15.2995C18.6843 15.0591 18.6843 14.8731 18.6843 14.6407C18.851 14.6785 19.0802 14.6798 19.099 14.7436C19.1781 15.011 19.0667 15.2141 18.6843 15.2995Z" fill="#171632"/>
<path d="M38.9546 3.47672C38.7149 3.47672 38.5295 3.47672 38.2979 3.47672C38.3357 3.30955 38.337 3.0796 38.4006 3.06077C38.667 2.98148 38.8696 3.09316 38.9546 3.47672Z" fill="#171632"/>
<path d="M30.3941 11.6812C30.5198 11.5552 30.6453 11.4293 30.7703 11.3039C30.9585 11.4496 31.0953 11.6137 30.9624 11.8903C30.8488 11.8903 30.7297 11.8903 30.6026 11.8903C30.5376 11.8251 30.4658 11.7532 30.3941 11.6812Z" fill="#171632"/>
<path d="M24.4353 11.0112C24.4353 11.1574 24.4353 11.2755 24.4353 11.4187C24.1352 11.5097 23.9272 11.4384 23.8231 11.0776C24.0135 10.9218 24.2207 11.0117 24.4353 11.0112Z" fill="#171632"/>
<path d="M38.1091 0.593024C37.838 0.642746 37.6547 0.557838 37.5361 0.257523C37.5975 0.188474 37.6766 0.0996091 37.7654 0C37.8839 0.1528 37.9997 0.301971 38.1473 0.491938C38.1548 0.471455 38.13 0.537355 38.1091 0.593024Z" fill="#171632"/>
<path d="M45.3038 15.8852C45.2035 15.8852 45.0772 15.8852 44.9474 15.8852C44.8784 15.8143 44.8078 15.7418 44.7366 15.6687C44.8547 15.4453 45.0349 15.3705 45.3038 15.4589C45.3038 15.5953 45.3038 15.7402 45.3038 15.8852Z" fill="#171632"/>
<path d="M23.6873 15.6547C23.6873 15.906 23.6873 16.0047 23.6873 16.1566C23.5607 16.1699 23.4278 16.184 23.3121 16.196C23.2226 16.1063 23.1529 16.0363 23.036 15.919C23.2425 15.8354 23.4246 15.7614 23.6873 15.6547Z" fill="#171632"/>
<path d="M34.2708 13.7682C34.1753 14.0085 34.1022 14.1922 33.9708 14.5226C33.8458 14.1894 33.7763 14.0038 33.6878 13.7682C33.8934 13.7682 34.0098 13.7682 34.2708 13.7682Z" fill="#171632"/>
<path d="M27.0411 13.2122C27.0411 13.1109 27.0411 13.012 27.0411 12.9129C27.1724 12.7563 27.3025 12.7865 27.6477 13.0538C27.4815 13.2469 27.3115 13.425 27.0411 13.2122Z" fill="#171632"/>
<path d="M19.8903 17.8712C19.7003 17.9433 19.5303 18.0078 19.2979 18.096C19.2833 17.8906 19.2737 17.7553 19.2642 17.6215C19.5247 17.5086 19.7148 17.5481 19.8903 17.8712Z" fill="#171632"/>
<path d="M27.3916 13.3091C27.4728 13.4923 27.5248 13.6096 27.582 13.7387C27.5262 13.7883 27.3969 13.9034 27.2454 14.0382C27.1803 13.9765 27.0962 13.8968 26.9779 13.7848C27.1067 13.6368 27.2095 13.5185 27.3916 13.3091Z" fill="#171632"/>
<path d="M47.0001 20.7532C46.7939 20.7532 46.6098 20.7532 46.3151 20.7532C46.4601 20.5515 46.5562 20.4177 46.7054 20.2101C46.8276 20.4354 46.9059 20.5794 47.0001 20.7532Z" fill="#171632"/>
<path d="M15.4715 19.6821C15.4715 19.5353 15.4715 19.4168 15.4715 19.2733C15.6029 19.2733 15.721 19.2733 15.8903 19.2733C15.8989 19.3811 15.9096 19.5179 15.9224 19.6821C15.7709 19.6821 15.6528 19.6821 15.4715 19.6821Z" fill="#171632"/>
<path d="M36.2028 13.8395C36.292 13.7295 36.3533 13.654 36.4544 13.5293C36.5937 13.6656 36.7156 13.7843 36.8251 13.8914C36.6977 14.1279 36.5513 14.1022 36.2028 13.8395Z" fill="#171632"/>
<path d="M29.5378 10.0931C29.6475 10.1826 29.7228 10.244 29.8471 10.3453C29.7113 10.4852 29.5928 10.6073 29.4861 10.7171C29.2501 10.5896 29.276 10.4426 29.5378 10.0931Z" fill="#171632"/>
<path d="M29.744 16.6496C29.6083 16.6496 29.5082 16.6496 29.358 16.6496C29.3462 16.5192 29.334 16.3843 29.319 16.2176C29.4682 16.2176 29.5858 16.2176 29.744 16.2176C29.744 16.3436 29.744 16.4963 29.744 16.6496Z" fill="#171632"/>
<path d="M32.5859 9.63455C32.6956 9.72408 32.7708 9.78553 32.8952 9.88679C32.7593 10.0267 32.6407 10.1488 32.5342 10.2586C32.2982 10.1309 32.3241 9.98409 32.5859 9.63455Z" fill="#171632"/>
<path d="M45.9957 18.9499C46.1581 18.8002 46.2299 18.7343 46.3068 18.6634C46.5589 18.7771 46.6029 18.9723 46.4861 19.303C46.3243 19.1863 46.1915 19.0908 45.9957 18.9499Z" fill="#171632"/>
<path d="M30.5722 18.6494C30.7159 18.6494 30.8342 18.6494 30.9779 18.6494C30.9779 18.7801 30.9779 18.8983 30.9779 19.0686C30.872 19.0777 30.7362 19.0893 30.5722 19.1032C30.5722 18.9525 30.5722 18.8343 30.5722 18.6494Z" fill="#171632"/>
<path d="M34.3567 7.13092C34.3567 6.9948 34.3567 6.89437 34.3567 6.74372C34.4875 6.73182 34.6229 6.71943 34.7874 6.7044C34.7874 6.85406 34.7874 6.97201 34.7874 7.13076C34.6617 7.13092 34.5096 7.13092 34.3567 7.13092Z" fill="#171632"/>
<path d="M32.6803 18.3312C32.5262 18.2806 32.3719 18.2301 32.0685 18.1308C32.2609 18.0064 32.3355 17.9334 32.4241 17.907C32.5359 17.8734 32.6589 17.8779 32.8327 17.8604C32.8327 17.9899 32.8327 18.0841 32.8327 18.1782C32.7819 18.2293 32.7312 18.2801 32.6803 18.3312Z" fill="#171632"/>
<path d="M39.0946 17.1082C38.8591 17.3571 38.7397 17.4833 38.6307 17.5986C38.39 17.4624 38.4176 17.3219 38.6961 16.959C38.7488 17.0089 38.799 17.0614 38.8552 17.1064C38.8705 17.1186 38.9039 17.1082 39.0946 17.1082Z" fill="#171632"/>
<path d="M41.1311 8.48433C40.9528 8.33103 40.8368 8.23127 40.6142 8.03982C40.8026 7.97011 40.9213 7.92615 41.0906 7.86338C41.2245 7.92483 41.2765 8.1181 41.1311 8.48433Z" fill="#171632"/>
<path d="M17.304 17.8142C17.3933 17.7041 17.4545 17.6287 17.5557 17.504C17.6951 17.6402 17.8169 17.7592 17.9264 17.866C17.7991 18.1028 17.6527 18.0768 17.304 17.8142Z" fill="#171632"/>
<path d="M39.3638 1.7531C39.3638 1.96999 39.3638 2.08776 39.3638 2.25625C39.2525 2.26434 39.1178 2.27393 38.9407 2.28682C38.8974 1.98138 39.0697 1.88756 39.3638 1.7531Z" fill="#171632"/>
<path d="M42.7642 12.343C42.7642 12.2257 42.7642 12.1083 42.7642 11.9507C42.8907 11.9507 43.0422 11.9507 43.3162 11.9507C43.1281 12.1567 43.0125 12.2832 42.8971 12.4097C42.8528 12.3874 42.8085 12.3651 42.7642 12.343Z" fill="#171632"/>
<path d="M33.7481 11.8903C33.6067 11.8903 33.4662 11.8903 33.319 11.8903C33.319 11.7367 33.319 11.6034 33.319 11.4443C33.6469 11.4658 33.7615 11.6295 33.7481 11.8903Z" fill="#171632"/>
<path d="M43.6334 12.3527C43.6334 12.5102 43.6334 12.6511 43.6334 12.7986C43.309 12.8979 43.2741 12.6552 43.1198 12.4246C43.3428 12.3934 43.4967 12.3719 43.6334 12.3527Z" fill="#171632"/>
<path d="M34.2104 19.2221C34.1872 18.9152 34.3486 18.8184 34.6382 18.7683C34.6483 18.9275 34.6567 19.0632 34.6666 19.2221C34.4976 19.2221 34.3627 19.2221 34.2104 19.2221Z" fill="#171632"/>
<path d="M45.4456 19.7141C45.5321 19.6084 45.6187 19.5027 45.706 19.396C45.8346 19.525 45.9556 19.6464 46.132 19.8233C45.8907 19.8399 45.7009 19.8527 45.511 19.8658C45.4892 19.8152 45.4673 19.7647 45.4456 19.7141Z" fill="#171632"/>
<path d="M28.6474 19.676C28.7578 19.4971 28.8291 19.3815 28.9483 19.1881C29.0221 19.327 29.0758 19.4279 29.1706 19.6065C29.1365 19.8738 28.8992 19.6645 28.6474 19.676Z" fill="#171632"/>
<path d="M44.1649 20.4453C43.9533 20.4453 43.8198 20.4453 43.6091 20.4453C43.7045 20.2661 43.7751 20.1331 43.8767 19.9422C43.9843 20.13 44.0594 20.261 44.1649 20.4453Z" fill="#171632"/>
<path d="M15.8298 14.5476C16.0663 14.5476 16.2173 14.5476 16.4383 14.5476C16.3324 14.7194 16.2611 14.835 16.16 14.9991C16.0501 14.8486 15.964 14.731 15.8298 14.5476Z" fill="#171632"/>
<path d="M13.3375 19.7393C13.5741 19.5632 13.7064 19.4649 13.8534 19.3554C13.8996 19.4676 13.943 19.5226 13.9299 19.5495C13.8383 19.7357 13.7533 19.9524 13.3375 19.7393Z" fill="#171632"/>
<path d="M30.462 15.1117C30.3373 15.2473 30.2705 15.32 30.1733 15.4255C30.0956 15.2879 30.0239 15.1609 29.9505 15.0306C30.0129 14.968 30.0847 14.8959 30.1442 14.8363C30.2341 14.9144 30.324 14.9922 30.462 15.1117Z" fill="#171632"/>
<path d="M31.9419 5.32311C32.2556 5.34128 32.3905 5.34905 32.5972 5.3611C32.4878 5.5438 32.4186 5.65944 32.3179 5.8281C32.2059 5.67778 32.1197 5.56214 31.9419 5.32311Z" fill="#171632"/>
<path d="M42.0921 6.67464C42.1797 7.06366 41.9514 7.10463 41.741 7.23976C41.6069 6.86048 41.7989 6.7683 42.0921 6.67464Z" fill="#171632"/>
<path d="M36.8212 4.62673C36.8212 4.41446 36.8212 4.28066 36.8212 4.06921C36.9999 4.16486 37.1325 4.23572 37.3229 4.33765C37.1356 4.44568 37.0052 4.52084 36.8212 4.62673Z" fill="#171632"/>
<path d="M33.1685 17.1484C33.0931 16.7622 33.3109 16.7125 33.5281 16.5874C33.6601 16.9604 33.468 17.0528 33.1685 17.1484Z" fill="#171632"/>
<path d="M39.7496 12.3283C39.8624 12.4707 39.9482 12.579 40.0932 12.762C39.8611 12.7952 39.718 12.8156 39.4626 12.8521C39.5902 12.6188 39.6633 12.4855 39.7496 12.3283Z" fill="#171632"/>
<path d="M30.7856 12.5482C30.9959 12.5482 31.1403 12.5482 31.3582 12.5482C31.2675 12.7174 31.2041 12.8356 31.0992 13.0314C30.9737 12.8381 30.8834 12.699 30.7856 12.5482Z" fill="#171632"/>
<path d="M44.0408 17.0847C43.9067 17.3187 43.8318 17.4496 43.7424 17.606C43.6319 17.4615 43.548 17.3518 43.4087 17.1693C43.638 17.1385 43.782 17.1194 44.0408 17.0847Z" fill="#171632"/>
<path d="M43.0848 6.15996C42.943 6.27295 42.8348 6.35917 42.6525 6.50453C42.6194 6.27178 42.5992 6.12824 42.5628 5.87186C42.7952 6.00022 42.9281 6.0734 43.0848 6.15996Z" fill="#171632"/>
<path d="M34.5869 9.86878C34.702 10.0554 34.7731 10.1709 34.8797 10.3437C34.6587 10.3437 34.5073 10.3437 34.2852 10.3437C34.3968 10.1681 34.4703 10.0523 34.5869 9.86878Z" fill="#171632"/>
<path d="M31.1154 9.25309C31.2573 9.13994 31.3654 9.05386 31.5478 8.9085C31.5809 9.14125 31.6012 9.28481 31.6376 9.54119C31.405 9.41283 31.2722 9.33965 31.1154 9.25309Z" fill="#171632"/>
<path d="M42.6692 13.1101C42.5352 13.344 42.4603 13.475 42.3707 13.6313C42.2602 13.4868 42.1763 13.3771 42.037 13.1945C42.2663 13.164 42.4105 13.1447 42.6692 13.1101Z" fill="#171632"/>
<path d="M32.0336 11.9295C32.1171 11.8201 32.2008 11.7108 32.2943 11.5882C32.3913 11.7061 32.4781 11.8115 32.6275 11.9931C32.3946 12.0284 32.2523 12.0499 32.1102 12.0715C32.0847 12.0243 32.0591 11.9769 32.0336 11.9295Z" fill="#171632"/>
<path d="M26.4315 14.3227C26.4315 14.2297 26.4315 14.179 26.4315 14.0781C26.5647 14.0675 26.7018 14.0566 26.9378 14.038C26.8371 14.2461 26.7713 14.3825 26.7018 14.5264C26.5946 14.4458 26.5211 14.3903 26.4315 14.3227Z" fill="#171632"/>
<path d="M19.7136 18.2933C19.8211 18.3791 19.9286 18.4648 20.0489 18.5604C19.9293 18.6556 19.8213 18.7418 19.639 18.8872C19.6059 18.6544 19.5856 18.5109 19.5652 18.3673C19.6146 18.3427 19.6642 18.3179 19.7136 18.2933Z" fill="#171632"/>
<path d="M29.0343 12.2543C28.9268 12.1685 28.8193 12.0828 28.6991 11.987C28.8186 11.8917 28.9268 11.8056 29.1091 11.6602C29.1422 11.893 29.1625 12.0365 29.1829 12.1801C29.1335 12.2049 29.0839 12.2295 29.0343 12.2543Z" fill="#171632"/>
<path d="M34.2439 13.1335C34.3303 13.1335 34.3802 13.1335 34.4795 13.1335C34.4909 13.265 34.5027 13.4008 34.5162 13.5556C34.4219 13.5747 34.3537 13.5886 34.2439 13.6109C34.2439 13.4393 34.2439 13.2865 34.2439 13.1335Z" fill="#171632"/>
<path d="M43.3283 13.0644C43.4668 13.0313 43.6053 12.9981 43.7665 12.9596C43.7884 13.0683 43.8023 13.1367 43.8245 13.2469C43.6536 13.2469 43.5011 13.2469 43.3487 13.2469C43.342 13.1859 43.3352 13.1252 43.3283 13.0644Z" fill="#171632"/>
<path d="M36.809 10.2023C36.809 10.1121 36.809 10.0442 36.809 9.94969C36.954 9.94969 37.0896 9.94969 37.2497 9.94969C37.2635 10.3772 36.9972 10.1892 36.809 10.2023Z" fill="#171632"/>
<path d="M40.6054 12.3692C40.4616 12.3692 40.3178 12.3692 40.1612 12.3692C40.1612 12.2504 40.1612 12.1822 40.1612 12.0634C40.3178 12.0634 40.4616 12.0634 40.6054 12.0634C40.6054 12.1653 40.6054 12.2673 40.6054 12.3692Z" fill="#171632"/>
<path d="M36.5894 17.9936C36.7019 18.0648 36.8163 18.1373 37.0072 18.258C36.8689 18.3282 36.7676 18.3796 36.6782 18.425C36.6243 18.3449 36.3509 18.2666 36.5894 17.9936Z" fill="#171632"/>
<path d="M38.3366 6.35115C38.347 6.36965 38.4211 6.5018 38.5855 6.79517C38.2895 6.66599 38.1583 6.60884 37.905 6.49833C38.1103 6.42829 38.2235 6.3898 38.3366 6.35115Z" fill="#171632"/>
<path d="M29.244 11.1256C29.2769 11.2646 29.31 11.4035 29.3484 11.5652C29.24 11.5872 29.1719 11.6011 29.062 11.6234C29.062 11.4517 29.062 11.2989 29.062 11.146C29.1228 11.1394 29.1834 11.1326 29.244 11.1256Z" fill="#171632"/>
<path d="M10.6941 18.1784C10.6076 18.1784 10.5577 18.1784 10.4584 18.1784C10.4471 18.047 10.4352 17.9112 10.4217 17.7564C10.5161 17.7372 10.5843 17.7233 10.6941 17.701C10.6941 17.8725 10.6941 18.0255 10.6941 18.1784Z" fill="#171632"/>
<path d="M23.8266 9.36326C23.9707 9.27141 24.085 9.19856 24.1973 9.12687C24.4389 9.3991 24.1645 9.47756 24.0687 9.62078C24.0013 9.54925 23.9354 9.47906 23.8266 9.36326Z" fill="#171632"/>
<path d="M20.3351 14.3168C20.3351 14.2301 20.3351 14.18 20.3351 14.0804C20.4662 14.069 20.6016 14.0571 20.7559 14.0437C20.775 14.1384 20.7888 14.2068 20.8111 14.317C20.64 14.3168 20.4876 14.3168 20.3351 14.3168Z" fill="#171632"/>
<path d="M36.7929 7.13767C36.7056 7.20556 36.6331 7.26173 36.5475 7.32831C36.4653 7.21333 36.3836 7.09885 36.2866 6.96306C36.6172 6.75558 36.6871 7.00453 36.7929 7.13767Z" fill="#171632"/>
<path d="M33.2125 13.1323C33.143 13.0626 33.0745 12.9939 32.9791 12.8983C33.1035 12.8095 33.2225 12.7245 33.3433 12.6382C33.573 12.9184 33.3116 12.9967 33.2125 13.1323Z" fill="#171632"/>
<path d="M40.5916 7.0453C40.5916 7.13549 40.5916 7.20337 40.5916 7.29786C40.4465 7.29786 40.311 7.29786 40.1509 7.29786C40.1371 6.87019 40.4034 7.05835 40.5916 7.0453Z" fill="#171632"/>
<path d="M27.2709 14.9894C27.1391 14.9175 27.0076 14.8455 26.8537 14.7616C26.957 14.6721 27.0293 14.6095 27.1321 14.5204C27.2109 14.6271 27.2969 14.7436 27.3829 14.8599C27.3456 14.9032 27.3083 14.9463 27.2709 14.9894Z" fill="#171632"/>
<path d="M33.9199 19.3221C33.8495 19.4539 33.7791 19.5857 33.6933 19.7464C33.6045 19.6397 33.5439 19.5669 33.456 19.4615C33.5589 19.3842 33.6738 19.298 33.7888 19.2116C33.8326 19.2486 33.8762 19.2852 33.9199 19.3221Z" fill="#171632"/>
<path d="M23.2044 16.7886C23.1145 16.7886 23.0468 16.7886 22.9526 16.7886C22.9526 16.6431 22.9526 16.5073 22.9526 16.3466C23.3788 16.3327 23.1914 16.6 23.2044 16.7886Z" fill="#171632"/>
<path d="M7.22831 20.7375C7.22831 20.6508 7.22831 20.6007 7.22831 20.5011C7.3594 20.4897 7.49477 20.4779 7.64908 20.4645C7.66818 20.5591 7.68201 20.6275 7.70424 20.7377C7.53314 20.7375 7.38081 20.7375 7.22831 20.7375Z" fill="#171632"/>
<path d="M36.3643 15.2874C36.4584 15.2874 36.5262 15.2874 36.6163 15.2874C36.6163 15.4371 36.6163 15.573 36.6163 15.7186C36.5221 15.7186 36.4544 15.7186 36.3643 15.7186C36.3643 15.5689 36.3643 15.433 36.3643 15.2874Z" fill="#171632"/>
<path d="M14.8282 19.4806C14.8985 19.3488 14.969 19.217 15.0548 19.0563C15.1436 19.163 15.2042 19.2358 15.2921 19.3412C15.1892 19.4185 15.0742 19.5048 14.9593 19.5912C14.9155 19.5542 14.8718 19.5175 14.8282 19.4806Z" fill="#171632"/>
<path d="M19.8576 16.7289C19.9279 16.5971 19.9984 16.4652 20.0842 16.3045C20.1729 16.4111 20.2335 16.4841 20.3215 16.5895C20.2186 16.6668 20.1036 16.753 19.9887 16.8394C19.9449 16.8026 19.9012 16.7657 19.8576 16.7289Z" fill="#171632"/>
<path d="M43.4748 20.6105C43.3806 20.6105 43.3129 20.6105 43.2228 20.6105C43.2228 20.4608 43.2228 20.3249 43.2228 20.1793C43.317 20.1793 43.3847 20.1793 43.4748 20.1793C43.4748 20.3292 43.4748 20.465 43.4748 20.6105Z" fill="#171632"/>
<path d="M27.6126 20.4179C27.5208 20.3569 27.4202 20.2897 27.2819 20.1977C27.3953 20.0637 27.4818 19.9615 27.6126 19.807C27.6126 20.069 27.6126 20.2702 27.6126 20.4179Z" fill="#171632"/>
<path d="M40.6486 10.2426C40.9236 10.2426 41.0406 10.2426 41.2644 10.2426C41.1343 10.3803 41.0518 10.4676 40.9256 10.6012C40.8418 10.4928 40.7817 10.415 40.6486 10.2426Z" fill="#171632"/>
<path d="M27.8759 19.3475C27.7236 19.3755 27.639 19.3911 27.5234 19.4124C27.5234 19.2403 27.5234 19.1056 27.5234 18.8635C27.6683 19.0625 27.7541 19.1803 27.8759 19.3475Z" fill="#171632"/>
<path d="M27.4181 18.0215C27.3481 17.9513 27.278 17.8809 27.1983 17.8011C27.261 17.7337 27.3241 17.6658 27.3872 17.5983C27.6488 17.8183 27.6488 17.8183 27.4181 18.0215Z" fill="#171632"/>
<path d="M24.5633 16.5336C24.6072 16.5777 24.679 16.6497 24.7596 16.7305C24.6848 16.7962 24.6099 16.8621 24.5216 16.9398C24.4643 16.8868 24.3958 16.8233 24.269 16.7059C24.3706 16.6462 24.4669 16.5899 24.5633 16.5336Z" fill="#171632"/>
<path d="M41.002 16.4237C41.0344 16.5733 41.0527 16.6572 41.0784 16.7752C40.9066 16.7752 40.7724 16.7752 40.5323 16.7752C40.7233 16.6323 40.8388 16.5459 41.002 16.4237Z" fill="#171632"/>
<path d="M18.4273 16.9195C18.4902 17.022 18.5533 17.1244 18.6251 17.2413C18.5218 17.2479 18.3871 17.2565 18.1805 17.2696C18.2167 17.1267 18.2401 17.0342 18.2635 16.9415C18.318 16.9343 18.3726 16.9268 18.4273 16.9195Z" fill="#171632"/>
<path d="M32.3753 15.121C32.3094 15.2199 32.2436 15.3189 32.1667 15.4342C32.0856 15.3592 32.0183 15.2969 31.9104 15.1971C32.0209 15.1162 32.1219 15.0422 32.2228 14.968C32.2737 15.019 32.3246 15.0699 32.3753 15.121Z" fill="#171632"/>
<path d="M39.7277 3.84795C39.7716 3.80384 39.8434 3.73182 39.924 3.65104C39.9895 3.72604 40.0552 3.80121 40.1326 3.88975C40.0798 3.94724 40.0165 4.01595 39.8994 4.14314C39.8402 4.04122 39.784 3.94459 39.7277 3.84795Z" fill="#171632"/>
<path d="M38.3292 14.6868C38.3091 14.8019 38.2943 14.8869 38.2673 15.0406C38.0995 14.9184 37.9815 14.8327 37.7813 14.6868C38.0235 14.6868 38.1578 14.6868 38.3292 14.6868Z" fill="#171632"/>
<path d="M20.7249 20.739C20.894 20.6054 21.0029 20.5195 21.1577 20.3972C21.2112 20.5353 21.242 20.6143 21.2904 20.739C21.0958 20.739 20.9441 20.739 20.7249 20.739Z" fill="#171632"/>
<path d="M42.1346 15.1991C42.0315 15.2946 41.9629 15.358 41.9056 15.411C41.8174 15.3334 41.7426 15.2675 41.6677 15.2017C41.7482 15.1209 41.82 15.0489 41.8972 14.9714C41.9676 15.0387 42.0379 15.1062 42.1346 15.1991Z" fill="#171632"/>
<path d="M25.3252 15.3105C25.3691 15.3547 25.4409 15.4267 25.5215 15.5075C25.4467 15.5732 25.3718 15.6391 25.2835 15.7168C25.2262 15.6637 25.1577 15.6003 25.031 15.4829C25.1325 15.4234 25.2288 15.367 25.3252 15.3105Z" fill="#171632"/>
<path d="M37.5245 9.43727C37.3903 9.43727 37.2561 9.43727 37.1136 9.43727C37.1136 9.34262 37.1136 9.27538 37.1136 9.12637C37.2889 9.20715 37.4221 9.26861 37.5553 9.33006C37.5449 9.36574 37.5347 9.40143 37.5245 9.43727Z" fill="#171632"/>
<path d="M32.5414 12.7845C32.5414 12.5086 32.5414 12.3913 32.5414 12.1668C32.6788 12.2973 32.7657 12.3801 32.8989 12.5066C32.7911 12.5905 32.7137 12.6507 32.5414 12.7845Z" fill="#171632"/>
<path d="M26.1005 12.7508C25.9567 12.5556 25.8706 12.4388 25.7489 12.2736C25.8994 12.2432 25.9839 12.2263 26.1005 12.2027C26.1005 12.375 26.1005 12.5096 26.1005 12.7508Z" fill="#171632"/>
<path d="M41.841 12.1065C42.1035 12.0819 42.2346 12.0697 42.4286 12.0515C42.4161 12.1787 42.4064 12.2763 42.3904 12.4389C42.2045 12.3264 42.0808 12.2515 41.841 12.1065Z" fill="#171632"/>
<path d="M34.6738 15.8691C34.6511 16.0209 34.6384 16.1058 34.6167 16.251C34.4528 16.1504 34.3372 16.0794 34.1241 15.9486C34.3573 15.9149 34.4902 15.8957 34.6738 15.8691Z" fill="#171632"/>
<path d="M27.5229 16.1101C27.6683 16.311 27.7538 16.4293 27.8756 16.5976C27.7223 16.6245 27.6376 16.6395 27.5229 16.6597C27.5229 16.4876 27.5229 16.353 27.5229 16.1101Z" fill="#171632"/>
<path d="M43.0882 10.1142C43.0365 10.2409 43.0044 10.3195 42.9486 10.4558C42.7962 10.3324 42.6897 10.2462 42.5266 10.1142C42.7406 10.1142 42.8922 10.1142 43.0882 10.1142Z" fill="#171632"/>
<path d="M42.6129 20.0576C42.7437 20.3123 42.8066 20.4349 42.8829 20.5837C42.8132 20.5976 42.7292 20.6143 42.6129 20.6373C42.6129 20.4656 42.6129 20.331 42.6129 20.0576Z" fill="#171632"/>
<path d="M29.4815 13.1468C29.5996 13.1468 29.6671 13.1468 29.7533 13.1468C29.7681 13.2244 29.7811 13.2926 29.7962 13.3718C29.594 13.4902 29.4682 13.4877 29.4815 13.1468Z" fill="#171632"/>
<path d="M30.2284 16.04C30.2284 16.1585 30.2284 16.226 30.2284 16.3126C30.151 16.3275 30.083 16.3405 30.0041 16.3555C29.8861 16.1529 29.8884 16.0266 30.2284 16.04Z" fill="#171632"/>
<path d="M41.8246 15.6197C41.8246 15.7057 41.8246 15.7554 41.8246 15.8413C41.7476 15.8575 41.6632 15.875 41.5572 15.8973C41.5371 15.798 41.5234 15.73 41.5012 15.6198C41.6214 15.6197 41.723 15.6197 41.8246 15.6197Z" fill="#171632"/>
<path d="M40.4803 20.5755C40.2855 20.3801 40.2169 20.3112 40.1482 20.2421C40.2169 20.1732 40.2857 20.1042 40.4011 19.9884C40.4249 20.1638 40.4431 20.2993 40.4803 20.5755Z" fill="#171632"/>
<path d="M15.1533 17.6797C15.1533 17.5936 15.1533 17.5439 15.1533 17.458C15.2304 17.4418 15.3147 17.4243 15.4207 17.402C15.4408 17.5015 15.4545 17.5694 15.4767 17.6797C15.3565 17.6797 15.2549 17.6797 15.1533 17.6797Z" fill="#171632"/>
<path d="M0.493725 20.7835C0.332498 20.7722 0.198446 20.7628 0 20.7491C0.132572 20.6336 0.204531 20.571 0.324587 20.4664C0.368558 20.5489 0.421758 20.6487 0.493725 20.7835Z" fill="#171632"/>
<path d="M34.3568 15.1609C34.3568 15.247 34.3568 15.2967 34.3568 15.3826C34.2797 15.3988 34.1954 15.4163 34.0894 15.4386C34.0693 15.3393 34.0556 15.2713 34.0334 15.1611C34.1536 15.1609 34.2552 15.1609 34.3568 15.1609Z" fill="#171632"/>
<path d="M37.5429 14.8551C37.3583 15.0063 37.2745 15.075 37.1467 15.1797C37.1172 15.0334 37.1034 14.9655 37.0812 14.8551C37.2016 14.8551 37.3032 14.8551 37.5429 14.8551Z" fill="#171632"/>
<path d="M40.6674 9.79324C40.5834 9.72452 40.4996 9.6558 40.342 9.52662C40.532 9.49077 40.617 9.47473 40.7226 9.45491C40.7417 9.55518 40.7547 9.62358 40.7677 9.69181C40.7341 9.72567 40.7006 9.75954 40.6674 9.79324Z" fill="#171632"/>
<path d="M40.188 4.87838C40.2738 4.87838 40.3234 4.87838 40.409 4.87838C40.4252 4.95569 40.4426 5.04027 40.4647 5.14666C40.3657 5.16681 40.2979 5.18051 40.188 5.20281C40.188 5.08223 40.188 4.98031 40.188 4.87838Z" fill="#171632"/>
<path d="M21.3115 19.1185C21.2275 19.0498 21.1437 18.9811 20.9861 18.8519C21.1761 18.8161 21.2611 18.8002 21.3665 18.7802C21.3856 18.8805 21.3986 18.9489 21.4118 19.0171C21.3783 19.0511 21.3449 19.0848 21.3115 19.1185Z" fill="#171632"/>
<path d="M40.6114 9.16489C40.5136 9.1573 40.4227 9.15003 40.3219 9.14227C40.3142 9.05042 40.3086 8.98402 40.3002 8.88227C40.3924 8.87202 40.4755 8.86293 40.5872 8.85071C40.5967 8.97559 40.6038 9.06694 40.6114 9.16489Z" fill="#171632"/>
<path d="M33.4423 8.58734C33.4423 8.6734 33.4423 8.72313 33.4423 8.80903C33.3652 8.82522 33.2809 8.84273 33.1748 8.86503C33.1547 8.76558 33.141 8.69768 33.1188 8.58734C33.239 8.58734 33.3406 8.58734 33.4423 8.58734Z" fill="#171632"/>
<path d="M37.724 17.9853C37.9086 17.8341 37.9924 17.7654 38.1201 17.6608C38.1495 17.807 38.1634 17.8751 38.1856 17.9853C38.0654 17.9853 37.9638 17.9853 37.724 17.9853Z" fill="#171632"/>
<path d="M37.3649 6.10125C37.2791 6.10125 37.2295 6.10125 37.1439 6.10125C37.1277 6.02394 37.1103 5.93938 37.0881 5.833C37.187 5.81285 37.2549 5.79912 37.3647 5.77682C37.3649 5.89741 37.3649 5.99933 37.3649 6.10125Z" fill="#171632"/>
<path d="M29.951 7.89566C30.1356 7.74451 30.2194 7.6758 30.3472 7.57123C30.3767 7.71743 30.3905 7.78548 30.4128 7.89566C30.2925 7.89566 30.1909 7.89566 29.951 7.89566Z" fill="#171632"/>
<path d="M40.4531 0.863571C40.4531 0.777508 40.4531 0.727779 40.4531 0.641881C40.5302 0.625692 40.6145 0.608184 40.7206 0.585883C40.7406 0.685162 40.7543 0.753209 40.7766 0.86339C40.6563 0.863555 40.5547 0.863571 40.4531 0.863571Z" fill="#171632"/>
<path d="M28.5653 10.4947C28.5653 10.4086 28.5653 10.3589 28.5653 10.273C28.6423 10.2568 28.7267 10.2393 28.8327 10.217C28.8528 10.3164 28.8665 10.3843 28.8889 10.4947C28.7685 10.4947 28.6669 10.4947 28.5653 10.4947Z" fill="#171632"/>
<path d="M43.9603 17.5799C44.0784 17.5799 44.1457 17.5799 44.232 17.5799C44.2468 17.6576 44.2599 17.7258 44.275 17.8049C44.0726 17.9235 43.9468 17.9211 43.9603 17.5799Z" fill="#171632"/>
<path d="M32.9722 16.9928C32.9722 17.0769 32.9722 17.1438 32.9722 17.2358C32.8753 17.2358 32.7915 17.2358 32.5227 17.2358C32.7572 17.1091 32.8562 17.0556 32.9722 16.9928Z" fill="#171632"/>
<path d="M41.6509 18.4964C41.7906 18.4964 41.8573 18.4964 41.9013 18.4964C41.8477 18.5777 41.7858 18.6716 41.7055 18.7935C41.6878 18.6972 41.6755 18.6298 41.6509 18.4964Z" fill="#171632"/>
<path d="M19.2807 16.5181C19.2807 16.378 19.2807 16.3111 19.2807 16.2671C19.3617 16.3208 19.4551 16.3828 19.5768 16.4632C19.4809 16.4811 19.4136 16.4935 19.2807 16.5181Z" fill="#171632"/>
<path d="M25.3895 19.1426C25.3775 18.9856 25.3724 18.9202 25.363 18.7983C25.4785 18.8077 25.576 18.8155 25.7182 18.8271C25.5956 18.945 25.5203 19.0172 25.3895 19.1426Z" fill="#171632"/>
<path d="M36.7571 12.104C36.8857 12.0794 36.9529 12.0667 37.0532 12.0476C37.0726 12.1402 37.0902 12.2243 37.1442 12.4815C36.9526 12.2947 36.8738 12.2178 36.7571 12.104Z" fill="#171632"/>
<path d="M44.8348 11.7576C44.8348 11.9104 44.8348 12.0634 44.8348 12.2162C44.8094 12.2162 44.7839 12.2162 44.7585 12.2162C44.7585 12.0634 44.7585 11.9104 44.7585 11.7576C44.784 11.7576 44.8094 11.7576 44.8348 11.7576Z" fill="#171632"/>
<path d="M31.5051 11.8478C31.5521 11.7725 31.6107 11.6783 31.7059 11.5254C31.7352 11.896 31.7352 11.896 31.5051 11.8478Z" fill="#171632"/>
<path d="M33.3609 9.35683C33.2871 9.23822 33.2285 9.14407 33.1582 9.03125C33.3523 8.99706 33.5341 8.9498 33.3609 9.35683Z" fill="#171632"/>
<path d="M38.5045 9.10326C38.3983 9.13002 38.3171 9.15033 38.1981 9.18023C38.1854 9.06658 38.1762 8.98432 38.1531 8.77816C38.3147 8.92766 38.3942 9.00117 38.5045 9.10326Z" fill="#171632"/>
<path d="M41.7103 8.35383C41.5817 8.37845 41.5147 8.39115 41.4142 8.41032C41.3948 8.31764 41.3772 8.23374 41.3231 7.97637C41.5148 8.1632 41.5937 8.24002 41.7103 8.35383Z" fill="#171632"/>
<path d="M30.5488 20.7469C30.4006 20.7539 30.2525 20.761 30.1043 20.7681C30.1012 20.7341 30.0981 20.7 30.0951 20.6658C30.2448 20.6462 30.3945 20.6265 30.5442 20.6069C30.5457 20.6536 30.5473 20.7004 30.5488 20.7469Z" fill="#171632"/>
<path d="M21.847 14.6409C21.847 14.781 21.847 14.8479 21.847 14.8919C21.766 14.8382 21.6724 14.7762 21.5509 14.6956C21.6469 14.6779 21.7141 14.6655 21.847 14.6409Z" fill="#171632"/>
<path d="M19.702 20.7509C19.5671 20.7509 19.4322 20.7509 19.2973 20.7509C19.2947 20.725 19.2919 20.6992 19.2893 20.6733C19.4223 20.6539 19.5556 20.6348 19.6886 20.6155C19.6931 20.6606 19.6975 20.7057 19.702 20.7509Z" fill="#171632"/>
<path d="M33.8995 18.2931C33.7979 18.2931 33.6963 18.2931 33.5946 18.2931C33.5946 18.2676 33.5946 18.242 33.5946 18.2166C33.6963 18.2166 33.7979 18.2166 33.8995 18.2166C33.8995 18.242 33.8995 18.2675 33.8995 18.2931Z" fill="#171632"/>
<path d="M25.4909 17.442C25.4909 17.5266 25.4909 17.611 25.4909 17.6955C25.4659 17.699 25.4408 17.7025 25.4158 17.7058C25.3974 17.6207 25.3788 17.5355 25.3603 17.4504C25.404 17.4476 25.4474 17.4448 25.4909 17.442Z" fill="#171632"/>
<path d="M31.4373 20.0774C31.49 19.8913 31.5162 19.7992 31.5423 19.7071C31.5661 19.7783 31.5978 19.8483 31.6082 19.9213C31.6113 19.9431 31.5539 19.9735 31.4373 20.0774Z" fill="#171632"/>
<path d="M45.9154 17.3878C45.8311 17.3878 45.7469 17.3878 45.6626 17.3878C45.6587 17.3635 45.6549 17.3394 45.6509 17.3151C45.7336 17.2953 45.8163 17.2755 45.8989 17.2558C45.9044 17.2999 45.91 17.3439 45.9154 17.3878Z" fill="#171632"/>
<path d="M29.9109 17.8968C29.9109 17.9814 29.9109 18.0658 29.9109 18.1504C29.8867 18.1543 29.8627 18.1581 29.8385 18.1621C29.8187 18.0792 29.7989 17.9963 29.7793 17.9133C29.8231 17.9079 29.8671 17.9022 29.9109 17.8968Z" fill="#171632"/>
<path d="M23.2551 18.5101C23.3394 18.5101 23.4235 18.5101 23.5079 18.5101C23.5118 18.5344 23.5158 18.5585 23.5196 18.5828C23.4369 18.6026 23.3542 18.6224 23.2715 18.6421C23.2661 18.5982 23.2605 18.5542 23.2551 18.5101Z" fill="#171632"/>
<path d="M37.9865 18.6108C37.9022 18.6108 37.818 18.6108 37.7337 18.6108C37.7303 18.5857 37.7268 18.5606 37.7235 18.5355C37.8083 18.517 37.8933 18.4985 37.9781 18.4798C37.9809 18.5236 37.9837 18.5672 37.9865 18.6108Z" fill="#171632"/>
<path d="M43.2243 6.12737C43.3086 6.12737 43.3928 6.12737 43.4771 6.12737C43.4805 6.15248 43.484 6.17757 43.4873 6.20268C43.4025 6.22118 43.3175 6.23985 43.2327 6.25836C43.2299 6.21475 43.2271 6.17098 43.2243 6.12737Z" fill="#171632"/>
<path d="M38.191 1.38841C38.2753 1.38841 38.3595 1.38841 38.4438 1.38841C38.4477 1.4127 38.4517 1.4368 38.4555 1.46109C38.3728 1.48091 38.2901 1.50073 38.2074 1.52039C38.2018 1.47645 38.1964 1.43235 38.191 1.38841Z" fill="#171632"/>
<path d="M39.8693 13.415C39.8693 13.3304 39.8693 13.246 39.8693 13.1614C39.8935 13.1575 39.9176 13.1535 39.9418 13.1497C39.9615 13.2327 39.9813 13.3156 40.0009 13.3985C39.9571 13.4039 39.9131 13.4096 39.8693 13.415Z" fill="#171632"/>
<path d="M43.9304 20.7511C43.8461 20.7511 43.7619 20.7511 43.6776 20.7511C43.6742 20.726 43.6707 20.7009 43.6674 20.6758C43.7522 20.6573 43.8372 20.6388 43.922 20.6201C43.9248 20.6639 43.9276 20.7075 43.9304 20.7511Z" fill="#171632"/>
<path d="M34.9941 11.478C35.0784 11.478 35.1626 11.478 35.2469 11.478C35.2504 11.5031 35.2538 11.5282 35.2571 11.5533C35.1723 11.5718 35.0873 11.5903 35.0025 11.609C34.9997 11.5652 34.9969 11.5216 34.9941 11.478Z" fill="#171632"/>
<path d="M25.7979 11.273C25.7136 11.273 25.6294 11.273 25.5451 11.273C25.5412 11.2487 25.5372 11.2246 25.5334 11.2003C25.6161 11.1805 25.6988 11.1607 25.7815 11.141C25.7869 11.1848 25.7923 11.2289 25.7979 11.273Z" fill="#171632"/>
<path d="M30.5847 10.2289C30.5847 10.127 30.5847 10.025 30.5847 9.92313C30.6101 9.92313 30.6354 9.92313 30.6609 9.92313C30.6609 10.025 30.6609 10.127 30.6609 10.2289C30.6356 10.2289 30.6101 10.2289 30.5847 10.2289Z" fill="#171632"/>
<path d="M34.3808 8.42049C34.4651 8.42049 34.5493 8.42049 34.6336 8.42049C34.6376 8.44477 34.6415 8.46906 34.6453 8.49318C34.5626 8.513 34.48 8.53281 34.3973 8.55247C34.3919 8.50852 34.3864 8.46443 34.3808 8.42049Z" fill="#171632"/>
<path d="M11.0385 19.758C11.0892 19.758 11.1401 19.758 11.1908 19.758C11.1908 19.775 11.1908 19.792 11.1908 19.809C11.1401 19.809 11.0892 19.809 11.0385 19.809C11.0385 19.792 11.0385 19.775 11.0385 19.758Z" fill="#171632"/>
<path d="M13.9343 20.6752C13.985 20.6752 14.0359 20.6752 14.0866 20.6752C14.0866 20.6922 14.0866 20.7092 14.0866 20.7263C14.0359 20.7263 13.985 20.7263 13.9343 20.7263C13.9343 20.7092 13.9343 20.6922 13.9343 20.6752Z" fill="#171632"/>
<path d="M8.19351 20.6244C8.19351 20.5734 8.19351 20.5225 8.19351 20.4716C8.21047 20.4716 8.22744 20.4716 8.24424 20.4716C8.24424 20.5226 8.24424 20.5735 8.24424 20.6244C8.22744 20.6244 8.21047 20.6244 8.19351 20.6244Z" fill="#171632"/>
<path d="M44.1617 19.707C44.1617 19.6561 44.1617 19.6051 44.1617 19.5542C44.1787 19.5542 44.1955 19.5542 44.2124 19.5542C44.2124 19.6053 44.2124 19.6561 44.2124 19.707C44.1955 19.707 44.1787 19.707 44.1617 19.707Z" fill="#171632"/>
<path d="M14.5946 20.0128C14.5946 19.9618 14.5946 19.9109 14.5946 19.86C14.6115 19.86 14.6285 19.86 14.6453 19.86C14.6453 19.9111 14.6453 19.962 14.6453 20.0128C14.6283 20.0128 14.6115 20.0128 14.5946 20.0128Z" fill="#171632"/>
<path d="M22.3673 20.7771C22.3673 20.7262 22.3673 20.6752 22.3673 20.6243C22.3843 20.6243 22.4013 20.6243 22.4181 20.6243C22.4181 20.6754 22.4181 20.7262 22.4181 20.7771C22.4013 20.7771 22.3843 20.7771 22.3673 20.7771Z" fill="#171632"/>
<path d="M42.79 3.80831C42.79 3.75744 42.79 3.70639 42.79 3.65535C42.807 3.65535 42.8239 3.65535 42.8409 3.65535C42.8409 3.70639 42.8409 3.75727 42.8409 3.80831C42.8239 3.80831 42.807 3.80831 42.79 3.80831Z" fill="#171632"/>
<path d="M42.9932 4.11409C42.9932 4.16514 42.9932 4.216 42.9932 4.26704C42.9762 4.26704 42.9593 4.26704 42.9425 4.26704C42.9425 4.21616 42.9425 4.16514 42.9425 4.11409C42.9593 4.11409 42.9762 4.11409 42.9932 4.11409Z" fill="#171632"/>
<path d="M36.8714 5.90799C36.9309 5.90799 36.9791 5.89186 36.9791 5.87198C36.9791 5.85209 36.9309 5.83596 36.8714 5.83596C36.8119 5.83596 36.7637 5.85209 36.7637 5.87198C36.7637 5.89186 36.8119 5.90799 36.8714 5.90799Z" fill="#171632"/>
<path d="M42.9422 7.17134C42.9422 7.12046 42.9422 7.06943 42.9422 7.01855C42.9592 7.01855 42.9761 7.01855 42.9929 7.01855C42.9929 7.06943 42.9929 7.12046 42.9929 7.17134C42.9761 7.17134 42.9592 7.17134 42.9422 7.17134Z" fill="#171632"/>
<path d="M22.9769 9.15879C22.9769 9.10791 22.9769 9.05688 22.9769 9.006C22.9939 9.006 23.0109 9.006 23.0277 9.006C23.0277 9.05688 23.0277 9.10791 23.0277 9.15879C23.0109 9.15879 22.9939 9.15879 22.9769 9.15879Z" fill="#171632"/>
<path d="M36.8714 15.3862C36.9309 15.3862 36.9791 15.3701 36.9791 15.3502C36.9791 15.3303 36.9309 15.3142 36.8714 15.3142C36.8119 15.3142 36.7637 15.3303 36.7637 15.3502C36.7637 15.3701 36.8119 15.3862 36.8714 15.3862Z" fill="#171632"/>
<path d="M27.1427 16.8024C27.1427 16.8534 27.1427 16.9043 27.1427 16.9552C27.1258 16.9552 27.1088 16.9552 27.092 16.9552C27.092 16.9043 27.092 16.8532 27.092 16.8024C27.1088 16.8024 27.1258 16.8024 27.1427 16.8024Z" fill="#171632"/>
<path d="M43.6026 16.8024C43.6026 16.8534 43.6026 16.9043 43.6026 16.9552C43.5856 16.9552 43.5688 16.9552 43.5518 16.9552C43.5518 16.9043 43.5518 16.8532 43.5518 16.8024C43.5688 16.8024 43.5858 16.8024 43.6026 16.8024Z" fill="#171632"/>
<path d="M30.9022 17.1082C30.9022 17.0571 30.9022 17.0062 30.9022 16.9552C30.9191 16.9552 30.9361 16.9552 30.9529 16.9552C30.9529 17.0062 30.9529 17.0571 30.9529 17.1082C30.9361 17.1082 30.9191 17.1082 30.9022 17.1082Z" fill="#171632"/>
<path d="M28.5144 17.1082C28.5144 17.159 28.5144 17.2101 28.5144 17.2609C28.4975 17.2609 28.4805 17.2609 28.4637 17.2609C28.4637 17.2099 28.4637 17.159 28.4637 17.1082C28.4805 17.1082 28.4975 17.1082 28.5144 17.1082Z" fill="#171632"/>
<path d="M41.2012 17.4299C41.1597 17.3944 41.1182 17.3589 41.0767 17.3234C41.0927 17.3073 41.1089 17.2913 41.1248 17.2751C41.1602 17.3168 41.1956 17.3584 41.2311 17.4C41.2212 17.4101 41.2111 17.42 41.2012 17.4299Z" fill="#171632"/>
<path d="M16.2203 17.6178C16.2712 17.6178 16.3219 17.6178 16.3726 17.6178C16.3726 17.6348 16.3726 17.6518 16.3726 17.6688C16.3219 17.6688 16.271 17.6688 16.2203 17.6688C16.2203 17.6518 16.2203 17.6348 16.2203 17.6178Z" fill="#171632"/>
<path d="M13.1721 18.7389C13.1214 18.7389 13.0705 18.7389 13.0198 18.7389C13.0198 18.7219 13.0198 18.7049 13.0198 18.6879C13.0705 18.6879 13.1214 18.6879 13.1721 18.6879C13.1721 18.7049 13.1721 18.7219 13.1721 18.7389Z" fill="#171632"/>
<path d="M29.378 19.0956C29.378 19.0445 29.378 18.9937 29.378 18.9428C29.395 18.9428 29.4119 18.9428 29.4287 18.9428C29.4287 18.9937 29.4287 19.0447 29.4287 19.0956C29.4118 19.0956 29.395 19.0956 29.378 19.0956Z" fill="#171632"/>
<path d="M32.6295 19.2484C32.6295 19.2993 32.6295 19.3504 32.6295 19.4013C32.6125 19.4013 32.5956 19.4013 32.5788 19.4013C32.5788 19.3504 32.5788 19.2993 32.5788 19.2484C32.5956 19.2484 32.6125 19.2484 32.6295 19.2484Z" fill="#171632"/>
<path d="M40.6192 9.14273C40.6607 9.17824 40.7022 9.21376 40.7437 9.24928C40.7277 9.2653 40.7115 9.28132 40.6956 9.29751C40.6602 9.25588 40.6248 9.21426 40.5893 9.17263C40.5992 9.16272 40.6093 9.1528 40.6192 9.14273Z" fill="#171632"/>
<path d="M28.1081 11.9615C28.1589 11.9615 28.2097 11.9615 28.2605 11.9615C28.2605 11.9785 28.2605 11.9955 28.2605 12.0125C28.2097 12.0125 28.1589 12.0125 28.1081 12.0125C28.1081 11.9953 28.1081 11.9785 28.1081 11.9615Z" fill="#171632"/>
<path d="M33.3916 12.0634C33.3916 12.1143 33.3916 12.1653 33.3916 12.2162C33.3746 12.2162 33.3577 12.2162 33.3409 12.2162C33.3409 12.1653 33.3409 12.1143 33.3409 12.0634C33.3577 12.0634 33.3746 12.0634 33.3916 12.0634Z" fill="#171632"/>
<path d="M41.9931 12.2302C41.9577 12.2718 41.9223 12.3134 41.8869 12.355C41.8709 12.339 41.8548 12.323 41.8388 12.3068C41.8803 12.2713 41.9218 12.2358 41.9633 12.2003C41.9734 12.2103 41.9832 12.2203 41.9931 12.2302Z" fill="#171632"/>
<path d="M20.4877 13.0825C20.437 13.0825 20.3861 13.0825 20.3354 13.0825C20.3354 13.0655 20.3354 13.0485 20.3354 13.0314C20.3861 13.0314 20.437 13.0314 20.4877 13.0314C20.4877 13.0486 20.4877 13.0655 20.4877 13.0825Z" fill="#171632"/>
<path d="M40.0973 13.5921C40.0973 13.643 40.0973 13.694 40.0973 13.7451C40.0804 13.7451 40.0634 13.7451 40.0466 13.7451C40.0466 13.694 40.0466 13.6432 40.0466 13.5921C40.0636 13.5921 40.0805 13.5921 40.0973 13.5921Z" fill="#171632"/>
<path d="M43.8821 13.7046C43.9416 13.7046 43.9898 13.6885 43.9898 13.6686C43.9898 13.6487 43.9416 13.6326 43.8821 13.6326C43.8226 13.6326 43.7744 13.6487 43.7744 13.6686C43.7744 13.6885 43.8226 13.7046 43.8821 13.7046Z" fill="#171632"/>
<path d="M26.4476 14.3703C26.4122 14.412 26.3768 14.4536 26.3414 14.4952C26.3254 14.4792 26.3093 14.4632 26.2933 14.447C26.3348 14.4115 26.3763 14.3759 26.4178 14.3404C26.4277 14.3505 26.4377 14.3604 26.4476 14.3703Z" fill="#171632"/>
<path d="M27.4983 14.8661C27.549 14.8661 27.5999 14.8661 27.6506 14.8661C27.6506 14.8831 27.6506 14.9001 27.6506 14.9171C27.5999 14.9171 27.549 14.9171 27.4983 14.9171C27.4983 14.9001 27.4983 14.8831 27.4983 14.8661Z" fill="#171632"/>
</svg>
