<svg width="7" height="14" viewBox="0 0 7 14" fill="none" xmlns="http://www.w3.org/2000/svg">
<path d="M6.2871 3.10523C6.53201 3.73088 6.69734 4.39753 6.81232 5.05735C7.18982 7.24729 7.06355 9.64156 5.82354 11.4852C5.33288 12.2145 4.63055 12.818 3.84065 13.2165C2.63703 13.8231 1.22788 13.9569 0.0407069 13.3393L0 13.282C0.432831 12.9906 0.811998 12.6145 1.09546 12.184C2.03207 10.776 2.14987 8.97774 2.01595 7.29012C1.90512 5.87883 1.63645 4.48186 1.21807 3.13173C0.981637 2.37275 0.659795 1.59477 0.233776 0.90329L0.447787 0.767628C1.5577 -0.368175 3.55719 -0.164347 4.76879 0.860292C5.46946 1.45311 5.9543 2.24192 6.2871 3.10523Z" fill="#FEA77C"/>
</svg>
