<svg width="357" height="353" viewBox="0 0 357 353" fill="none" xmlns="http://www.w3.org/2000/svg">
<path d="M284.149 313.071C284.149 313.071 270.18 316.559 270.424 318.509C270.6 319.926 291.728 319.918 293.131 319.014C294.536 318.11 295.513 314.054 292.705 310.817L284.149 313.071Z" fill="black"/>
<path d="M285.441 302.217L284.149 313.071C284.149 313.071 283.89 315.326 292.095 314.04C293.12 313.879 292.677 302.217 292.677 302.217H285.441Z" fill="#FC9580"/>
<path d="M336.879 313.071C336.879 313.071 350.848 316.559 350.605 318.509C350.428 319.926 329.301 319.918 327.897 319.014C326.492 318.11 325.515 314.054 328.323 310.817L336.879 313.071Z" fill="black"/>
<path d="M335.588 302.217L336.88 313.071C336.88 313.071 337.139 315.326 328.934 314.04C327.909 313.879 328.352 302.217 328.352 302.217H335.588Z" fill="#FC9580"/>
<path d="M290.82 106.469C285.925 106.697 265.888 138.815 264.473 144.895C263.059 150.976 285.67 168.189 285.67 168.189L287.225 164.104L271.321 144.326C271.321 144.326 297.603 120.215 298.31 115.03C299.018 109.845 298.712 106.101 290.82 106.469Z" fill="#FC9580"/>
<path d="M290.82 106.469C285.925 106.697 265.888 138.815 264.473 144.895C263.059 150.976 285.67 168.189 285.67 168.189L287.225 164.104L271.321 144.326C271.321 144.326 297.603 120.215 298.31 115.03C299.018 109.845 298.712 106.101 290.82 106.469Z" fill="#FC9580"/>
<path d="M290.82 106.469C285.925 106.697 265.888 138.815 264.473 144.895C263.059 150.976 285.67 168.189 285.67 168.189L287.225 164.104L271.321 144.326C271.321 144.326 297.603 120.215 298.31 115.03C299.018 109.845 298.712 106.101 290.82 106.469Z" fill="#FC9580"/>
<path d="M287.072 182.03C287.072 182.03 285.259 295.3 283.005 304.086C283.005 304.086 288.687 308.22 295.114 304.086L315.857 183.263L287.072 182.03Z" fill="#0055AB"/>
<path d="M285.47 255.265C285.47 255.265 293.409 262.171 303.376 255.968L295.115 304.086C295.115 304.086 289.128 308.103 283.006 304.086L285.47 255.265Z" fill="#0055AB"/>
<path d="M334.5 182.03C334.5 182.03 336.312 295.3 338.566 304.086C338.566 304.086 332.884 308.22 326.456 304.086L305.714 183.263L334.5 182.03Z" fill="#0055AB"/>
<path d="M287.072 182.03L287.021 185.124C287.021 185.124 305.168 193.2 334.584 186.981L334.501 182.03H287.072Z" fill="#003B78"/>
<path d="M315.345 183.574C315.339 183.191 314.743 183.19 314.749 183.574C314.843 189.479 314.607 195.382 314.007 201.258C313.712 204.156 313.523 207.203 312.789 210.028C311.934 213.313 309.094 213.795 306.134 213.609C305.751 213.585 305.752 214.181 306.134 214.205C308.206 214.335 310.642 214.268 312.156 212.623C313.957 210.665 313.896 207.203 314.208 204.719C315.092 197.706 315.458 190.64 315.345 183.574Z" fill="#003B78"/>
<path d="M336.102 255.265C336.102 255.265 328.162 262.171 318.195 255.968L326.456 304.086C326.456 304.086 332.444 308.103 338.566 304.086L336.102 255.265Z" fill="#0055AB"/>
<path d="M330.59 106.469C335.484 106.697 355.522 138.815 356.936 144.895C358.351 150.976 335.739 168.189 335.739 168.189L334.184 164.104L350.089 144.326C350.089 144.326 323.806 120.215 323.099 115.03C322.391 109.845 322.698 106.101 330.59 106.469Z" fill="#FC9580"/>
<path d="M330.59 106.469C335.484 106.697 355.522 138.815 356.936 144.895C358.351 150.976 335.739 168.189 335.739 168.189L334.184 164.104L350.089 144.326C350.089 144.326 323.806 120.215 323.099 115.03C322.391 109.845 322.698 106.101 330.59 106.469Z" fill="#FC9580"/>
<path d="M330.59 106.469C335.484 106.697 355.522 138.815 356.936 144.895C358.351 150.976 335.739 168.189 335.739 168.189L334.184 164.104L350.089 144.326C350.089 144.326 323.806 120.215 323.099 115.03C322.391 109.845 322.698 106.101 330.59 106.469Z" fill="#FC9580"/>
<path d="M328.413 104.148C309.032 101.822 293.021 104.148 293.021 104.148C293.021 104.148 294.874 133.604 293.915 140.582C292.955 147.559 285.202 184.865 285.202 184.865C285.202 184.865 322.027 190.584 336.368 183.22C336.368 183.22 327.841 143.683 327.453 140.194C327.066 136.706 328.413 104.148 328.413 104.148Z" fill="#0055AB"/>
<path d="M289.912 170.087L297.834 161.148L300.102 162.839L291.586 172.003L289.912 170.087Z" fill="#004389"/>
<path d="M331.83 170.087L323.908 161.148L321.64 162.839L330.156 172.003L331.83 170.087Z" fill="#004389"/>
<path d="M297.919 103.63C297.919 103.63 305.768 122.749 310.593 122.491C315.418 122.232 322.848 103.63 322.848 103.63C322.848 103.63 311.688 102.34 297.919 103.63Z" fill="#004A95"/>
<path d="M301.204 103.365C301.204 103.365 313.317 102.593 319.612 103.372C319.612 103.372 313.712 118.442 310.592 118.442C308.009 118.442 301.204 103.365 301.204 103.365Z" fill="#FC9580"/>
<path d="M297.564 119.26C297.564 119.26 288.655 128.358 288.665 136.162C288.669 140.023 299.582 141.613 299.582 141.613L297.564 119.26Z" fill="#0055AB"/>
<path d="M325.75 119.26C325.75 119.26 334.659 128.358 334.649 136.162C334.645 140.023 323.732 141.613 323.732 141.613L325.75 119.26Z" fill="#0055AB"/>
<path d="M339.76 134.499C339.76 134.499 351.423 127.128 349.097 126.412C346.771 125.695 334.288 104.148 328.413 104.148C323.427 104.148 323.041 113.83 324.462 119.323C325.883 124.817 338.076 132.856 339.76 134.499Z" fill="#0055AB"/>
<path d="M281.903 134.499C281.903 134.499 270.239 127.128 272.565 126.412C274.891 125.695 287.375 104.148 293.249 104.148C298.235 104.148 298.622 113.83 297.201 119.323C295.78 124.817 283.587 132.856 281.903 134.499Z" fill="#0055AB"/>
<path d="M333.155 166.933C333.155 166.933 330.748 167.899 330.693 168.831C330.638 169.763 334.066 168.611 334.066 168.611C334.066 168.611 332.46 169.426 332.464 169.886C332.473 170.933 334.81 169.94 335.871 169.39C336.77 168.924 336.548 167.921 335.707 167.989C335.707 167.989 336.81 166.671 334.979 166.149C334.979 166.149 336.018 164.838 334.322 164.195C334.322 164.195 335.2 163.058 333.431 162.66C333.431 162.66 332.664 160.176 331.54 160.588L331.865 162.975C331.118 163.209 329.874 163.734 329.212 164.166C328.394 164.699 328.944 166.044 332.392 164.919C332.392 164.919 329.568 165.968 329.187 167.009C328.807 168.05 331.296 167.515 333.155 166.933Z" fill="#FC9580"/>
<path d="M290.16 188.355C289.102 190.448 287.92 192.466 286.611 194.412C286.396 194.73 286.912 195.029 287.125 194.713C288.435 192.767 289.617 190.749 290.674 188.656C290.846 188.314 290.333 188.012 290.16 188.355Z" fill="#5285B7"/>
<path d="M334.956 195.807C332.847 193.773 331.062 191.48 329.609 188.936C329.419 188.603 328.904 188.902 329.095 189.236C330.573 191.825 332.389 194.159 334.535 196.228C334.811 196.494 335.232 196.073 334.956 195.807Z" fill="#003B78"/>
<path d="M326.449 141.412C323.892 141.573 321.372 141.418 318.853 140.944C316.511 140.504 314.183 139.892 311.783 139.931C307.111 140.007 302.656 142.337 297.95 141.41C297.575 141.337 297.415 141.91 297.792 141.985C302.404 142.894 306.713 140.775 311.272 140.545C313.99 140.407 316.603 141.159 319.255 141.622C321.638 142.038 324.035 142.159 326.449 142.007C326.83 141.984 326.832 141.387 326.449 141.412Z" fill="#003B78"/>
<path d="M333.113 179.707C318.541 185.323 302.972 184.072 288.144 180.636C287.74 180.543 287.567 181.276 287.973 181.37C302.912 184.831 318.603 186.099 333.284 180.441C333.675 180.29 333.508 179.555 333.113 179.707Z" fill="#568DC0"/>
<path d="M294.412 119.904C294.39 122.428 293.475 124.714 291.744 126.553C291.481 126.832 291.902 127.254 292.166 126.975C293.999 125.027 294.985 122.58 295.008 119.904C295.011 119.521 294.415 119.521 294.412 119.904Z" fill="#003B78"/>
<path d="M333.453 129.207C332.553 127.856 331.819 126.416 331.324 124.866C331.067 124.062 331.005 123.148 330.221 122.687C329.889 122.492 329.589 123.007 329.92 123.201C330.699 123.66 330.914 125.573 331.239 126.358C331.698 127.468 332.273 128.509 332.938 129.508C333.151 129.825 333.667 129.527 333.453 129.207Z" fill="#003B78"/>
<path d="M284.949 131.626C281.333 129.545 278.111 126.927 275.329 123.818C275.073 123.532 274.653 123.954 274.908 124.239C277.722 127.386 280.99 130.034 284.649 132.14C284.982 132.332 285.282 131.817 284.949 131.626Z" fill="#003B78"/>
<path d="M288.371 166.933C288.371 166.933 290.779 167.899 290.833 168.831C290.888 169.763 287.46 168.611 287.46 168.611C287.46 168.611 289.067 169.426 289.063 169.886C289.054 170.933 286.717 169.94 285.656 169.39C284.757 168.924 284.979 167.921 285.82 167.989C285.82 167.989 284.717 166.671 286.547 166.149C286.547 166.149 285.509 164.838 287.204 164.195C287.204 164.195 286.326 163.058 288.095 162.66C288.095 162.66 289.034 160.13 290.157 160.542L289.681 162.919C290.428 163.153 291.653 163.734 292.315 164.167C293.133 164.7 292.583 166.044 289.134 164.92C289.134 164.92 291.959 165.968 292.339 167.01C292.719 168.05 290.23 167.515 288.371 166.933Z" fill="#FC9580"/>
<path d="M308.831 67.2081C308.831 67.2081 301.703 65.7775 302.051 61.8837C302.32 58.8793 304.349 57.4785 307.738 56.7353C311.127 55.9921 316.291 57.8483 316.25 61.04C316.209 64.2316 315.745 66.837 308.831 67.2081Z" fill="#1D0300"/>
<path d="M303.256 67.6421C303.256 67.6421 304.531 64.2828 309.619 64.0242C314.707 63.7655 317.485 67.6421 317.485 67.6421H303.256Z" fill="#6093CC"/>
<path d="M298.854 86.9364C298.854 86.9364 295.514 79.7766 297.544 72.272C299.582 64.7346 320.364 62.9616 322.504 73.5057C324.462 83.1508 321.231 87.2593 321.231 87.2593L298.854 86.9364Z" fill="#1D0300"/>
<path d="M307.595 100.119C307.595 100.119 300.574 102.548 300.313 107.648C300.053 112.749 300.998 125.425 300.998 125.425" stroke="#3B2D47" stroke-miterlimit="10"/>
<path d="M298.287 136.204C298.287 136.204 295.271 126.167 300.792 125.378C306.587 124.55 306.722 135.263 306.722 135.263" stroke="#3B2D47" stroke-miterlimit="10"/>
<path d="M299.524 135.857C299.56 136.194 299.228 136.507 298.782 136.556C298.334 136.605 297.942 136.372 297.905 136.035C297.868 135.698 298.201 135.385 298.647 135.336C299.094 135.286 299.487 135.52 299.524 135.857Z" fill="#3B2D47"/>
<path d="M307.011 135.203C307.048 135.54 306.715 135.852 306.269 135.902C305.821 135.951 305.43 135.717 305.392 135.38C305.355 135.043 305.688 134.73 306.134 134.681C306.581 134.632 306.973 134.865 307.011 135.203Z" fill="#3B2D47"/>
<path d="M314.566 100.483C314.566 100.483 319.507 102.617 321.124 108.229C322.274 112.221 321.229 133.419 321.304 133.075" stroke="#2C1817" stroke-miterlimit="10"/>
<path d="M324.089 133.609C323.794 135.147 322.309 136.155 320.771 135.86C319.233 135.565 318.225 134.08 318.52 132.542C318.815 131.004 320.3 129.996 321.838 130.291C323.376 130.586 324.384 132.072 324.089 133.609Z" fill="#BCBCBC"/>
<path d="M323.035 133.407C322.852 134.364 321.929 134.99 320.972 134.807C320.016 134.623 319.39 133.7 319.573 132.744C319.757 131.788 320.68 131.162 321.636 131.345C322.591 131.528 323.218 132.451 323.035 133.407Z" fill="#DFDFDF"/>
<path d="M315.282 103.243C315.282 103.243 314.841 109.139 310.785 109.139C306.34 109.139 306.288 103.243 306.288 103.243L306.394 101.612L306.921 93.4321H314.533L314.895 98.1684L315.282 103.243Z" fill="#FC9580"/>
<path d="M314.895 98.1685C314.026 99.6151 311.471 104.195 306.289 103.243L306.922 93.4328H314.534L314.895 98.1685Z" fill="#F6806C"/>
<path d="M300.339 83.341C300.339 83.341 297.538 82.2024 296.843 85.5035C296.148 88.8046 299.622 92.2792 302.402 91.1501C302.403 91.1495 301.752 84.7395 300.339 83.341Z" fill="#FC9580"/>
<path d="M301.69 89.9093C301.519 89.9052 301.369 89.7815 301.337 89.6067C300.903 87.1648 299.043 85.8853 299.025 85.8728C298.857 85.7592 298.812 85.5315 298.925 85.3633C299.038 85.1956 299.265 85.1504 299.433 85.2628C299.52 85.321 301.57 86.7183 302.06 89.4777C302.096 89.6774 301.963 89.8677 301.763 89.9034C301.739 89.9081 301.714 89.9099 301.69 89.9093Z" fill="#FC6C5B"/>
<path d="M298.848 88.124C298.719 88.1211 298.595 88.0497 298.531 87.9272C298.437 87.7477 298.506 87.5259 298.686 87.4319C298.736 87.4058 299.924 86.791 300.89 86.9694C301.09 87.0062 301.221 87.1977 301.185 87.3969C301.148 87.596 300.956 87.728 300.757 87.6912C300.163 87.5818 299.306 87.9361 299.026 88.0824C298.969 88.1115 298.908 88.1252 298.848 88.124Z" fill="#FC6C5B"/>
<path d="M320.147 83.3412C320.147 83.3412 322.948 82.2026 323.644 85.5036C324.339 88.8047 320.864 92.2793 318.084 91.1502C318.084 91.1496 318.735 84.7396 320.147 83.3412Z" fill="#FC9580"/>
<path d="M318.804 89.9093C318.976 89.9052 319.126 89.7815 319.157 89.6067C319.591 87.1648 321.451 85.8853 321.469 85.8728C321.637 85.7592 321.682 85.5315 321.569 85.3633C321.456 85.1956 321.229 85.1504 321.061 85.2628C320.974 85.321 318.925 86.7183 318.434 89.4777C318.398 89.6774 318.532 89.8677 318.731 89.9034C318.756 89.9081 318.781 89.9099 318.804 89.9093Z" fill="#FC6C5B"/>
<path d="M321.636 88.124C321.765 88.1211 321.889 88.0497 321.953 87.9272C322.047 87.7477 321.978 87.5259 321.798 87.4319C321.748 87.4058 320.56 86.791 319.594 86.9694C319.394 87.0062 319.262 87.1977 319.299 87.3969C319.336 87.596 319.528 87.728 319.727 87.6912C320.32 87.5818 321.178 87.9361 321.458 88.0824C321.515 88.1115 321.576 88.1252 321.636 88.124Z" fill="#FC6C5B"/>
<path d="M320.578 83.9786C320.406 85.201 319.619 99.6443 309.44 99.6277C302.014 99.6158 300.067 85.1879 299.959 84.5036C297.464 68.8699 322.743 68.6077 320.578 83.9786Z" fill="#FC9580"/>
<path d="M305.311 87.7184C305.319 88.2975 304.405 88.7791 303.272 88.794C302.138 88.8088 301.212 88.3516 301.205 87.7725C301.197 87.1934 302.11 86.7118 303.244 86.6969C304.378 86.682 305.303 87.1393 305.311 87.7184Z" fill="#FC6C5B"/>
<path d="M318.856 87.5031C318.863 88.0822 317.95 88.5639 316.817 88.5787C315.683 88.5936 314.757 88.1364 314.75 87.5572C314.742 86.9781 315.655 86.4965 316.789 86.4817C317.923 86.4668 318.848 86.924 318.856 87.5031Z" fill="#FC6C5B"/>
<path d="M306.916 85.191C306.926 85.7636 306.678 86.2327 306.362 86.238C306.046 86.244 305.781 85.7838 305.771 85.2112C305.761 84.6386 306.009 84.1701 306.325 84.1641C306.642 84.1588 306.906 84.6184 306.916 85.191Z" fill="#002E3C"/>
<path d="M313.713 85.191C313.702 85.7636 313.95 86.2327 314.267 86.238C314.583 86.244 314.848 85.7838 314.858 85.2112C314.868 84.6386 314.62 84.1701 314.303 84.1641C313.987 84.1588 313.723 84.6184 313.713 85.191Z" fill="#002E3C"/>
<path d="M303.367 81.2988C303.33 81.011 304.714 79.6388 306.158 79.5912C307.608 79.5258 308.128 80.8237 307.901 81.121C307.674 81.4677 306.919 80.8963 305.713 80.9658C304.522 80.9908 303.373 81.6365 303.367 81.2988Z" fill="#461D17"/>
<path d="M316.63 81.3285C316.673 81.042 315.316 79.6429 313.873 79.5668C312.425 79.4729 311.879 80.7602 312.101 81.0628C312.321 81.4136 313.087 80.8571 314.292 80.9504C315.482 80.998 316.618 81.6657 316.63 81.3285Z" fill="#461D17"/>
<path d="M310.023 88.1262C309.639 88.1107 309.64 88.7065 310.023 88.722C310.317 88.7339 310.611 88.7458 310.905 88.7583C310.982 88.7612 311.061 88.7648 311.139 88.7678C311.086 88.8492 311.04 88.9313 310.974 89.0056C310.673 89.3457 310.242 89.549 309.841 89.744C309.496 89.9117 309.798 90.426 310.142 90.2583C310.752 89.9611 311.507 89.5722 311.744 88.8813C312.057 87.9657 310.497 88.1458 310.023 88.1262Z" fill="#FC6C5B"/>
<path d="M312.733 94.1272C311.425 94.5155 310.097 94.6195 308.747 94.4168C308.372 94.3603 308.21 94.9341 308.589 94.9911C310.049 95.2105 311.476 95.1219 312.892 94.7016C313.258 94.5928 313.102 94.0178 312.733 94.1272Z" fill="#FC6C5B"/>
<path d="M311.028 96.1547C310.739 96.1297 310.453 96.1243 310.164 96.1398C309.782 96.16 309.78 96.7558 310.164 96.7356C310.453 96.7201 310.739 96.7254 311.028 96.7504C311.409 96.7843 311.407 96.188 311.028 96.1547Z" fill="#FC6C5B"/>
<path d="M60.0851 127.587C57.8959 127.352 47.114 128.511 47.114 128.511C47.114 128.511 53.1227 117.994 58.8436 122.185C58.8431 122.185 59.5613 124.527 60.0851 127.587Z" fill="#F6806C"/>
<path d="M48.107 128.3C47.0599 123.494 46.5539 118.604 46.2751 113.699C46.1455 111.419 46.0599 109.138 45.9808 106.856C45.8975 104.459 45.6924 101.986 46.6996 99.7388C46.853 99.3957 46.3458 99.0961 46.1913 99.4415C45.3606 101.296 45.2857 103.229 45.3374 105.234C45.4058 107.867 45.5128 110.5 45.6549 113.129C45.9326 118.278 46.4404 123.412 47.5391 128.456C47.62 128.826 48.1872 128.669 48.107 128.3Z" fill="#568DC0"/>
<path d="M6.58247 307.167C6.58247 307.167 0.831195 316.888 0.0784683 318.644C-0.674258 320.399 4.18576 325.87 6.22454 325.837C8.53683 325.799 15.4434 320.964 16.2585 319.71C16.9423 318.658 15.6312 307.355 15.6312 307.355L6.58247 307.167Z" fill="#1C0000"/>
<path d="M14.0733 313.865C10.739 312.842 7.30891 312.64 3.87407 313.245C3.49117 313.312 3.65349 313.895 4.03521 313.828C7.35885 313.243 10.6873 313.458 13.9128 314.448C14.2856 314.563 14.4449 313.978 14.0733 313.865Z" fill="#483757"/>
<path d="M62.3571 307.167C62.3571 307.167 68.1083 316.888 68.8611 318.644C69.6138 320.399 64.7538 325.87 62.715 325.837C60.4027 325.799 53.4962 320.964 52.681 319.71C51.9973 318.658 53.3083 307.355 53.3083 307.355L62.3571 307.167Z" fill="#1C0000"/>
<path d="M64.9763 308.161C64.9763 308.161 58.6138 312.076 51.225 309.18C51.225 309.18 48.5744 284.87 45.5053 259.657C42.7827 237.174 39.7272 213.984 37.9435 206.668C34.1591 191.162 33.3903 175.258 33.3903 175.258L60.3808 172.914C60.3808 172.914 62.0872 219.379 63.4452 257.021C64.1528 276.867 64.767 296.006 64.9763 308.161Z" fill="#0055AB"/>
<path d="M64.9761 308.161C64.9761 308.161 58.6136 312.076 51.2249 309.18C51.2249 309.18 48.5743 284.87 45.5051 259.657L45.5123 259.636C45.5123 259.636 47.4696 266.807 56.5552 265.673C62.8458 264.879 63.438 257 63.438 257L63.4451 257.021C64.1527 276.867 64.7669 296.006 64.9761 308.161Z" fill="#0055AB"/>
<path d="M57.368 171.509C54.4861 183.794 38.8537 209.953 36.3333 219.349C35.2714 223.307 31.8193 239.543 28.1722 256.999C23.1743 280.991 17.8154 307.302 17.8154 307.302C9.24288 311.527 4.08617 307.302 4.08617 307.302L7.92115 258.48L14.6559 172.681L57.368 171.509Z" fill="#0055AB"/>
<path d="M14.4529 175.403C14.4529 175.403 25.7878 182.6 60.5845 178.469L60.3806 172.914L14.4529 175.403Z" fill="#003B78"/>
<path d="M54.4986 208.601C45.5569 211.745 36.0663 212.782 26.6561 211.651C26.1959 211.595 26.1994 212.318 26.6561 212.373C30.5053 212.836 34.3706 212.931 38.208 212.675C35.448 215.023 32.3152 216.769 28.8441 217.875C28.4029 218.016 28.5914 218.714 29.0361 218.572C32.9103 217.337 36.3975 215.326 39.4078 212.592C39.4102 212.59 39.4108 212.587 39.4126 212.585C44.6038 212.138 49.7337 211.039 54.6901 209.297C55.1265 209.144 54.9386 208.446 54.4986 208.601Z" fill="#003B78"/>
<path d="M33.4426 201.021C35.9469 202.797 38.4102 200.209 39.1612 197.966C39.8134 196.019 40.0031 193.884 40.2159 191.851C40.6916 187.306 40.6767 182.735 40.2534 178.188C40.21 177.724 40.9312 177.68 40.9746 178.142C41.5394 184.201 41.4996 190.54 40.2849 196.526C39.883 198.507 39.138 200.63 37.2847 201.689C35.8714 202.497 34.2845 202.497 32.958 201.557C32.5799 201.288 33.0668 200.754 33.4426 201.021Z" fill="#003B78"/>
<path d="M28.1712 257.711C23.1733 281.376 17.8144 307.327 17.8144 307.327C9.2419 311.495 4.08519 307.327 4.08519 307.327L7.92017 259.172C7.92017 259.172 8.61344 265.533 14.0228 266.153C19.4251 266.773 25.6366 264.208 28.1712 257.711Z" fill="#0055AB"/>
<path d="M30.7123 99.4219C30.7123 99.4219 16.222 100.097 14.1452 103.111C12.5933 105.362 17.8428 136.728 17.9807 142.773C18.1187 148.818 15.9646 156.866 11.9625 172.914C10.3304 179.459 59.9009 178.509 60.3814 172.914C60.7351 168.795 57.2813 145.015 57.1837 138.466C57.05 129.443 61.687 103.354 60.0258 102.546C53.8494 99.5456 42.4598 98.7049 42.4598 98.7049L30.7123 99.4219Z" fill="#0055AB"/>
<path d="M48.7721 142.15C44.3426 142.785 7.30853 150.767 3.73219 145.526C2.34624 143.493 2.54007 140.491 3.30885 137.587C4.50097 133.024 7.08497 128.691 7.08497 128.691C18.5703 124.861 17.5779 135.729 17.5779 135.729C20.6519 135.215 45.1779 141.757 48.7721 142.15Z" fill="#FC9580"/>
<path d="M17.5779 135.729C7.24243 135.959 3.4907 137.508 3.30876 137.587C4.50087 133.025 7.08488 128.692 7.08488 128.692C18.5702 124.861 17.5779 135.729 17.5779 135.729Z" fill="#F6806C"/>
<path d="M49.2023 142.138C49.166 142.174 49.021 142.174 48.779 142.15C49.087 142.107 49.2386 142.101 49.2023 142.138Z" fill="#FC9580"/>
<path d="M17.5787 135.727L39.2746 143.884L49.2021 142.141C49.2015 142.141 24.1261 135.792 17.5787 135.727Z" fill="#F6806C"/>
<path d="M23.6007 121.622L19.3745 132.357L17.5753 135.727C14.2653 136.338 3.50421 133.444 3.50421 133.444C3.71053 132.869 14.2213 103.006 14.2213 103.006C16.4314 103.006 22.402 113.258 23.0911 116.384C23.7154 119.218 23.6007 121.622 23.6007 121.622Z" fill="#0055AB"/>
<path d="M68.1779 148.504C63.5242 151.311 30.7081 136.758 17.577 135.729C17.577 135.729 21.4922 131.348 28.3298 132.165C35.168 132.988 57.2129 135.753 57.2129 135.753C57.2129 135.753 63.391 124.94 69.2731 129.248C69.2731 129.248 70.0116 131.657 70.5497 134.803C71.3916 139.687 71.7608 146.343 68.1779 148.504Z" fill="#FC9580"/>
<path d="M51.4413 121.622L55.6675 132.357L57.2163 135.756C58.1908 135.776 71.5758 129.537 71.5758 129.537C71.3695 128.962 60.0275 102.547 60.0275 102.547C57.8174 102.547 52.6399 113.259 51.9502 116.386C51.3265 119.217 51.4413 121.622 51.4413 121.622Z" fill="#0055AB"/>
<path d="M56.2273 171.67C42.3221 174.298 28.0244 174.124 14.1858 171.165C13.7518 171.072 13.5663 171.738 14.0021 171.831C27.9644 174.818 42.3821 174.988 56.411 172.337C56.848 172.254 56.6631 171.588 56.2273 171.67Z" fill="#003B78"/>
<path d="M24.6648 99.9469C24.6648 99.9469 31.9947 119.381 36.8952 119.119C41.7956 118.857 49.3431 99.5479 49.3431 99.5479C49.3431 99.5479 39.3424 97.1512 24.6648 99.9469Z" fill="#0055AB"/>
<path d="M27.8204 99.4118C27.8204 99.4118 36.6117 97.5163 46.1932 99.0283C46.1932 99.0283 40.0644 115.007 36.8953 115.007C34.2715 115.007 27.8204 99.4118 27.8204 99.4118Z" fill="#FC9580"/>
<path d="M26.4581 80.0685C26.4581 80.0685 23.7338 78.9614 23.0577 82.1715C22.3817 85.3816 25.7607 88.7599 28.4642 87.6624C28.4636 87.6618 27.831 81.4283 26.4581 80.0685Z" fill="#FC9580"/>
<path d="M27.7594 86.4554C27.5929 86.4518 27.4466 86.3312 27.4169 86.1611C26.9948 83.7864 25.1861 82.5426 25.1682 82.5301C25.0047 82.4201 24.9613 82.1983 25.0713 82.0348C25.1813 81.8713 25.4019 81.8279 25.566 81.9373C25.6504 81.9938 27.6434 83.353 28.1203 86.0363C28.1548 86.2307 28.0257 86.4156 27.8313 86.4501C27.8069 86.4548 27.7826 86.456 27.7594 86.4554Z" fill="#FC6C5B"/>
<path d="M25.0215 84.7192C24.896 84.7162 24.7753 84.6467 24.7135 84.5277C24.6219 84.3529 24.6897 84.1377 24.8639 84.0461C24.9126 84.0205 26.0685 83.423 27.0079 83.5966C27.2017 83.6323 27.3296 83.8184 27.2939 84.0122C27.2582 84.2061 27.0721 84.3345 26.8783 84.2982C26.301 84.1918 25.4674 84.5366 25.1951 84.6787C25.1392 84.7073 25.0797 84.7204 25.0215 84.7192Z" fill="#FC6C5B"/>
<path d="M45.7187 80.0687C45.7187 80.0687 48.443 78.9616 49.119 82.1716C49.7951 85.3817 46.4161 88.7601 43.7126 87.6625C43.7132 87.6619 44.3458 81.4284 45.7187 80.0687Z" fill="#FC9580"/>
<path d="M44.4133 86.4554C44.5798 86.4518 44.7254 86.3312 44.7558 86.1611C45.1779 83.7864 46.9866 82.5426 47.0044 82.5301C47.1679 82.4201 47.2113 82.1983 47.1013 82.0348C46.9913 81.8713 46.7702 81.8279 46.6067 81.9373C46.5222 81.9938 44.5292 83.353 44.0524 86.0363C44.0179 86.2307 44.1475 86.4156 44.3413 86.4501C44.3657 86.4548 44.3895 86.456 44.4133 86.4554Z" fill="#FC6C5B"/>
<path d="M47.1666 84.7192C47.292 84.7162 47.4127 84.6467 47.4746 84.5277C47.5655 84.3529 47.4983 84.1377 47.3241 84.0461C47.2754 84.0205 46.1195 83.423 45.1801 83.5966C44.9863 83.6323 44.8579 83.8184 44.8941 84.0122C44.9298 84.2061 45.1159 84.3345 45.3097 84.2982C45.8871 84.1918 46.7201 84.5366 46.993 84.6787C47.0483 84.7073 47.1083 84.7204 47.1666 84.7192Z" fill="#FC6C5B"/>
<path d="M42.5168 99.4219C42.5168 99.4219 42.0085 107.529 36.6877 107.529C30.8561 107.529 30.717 99.4219 30.717 99.4219L30.8555 97.8356L31.547 89.8814H41.534L42.0085 94.487L42.5168 99.4219Z" fill="#FC9580"/>
<path d="M42.0037 94.487C40.8634 95.8937 37.548 99.9255 30.7485 98.9998L31.5423 89.8814H41.5293L42.0037 94.487Z" fill="#F6806C"/>
<path d="M46.1346 81.9445C46.0156 82.699 45.8622 83.4939 45.672 84.3079C45.4342 85.3335 45.1381 86.3877 44.7849 87.4223C43.1052 92.315 40.0777 96.7975 35.3033 95.9157C31.322 95.1808 28.9104 91.3964 27.4591 87.3955C27.0845 86.3646 26.7718 85.3175 26.5143 84.3073C26.349 83.6569 26.2069 83.0207 26.0821 82.4124C25.7788 80.9302 25.5904 79.6084 25.4756 78.628C25.3412 77.484 25.0154 74.9952 26.5726 73.2953C32.8792 66.4113 46.8201 68.7617 46.3355 76.8811C46.2838 77.7593 46.4972 79.6483 46.1346 81.9445Z" fill="#FC9580"/>
<path d="M31.9893 84.1157C31.9965 84.6787 31.1088 85.1473 30.0059 85.1616C28.9029 85.1758 28.0033 84.7311 27.9956 84.168C27.9885 83.605 28.8762 83.1364 29.9791 83.1222C31.0826 83.1079 31.9822 83.5526 31.9893 84.1157Z" fill="#FC6C5B"/>
<path d="M44.4572 84.1159C44.4644 84.679 43.5767 85.1475 42.4737 85.1618C41.3708 85.1761 40.4712 84.7313 40.4635 84.1683C40.4564 83.6052 41.3441 83.1367 42.447 83.1224C43.5499 83.1082 44.4495 83.5529 44.4572 84.1159Z" fill="#FC6C5B"/>
<path d="M33.1808 81.8674C33.1909 82.4245 32.9495 82.8799 32.6421 82.8853C32.3347 82.8906 32.0773 82.4441 32.0671 81.887C32.057 81.3299 32.2984 80.8744 32.6064 80.8691C32.9138 80.8637 33.1713 81.3108 33.1808 81.8674Z" fill="#002E3C"/>
<path d="M39.7902 81.8671C39.7801 82.4242 40.0215 82.8797 40.3289 82.885C40.6363 82.8904 40.8937 82.4439 40.9038 81.8867C40.9133 81.3296 40.6725 80.8742 40.3645 80.8688C40.0572 80.8635 39.7997 81.3106 39.7902 81.8671Z" fill="#002E3C"/>
<path d="M29.729 78.0828C29.6927 77.8033 31.0388 76.4685 32.4426 76.4227C33.8523 76.3591 34.3583 77.6208 34.1377 77.9109C33.9171 78.2481 33.1828 77.6921 32.0097 77.7599C30.8521 77.7825 29.7349 78.411 29.729 78.0828Z" fill="#1D0300"/>
<path d="M42.6277 78.1113C42.6693 77.8325 41.3494 76.4721 39.9468 76.3984C38.5382 76.3074 38.0079 77.559 38.2231 77.8527C38.4372 78.194 39.1822 77.6529 40.3535 77.7433C41.5105 77.7897 42.6158 78.4395 42.6277 78.1113Z" fill="#1D0300"/>
<path d="M24.7806 73.8398C29.0027 75.8489 33.8573 76.5029 38.4605 75.6818C38.9588 75.5932 39.4725 75.4791 39.875 75.1723C40.2775 74.8649 40.535 74.3113 40.3506 73.8404C41.1622 74.0574 42.2265 74.2227 43.0661 74.2537C43.5322 74.2709 44.0132 74.2554 44.4425 74.0735C44.8718 73.891 45.2428 73.5081 45.2915 73.0443C45.3355 72.6186 45.1114 72.2137 44.8652 71.8641C43.7427 70.2706 42.0196 69.1641 40.1735 68.5392C38.3273 67.9137 36.3563 67.7401 34.4073 67.7449C33.2437 67.7478 32.0695 67.8139 30.9481 68.1254C29.4861 68.5315 28.1691 69.3371 26.9139 70.1897C25.877 70.8943 24.7884 71.757 24.5571 72.989C24.4768 73.4135 24.3508 73.8815 24.7806 73.8398Z" fill="#1D0300"/>
<path d="M26.4725 82.4321C26.9915 82.4321 26.8732 76.4495 26.7906 74.4285C26.7608 73.7008 26.7198 72.9677 26.5087 72.2613C26.3179 71.6216 25.9403 70.9675 25.2417 70.6607C22.4805 69.4472 22.7534 71.9658 22.8759 72.9397C23.1381 75.0279 23.9729 82.4321 26.4725 82.4321Z" fill="#1D0300"/>
<path d="M45.2096 82.485C44.6905 82.5028 44.6008 76.5203 44.6133 74.4975C44.6174 73.7692 44.6329 73.0349 44.8196 72.322C44.9884 71.6757 45.3428 71.0092 46.0301 70.678C48.7473 69.3688 48.5624 71.8957 48.4738 72.8732C48.2841 74.9696 47.7074 82.3982 45.2096 82.485Z" fill="#1D0300"/>
<path d="M19.7426 106.365C19.7194 105.978 19.1141 105.975 19.1373 106.365C19.717 116.081 19.0808 125.816 17.2299 135.372C17.1562 135.753 17.7395 135.915 17.8132 135.533C19.6748 125.924 20.3258 116.135 19.7426 106.365Z" fill="#003B78"/>
<path d="M22.876 72.9392C22.876 72.9392 36.6261 70.3992 48.4372 73.2864C48.4372 73.2864 50.3541 66.607 44.6129 62.7904C40.2565 59.8949 29.6357 58.5036 24.061 64.6675C22.0591 66.8811 22.876 72.9392 22.876 72.9392Z" fill="#0055AB"/>
<path d="M48.6444 71.9105C44.4033 71.0418 40.101 70.5174 35.7719 70.3907C31.6617 70.2706 26.9586 70.0911 23.0101 71.4075C22.6426 71.5299 22.8002 72.1144 23.1712 71.9907C27.0514 70.6969 31.7211 70.8771 35.7719 70.9954C40.0475 71.1209 44.2945 71.6358 48.4833 72.4937C48.8638 72.5716 49.0261 71.989 48.6444 71.9105Z" fill="#003B78"/>
<path d="M40.5434 62.6406C37.0973 64.4808 33.5512 66.1057 29.9053 67.5107C29.5456 67.6492 29.702 68.2349 30.0659 68.094C33.7599 66.6706 37.3559 65.0277 40.8484 63.1632C41.1927 62.9794 40.8871 62.4574 40.5434 62.6406Z" fill="#003B78"/>
<path d="M41.3296 66.0617C40.7445 66.6926 40.0958 67.2485 39.3924 67.7414C39.3847 67.7408 39.3794 67.7372 39.3716 67.7372C39.1493 67.7372 39.0577 67.9341 39.0898 68.1035C39.0767 68.3241 39.2949 68.5506 39.528 68.3936C40.3432 67.8443 41.0893 67.2105 41.7576 66.4899C42.0216 66.2045 41.5947 65.7758 41.3296 66.0617Z" fill="#003B78"/>
<path d="M36.7024 85.3341C36.8725 85.0476 36.7726 84.4857 36.7768 84.1848L36.8041 82.2935C36.8095 81.9041 36.2048 81.9041 36.1988 82.2935C36.1887 82.9814 36.1846 83.6694 36.1691 84.3567C36.1673 84.4714 36.1661 84.5862 36.1644 84.7003C36.2488 85.0131 36.1358 85.1159 35.8249 85.0089C35.5615 85.0939 35.1304 85.0089 34.8605 85.0089C34.7065 85.0089 34.5453 85.1481 34.5578 85.3116C34.6417 86.3943 35.3302 87.2225 36.4117 87.4312C36.7922 87.5043 36.9551 86.9217 36.5722 86.8479C35.8956 86.7177 35.3884 86.2772 35.219 85.6368C35.7434 85.6814 36.4575 85.748 36.7024 85.3341Z" fill="#FC6C5B"/>
<path d="M15.7161 165.701L23.7618 156.623L26.0657 158.34L17.4153 167.648L15.7161 165.701Z" fill="#004D9D"/>
<path d="M58.2909 165.701L50.2452 156.623L47.9412 158.34L56.5916 167.648L58.2909 165.701Z" fill="#004D9D"/>
<path d="M27.6306 87.8736C27.6306 87.8736 33.1993 86.3396 36.3755 86.2088C39.5523 86.0774 44.6121 87.8736 44.6121 87.8736C44.6121 87.8736 44.2964 96.3135 37.0034 96.9039C29.7098 97.4943 27.6306 87.8736 27.6306 87.8736Z" fill="#F2F3F3"/>
<path d="M36.9991 95.2598C36.992 95.2521 36.9843 95.2444 36.9771 95.2367C36.9759 95.2355 36.9748 95.2354 36.9736 95.2343C36.838 94.7996 36.9587 94.057 36.9456 93.6206C36.9254 92.9244 36.9105 92.2281 36.8998 91.5319C36.8808 90.2387 36.8808 88.9455 36.8939 87.6523C36.8975 87.2628 36.2928 87.2622 36.2886 87.6523C36.2732 89.244 36.2767 90.8356 36.31 92.4273C36.329 93.3334 36.0799 94.8419 36.4926 95.6576C36.5811 95.8324 36.8374 95.8508 36.9676 95.7188C36.9777 95.7087 36.9878 95.698 36.9985 95.6879C37.1163 95.5696 37.1127 95.3788 36.9991 95.2598Z" fill="#B6B6CE"/>
<path d="M269.832 81.4432C272.205 79.3575 274.908 76.9739 271.123 74.1431C267.338 71.3124 268.639 61.6964 268.639 61.6964L253.821 61.2154V61.1892L253.471 61.2023L252.428 61.1892V61.2154L238.996 61.6964C238.996 61.6964 240.297 71.3124 236.512 74.1431C232.728 76.9739 235.43 79.3575 237.803 81.4432C239.661 83.0765 234.949 85.0582 231.529 90.5039C229.521 93.7015 229.285 97.7339 230.861 101.165C233.431 106.764 239.631 114.815 254.03 114.815C269.286 114.815 275.057 106.547 277.217 100.942C278.497 97.6198 278.149 93.8948 276.314 90.844C272.882 85.1397 267.935 83.1098 269.832 81.4432Z" fill="#1D0300"/>
<path d="M264.429 314.646C264.429 314.646 261.878 314.551 261.999 319.406C262.121 324.26 261.999 331.421 261.999 331.421H264.429V323.034L271.709 331.421H296.711C296.711 331.421 295.376 326.809 283.603 326.931L264.429 314.646Z" fill="black"/>
<path d="M264.43 314.646V300.734L274.547 298.481L272.704 314.646L284.664 327.038H279.161C276.586 327.038 274.111 326.084 272.207 324.35C269.634 322.01 266.173 318.408 264.43 314.646Z" fill="#FBB1B2"/>
<path d="M269.172 148.301C269.172 148.301 285.134 167.22 279.994 217.789L275.884 309.367H262.914L254.4 148.3H269.172V148.301Z" fill="#0055AB"/>
<path d="M233.778 325.332L248.308 316.095C248.308 316.095 250.028 316.011 250.43 322.716V331.376H248.354V325.332L246.026 331.376H226.942C226.942 331.376 225.908 327.296 233.778 325.332Z" fill="black"/>
<path d="M250.627 293.514L248.309 316.094H240.664L239.949 291.943L250.627 293.514Z" fill="#FBB1B2"/>
<path d="M241.067 312.759L233.779 325.331H241.355C245.279 325.331 248.437 322.106 248.353 318.183L248.309 316.094L241.067 312.759Z" fill="#FBB1B2"/>
<path d="M240.833 148.301C240.833 148.301 226.872 166.113 232.012 216.683L237.732 309.368H252.122L260.649 148.301H240.833Z" fill="#0055AB"/>
<path d="M266.336 179.253L258.545 186.262L257.46 208.545" stroke="#101010" stroke-width="0.705" stroke-miterlimit="10" stroke-linecap="round" stroke-linejoin="round"/>
<path d="M240.784 61.6964C240.784 61.6964 238.329 59.789 236.535 62.0537C233.809 65.4951 238.579 71.7274 242.728 68.5185L240.784 61.6964Z" fill="#FA9E9E"/>
<path d="M238.3 64.0075C238.3 64.0075 239.673 63.5758 241.157 66.4678" stroke="#1C0000" stroke-width="0.482" stroke-miterlimit="10" stroke-linecap="round" stroke-linejoin="round"/>
<path d="M267.106 61.6964C267.106 61.6964 269.561 59.789 271.355 62.0537C274.081 65.4951 269.311 71.7274 265.162 68.5185L267.106 61.6964Z" fill="#FA9E9E"/>
<path d="M269.59 64.0075C269.59 64.0075 268.217 63.5758 266.733 66.4678" stroke="#1C0000" stroke-width="0.482" stroke-miterlimit="10" stroke-linecap="round" stroke-linejoin="round"/>
<path d="M254.031 70.5026C262.704 70.5026 269.736 63.6459 269.736 55.1877C269.736 46.7294 262.704 39.8727 254.031 39.8727C245.357 39.8727 238.326 46.7294 238.326 55.1877C238.326 63.6459 245.357 70.5026 254.031 70.5026Z" fill="#1D0300"/>
<path d="M249.088 75.582L247.782 89.1673H259.154L257.871 75.4054L249.088 75.582Z" fill="#FA9E9E"/>
<path d="M249.863 76.676C250.21 76.8752 258.581 83.0135 258.581 83.0135L257.87 75.4054L249.863 76.676Z" fill="black"/>
<path d="M240.17 54.0312C240.17 54.0312 240.249 77.6898 253.488 77.6898C269.047 77.6898 267.416 54.0455 267.416 54.0455C267.416 54.0455 267.328 43.3979 253.967 43.3979C241.719 43.3973 240.17 54.0312 240.17 54.0312Z" fill="#FA9E9E"/>
<path d="M248.166 63.46C248.793 63.46 249.301 62.9515 249.301 62.3243C249.301 61.6971 248.793 61.1887 248.166 61.1887C247.538 61.1887 247.03 61.6971 247.03 62.3243C247.03 62.9515 247.538 63.46 248.166 63.46Z" fill="black"/>
<path d="M259.514 63.46C260.141 63.46 260.649 62.9515 260.649 62.3243C260.649 61.6971 260.141 61.1887 259.514 61.1887C258.887 61.1887 258.378 61.6971 258.378 62.3243C258.378 62.9515 258.887 63.46 259.514 63.46Z" fill="black"/>
<path d="M253.55 63.0567V67.019L254.894 67.044" stroke="#1C0000" stroke-width="0.482" stroke-miterlimit="10" stroke-linecap="round" stroke-linejoin="round"/>
<path d="M256.523 55.897C256.523 55.897 256.193 57.1028 258.068 57.1289C259.491 57.1486 261.226 57.519 262.045 57.6938C262.51 57.7931 263.011 57.6123 263.232 57.2686C263.409 56.991 263.371 56.6622 263.122 56.4333C262.616 55.9683 260.745 54.9011 259.014 54.8589C256.79 54.803 256.523 55.897 256.523 55.897Z" fill="#1C0000"/>
<path d="M250.799 55.9261C250.799 55.9261 251.128 57.1319 249.254 57.158C247.831 57.1776 246.096 57.548 245.277 57.7222C244.811 57.8215 244.311 57.6408 244.09 57.2965C243.913 57.0189 243.951 56.6907 244.2 56.4612C244.706 55.9962 246.577 54.929 248.308 54.8868C250.532 54.8321 250.799 55.9261 250.799 55.9261Z" fill="#1C0000"/>
<path d="M253.658 64.8073L245.199 68.188L243.958 70.973C243.958 70.973 246.318 77.4841 253.29 77.672C260.262 77.8599 263.152 73.3548 264.05 71.7037L262.682 68.8004L253.658 64.8073Z" fill="white"/>
<path d="M245.733 69.8289L241.655 65.1776L241.287 63.6537L246.288 69.3473L245.733 69.8289Z" fill="white"/>
<path d="M262.024 69.6619L261.489 69.1577L266.775 63.539L266.495 64.9095L262.024 69.6619Z" fill="white"/>
<path d="M239.729 56.3174C239.729 56.3174 248.674 54.2316 248.477 42.5025C248.477 42.5025 238.3 46.1662 239.729 56.3174Z" fill="#1D0300"/>
<path d="M247.09 42.5025C247.09 42.5025 246.379 49.8669 256.5 52.1845C268.162 54.8559 268.162 59.7439 268.162 59.7439C268.162 59.7439 271.599 48.0451 262.685 43.3967C253.771 38.749 247.09 42.5025 247.09 42.5025Z" fill="#1D0300"/>
<path d="M294.039 196.527L298.503 206.451C298.751 207.001 299.384 207.263 299.949 207.049C300.521 206.831 300.818 206.201 300.625 205.621L298.97 200.665L294.039 196.527Z" fill="#F48E8E"/>
<path d="M290.62 179.643C288.949 179.489 287.479 180.746 287.374 182.422L287.203 185.138C287.203 185.138 285.565 190.598 288.289 195.37C289.991 198.352 290.604 200.508 290.825 201.705C290.94 202.328 291.478 202.782 292.112 202.764H292.119C292.787 202.745 293.33 202.214 293.35 201.546C293.388 200.252 293.311 198.052 292.599 195.726L301.324 205.807C301.697 206.261 302.383 206.289 302.792 205.867C303.081 205.57 303.152 205.124 302.971 204.75L296.069 190.775C296.069 190.775 294.081 185.308 293.225 181.86C292.921 180.637 291.875 179.759 290.62 179.643Z" fill="#FA9E9E"/>
<path d="M283.137 152.203L293.141 181.634L288.139 184.27L275.532 158.415L283.137 152.203Z" fill="#FA9E9E"/>
<path d="M273.123 94.7253C273.123 94.7253 276.834 94.8645 278.482 106.036C280.13 117.207 281.013 133.914 281.013 133.914L291.388 168.236L277.018 174.782L266.733 128.103L273.123 94.7253Z" fill="white"/>
<path d="M247.782 89.1673L235.22 94.7253L226.272 108.909L237.798 132.321L228.647 178.497L257.522 172.824L263.341 152.779L260.649 112.474L247.782 89.1673Z" fill="white"/>
<path d="M259.154 89.1673L273.123 94.7253L273.185 95.0619C274.86 104.058 274.957 113.278 273.471 122.307L271.037 137.096L281.014 176.366L268.699 172.421L263.342 152.779L260.649 112.474L259.154 89.1673Z" fill="white"/>
<path d="M247.781 89.1673L260.648 112.474L259.153 89.1673H247.781Z" fill="#0055AB"/>
<path d="M260.648 112.474L263.34 152.779" stroke="#B7C8FA" stroke-width="0.9432" stroke-miterlimit="10" stroke-linecap="round" stroke-linejoin="round"/>
<path d="M274.514 108.909C274.514 108.909 276.209 118.527 271.036 137.096L280.238 173.315" stroke="#B7C8FA" stroke-width="0.9432" stroke-miterlimit="10" stroke-linecap="round" stroke-linejoin="round"/>
<path d="M247.561 89.4176L239.229 98.8558L247.03 100.82L245.176 106.916L260.648 112.474" stroke="#B7C8FA" stroke-width="0.9432" stroke-miterlimit="10" stroke-linecap="round" stroke-linejoin="round"/>
<path d="M259.419 89.4176L267.464 96.9859L263.34 99.7072L267.821 104.452L260.648 112.474" stroke="#B7C8FA" stroke-width="0.9432" stroke-miterlimit="10" stroke-linecap="round" stroke-linejoin="round"/>
<path d="M235.221 94.7253C235.221 94.7253 221.778 99.426 198.741 129.701L207.889 142.391L238.193 113.03L235.221 94.7253Z" fill="white"/>
<path d="M227.246 113.394L214.972 158.666L246.373 166.379L258.938 121.841L227.246 113.394Z" fill="#6A7DFA"/>
<path d="M218.895 136.704L240.965 148.224L237.906 154.594L215.95 147.048L218.895 136.704Z" fill="#FA9E9E"/>
<path d="M240.223 146.484C240.223 146.484 255.027 143.784 254.476 149.11C253.925 154.436 251.28 167.011 237.905 154.593L240.223 146.484Z" fill="#FA9E9E"/>
<path d="M238.34 148.312L241.742 144.939C242.896 143.698 244.396 142.834 246.048 142.456L249.106 141.757C249.84 141.589 250.592 141.946 250.927 142.619C251.292 143.355 251.051 144.247 250.367 144.7L245.966 147.611L238.34 148.312Z" fill="#FA9E9E"/>
<path d="M209.004 128.686L230.296 140.926L226.052 152.714L200.919 142.617C196.502 140.443 195.044 134.855 197.835 130.799C200.347 127.148 205.332 126.205 209.004 128.686Z" fill="white"/>
<path d="M217.786 133.531L209.004 128.686" stroke="#B7C8FA" stroke-width="0.9333" stroke-miterlimit="10" stroke-linecap="round" stroke-linejoin="round"/>
<path d="M134.496 288.915H123.818L124.78 307.167H133.888L134.496 288.915Z" fill="#FA9E9E"/>
<path d="M75.639 288.915H88.3663L84.8548 307.516L76.1009 306.909L75.639 288.915Z" fill="#FA9E9E"/>
<path d="M93.4294 148.513C92.4733 158.723 71.5284 301.441 71.5284 301.441H91.3977L113.398 173.826L116.977 173.894L119.294 301.441H138.277C138.277 301.441 139.361 168.475 138.203 148.831L93.4294 148.513Z" fill="#0055AB"/>
<path d="M122.682 173.916H106.748" stroke="#1C0000" stroke-width="0.482" stroke-miterlimit="10" stroke-linecap="round" stroke-linejoin="round"/>
<path d="M125.943 80.6715L133.532 154.531H93.0391L105.544 80.6715H125.943Z" fill="#2F045C"/>
<path d="M125.942 80.6714L115.809 77.1272L105.543 80.6714C105.543 80.6714 105.871 86.0511 115.809 86.0511C125.746 86.0511 125.942 80.6714 125.942 80.6714Z" fill="#FA9E9E"/>
<path d="M105.543 80.6715L101.097 190.679L83.4253 191.462L89.679 87.9627C89.679 87.9627 95.2781 84.2163 105.543 80.6715Z" fill="white"/>
<path d="M105.408 80.9027L96.1462 91.5628L100.845 100.167L96.0986 103.549L103.468 130.125" stroke="#B7C8FA" stroke-width="0.9432" stroke-miterlimit="10" stroke-linecap="round" stroke-linejoin="round"/>
<path d="M125.943 80.6715L127.293 190.679L144.964 191.462L141.807 87.9627C141.807 87.9627 136.208 84.2163 125.943 80.6715Z" fill="white"/>
<path d="M126.144 80.9027L135.406 91.5628L130.707 100.167L135.453 103.549L126.905 130.125" stroke="#B7C8FA" stroke-width="0.9432" stroke-miterlimit="10" stroke-linecap="round" stroke-linejoin="round"/>
<path d="M135.402 84.6776C135.402 84.6776 148.079 86.7188 175.075 123.374L162.373 133.828L137.472 108.431L135.402 84.6776Z" fill="white"/>
<path d="M143.382 104.702L155.287 148.614L126.415 155.549L114.228 112.348L143.382 104.702Z" fill="#6A7DFA"/>
<path d="M153.484 126.657L131.339 134.698L132.441 142.992L155.079 138.762L153.484 126.657Z" fill="#FA9E9E"/>
<path d="M131.339 134.698C131.339 134.698 117.201 129.907 116.971 135.213C116.742 140.52 117.517 153.244 132.441 142.992L131.339 134.698Z" fill="#FA9E9E"/>
<path d="M131.726 135.361L130.072 132.962C129.119 131.577 127.772 130.512 126.205 129.902L123.305 128.773C122.609 128.503 121.819 128.744 121.394 129.357C120.929 130.026 121.036 130.937 121.642 131.48L125.54 134.974L131.726 135.361Z" fill="#FA9E9E"/>
<path d="M164.654 120.891L135.944 130.193L138.601 144.803L170.647 136.802C175.623 135.306 178.113 129.744 175.914 125.036C173.936 120.798 168.91 118.947 164.654 120.891Z" fill="white"/>
<path d="M153.297 124.57L161.168 122.02" stroke="#B7C8FA" stroke-width="0.9432" stroke-miterlimit="10" stroke-linecap="round" stroke-linejoin="round"/>
<path d="M95.7167 84.6776C95.7167 84.6776 85.6215 85.8115 56.0434 123.374L68.7452 133.828L94.4842 107.578L95.7167 84.6776Z" fill="white"/>
<path d="M88.0998 114.088L88.6373 105.903" stroke="#B7C8FA" stroke-width="0.9432" stroke-miterlimit="10" stroke-linecap="round" stroke-linejoin="round"/>
<path d="M81.774 141.765L91.8252 150.703L88.941 162.611L85.6459 154.694L78.794 149.103L81.774 141.765Z" fill="#FA9E9E"/>
<path d="M88.4824 164.458L93.1355 146.034" stroke="#B7C8FA" stroke-width="0.9432" stroke-miterlimit="10" stroke-linecap="round" stroke-linejoin="round"/>
<path d="M68.8381 123.677L87.4053 145.838L79.4393 155.549L56.5233 134.124C53.0814 130.587 53.5796 124.82 57.5769 121.925C61.1753 119.319 66.2018 120.101 68.8381 123.677Z" fill="white"/>
<path d="M73.3809 129.098L68.8389 123.677" stroke="#B7C8FA" stroke-width="0.9432" stroke-miterlimit="10" stroke-linecap="round" stroke-linejoin="round"/>
<path d="M112.522 68.0107C112.522 68.0107 112.398 65.6616 114.795 66.1105C117.191 66.5594 119.576 65.1544 119.543 65.1443C119.3 65.0706 118.381 65.724 120.225 66.1075L122.084 80.662L109.75 80.59L112.522 68.0107Z" fill="#EF9797"/>
<path d="M219.843 252.527C209.695 250.007 199.764 248.394 190.097 247.885C188.189 247.785 185.036 228.732 185.036 228.732C185.036 228.732 181.625 247.719 180.245 247.759C170.49 248.038 161.03 249.556 151.917 252.527L182.492 169.745L219.843 252.527Z" fill="white"/>
<path d="M212.394 166.629L220.49 321.91C220.49 321.91 221.423 328.099 221.918 329.371C224.287 333.032 228.246 341.915 228.117 345.052C228.028 348.399 207.747 351.94 206.939 346.265C206.247 340.142 210.799 331.593 211.044 329.628C211.29 327.663 187.301 195.37 187.301 195.37L187.295 195.296L185.034 168.475L212.394 166.629Z" fill="#F3B6AB"/>
<path d="M220.167 315.714C220.167 315.714 216.426 320.609 212.629 319.735C209.578 319.033 210.7 327.026 210.7 327.026L208.326 313.787L220.167 315.714Z" fill="#F3B6AB"/>
<path d="M204.321 345.048C204.321 346.788 204.321 349.888 204.321 349.888C204.321 349.888 223.052 356.704 231.966 348.164C231.966 348.164 232.097 346.424 231.645 343.878C231.062 340.477 229.46 335.653 225.193 331.526L221.725 327.026C221.725 327.026 221.794 332.482 217.158 332.757C212.523 333.032 210.699 327.026 210.699 327.026L208.446 332.929C208.446 332.929 204.845 341.964 204.365 344.669C204.336 344.827 204.321 344.953 204.321 345.048Z" fill="black"/>
<path d="M204.321 345.048C204.321 346.788 204.321 349.888 204.321 349.888C204.321 349.888 223.052 356.704 231.966 348.164C231.966 348.164 232.097 346.424 231.645 343.878C219.192 351.09 205.195 345.032 204.365 344.669C204.336 344.827 204.321 344.953 204.321 345.048Z" fill="#1C1315"/>
<path d="M203.118 324.708L185.773 201.73V168.493L212.396 166.623L224.283 323.178C224.283 323.178 220.642 326.448 214.642 327.507C209.975 328.33 203.118 324.708 203.118 324.708Z" fill="#0055AB"/>
<path d="M159.687 166.765C159.687 166.765 148.648 328.099 148.153 329.371C145.784 333.032 141.825 341.915 141.954 345.052C142.043 348.399 162.324 351.94 163.132 346.265C163.823 340.142 159.272 331.593 159.027 329.628C158.781 327.663 182.77 195.37 182.77 195.37L182.776 195.296L185.037 168.475L159.687 166.765Z" fill="#F3B6AB"/>
<path d="M161.267 315.687L158.752 331.422C158.752 331.422 158.866 319.475 157.989 319.551C154.728 319.833 148.776 314.121 148.776 314.121L161.267 315.687Z" fill="#F3B6AB"/>
<path d="M165.749 345.048C165.749 346.788 165.749 349.888 165.749 349.888C165.749 349.888 147.018 356.704 138.104 348.164C138.104 348.164 137.973 346.424 138.425 343.878C139.008 340.477 140.61 335.653 144.877 331.526L148.465 326.133C148.465 326.133 148.654 332.378 153.29 332.652C157.925 332.927 159.37 327.026 159.37 327.026L161.624 332.929C161.624 332.929 165.225 341.964 165.705 344.669C165.734 344.827 165.749 344.953 165.749 345.048Z" fill="black"/>
<path d="M165.749 345.048C165.749 346.788 165.749 349.888 165.749 349.888C165.749 349.888 147.018 356.704 138.104 348.164C138.104 348.164 137.973 346.424 138.425 343.878C150.878 351.09 164.875 345.032 165.705 344.669C165.734 344.827 165.749 344.953 165.749 345.048Z" fill="#1C1315"/>
<path d="M184.297 168.493L185.034 201.73L166.951 324.708C160.511 327.631 151.45 327.014 145.887 321.949L158.697 163.189L184.297 168.493Z" fill="#0055AB"/>
<path d="M212.401 153.387L215.155 200.623L155.384 201.667L159.688 153.387H212.401Z" fill="#0055AB"/>
<path d="M185.268 201.042L187.214 167.847" stroke="#1C5777" stroke-miterlimit="10" stroke-linecap="round"/>
<path d="M182.631 167.199C182.631 167.199 181.131 186.518 186.243 186.516" stroke="#1C5777" stroke-miterlimit="10" stroke-linecap="round"/>
<path d="M185.035 166.616C165.227 166.616 158.995 161.97 158.995 161.97L159.761 153.387H208.47L209.041 163.189C209.042 163.189 204.843 166.616 185.035 166.616Z" fill="#855C4E"/>
<path d="M180.648 167.847H191.534V160.001H180.648V167.847Z" fill="#A5A8AA"/>
<path d="M156.328 152.06C156.511 152.238 157.456 157.014 157.879 157.242C161.702 159.297 173.13 161.912 185.034 161.906C197.238 161.9 201.349 162.401 210.913 158.038C211.325 157.85 212.899 153.719 213.396 152.884C213.396 152.884 210.429 129.334 213.317 113.816L214.492 110.521L225.068 80.8814C225.068 80.8814 205.553 61.6851 185.368 59.2474C165.513 62.7833 144.999 80.7607 144.999 80.7607L157.42 113.816C160.309 129.334 156.328 152.06 156.328 152.06Z" fill="#95CFDB"/>
<path d="M186.459 161.895H187.407V111.963H186.459L186.459 161.895Z" fill="#2B99A8"/>
<path d="M176.291 63.6626C176.291 63.6626 178.868 70.8337 186.164 71.2071C193.469 71.5912 195.997 63.4473 195.997 63.4473L195.902 60.5655L195.548 50.2752L186.51 51.7575L177.086 49.9232L176.829 54.3272L176.291 63.6626Z" fill="#FA9E9E"/>
<path opacity="0.5" d="M176.828 54.3278C179.108 59.0392 185.333 68.324 195.828 58.4357L195.548 50.2752L186.509 51.7575L177.085 49.9232L176.828 54.3278Z" fill="#FA9E9E"/>
<path d="M189.957 72.1215C187.358 70.9966 184.761 70.9241 182.162 71.9045L186.033 81.093C187.968 78.336 189.238 75.3316 189.957 72.1215Z" fill="#0055AB"/>
<path d="M179.728 142.271L186.038 151.136L193.023 142.488L187.73 78.2932L184.772 78.0923L179.728 142.271Z" fill="#0055AB"/>
<path d="M202.69 63.4224L195.828 58.4358L186.172 71.2071L176.645 58.4726L169.373 63.4224L177.25 80.2666L186.172 71.2071L194.689 80.2666L202.69 63.4224Z" fill="#C0EAF6"/>
<path d="M199.637 61.0662C200.977 61.9557 203.582 62.9997 204.812 63.8672C218.089 73.2567 225.07 80.882 225.07 80.882L214.494 110.522L213.319 113.816C210.431 129.334 230.231 251.857 230.231 251.857C229.726 252.692 213.714 262.861 202.568 262.839C202.568 262.839 193.409 162.564 193.365 141.655C193.332 129.454 193.596 118.901 194.046 109.83C194.971 77.4526 199.637 61.0662 199.637 61.0662Z" fill="white"/>
<path d="M178.859 108.657C179.309 117.728 179.573 128.281 179.54 140.482C179.496 161.391 166.035 262.839 166.035 262.839C154.888 262.861 140.698 250.534 140.194 249.699C140.194 249.699 162.475 128.16 159.586 112.643L158.411 109.348L145.002 80.7607C145.002 80.7607 154.1 72.7572 166.899 63.6329C167.651 63.0966 168.47 62.6578 169.332 62.3284C170.45 61.9015 171.687 61.4746 172.582 60.8806C172.582 60.8818 177.453 79.4782 178.859 108.657Z" fill="white"/>
<path d="M208.081 81.0907L202.689 73.9529L210.551 75.4684L205.117 64.0848C203.887 63.2173 199.94 61.3415 198.601 60.452C198.601 60.452 194.765 78.0929 194.045 109.83L208.081 81.0907Z" fill="#E5E5E6"/>
<path d="M164.944 79.7892L170.337 72.6508L162.474 74.1664L167.272 64.1157C167.645 63.3327 168.263 62.6923 169.035 62.2969C170.678 61.4562 173.128 60.4502 174.294 60.0584C174.294 60.0584 178.345 75.3341 178.98 108.528L164.944 79.7892Z" fill="#E5E5E6"/>
<path opacity="0.4" d="M193.635 145.089C193.567 145.09 193.498 145.087 193.43 145.089C193.39 143.785 193.367 142.63 193.365 141.655C193.35 135.838 193.403 130.405 193.51 125.318C199.035 124.884 204.549 124.202 210.042 123.472C210.274 123.461 210.771 123.424 211.656 123.347C212.16 123.305 212.665 123.268 213.169 123.231C213.402 128.019 213.929 134.136 214.657 141.084C214.474 141.204 214.299 141.334 214.11 141.446C211.194 143.178 194.885 145.068 193.635 145.089Z" fill="#BABBBF"/>
<path opacity="0.4" d="M179.407 144.754C178.825 144.718 178.244 144.681 177.663 144.632C177.536 144.621 177.236 144.592 176.882 144.557C176.211 144.449 174.932 144.264 174.618 144.206C169.404 143.237 164.298 141.834 159.235 140.269C158.775 140.127 158.316 140.007 157.857 139.897C158.631 133.591 159.224 127.958 159.551 123.394C163.608 124.326 167.775 124.877 171.92 125.298C174.421 125.551 176.923 125.696 179.425 125.758C179.511 130.381 179.554 135.273 179.54 140.483C179.537 141.658 179.49 143.099 179.407 144.754Z" fill="#BABBBF"/>
<path d="M177.799 110.867C177.799 110.867 167.954 110.704 165.893 111.234C162.774 112.222 158.806 116.109 158.135 116.666C156.901 118.116 155.688 122.252 155.877 123.396C155.657 125.087 156.463 126.937 157.972 125.082C159.535 122.08 160.89 118.587 160.89 118.587L164.407 115.786C164.407 115.786 162.156 117.978 161.49 118.911C160.821 119.848 159.46 127.829 160.057 128.778C160.658 129.73 162.728 128.707 162.968 126.779C162.968 126.779 162.925 128.672 163.523 129.064C164.122 129.457 164.841 129.08 165.453 126.573C165.453 126.573 166.005 128.049 166.792 128.028C168.415 127.752 168.87 122.452 169.183 122.099C169.496 121.746 174.584 123.495 177.229 117.573C180.301 112.523 177.799 110.867 177.799 110.867Z" fill="#FA9E9E"/>
<path d="M162.967 126.78C162.944 125.708 163.086 124.662 163.241 123.624C163.444 122.604 163.638 121.566 164.102 120.634C163.77 122.678 163.513 124.724 162.967 126.78Z" fill="#FA9E9E"/>
<path d="M165.454 126.574C165.438 125.694 165.589 124.843 165.753 124.001C165.961 123.177 166.178 122.34 166.616 121.61C166.303 123.284 166.004 124.927 165.454 126.574Z" fill="#FA9E9E"/>
<path d="M159.548 137.34C159.824 137.297 160.091 137.238 160.367 137.18C168.46 135.444 204.497 122.507 204.497 122.507L204.374 120.485L204.113 116.184L198.82 115.332C198.82 115.332 186.717 116.385 169.138 119.893C167.859 120.033 166.625 120.211 165.428 120.427C157.267 121.893 151.004 124.968 148.008 128.146C146.956 129.257 146.308 130.378 146.126 131.437C145.339 135.948 151.708 138.757 159.548 137.34Z" fill="#F3B6AB"/>
<path d="M230.703 95.506C229.441 111.549 227.678 117.677 219.547 134.412C216.042 135.871 209.656 133.62 206.898 126.93C208.504 118.407 209.748 107.741 212.262 98.75C217.16 85.2788 225.069 80.882 225.069 80.882C225.069 80.882 230.492 87.0292 230.703 95.506Z" fill="#F3B6AB"/>
<path d="M171.647 110.844L177.997 110.851C177.997 110.851 187.215 113.304 202.195 118.647C213.357 121.436 220.385 127.726 220.237 132.177C220.087 136.729 213.588 138.745 206.719 136.216C199.903 133.707 170.428 116.508 170.428 116.508L171.647 110.844Z" fill="#F3B6AB"/>
<path d="M225.963 139.836C227.145 139.039 229.885 111.062 231.127 95.0619C230.905 86.6065 225.07 80.882 225.07 80.882C225.07 80.882 217.177 84.736 212.288 98.1644C210.351 105.082 208.71 112.818 207.525 119.98" fill="white"/>
<path opacity="0.4" d="M215.155 88.9147C215.155 88.9147 211.74 118.154 214.696 121.611C217.652 125.066 217.126 127.997 217.126 127.997L207.524 119.175L215.155 88.9147Z" fill="#CFD0D2"/>
<path d="M196.089 120.746C196.089 120.746 199.431 110.454 200.704 108.455C202.822 105.522 208.303 102.874 209.113 102.392C211.039 101.681 215.719 102.064 216.829 102.709C218.616 103.143 220.227 104.684 217.882 105.519C214.315 105.977 210.243 106.035 210.243 106.035L205.621 108.965C205.621 108.965 209.192 107.125 210.389 106.788C211.587 106.452 220.182 108.085 220.944 109.05C221.706 110.014 220.039 111.751 218.024 111.29C218.024 111.29 219.942 111.94 220.149 112.694C220.354 113.448 219.751 114.047 217.032 113.77C217.032 113.77 218.351 114.869 218.082 115.67C217.293 117.239 211.996 115.97 211.527 116.169C211.059 116.367 210.96 122.141 203.834 122.862C197.301 124.374 196.089 120.746 196.089 120.746Z" fill="#FA9E9E"/>
<path opacity="0.5" d="M209.872 115.04C210.261 115.113 214.713 116.367 218.083 115.67C217.248 117.309 211.965 115.981 211.528 116.169C210.666 116.76 211.378 121.632 204.493 122.507C202.062 123.114 196.929 120.035 195.782 119.677C205.659 119.75 208.003 121.421 209.872 115.04Z" fill="#FA9E9E"/>
<path opacity="0.5" d="M218.149 111.163C217.126 110.794 216.076 110.577 215.026 110.371C213.975 110.215 212.903 110.042 211.852 110.144C213.956 110.527 216.019 110.973 218.149 111.163Z" fill="#FA9E9E"/>
<path opacity="0.5" d="M216.934 113.591C216.085 113.292 215.216 113.15 214.346 113.022C213.479 112.939 212.592 112.859 211.743 113.013C213.486 113.28 215.181 113.547 216.934 113.591Z" fill="#FA9E9E"/>
<path d="M159.95 120.886C162.361 120.136 165.319 119.405 169.009 118.703C186.538 115.223 198.189 113.479 198.189 113.479C202.047 116.971 203.616 125.497 204.075 130.938C204.075 130.938 147.643 143.634 146.263 143.164" fill="white"/>
<path d="M137.836 95.459C137.998 112.014 144.884 142.695 146.261 143.161L160.781 120.631C160.771 120.53 160.76 120.429 160.75 120.328C160.042 113.149 158.583 105.483 157.085 98.5573C156.66 97.15 156.194 95.8437 155.708 94.6385C151.404 84.0569 145.005 80.7565 145.005 80.7565C145.005 80.7565 138.697 86.7105 137.836 95.459Z" fill="white"/>
<path opacity="0.4" d="M150.862 137.709C153.52 140.191 173.645 134.837 204.075 130.938C204.075 130.938 147.642 143.634 146.263 143.164C144.885 142.696 137.993 112.014 137.836 95.4638C136.516 98.7589 148.619 138.411 150.862 137.709Z" fill="#CFD0D2"/>
<path d="M225.963 139.836C216.554 144.096 167.345 119.032 167.345 119.032C168.131 113.83 170.781 111.564 174.537 110.357C174.537 110.357 180.604 110.215 198.888 116.741C202.249 117.941 210.013 120.545 212.785 122.942C215.555 125.34 225.963 139.836 225.963 139.836Z" fill="white"/>
<path opacity="0.4" d="M224.284 130.261C229.174 116.832 230.906 86.6066 231.127 95.062C229.885 111.062 227.145 139.039 225.963 139.836C216.554 144.096 167.345 119.032 167.345 119.032C171.202 116.958 220.883 140.639 224.284 130.261Z" fill="#CFD0D2"/>
<path opacity="0.4" d="M149.723 129.586C149.263 129.278 157.611 120.754 160.781 120.631C160.072 113.453 158.583 105.483 157.085 98.5579C156.66 97.1506 156.193 95.8443 155.708 94.6391C156.012 104.602 159.472 118.691 157.655 119.321C151.043 121.611 149.723 129.586 149.723 129.586Z" fill="#CFD0D2"/>
<path d="M176.289 37.1335C176.374 40.5552 173.669 43.3979 170.247 43.4823C166.825 43.5667 163.982 40.8615 163.898 37.4397C163.814 34.018 166.519 31.1753 169.941 31.0909C173.362 31.0065 176.204 33.7117 176.289 37.1335Z" fill="#FA9E9E"/>
<path d="M166.577 36.4033C166.577 36.4033 169.046 35.2118 171.38 39.5016" stroke="#1C0000" stroke-width="0.482" stroke-miterlimit="10" stroke-linecap="round" stroke-linejoin="round"/>
<path d="M198.916 37.3891C198.904 40.8121 201.669 43.5965 205.092 43.6089C208.515 43.6208 211.299 40.8561 211.312 37.4332C211.324 34.0102 208.559 31.2253 205.136 31.2134C201.712 31.2015 198.928 33.9662 198.916 37.3891Z" fill="#FA9E9E"/>
<path d="M208.609 36.4534C208.609 36.4534 206.115 35.3141 203.873 39.6527" stroke="#1C0000" stroke-width="0.482" stroke-miterlimit="10" stroke-linecap="round" stroke-linejoin="round"/>
<path d="M174.378 9.78325C174.378 9.78325 179.185 -2.53567 193.945 0.47345C217.743 5.32515 205.948 31.3834 205.948 31.3834L203.955 21.5118L194.168 15.4037L174.378 9.78325Z" fill="#1D0300"/>
<path d="M176.986 8.201C176.986 8.201 170.805 6.14201 166.577 12.7625C160.294 22.6027 172.991 39.2209 172.991 39.2209L176.986 8.201Z" fill="#1D0300"/>
<path d="M206.368 30.4875C208.875 19.9664 202.378 9.40507 191.857 6.89809C181.336 4.39112 170.775 10.8878 168.268 21.4089C165.761 31.93 172.258 42.4914 182.779 44.9984C193.3 47.5053 203.861 41.0086 206.368 30.4875Z" fill="#1D0300"/>
<path d="M204.376 26.6191C204.387 33.6249 203.395 39.6717 202.403 43.9639C201.43 48.1663 198.683 51.1059 194.797 53.4753L194.09 53.9069C189.978 56.4136 184.662 56.4796 180.48 54.077C176.262 51.6535 173.307 48.4541 172.392 43.9479C170.729 35.7511 170.606 28.5533 170.606 28.5533C170.606 28.5533 168.219 8.03225 186.473 8.02868C206.242 8.02452 204.376 26.6191 204.376 26.6191Z" fill="#FA9E9E"/>
<path d="M181.035 33.2308C181.032 34.0465 180.369 34.7053 179.553 34.7029C178.737 34.6999 178.078 34.0364 178.081 33.2207C178.084 32.4049 178.747 31.7461 179.563 31.7485C180.379 31.7515 181.038 32.415 181.035 33.2308Z" fill="#1C0000"/>
<path d="M195.527 33.282C195.524 34.0977 194.861 34.7565 194.045 34.7541C193.229 34.7511 192.571 34.0876 192.573 33.2718C192.576 32.4561 193.24 31.7973 194.055 31.8003C194.871 31.8027 195.53 32.4662 195.527 33.282Z" fill="#1C0000"/>
<path d="M186.139 35.6399L185.958 39.4791L188.075 39.4868" stroke="#1C0000" stroke-width="0.482" stroke-miterlimit="10" stroke-linecap="round" stroke-linejoin="round"/>
<path d="M190.534 22.6557C190.534 22.6557 190.1 24.2462 192.572 24.2807C194.45 24.3068 196.738 24.795 197.819 25.0257C198.433 25.1565 199.093 24.9181 199.384 24.4644C199.619 24.0982 199.568 23.6647 199.238 23.3621C198.572 22.7491 196.103 21.3411 193.82 21.2846C190.887 21.2127 190.534 22.6557 190.534 22.6557Z" fill="#1C0000"/>
<path d="M182.984 22.6943C182.984 22.6943 183.418 24.2848 180.945 24.3193C179.068 24.3454 176.78 24.8336 175.698 25.0643C175.084 25.1951 174.424 24.9567 174.133 24.503C173.898 24.1368 173.95 23.7033 174.278 23.4007C174.945 22.7877 177.414 21.3791 179.697 21.3232C182.63 21.2513 182.984 22.6943 182.984 22.6943Z" fill="#1C0000"/>
<path d="M182.078 43.0346C182.078 43.0346 184.261 45.7031 189.39 44.1667" stroke="#1C0000" stroke-width="0.482" stroke-miterlimit="10" stroke-linecap="round" stroke-linejoin="round"/>
<path d="M178.016 40.8336C181.993 40.8336 185.217 37.6096 185.217 33.6327C185.217 29.6558 181.993 26.4318 178.016 26.4318C174.039 26.4318 170.815 29.6558 170.815 33.6327C170.815 37.6096 174.039 40.8336 178.016 40.8336Z" stroke="white" stroke-width="0.8232" stroke-miterlimit="10"/>
<path d="M196.015 40.8336C199.992 40.8336 203.216 37.6096 203.216 33.6327C203.216 29.6558 199.992 26.4318 196.015 26.4318C192.038 26.4318 188.814 29.6558 188.814 33.6327C188.814 37.6096 192.038 40.8336 196.015 40.8336Z" stroke="white" stroke-width="0.8232" stroke-miterlimit="10"/>
<path d="M188.815 33.6327H185.217" stroke="white" stroke-width="0.8232" stroke-miterlimit="10"/>
<path d="M175.893 8.5097C175.893 8.5097 174.375 18.4206 186.568 21.067C186.568 21.067 185.815 18.7446 186.568 16.4567C186.568 16.4567 188.715 24.264 205.176 22.1759C205.176 22.1759 200.69 -0.60566 175.893 8.5097Z" fill="#1D0300"/>
<path d="M176.452 11.1377C176.452 11.1377 175.712 20.4219 169.536 24.5393C169.536 24.5393 169.127 11.9755 176.452 11.1377Z" fill="#1D0300"/>
<path d="M126.957 61.952C126.957 61.952 128.586 60.4971 130.215 61.603C131.844 62.7083 131.262 68.2943 126.957 68.0029" fill="#EF9696"/>
<path d="M126.957 61.952C126.957 61.952 128.586 60.4971 130.215 61.603C131.844 62.7083 131.262 68.2943 126.957 68.0029" fill="#EF9696"/>
<path d="M105.228 61.952C105.228 61.952 103.599 60.4971 101.97 61.603C100.341 62.7083 100.923 68.2943 105.228 68.0029" fill="#EF9696"/>
<path d="M105.228 61.952C105.228 61.952 103.599 60.4971 101.97 61.603C100.341 62.7083 100.923 68.2943 105.228 68.0029" fill="#EF9696"/>
<path d="M127.374 53.0293C125.57 45.3492 116.261 46.5711 116.261 46.5711C116.261 46.5711 106.952 45.3492 105.148 53.0293C105.148 53.0293 103.228 61.757 104.624 66.5278C106.02 71.2987 110.501 77.5827 116.261 77.5827C122.021 77.5827 126.501 71.2987 127.898 66.5278C129.294 61.7564 127.374 53.0293 127.374 53.0293Z" fill="#FA9E9E"/>
<path d="M117.391 60.5346H115.589C115.589 60.5346 113.687 66.7383 114.238 67.6111C114.788 68.4839 115.884 68.6581 116.491 68.6581C117.097 68.6581 118.193 68.4834 118.744 67.6111C119.294 66.7389 117.391 60.5346 117.391 60.5346Z" fill="url(#paint0_linear_2_1605)"/>
<path d="M118.832 67.299C118.815 67.4352 118.787 67.5434 118.744 67.61C118.193 68.4828 117.097 68.657 116.489 68.657C115.885 68.657 114.789 68.4822 114.238 67.61C114.195 67.5434 114.168 67.4352 114.15 67.299C114.817 68.0393 115.875 68.1963 116.489 68.1963C117.107 68.1963 118.165 68.0393 118.832 67.299Z" fill="url(#paint1_linear_2_1605)"/>
<path d="M108.611 59.5845C108.611 59.5845 111.565 58.0107 112.714 58.4192C113.864 58.8276 113.103 59.6987 112.619 59.8182C112.135 59.9383 110.019 59.902 109.351 59.9258C108.684 59.9502 108.231 59.776 108.611 59.5845Z" fill="#1D0300"/>
<path d="M112.953 62.8748C112.953 62.8748 110.544 64.2156 108.697 62.1869C108.697 62.1869 108.701 62.1833 108.708 62.1732C108.775 62.065 109.236 61.3563 109.895 61.0037C110.098 60.8955 110.318 60.8081 110.565 60.7593C110.841 60.6999 111.148 60.6862 111.487 60.735C111.633 60.7558 111.798 60.7944 111.962 60.8569C112.161 60.9336 112.356 61.0489 112.524 61.2237C112.824 61.5382 113.023 62.0478 112.953 62.8748Z" fill="white"/>
<path d="M112.603 61.8355C112.536 62.6323 111.835 63.2251 111.038 63.1579C110.238 63.0907 109.645 62.3897 109.712 61.5929C109.73 61.3771 109.796 61.1761 109.894 61.0019C110.324 60.7718 110.849 60.6405 111.486 60.7362C111.811 60.7843 112.219 60.9027 112.524 61.2225C112.593 61.411 112.621 61.6197 112.603 61.8355Z" fill="#5ADAE0"/>
<path d="M112.128 61.3878C112.128 61.8873 111.724 62.2957 111.221 62.2957C110.721 62.2957 110.313 61.8873 110.313 61.3878C110.313 61.1434 110.407 60.9234 110.564 60.7593C110.84 60.6999 111.147 60.6862 111.486 60.735C111.633 60.7558 111.797 60.7944 111.961 60.8569C112.066 61.0073 112.128 61.1886 112.128 61.3878Z" fill="url(#paint2_linear_2_1605)"/>
<path d="M112.603 61.8355C112.536 62.6323 111.835 63.2251 111.038 63.1579C110.238 63.0907 109.645 62.3897 109.712 61.5929C109.73 61.3771 109.796 61.1761 109.894 61.0019C110.324 60.7718 110.849 60.6405 111.486 60.7362C111.811 60.7843 112.219 60.9027 112.524 61.2225C112.593 61.411 112.621 61.6197 112.603 61.8355Z" fill="#1D0300"/>
<path d="M110.371 62.0347C110.519 62.0347 110.638 61.9152 110.638 61.7678C110.638 61.6203 110.519 61.5008 110.371 61.5008C110.224 61.5008 110.104 61.6203 110.104 61.7678C110.104 61.9152 110.224 62.0347 110.371 62.0347Z" fill="white"/>
<path d="M112.952 62.8748C112.872 61.185 111.998 61.0524 111.388 60.9858C109.901 60.8235 108.829 62.0329 108.707 62.1726C108.774 62.0644 109.235 61.3557 109.894 61.0031C110.097 60.8949 110.317 60.8075 110.564 60.7587C110.84 60.6993 111.147 60.6856 111.486 60.7344C111.633 60.7552 111.797 60.7938 111.961 60.8562C112.16 60.9329 112.356 61.0483 112.523 61.2231C112.823 61.5382 113.022 62.0478 112.952 62.8748Z" fill="#5C0403"/>
<path d="M124.449 59.6559C124.449 59.6559 121.549 57.9833 120.387 58.3525C119.225 58.7224 119.956 59.6178 120.435 59.7539C120.914 59.8901 123.031 59.9258 123.697 59.9722C124.364 60.0185 124.822 59.8598 124.449 59.6559Z" fill="#1D0300"/>
<path d="M119.727 62.8748C119.727 62.8748 122.135 64.2156 123.982 62.1869C123.982 62.1869 123.979 62.1833 123.971 62.1732C123.905 62.065 123.444 61.3563 122.785 61.0037C122.583 60.8955 122.363 60.8081 122.115 60.7593C121.839 60.6999 121.532 60.6862 121.193 60.735C121.046 60.7558 120.882 60.7944 120.718 60.8569C120.519 60.9336 120.324 61.0489 120.156 61.2237C119.856 61.5382 119.657 62.0478 119.727 62.8748Z" fill="white"/>
<path d="M120.076 61.8355C120.143 62.6323 120.845 63.2251 121.641 63.1579C122.442 63.0907 123.034 62.3897 122.967 61.5929C122.949 61.3771 122.883 61.1761 122.785 61.0019C122.355 60.7718 121.83 60.6405 121.193 60.7362C120.868 60.7843 120.461 60.9027 120.155 61.2225C120.086 61.411 120.058 61.6197 120.076 61.8355Z" fill="#5ADAE0"/>
<path d="M120.551 61.3878C120.551 61.8873 120.956 62.2957 121.459 62.2957C121.958 62.2957 122.366 61.8873 122.366 61.3878C122.366 61.1434 122.272 60.9234 122.115 60.7593C121.839 60.6999 121.532 60.6862 121.193 60.735C121.047 60.7558 120.882 60.7944 120.718 60.8569C120.614 61.0073 120.551 61.1886 120.551 61.3878Z" fill="url(#paint3_linear_2_1605)"/>
<path d="M120.076 61.8355C120.143 62.6323 120.845 63.2251 121.641 63.1579C122.442 63.0907 123.034 62.3897 122.967 61.5929C122.949 61.3771 122.883 61.1761 122.785 61.0019C122.355 60.7718 121.83 60.6405 121.193 60.7362C120.868 60.7843 120.461 60.9027 120.155 61.2225C120.086 61.411 120.058 61.6197 120.076 61.8355Z" fill="#1D0300"/>
<path d="M122.04 61.7678C122.04 61.9152 122.159 62.0347 122.307 62.0347C122.454 62.0347 122.574 61.9152 122.574 61.7678C122.574 61.6203 122.455 61.5008 122.307 61.5008C122.16 61.5002 122.04 61.6203 122.04 61.7678Z" fill="white"/>
<path d="M119.727 62.8748C119.807 61.185 120.681 61.0524 121.291 60.9858C122.778 60.8235 123.85 62.0329 123.971 62.1726C123.905 62.0644 123.444 61.3557 122.785 61.0031C122.583 60.8949 122.363 60.8075 122.115 60.7587C121.839 60.6993 121.532 60.6856 121.193 60.7344C121.046 60.7552 120.882 60.7938 120.718 60.8562C120.519 60.9329 120.324 61.0483 120.156 61.2231C119.856 61.5382 119.657 62.0478 119.727 62.8748Z" fill="#5C0403"/>
<path d="M108.509 66.0623C109.827 66.0623 110.895 65.7083 110.895 65.2715C110.895 64.8348 109.827 64.4807 108.509 64.4807C107.192 64.4807 106.124 64.8348 106.124 65.2715C106.124 65.7083 107.192 66.0623 108.509 66.0623Z" fill="#F48D8D"/>
<path d="M121.598 65.2715C121.598 65.7085 122.665 66.0623 123.983 66.0623C125.301 66.0623 126.368 65.7079 126.368 65.2715C126.368 64.8345 125.301 64.4807 123.983 64.4807C122.666 64.4801 121.598 64.8345 121.598 65.2715Z" fill="#F48D8D"/>
<path d="M102.181 52.8545C102.181 52.8545 101.7 60.2462 104.127 62.8623C104.127 62.8623 104.236 61.6767 104.356 59.7569C104.509 57.3132 105.098 54.6947 105.905 53.524C107.11 51.7754 102.181 52.8545 102.181 52.8545Z" fill="#1D0300"/>
<path d="M130.345 52.8545C130.345 52.8545 130.826 60.2462 128.399 62.8623C128.399 62.8623 128.29 61.6767 128.17 59.7569C128.018 57.3132 127.428 54.6947 126.621 53.524C125.416 51.7754 130.345 52.8545 130.345 52.8545Z" fill="#1D0300"/>
<path d="M130.318 56.375C128.178 57.3352 126.621 53.5228 126.621 53.5228C124.837 52.9681 123.825 52.8283 123.158 51.7843C122.791 52.2415 122.344 52.6256 121.803 52.87V52.8735C121.803 52.8735 119.492 53.9907 117.66 54.2523C116.291 54.448 116.124 53.8789 116.124 53.5823C114.846 54.1441 113.621 54.5633 112.755 54.6751C111.404 54.8499 111.624 54.0782 111.624 54.0782C111.624 54.0782 109.529 55.3731 107.693 55.7923C105.864 56.215 106.388 55.0663 106.388 55.0663C106.388 55.0663 102.324 56.4207 101.626 55.1537C101.472 54.8778 101.472 54.5704 101.553 54.2601C101.085 54.3124 100.683 54.2565 100.467 54.005C99.9396 53.3908 100.428 52.5703 101.025 51.9175C100.516 49.7425 103.127 46.5027 104.918 45.0573C105.749 44.3872 106.59 43.804 107.435 43.3016C111.296 40.994 115.213 40.2746 118.166 40.1699C121.221 40.0582 123.906 40.8858 124.973 43.5459C132.175 44.8088 130.318 56.375 130.318 56.375Z" fill="#1D0300"/>
<path opacity="0.5" d="M124.973 43.5453C124.973 43.5453 125.782 48.6075 123.158 51.7843C122.792 52.2415 122.345 52.6256 121.803 52.8699V52.8735C121.803 52.8735 119.492 53.9907 117.66 54.2523C116.291 54.4479 116.124 53.8789 116.124 53.5822C114.846 54.1441 113.621 54.5633 112.755 54.6751L107.435 43.3015C111.296 40.994 115.213 40.2746 118.166 40.1699C121.22 40.0575 123.905 40.8852 124.973 43.5453Z" fill="#1D0300"/>
<path d="M111.755 70.6822C111.755 70.6822 116.445 74.1741 121.227 70.6822C121.227 70.6822 117.154 72.234 112.478 70.6822C111.942 70.505 111.582 70.5288 111.755 70.6822Z" fill="#F47878"/>
<path d="M134.15 304.914L137.728 323.818C138.039 325.756 137.206 327.702 135.595 328.773C132.304 330.961 126.718 333.384 123.817 327.28L124.685 305.388L134.15 304.914Z" fill="black"/>
<path d="M137.274 320.985L123.843 322.342V326.133C123.843 326.133 132.994 326.998 137.793 324.215L137.274 320.985Z" fill="#0F0F0F"/>
<path d="M75.7964 306.342L72.2177 325.246C71.9067 327.185 72.7397 329.13 74.3504 330.201C77.6413 332.389 83.2273 334.812 86.1282 328.709L85.2602 306.816L75.7964 306.342Z" fill="black"/>
<path d="M72.6724 322.413L86.1037 323.771V327.561C86.1037 327.561 76.9521 328.426 72.1533 325.643L72.6724 322.413Z" fill="#0F0F0F"/>
<path d="M63.2094 312.884C60.4297 313.489 57.6436 313.77 54.8342 313.733C54.4609 313.728 54.5477 313.295 54.9217 313.3C57.6828 313.336 60.4101 313.056 63.1398 312.461C63.5102 312.38 63.5774 312.804 63.2094 312.884Z" fill="#483757"/>
<defs>
<linearGradient id="paint0_linear_2_1605" x1="116.491" y1="68.6587" x2="116.491" y2="60.2757" gradientUnits="userSpaceOnUse">
<stop stop-color="#FA5F5F"/>
<stop offset="1" stop-color="#FFA98A" stop-opacity="0"/>
</linearGradient>
<linearGradient id="paint1_linear_2_1605" x1="114.15" y1="67.9783" x2="118.832" y2="67.9783" gradientUnits="userSpaceOnUse">
<stop stop-color="#FA5F5F"/>
<stop offset="1" stop-color="#FFA98A" stop-opacity="0"/>
</linearGradient>
<linearGradient id="paint2_linear_2_1605" x1="110.313" y1="61.5004" x2="112.129" y2="61.5004" gradientUnits="userSpaceOnUse">
<stop stop-color="#2480C2"/>
<stop offset="1" stop-color="#2480C2" stop-opacity="0"/>
</linearGradient>
<linearGradient id="paint3_linear_2_1605" x1="122.366" y1="61.5004" x2="120.551" y2="61.5004" gradientUnits="userSpaceOnUse">
<stop stop-color="#2480C2"/>
<stop offset="1" stop-color="#2480C2" stop-opacity="0"/>
</linearGradient>
</defs>
</svg>
