<svg width="370" height="16" viewBox="0 0 370 16" fill="none" xmlns="http://www.w3.org/2000/svg">
<path d="M101.472 14.407L114.931 2.72859C116.815 1.09422 119.614 1.09422 121.497 2.72859L131.673 11.5583C133.557 13.1927 136.356 13.1927 138.239 11.5583L148.415 2.7286C150.299 1.09423 153.098 1.09422 154.981 2.7286L165.157 11.5583C167.041 13.1927 169.839 13.1927 171.723 11.5583L181.899 2.7286C183.783 1.09423 186.581 1.09423 188.465 2.7286L198.641 11.5583C200.524 13.1927 203.323 13.1927 205.207 11.5583L215.383 2.7286C217.266 1.09423 220.065 1.09423 221.949 2.7286L232.125 11.5583C234.008 13.1927 236.807 13.1927 238.691 11.5583L248.867 2.7286C250.75 1.09423 253.549 1.09423 255.433 2.72861L265.609 11.5583C267.492 13.1927 270.291 13.1927 272.175 11.5583L282.351 2.72861C284.234 1.09424 287.033 1.09424 288.917 2.7286L299.093 11.5583C300.976 13.1927 303.775 13.1927 305.659 11.5583L315.835 2.72861C317.718 1.09424 320.517 1.09424 322.401 2.72861L332.576 11.5583C334.46 13.1927 337.259 13.1927 339.143 11.5583L349.318 2.72861C351.202 1.09424 354.001 1.09424 355.884 2.72862L369.343 14.407M0.656619 13.906L14.1156 2.22765C15.9991 0.59328 18.798 0.59328 20.6816 2.22765L30.8575 11.0574C32.7411 12.6917 35.54 12.6917 37.4235 11.0574L47.5995 2.22765C49.483 0.593283 52.2819 0.593283 54.1655 2.22765L64.3414 11.0574C66.225 12.6917 69.0238 12.6917 70.9074 11.0574L81.0833 2.22766C82.9669 0.593286 85.7658 0.593285 87.6494 2.22766L101.108 13.906" stroke="#FF8412" stroke-width="2"/>
</svg>
